# Blender 4.5.2 LTS
# www.blender.org
mtllib bat.mtl
o bat_grey_Cube.001
v 0.418690 2.159160 0.316697
v 0.470371 -0.042651 -0.406715
v 0.470371 -0.042651 0.406715
v 0.418690 2.159160 -0.316697
v 0.686272 0.336988 0.101694
v 0.614716 2.019964 0.101694
v 0.686272 0.336988 -0.101694
v 0.614716 2.019964 -0.101694
v 0.568091 0.004475 -0.032419
v 0.568091 0.004475 0.032419
v 0.806396 0.085765 0.026450
v 0.806396 0.085765 -0.026450
v 0.500000 1.078552 -0.615871
v 0.500000 1.078552 0.615871
v 0.867682 1.139757 -0.101694
v 0.867682 1.139757 0.101694
v 1.372939 0.267620 0.050189
v 1.194366 2.223737 0.050189
v 1.372939 0.267620 -0.050189
v 1.194366 2.223737 -0.050189
v 1.283653 1.245678 -0.133093
v 1.283653 1.245678 0.133093
v 1.964662 0.186454 0.050189
v 1.807464 2.604296 0.050189
v 1.964662 0.186454 -0.050189
v 1.807464 2.604296 -0.050189
v 1.854563 1.392499 -0.179974
v 1.854563 1.392499 0.179974
v 2.466973 0.429611 0.050189
v 2.287569 2.394825 0.050189
v 2.466973 0.429611 -0.050189
v 2.287569 2.394825 -0.050189
v 2.384865 1.329028 -0.100401
v 2.384865 1.329028 0.100401
v 3.272040 0.697454 0.056363
v 2.789128 1.935548 0.056363
v 3.272040 0.697454 -0.056363
v 2.789128 1.935548 -0.056363
v 2.951072 1.380717 -0.056363
v 2.951072 1.380717 0.056363
v 1.942115 2.545547 -0.024748
v 1.942115 2.545547 0.024748
v 2.152919 2.453573 -0.024748
v 2.152919 2.453573 0.024748
v 2.077675 2.725481 -0.024748
v 2.077675 2.725481 0.024748
v 2.149201 2.620791 -0.024748
v 2.149201 2.620791 0.024748
v 2.211493 2.773598 -0.024748
v 2.211493 2.773598 0.024748
v 2.259726 2.758945 -0.024748
v 2.259726 2.758945 0.024748
v 0.845440 -0.255294 -0.052670
v 0.845440 -0.255294 0.052670
v 0.948446 -0.112555 0.049098
v 0.948446 -0.112555 -0.049098
v 0.699417 -0.238814 0.058990
v 0.923282 0.033911 0.053029
v 0.699417 -0.238814 -0.058990
v 0.923282 0.033911 -0.053029
v 1.013001 -0.272722 0.000000
v 1.050409 -0.020372 0.000000
v 0.754270 -0.363127 0.000000
v 0.535890 2.938461 -0.284700
v 0.535890 2.938461 0.284700
v 0.591326 2.548810 0.406715
v 0.591326 2.548810 -0.406715
v 0.547396 2.865924 -0.166519
v 0.547396 2.865924 0.166519
v 0.579820 2.593794 0.167499
v 0.579820 2.593794 -0.167499
v 0.666499 3.324222 -0.069161
v 0.666499 3.324222 0.069161
v 0.714421 2.771601 0.237884
v 0.714421 2.771601 -0.237884
v 0.395955 2.752149 0.476465
v 0.230524 2.823541 0.459045
v 0.372562 2.649123 0.519771
v 0.150174 2.674516 0.576711
v 0.190349 2.749028 0.517878
v -0.418690 2.159160 0.316697
v -0.470371 -0.042651 -0.406715
v -0.470371 -0.042651 0.406715
v -0.418690 2.159160 -0.316697
v -0.686272 0.336988 0.101694
v -0.614716 2.019964 0.101694
v -0.686272 0.336988 -0.101694
v -0.614716 2.019964 -0.101694
v 0.000000 -0.094368 -0.503028
v 0.000000 2.159160 -0.533407
v 0.000000 -0.094368 0.503028
v 0.000000 2.159160 0.533407
v -0.568091 0.004475 -0.032419
v -0.568091 0.004475 0.032419
v -0.806396 0.085765 0.026450
v -0.806396 0.085765 -0.026450
v 0.000000 -0.241614 -0.060506
v 0.000000 -0.241614 0.060506
v -0.500000 1.078552 -0.615871
v -0.500000 1.078552 0.615871
v -0.867682 1.139757 -0.101694
v -0.867682 1.139757 0.101694
v 0.000000 0.988093 0.717629
v 0.000000 0.988093 -0.717629
v -1.372939 0.267620 0.050189
v -1.194366 2.223737 0.050189
v -1.372939 0.267620 -0.050189
v -1.194366 2.223737 -0.050189
v -1.283653 1.245678 -0.133093
v -1.283653 1.245678 0.133093
v -1.964662 0.186454 0.050189
v -1.807464 2.604296 0.050189
v -1.964662 0.186454 -0.050189
v -1.807464 2.604296 -0.050189
v -1.854563 1.392499 -0.179974
v -1.854563 1.392499 0.179974
v -2.466973 0.429611 0.050189
v -2.287569 2.394825 0.050189
v -2.466973 0.429611 -0.050189
v -2.287569 2.394825 -0.050189
v -2.384865 1.329028 -0.100401
v -2.384865 1.329028 0.100401
v -3.272040 0.697454 0.056363
v -2.789128 1.935548 0.056363
v -3.272040 0.697454 -0.056363
v -2.789128 1.935548 -0.056363
v -2.951072 1.380717 -0.056363
v -2.951072 1.380717 0.056363
v -1.942115 2.545547 -0.024748
v -1.942115 2.545547 0.024748
v -2.152919 2.453573 -0.024748
v -2.152919 2.453573 0.024748
v -2.077675 2.725481 -0.024748
v -2.077675 2.725481 0.024748
v -2.149201 2.620791 -0.024748
v -2.149201 2.620791 0.024748
v -2.211493 2.773598 -0.024748
v -2.211493 2.773598 0.024748
v -2.259726 2.758945 -0.024748
v -2.259726 2.758945 0.024748
v -0.845440 -0.255294 -0.052670
v -0.845440 -0.255294 0.052670
v -0.948446 -0.112555 0.049098
v -0.948446 -0.112555 -0.049098
v -0.699417 -0.238814 0.058990
v -0.923282 0.033911 0.053029
v -0.699417 -0.238814 -0.058990
v -0.923282 0.033911 -0.053029
v -1.013001 -0.272722 0.000000
v -1.050409 -0.020372 0.000000
v -0.754270 -0.363127 0.000000
v -0.535890 2.938461 -0.284700
v -0.535890 2.938461 0.284700
v 0.000000 3.061242 -0.398575
v 0.000000 3.061242 0.398575
v -0.591326 2.548810 0.406715
v 0.000000 2.582624 0.774666
v -0.591326 2.548810 -0.406715
v 0.000000 2.635140 -0.624280
v -0.547396 2.865924 -0.166519
v -0.547396 2.865924 0.166519
v -0.579820 2.593794 0.167499
v -0.579820 2.593794 -0.167499
v -0.666499 3.324222 -0.069161
v -0.666499 3.324222 0.069161
v -0.714421 2.771601 0.237884
v -0.714421 2.771601 -0.237884
v -0.395955 2.752149 0.476465
v -0.230524 2.823541 0.459045
v -0.372562 2.649123 0.519771
v -0.150174 2.674516 0.576711
v 0.000000 2.821933 0.586621
v -0.190349 2.749028 0.517878
vn 0.3104 -0.9430 0.1202
vn 0.2687 -0.9465 0.1789
vn 0.3970 -0.9178 -0.0119
vn 0.7816 0.2229 -0.5826
vn 0.7853 0.2203 -0.5786
vn 0.7799 0.2241 -0.5844
vn 0.5790 0.8153 -0.0000
vn 0.3975 -0.9176 -0.0000
vn 0.2359 0.1820 0.9546
vn 0.3744 0.2416 0.8952
vn 0.1704 0.1531 0.9734
vn 0.7853 0.2203 0.5786
vn 0.7816 0.2229 0.5826
vn 0.7799 0.2241 0.5844
vn 0.3744 0.2416 -0.8952
vn 0.2359 0.1820 -0.9546
vn 0.1704 0.1531 -0.9734
vn 0.6304 -0.3666 -0.6843
vn 0.7314 -0.3782 -0.5675
vn 0.9114 -0.3639 -0.1921
vn 0.9022 0.4314 -0.0000
vn 0.3104 -0.9430 -0.1202
vn 0.2687 -0.9465 -0.1789
vn 0.1666 -0.9356 -0.3113
vn 0.6304 -0.3666 0.6843
vn 0.7314 -0.3782 0.5675
vn 0.1056 -0.2386 0.9653
vn 0.2252 -0.1857 -0.9564
vn 0.2199 -0.1884 -0.9572
vn 0.2169 -0.1898 -0.9575
vn 0.8546 -0.1334 0.5019
vn 0.8304 -0.1612 0.5333
vn 0.8715 -0.1121 0.4774
vn 0.2199 -0.1884 0.9572
vn 0.2252 -0.1857 0.9564
vn 0.2169 -0.1898 0.9575
vn -0.3316 0.9434 -0.0000
vn 0.8304 -0.1612 -0.5333
vn 0.8546 -0.1334 -0.5019
vn 0.8715 -0.1121 -0.4774
vn -0.1359 -0.9907 -0.0000
vn -0.1005 -0.9949 -0.0000
vn -0.5274 0.8496 -0.0000
vn 0.6753 0.7375 -0.0000
vn 0.4357 -0.9001 -0.0000
vn 0.3999 0.9166 -0.0000
vn 0.9599 0.2802 -0.0000
vn 0.9051 0.4252 -0.0000
vn 0.3157 -0.9489 -0.0000
vn 0.2233 0.9747 -0.0000
vn 0.9877 0.1567 -0.0000
vn 0.3180 0.4003 -0.8594
vn 0.3345 0.3763 -0.8640
vn 0.3680 0.3251 -0.8711
vn 0.3546 -0.2671 -0.8961
vn 0.3751 -0.2473 -0.8934
vn 0.2824 -0.3330 -0.8997
vn 0.9143 -0.4051 -0.0000
vn -0.3105 0.1592 -0.9371
vn -0.3529 0.0804 -0.9322
vn -0.4144 -0.0461 -0.9089
vn 0.9688 0.2478 -0.0000
vn 0.9919 0.1262 0.0148
vn 0.9907 0.1358 0.0019
vn 0.9927 0.1182 0.0255
vn 0.9919 0.1262 -0.0148
vn 0.9907 0.1358 -0.0019
vn 0.9896 0.1434 0.0083
vn 0.9963 0.0864 -0.0000
vn -0.9679 0.2515 -0.0000
vn 0.7973 -0.6036 -0.0000
vn -0.3105 0.1592 0.9371
vn -0.3529 0.0804 0.9322
vn -0.2497 0.2629 0.9319
vn 0.5726 0.2867 0.7680
vn 0.5661 0.2777 0.7761
vn 0.5268 0.2249 0.8197
vn 0.2454 0.5544 0.7953
vn 0.2559 0.5383 0.8030
vn 0.1926 0.6298 0.7525
vn -0.3104 -0.9430 0.1202
vn -0.2687 -0.9465 0.1789
vn -0.1666 -0.9356 0.3113
vn -0.7816 0.2229 -0.5826
vn -0.7853 0.2203 -0.5786
vn -0.7874 0.2188 -0.5763
vn -0.5790 0.8153 -0.0000
vn 1.0000 -0.0000 -0.0000
vn -0.3975 -0.9176 -0.0000
vn -0.2359 0.1820 0.9546
vn -0.3744 0.2416 0.8952
vn -0.4426 0.2700 0.8551
vn -0.7816 0.2229 0.5826
vn -0.7853 0.2203 0.5786
vn -0.7799 0.2241 0.5844
vn -0.2359 0.1820 -0.9546
vn -0.3744 0.2416 -0.8952
vn -0.1704 0.1531 -0.9734
vn -0.7314 -0.3782 -0.5675
vn -0.6304 -0.3666 -0.6843
vn -0.9114 -0.3639 -0.1921
vn -0.9022 0.4314 -0.0000
vn -0.2687 -0.9465 -0.1789
vn -0.3104 -0.9430 -0.1202
vn -0.1666 -0.9356 -0.3113
vn -0.6304 -0.3666 0.6843
vn -0.7314 -0.3782 0.5675
vn -0.9114 -0.3639 0.1921
vn -0.2199 -0.1884 -0.9572
vn -0.2252 -0.1857 -0.9564
vn -0.2169 -0.1898 -0.9575
vn -0.8546 -0.1334 0.5019
vn -0.8304 -0.1612 0.5333
vn -0.8099 -0.1830 0.5573
vn -0.2199 -0.1884 0.9572
vn -0.2252 -0.1857 0.9564
vn -0.2279 -0.1844 0.9561
vn 0.3316 0.9434 -0.0000
vn -0.8546 -0.1334 -0.5019
vn -0.8304 -0.1612 -0.5333
vn -0.8715 -0.1121 -0.4774
vn 0.1359 -0.9907 -0.0000
vn 0.1005 -0.9949 -0.0000
vn 0.5274 0.8496 -0.0000
vn -0.6753 0.7375 -0.0000
vn -0.4357 -0.9001 -0.0000
vn -0.3999 0.9166 -0.0000
vn -0.9599 0.2802 -0.0000
vn -0.9051 0.4252 -0.0000
vn -0.3157 -0.9489 -0.0000
vn -0.2233 0.9747 -0.0000
vn -0.9877 0.1567 -0.0000
vn -0.3345 0.3763 -0.8640
vn -0.3180 0.4003 -0.8594
vn -0.3680 0.3251 -0.8711
vn -0.3546 -0.2671 -0.8961
vn -0.3751 -0.2473 -0.8934
vn -0.4532 -0.1672 -0.8756
vn -0.9143 -0.4051 -0.0000
vn 0.3529 0.0804 -0.9322
vn 0.3105 0.1592 -0.9371
vn 0.4144 -0.0461 -0.9089
vn -0.9688 0.2478 -0.0000
vn -0.9919 0.1262 0.0148
vn -0.9907 0.1358 0.0019
vn -0.9896 0.1434 -0.0083
vn -0.9907 0.1358 -0.0019
vn -0.9919 0.1262 -0.0148
vn -0.9896 0.1434 0.0083
vn -0.9963 0.0864 -0.0000
vn 0.9679 0.2515 -0.0000
vn -0.7973 -0.6036 -0.0000
vn 0.3105 0.1592 0.9371
vn 0.3529 0.0804 0.9322
vn 0.4144 -0.0461 0.9089
vn -0.5726 0.2867 0.7680
vn -0.5661 0.2777 0.7761
vn -0.5934 0.3162 0.7402
vn -0.2454 0.5544 0.7953
vn -0.2559 0.5383 0.8030
vn -0.2870 0.4880 0.8243
vn -0.0065 -0.0627 -0.9980
vn 0.0336 -0.0395 -0.9987
vn 0.0731 -0.0165 -0.9972
vn -0.0269 -0.1032 -0.9943
vn -0.0433 -0.0962 -0.9944
vn -0.0149 -0.1083 -0.9940
vn 0.0232 0.0606 0.9979
vn -0.0245 0.0194 0.9995
vn 0.0569 0.0895 0.9944
vn -0.0065 -0.0627 0.9980
vn 0.0336 -0.0395 0.9987
vn -0.0524 -0.0891 0.9946
vn 0.0232 0.0606 -0.9979
vn -0.0245 0.0194 -0.9995
vn -0.0701 -0.0202 -0.9973
vn 0.1107 -0.0633 0.9918
vn 0.0728 -0.0876 0.9935
vn 0.1433 -0.0421 0.9888
vn 0.1274 0.0730 0.9892
vn 0.0734 0.0968 0.9926
vn 0.0472 0.1082 0.9930
vn -0.0748 0.0956 -0.9926
vn -0.0879 0.0852 -0.9925
vn -0.1007 0.0749 -0.9921
vn -0.0748 0.0956 0.9926
vn -0.0879 0.0852 0.9925
vn -0.0644 0.1038 0.9925
vn -0.0269 -0.1032 0.9943
vn -0.0433 -0.0962 0.9944
vn -0.0586 -0.0896 0.9943
vn 0.0574 0.0342 -0.9978
vn 0.0477 0.0407 -0.9980
vn 0.0755 0.0220 -0.9969
vn 0.1274 0.0730 -0.9892
vn 0.0734 0.0968 -0.9926
vn 0.1552 0.0606 -0.9860
vn 0.1107 -0.0633 -0.9918
vn 0.0728 -0.0876 -0.9935
vn 0.0496 -0.1024 -0.9935
vn 0.0305 -0.0220 -0.9993
vn 0.0400 -0.0268 -0.9988
vn -0.0066 -0.0031 -1.0000
vn 0.0574 0.0342 0.9978
vn 0.0477 0.0407 0.9980
vn 0.0336 0.0501 0.9982
vn 0.0305 -0.0220 0.9993
vn 0.0400 -0.0268 0.9988
vn 0.0818 -0.0481 0.9955
vn -0.0336 -0.0395 -0.9987
vn 0.0065 -0.0627 -0.9980
vn -0.0731 -0.0165 -0.9972
vn 0.0269 -0.1032 -0.9943
vn 0.0433 -0.0962 -0.9944
vn 0.0586 -0.0896 -0.9943
vn -0.0232 0.0606 0.9979
vn 0.0245 0.0194 0.9995
vn 0.0701 -0.0202 0.9973
vn 0.0065 -0.0627 0.9980
vn -0.0336 -0.0395 0.9987
vn -0.0731 -0.0165 0.9972
vn 0.0245 0.0194 -0.9995
vn -0.0232 0.0606 -0.9979
vn 0.0701 -0.0202 -0.9973
vn -0.1107 -0.0633 0.9918
vn -0.0728 -0.0876 0.9935
vn -0.0496 -0.1024 0.9935
vn -0.0734 0.0968 0.9926
vn -0.1274 0.0730 0.9892
vn -0.0472 0.1082 0.9930
vn 0.0879 0.0852 -0.9925
vn 0.0748 0.0956 -0.9926
vn 0.1007 0.0749 -0.9921
vn 0.0748 0.0956 0.9926
vn 0.0879 0.0852 0.9925
vn 0.1007 0.0749 0.9921
vn 0.0433 -0.0962 0.9944
vn 0.0269 -0.1032 0.9943
vn 0.0586 -0.0896 0.9943
vn -0.0574 0.0342 -0.9978
vn -0.0477 0.0407 -0.9980
vn -0.0336 0.0501 -0.9982
vn -0.1274 0.0730 -0.9892
vn -0.0734 0.0968 -0.9926
vn -0.0472 0.1082 -0.9930
vn -0.0728 -0.0876 -0.9935
vn -0.1107 -0.0633 -0.9918
vn -0.0496 -0.1024 -0.9935
vn -0.0305 -0.0220 -0.9993
vn -0.0400 -0.0268 -0.9988
vn -0.0818 -0.0481 -0.9955
vn -0.0477 0.0407 0.9980
vn -0.0574 0.0342 0.9978
vn -0.0336 0.0501 0.9982
vn -0.0400 -0.0268 0.9988
vn -0.0305 -0.0220 0.9993
vn -0.0818 -0.0481 0.9955
vn 0.4080 0.5293 0.7439
vn 0.4194 0.4904 0.7639
vn 0.3957 0.5674 0.7221
vn -0.0000 -0.0000 1.0000
vn -0.0000 -0.0000 -1.0000
vn -0.7987 0.6017 -0.0000
vn 0.9998 0.0222 -0.0000
vn 0.2907 0.9568 -0.0000
vn 0.7809 -0.6247 -0.0000
vn -0.3384 0.9410 -0.0000
vn 0.2783 -0.1772 0.9440
vn -0.0097 -0.4322 0.9017
vn -0.0363 0.0971 0.9946
vn -0.0024 0.0480 0.9988
vn -0.0412 0.0782 0.9961
vn 0.4006 0.0443 0.9152
vn 0.4055 0.9141 -0.0000
vn 0.3931 0.9195 -0.0000
vn -0.8800 -0.4750 -0.0000
vn -0.1035 -0.9946 -0.0000
vn 0.2783 -0.1772 -0.9440
vn 0.9275 0.3738 -0.0000
vn 0.4006 0.0443 -0.9152
vn 0.6706 -0.7418 -0.0000
vn 0.3927 0.9197 -0.0000
vn 0.7636 -0.6456 -0.0000
vn -0.9149 -0.4037 -0.0000
vn -0.0097 -0.4322 -0.9017
vn -0.0657 0.0654 -0.9957
vn -0.0491 0.0482 -0.9976
vn 0.0028 0.0745 -0.9972
vn 0.4458 -0.4194 0.7908
vn 0.4413 -0.4102 0.7981
vn 0.4560 -0.4406 0.7733
vn 0.1707 0.4451 0.8791
vn 0.2057 0.4670 0.8600
vn 0.2678 0.5040 0.8212
vn 0.3549 0.6365 0.6848
vn 0.4986 0.3099 0.8096
vn 0.2322 0.8030 0.5489
vn 0.5178 0.4799 0.7082
vn 0.4992 0.4592 0.7348
vn 0.4424 0.3966 0.8044
vn -0.4194 0.4904 0.7639
vn -0.4080 0.5293 0.7439
vn -0.3957 0.5674 0.7221
vn 0.7987 0.6017 -0.0000
vn -0.9998 0.0222 -0.0000
vn -0.2907 0.9568 -0.0000
vn -0.7809 -0.6247 -0.0000
vn 0.3384 0.9410 -0.0000
vn -0.2783 -0.1772 0.9440
vn 0.0097 -0.4322 0.9017
vn 0.0412 0.0782 0.9961
vn 0.0024 0.0480 0.9988
vn 0.0363 0.0971 0.9946
vn -0.4006 0.0443 0.9152
vn -0.3931 0.9195 -0.0000
vn -0.4055 0.9141 -0.0000
vn 0.8800 -0.4750 -0.0000
vn 0.1035 -0.9946 -0.0000
vn -0.2783 -0.1772 -0.9440
vn -0.9275 0.3738 -0.0000
vn -0.4006 0.0443 -0.9152
vn -0.6706 -0.7418 -0.0000
vn -0.3927 0.9197 -0.0000
vn -0.7636 -0.6456 -0.0000
vn 0.9149 -0.4037 -0.0000
vn 0.0097 -0.4322 -0.9017
vn -0.0028 0.0745 -0.9972
vn 0.0491 0.0482 -0.9976
vn 0.0657 0.0654 -0.9957
vn -0.4458 -0.4194 0.7908
vn -0.4413 -0.4102 0.7981
vn -0.4255 -0.3784 0.8220
vn -0.2164 0.4968 0.8404
vn -0.1742 0.4096 0.8955
vn -0.2039 0.3889 0.8984
vn -0.3549 0.6365 0.6848
vn -0.4986 0.3099 0.8096
vn -0.5247 0.2163 0.8233
vn -0.4992 0.4592 0.7348
vn -0.5178 0.4799 0.7082
vn -0.4424 0.3966 0.8044
vn 0.1666 -0.9356 0.3113
vn 0.7874 0.2188 -0.5763
vn 0.4426 0.2700 0.8551
vn 0.7874 0.2188 0.5763
vn 0.4426 0.2700 -0.8551
vn 0.1056 -0.2386 -0.9653
vn 0.3970 -0.9178 0.0119
vn 0.9114 -0.3639 0.1921
vn 0.2279 -0.1844 -0.9561
vn 0.8099 -0.1830 0.5573
vn 0.2279 -0.1844 0.9561
vn 0.8099 -0.1830 -0.5573
vn 0.2830 0.4490 -0.8476
vn 0.4532 -0.1672 -0.8756
vn -0.2497 0.2629 -0.9319
vn 0.9896 0.1434 -0.0083
vn 0.9927 0.1182 -0.0255
vn -0.4144 -0.0461 0.9089
vn 0.5934 0.3162 0.7402
vn 0.2870 0.4880 0.8243
vn -0.3970 -0.9178 -0.0119
vn -0.7799 0.2241 -0.5844
vn -0.1704 0.1531 0.9734
vn -0.7874 0.2188 0.5763
vn -0.4426 0.2700 -0.8551
vn -0.1056 -0.2386 -0.9653
vn -0.3970 -0.9178 0.0119
vn -0.1056 -0.2386 0.9653
vn -0.2279 -0.1844 -0.9561
vn -0.8715 -0.1121 0.4774
vn -0.2169 -0.1898 0.9575
vn -0.8099 -0.1830 -0.5573
vn -0.2830 0.4490 -0.8476
vn -0.2824 -0.3330 -0.8997
vn 0.2497 0.2629 -0.9319
vn -0.9927 0.1182 0.0255
vn -0.9927 0.1182 -0.0255
vn 0.2497 0.2629 0.9319
vn -0.5268 0.2249 0.8197
vn -0.1926 0.6298 0.7525
vn -0.0524 -0.0891 -0.9946
vn -0.0586 -0.0896 -0.9943
vn -0.0701 -0.0202 0.9973
vn 0.0731 -0.0165 0.9972
vn 0.0569 0.0895 -0.9944
vn 0.0496 -0.1024 0.9935
vn 0.1552 0.0606 0.9860
vn -0.0644 0.1038 -0.9925
vn -0.1007 0.0749 0.9921
vn -0.0149 -0.1083 0.9940
vn 0.0336 0.0501 -0.9982
vn 0.0472 0.1082 -0.9930
vn 0.1433 -0.0421 -0.9888
vn 0.0818 -0.0481 -0.9955
vn 0.0755 0.0220 0.9969
vn -0.0066 -0.0031 1.0000
vn 0.0524 -0.0891 -0.9946
vn 0.0149 -0.1083 -0.9940
vn -0.0569 0.0895 0.9944
vn 0.0524 -0.0891 0.9946
vn -0.0569 0.0895 -0.9944
vn -0.1433 -0.0421 0.9888
vn -0.1552 0.0606 0.9860
vn 0.0644 0.1038 -0.9925
vn 0.0644 0.1038 0.9925
vn 0.0149 -0.1083 0.9940
vn -0.0755 0.0220 -0.9969
vn -0.1552 0.0606 -0.9860
vn -0.1433 -0.0421 -0.9888
vn 0.0066 -0.0031 -1.0000
vn -0.0755 0.0220 0.9969
vn 0.0066 -0.0031 1.0000
vn -0.0804 0.3052 0.9489
vn 0.0585 0.1396 0.9885
vn 0.0579 -0.0168 0.9982
vn -0.0103 0.1031 -0.9946
vn -0.2502 -0.0689 -0.9657
vn 0.0426 -0.0057 -0.9991
vn 0.4255 -0.3784 0.8220
vn 0.0641 0.3743 0.9251
vn 0.5247 0.2163 0.8233
vn 0.5499 0.5160 0.6567
vn 0.0804 0.3052 0.9489
vn -0.0579 -0.0168 0.9982
vn -0.0585 0.1396 0.9885
vn 0.0103 0.1031 -0.9946
vn -0.0426 -0.0057 -0.9991
vn 0.2502 -0.0689 -0.9657
vn -0.4560 -0.4406 0.7733
vn -0.2678 0.5040 0.8212
vn -0.1555 0.5591 0.8144
vn -0.2322 0.8030 0.5489
vn -0.5499 0.5160 0.6567
s 1
usemtl batgrey
f 3//1 98//2 10//3
f 13//4 8//5 15//6
f 4//7 6//7 8//7
f 9//8 98//8 97//8
f 14//9 92//10 103//11
f 6//12 14//13 16//14
f 90//15 13//16 104//17
f 7//18 9//19 2//20
f 7//21 11//21 12//21
f 2//22 97//23 89//24
f 5//25 10//26 11//27
f 104//28 2//29 89//30
f 5//31 14//32 3//33
f 3//34 103//35 91//36
f 6//37 20//37 8//37
f 13//38 7//39 2//40
f 19//41 23//41 17//41
f 7//42 17//42 5//42
f 18//43 26//43 20//43
f 30//44 38//44 32//44
f 25//45 29//45 23//45
f 32//46 44//46 30//46
f 38//47 40//47 39//47
f 39//48 35//48 37//48
f 31//49 35//49 29//49
f 30//46 42//46 24//46
f 24//46 41//46 26//46
f 32//46 41//46 43//46
f 154//50 65//50 64//50
f 65//51 68//51 64//51
f 159//52 64//53 67//54
f 4//55 159//56 67//57
f 4//58 66//58 1//58
f 68//59 75//60 71//61
f 67//62 70//62 66//62
f 67//63 68//64 71//65
f 66//66 69//67 65//68
f 75//69 73//69 74//69
f 69//70 72//70 68//70
f 71//71 74//71 70//71
f 69//72 74//73 73//74
f 66//75 76//76 78//77
f 65//78 77//79 76//80
f 83//81 98//82 91//83
f 99//84 88//85 84//86
f 86//87 84//87 88//87
f 89//88 90//88 103//88
f 98//89 93//89 97//89
f 100//90 92//91 81//92
f 100//93 86//94 102//95
f 99//96 90//97 104//98
f 93//99 87//100 82//101
f 96//102 85//102 87//102
f 97//103 82//104 89//105
f 85//106 94//107 83//108
f 82//109 104//110 89//111
f 85//112 100//113 102//114
f 83//115 103//116 100//117
f 88//118 106//118 86//118
f 87//119 99//120 82//121
f 111//122 107//122 105//122
f 105//123 87//123 85//123
f 114//124 106//124 108//124
f 126//125 118//125 120//125
f 117//126 113//126 111//126
f 132//127 120//127 118//127
f 128//128 126//128 127//128
f 123//129 127//129 125//129
f 123//130 119//130 117//130
f 130//127 118//127 112//127
f 129//127 112//127 114//127
f 120//127 129//127 114//127
f 153//131 154//131 152//131
f 152//132 161//132 153//132
f 154//88 172//88 157//88
f 152//133 159//134 158//135
f 84//136 159//137 90//138
f 159//88 92//88 90//88
f 156//139 84//139 81//139
f 167//140 160//141 163//142
f 162//143 158//143 156//143
f 158//144 160//145 152//146
f 161//147 156//148 153//149
f 165//150 167//150 166//150
f 164//151 161//151 160//151
f 166//152 163//152 162//152
f 161//153 166//154 162//155
f 156//156 168//157 153//158
f 153//159 169//160 155//161
f 3//1 91//342 98//2
f 13//4 4//343 8//5
f 4//7 1//7 6//7
f 9//8 10//8 98//8
f 14//9 1//344 92//10
f 6//12 1//345 14//13
f 90//15 4//346 13//16
f 7//18 12//347 9//19
f 7//21 5//21 11//21
f 2//22 9//348 97//23
f 5//25 3//349 10//26
f 104//28 13//350 2//29
f 5//31 16//351 14//32
f 3//34 14//352 103//35
f 6//37 18//37 20//37
f 13//38 15//353 7//39
f 19//41 25//41 23//41
f 7//42 19//42 17//42
f 18//43 24//43 26//43
f 30//44 36//44 38//44
f 25//45 31//45 29//45
f 32//46 43//46 44//46
f 38//47 36//47 40//47
f 39//48 40//48 35//48
f 31//49 37//49 35//49
f 30//46 44//46 42//46
f 24//46 42//46 41//46
f 32//46 26//46 41//46
f 154//50 155//50 65//50
f 65//51 69//51 68//51
f 159//52 154//354 64//53
f 4//55 90//355 159//56
f 4//58 67//58 66//58
f 68//59 72//356 75//60
f 67//62 71//62 70//62
f 67//63 64//357 68//64
f 66//66 70//358 69//67
f 75//69 72//69 73//69
f 69//70 73//70 72//70
f 71//71 75//71 74//71
f 69//72 70//359 74//73
f 66//75 65//360 76//76
f 65//78 155//361 77//79
f 83//81 94//362 98//82
f 99//84 101//363 88//85
f 86//87 81//87 84//87
f 103//88 91//88 98//88
f 98//88 97//88 89//88
f 89//88 104//88 90//88
f 90//88 92//88 103//88
f 103//88 98//88 89//88
f 98//89 94//89 93//89
f 100//90 103//364 92//91
f 100//93 81//365 86//94
f 99//96 84//366 90//97
f 93//99 96//367 87//100
f 96//102 95//102 85//102
f 97//103 93//368 82//104
f 85//106 95//369 94//107
f 82//109 99//370 104//110
f 85//112 83//371 100//113
f 83//115 91//372 103//116
f 88//118 108//118 106//118
f 87//119 101//373 99//120
f 111//122 113//122 107//122
f 105//123 107//123 87//123
f 114//124 112//124 106//124
f 126//125 124//125 118//125
f 117//126 119//126 113//126
f 132//127 131//127 120//127
f 128//128 124//128 126//128
f 123//129 128//129 127//129
f 123//130 125//130 119//130
f 130//127 132//127 118//127
f 129//127 130//127 112//127
f 120//127 131//127 129//127
f 153//131 155//131 154//131
f 152//132 160//132 161//132
f 157//88 159//88 154//88
f 154//88 155//88 172//88
f 152//133 154//374 159//134
f 84//136 158//375 159//137
f 159//88 157//88 92//88
f 156//139 158//139 84//139
f 167//140 164//376 160//141
f 162//143 163//143 158//143
f 158//144 163//377 160//145
f 161//147 162//378 156//148
f 165//150 164//150 167//150
f 164//151 165//151 161//151
f 166//152 167//152 163//152
f 161//153 165//379 166//154
f 156//156 170//380 168//157
f 153//159 168//381 169//160
usemtl batgreywing
f 15//162 19//163 7//164
f 19//165 27//166 25//167
f 6//168 22//169 18//170
f 16//171 17//172 22//173
f 8//174 21//175 15//176
f 28//177 29//178 34//179
f 28//180 30//181 24//182
f 20//183 27//184 21//185
f 18//186 28//187 24//188
f 17//189 28//190 22//191
f 33//192 38//193 39//194
f 27//195 32//196 33//197
f 27//198 31//199 25//200
f 31//201 39//202 37//203
f 34//204 36//205 30//206
f 29//207 40//208 34//209
f 107//210 101//211 87//212
f 107//213 115//214 109//215
f 86//216 110//217 102//218
f 102//219 105//220 85//221
f 109//222 88//223 101//224
f 116//225 117//226 111//227
f 118//228 116//229 112//230
f 115//231 108//232 109//233
f 106//234 116//235 110//236
f 116//237 105//238 110//239
f 121//240 126//241 120//242
f 115//243 120//244 114//245
f 119//246 115//247 113//248
f 119//249 127//250 121//251
f 124//252 122//253 118//254
f 128//255 117//256 122//257
f 15//162 21//382 19//163
f 19//165 21//383 27//166
f 6//168 16//384 22//169
f 16//171 5//385 17//172
f 8//174 20//386 21//175
f 28//177 23//387 29//178
f 28//180 34//388 30//181
f 20//183 26//389 27//184
f 18//186 22//390 28//187
f 17//189 23//391 28//190
f 33//192 32//392 38//193
f 27//195 26//393 32//196
f 27//198 33//394 31//199
f 31//201 33//395 39//202
f 34//204 40//396 36//205
f 29//207 35//397 40//208
f 107//210 109//398 101//211
f 107//213 113//399 115//214
f 86//216 106//400 110//217
f 102//219 110//401 105//220
f 109//222 108//402 88//223
f 116//225 122//403 117//226
f 118//228 122//404 116//229
f 115//231 114//405 108//232
f 106//234 112//406 116//235
f 116//237 111//407 105//238
f 121//240 127//408 126//241
f 115//243 121//409 120//244
f 119//246 121//410 115//247
f 119//249 125//411 127//250
f 124//252 128//412 122//253
f 128//255 123//413 117//256
usemtl batgreydetail1
f 172//258 77//259 155//260
f 42//261 48//261 46//261
f 47//262 49//262 51//262
f 42//263 45//263 41//263
f 41//262 47//262 43//262
f 43//264 48//264 44//264
f 50//265 51//265 49//265
f 47//266 52//266 48//266
f 48//261 50//261 46//261
f 46//267 49//267 45//267
f 55//268 54//268 61//268
f 54//269 57//269 63//269
f 10//270 54//271 58//272
f 58//273 55//273 62//273
f 11//274 60//275 12//274
f 9//276 57//276 10//276
f 54//277 53//277 61//277
f 53//278 56//278 61//278
f 56//279 55//279 61//279
f 56//280 60//280 62//280
f 55//281 56//281 62//281
f 60//275 58//275 62//282
f 53//283 54//283 63//283
f 57//284 59//284 63//284
f 59//285 53//285 63//285
f 12//286 56//287 59//288
f 92//289 66//290 157//291
f 78//292 77//293 80//294
f 157//295 78//296 79//297
f 172//298 79//299 80//300
f 169//301 172//302 155//303
f 130//261 136//261 132//261
f 135//262 137//262 133//262
f 133//304 130//304 129//304
f 135//262 129//262 131//262
f 136//305 131//305 132//305
f 139//306 138//306 137//306
f 140//307 135//307 136//307
f 138//261 136//261 134//261
f 137//308 134//308 133//308
f 143//309 149//309 142//309
f 142//310 151//310 145//310
f 146//311 142//312 94//313
f 146//314 150//314 143//314
f 148//315 95//316 96//316
f 145//317 93//317 94//317
f 142//318 149//318 141//318
f 141//319 149//319 144//319
f 144//320 149//320 143//320
f 144//321 150//321 148//321
f 143//322 150//322 144//322
f 148//315 150//323 146//315
f 141//324 151//324 142//324
f 145//325 151//325 147//325
f 147//326 151//326 141//326
f 147//327 144//328 96//329
f 92//330 156//331 81//332
f 173//333 168//334 170//335
f 157//336 170//337 156//338
f 171//339 172//340 173//341
f 172//258 80//300 77//259
f 42//261 44//261 48//261
f 47//262 45//262 49//262
f 42//263 46//263 45//263
f 41//262 45//262 47//262
f 43//264 47//264 48//264
f 50//265 52//265 51//265
f 47//266 51//266 52//266
f 48//261 52//261 50//261
f 46//267 50//267 49//267
f 58//272 11//414 10//270
f 10//270 57//415 54//271
f 54//271 55//416 58//272
f 11//274 58//275 60//275
f 9//276 59//276 57//276
f 59//288 9//417 12//286
f 12//286 60//418 56//287
f 56//287 53//419 59//288
f 92//289 1//420 66//290
f 80//294 79//294 78//292
f 78//292 76//421 77//293
f 157//295 66//422 78//296
f 172//298 157//423 79//299
f 169//301 173//341 172//302
f 130//261 134//261 136//261
f 135//262 139//262 137//262
f 133//304 134//304 130//304
f 135//262 133//262 129//262
f 136//305 135//305 131//305
f 139//306 140//306 138//306
f 140//307 139//307 135//307
f 138//261 140//261 136//261
f 137//308 138//308 134//308
f 94//313 95//424 146//311
f 146//311 143//425 142//312
f 142//312 145//426 94//313
f 148//315 146//315 95//316
f 145//317 147//317 93//317
f 96//329 93//427 147//327
f 147//327 141//428 144//328
f 144//328 148//429 96//329
f 92//330 157//430 156//331
f 170//335 171//431 173//333
f 173//333 169//432 168//334
f 157//336 171//433 170//337
f 171//339 157//434 172//340
