# Blender 4.5.2 LTS
# www.blender.org
o capybara_Cube.001
v 0.663245 2.145801 -0.000000
v 0.725630 0.847541 -0.000000
v 0.548677 1.002327 1.163914
v 0.541662 2.419725 1.440516
v 0.652335 1.040297 -1.159840
v 0.663245 2.249825 -0.956603
v 0.842328 1.237019 -0.000000
v 0.842328 1.608305 -1.367881
v 0.663496 1.558854 1.375865
v 0.296755 2.286309 2.501209
v 0.304841 1.705922 2.413498
v 0.350597 2.090783 2.601232
v 0.621966 1.220424 1.425919
v 0.609707 0.401263 1.500991
v 0.585980 0.381653 1.248054
v 0.374198 0.364337 1.212324
v 0.437225 0.376561 1.496931
v 0.591258 0.052271 1.794614
v 0.643756 0.040404 1.459359
v 0.344732 0.047149 1.423629
v 0.424581 0.057166 1.790553
v 0.353113 0.895165 1.234149
v 0.257807 0.772319 1.497888
v 0.688982 0.943919 -0.834555
v 0.694441 0.318546 -1.044062
v 0.706831 0.368008 -1.264184
v 0.505585 0.391278 -1.343685
v 0.374440 0.341445 -1.098681
v 0.646769 0.031504 -0.775282
v 0.776787 0.080967 -1.087998
v 0.451385 0.104236 -1.197236
v 0.407531 0.054403 -0.829901
v 0.295210 0.754745 -0.993928
v 0.318185 0.778485 -1.106185
v 0.739764 2.093825 -1.315066
v 0.454317 2.390596 1.976192
v 0.383170 2.168791 1.185993
v 0.393706 2.447725 1.554790
v 0.216439 2.483490 1.513811
v 0.398166 2.445135 1.823238
v 0.216439 2.489218 1.822742
v 0.392979 2.481336 1.594373
v 0.386216 2.602531 1.566958
v 0.393834 2.477993 1.773970
v 0.388950 2.605217 1.773638
v 0.284019 2.560955 1.540385
v 0.285386 2.565162 1.798190
v 0.000000 0.491786 -0.000000
v 0.000000 2.265726 -0.000000
v -0.663245 2.145801 -0.000000
v -0.725630 0.847541 -0.000000
v -0.548677 1.002327 1.163914
v -0.541662 2.419725 1.440516
v -0.652335 1.040297 -1.159840
v -0.663245 2.249825 -0.956603
v 0.000000 0.908337 -1.163914
v 0.000000 2.383909 -0.951250
v 0.000000 0.666736 1.123472
v 0.000000 2.509136 1.446200
v -0.842328 1.237019 -0.000000
v -0.842328 1.608305 -1.367881
v -0.663496 1.558854 1.375865
v 0.000000 1.336464 1.624927
v 0.000000 1.698779 -1.707527
v -0.296755 2.286309 2.501209
v 0.000000 2.409452 2.504485
v -0.304841 1.705922 2.413498
v 0.000000 1.595260 2.504485
v 0.000000 2.120930 2.691848
v -0.350597 2.090783 2.601232
v 0.000000 0.886573 1.451141
v -0.621966 1.220424 1.425919
v -0.609707 0.401263 1.500991
v -0.585980 0.381653 1.248054
v -0.374198 0.364337 1.212324
v -0.437225 0.376561 1.496931
v -0.591258 0.052271 1.794614
v -0.643756 0.040404 1.459359
v -0.344732 0.047149 1.423629
v -0.424581 0.057166 1.790553
v -0.353113 0.895165 1.234149
v -0.257807 0.772319 1.497888
v 0.000000 0.609701 -0.889174
v -0.688982 0.943919 -0.834555
v -0.694441 0.318546 -1.044062
v -0.706831 0.368008 -1.264184
v -0.505585 0.391278 -1.343685
v -0.374440 0.341445 -1.098681
v -0.646769 0.031504 -0.775282
v -0.776787 0.080967 -1.087998
v -0.451385 0.104236 -1.197236
v -0.407531 0.054403 -0.829901
v -0.295210 0.754745 -0.993928
v -0.318185 0.778485 -1.106185
v -0.739764 2.093825 -1.315066
v 0.000000 2.176341 -1.550186
v -0.454317 2.390596 1.976192
v 0.000000 2.523457 1.975343
v 0.000000 2.387431 1.252263
v -0.383170 2.168791 1.185993
v -0.393706 2.447725 1.554790
v -0.216439 2.483490 1.513811
v -0.398166 2.445135 1.823238
v -0.216439 2.489218 1.822742
v -0.392979 2.481336 1.594373
v -0.386216 2.602531 1.566958
v -0.393834 2.477993 1.773970
v -0.388950 2.605217 1.773638
v -0.284019 2.560955 1.540385
v -0.285386 2.565162 1.798190
vn -0.1017 -0.5086 0.8550
vn 0.2040 -0.8332 0.5140
vn -0.2020 -0.2923 0.9347
vn 0.3430 0.2557 -0.9039
vn 0.3648 0.2165 -0.9056
vn 0.3844 0.1797 -0.9055
vn 0.9551 0.2725 0.1161
vn 0.9070 0.3392 -0.2495
vn 0.9437 0.3297 -0.0255
vn 0.4585 -0.8750 0.1553
vn 0.4780 -0.8617 0.1701
vn 0.4360 -0.8892 0.1385
vn 0.9403 -0.3171 -0.1235
vn 0.9556 -0.2846 -0.0768
vn 0.9470 -0.3034 -0.1057
vn 0.2482 0.9687 -0.0010
vn 0.4017 0.9141 -0.0551
vn 0.1779 0.9838 0.0229
vn 0.1840 0.9822 -0.0379
vn 0.1651 0.9791 -0.1191
vn 0.1950 0.9807 0.0122
vn 0.1896 0.9751 0.1152
vn 0.1850 0.9763 0.1120
vn 0.1769 0.9785 0.1064
vn 0.9720 0.2294 0.0503
vn 0.9766 0.2096 0.0485
vn 0.9795 0.1950 0.0506
vn 0.9762 -0.0218 -0.2156
vn 0.9903 0.0237 -0.1370
vn 0.9942 0.0466 -0.0969
vn 0.9450 -0.2783 0.1717
vn 0.9621 -0.2305 0.1460
vn 0.8916 -0.4312 0.1380
vn 0.2097 -0.4941 -0.8438
vn 0.2088 -0.4948 -0.8436
vn 0.1189 -0.5626 -0.8181
vn 0.3941 -0.8813 0.2606
vn 0.3957 -0.8809 0.2597
vn 0.3970 -0.8805 0.2591
vn 0.9606 0.0262 0.2768
vn 0.9985 -0.0225 0.0506
vn 0.9847 0.0394 0.1699
vn 0.2971 -0.0433 0.9539
vn 0.2565 -0.2337 0.9379
vn 0.2253 -0.3511 0.9088
vn 0.0237 0.1397 0.9899
vn -0.0010 0.1432 0.9897
vn 0.0266 0.0336 0.9991
vn 0.0973 -0.9881 0.1192
vn 0.0838 -0.9917 0.0971
vn -0.2788 -0.8281 -0.4864
vn -0.0357 -0.3059 -0.9514
vn 0.0671 -0.0937 -0.9933
vn 0.2276 -0.7892 -0.5703
vn -0.9718 -0.1493 -0.1827
vn -0.9604 -0.2784 0.0063
vn -0.8894 -0.4037 0.2143
vn 0.4391 -0.8904 -0.1199
vn 0.4388 -0.8905 -0.1202
vn 0.4410 -0.8897 -0.1180
vn 0.9958 0.0724 -0.0557
vn 0.9997 0.0214 0.0129
vn 0.9921 0.0935 -0.0841
vn -0.0322 -0.7687 -0.6387
vn -0.1341 -0.8398 -0.5260
vn 0.0713 -0.6753 -0.7341
vn -0.1119 0.1264 -0.9856
vn 0.1365 0.2413 -0.9608
vn -0.1580 -0.0007 -0.9874
vn -0.9430 -0.1267 -0.3076
vn -0.8855 -0.1217 -0.4485
vn -0.9659 -0.1282 -0.2248
vn 0.1950 0.9228 -0.3322
vn 0.2014 0.9191 -0.3388
vn 0.2133 0.9117 -0.3512
vn 0.3075 0.9204 0.2415
vn 0.3304 0.9162 0.2267
vn 0.2702 0.9256 0.2650
vn 0.1691 0.7676 -0.6182
vn 0.1977 0.6976 -0.6886
vn 0.2242 0.6206 -0.7514
vn -0.7441 0.6680 -0.0084
vn -0.7495 0.6619 -0.0112
vn -0.7514 0.6597 -0.0122
vn 0.1293 0.9914 -0.0219
vn 0.1343 0.9906 -0.0248
vn 0.1233 0.9922 -0.0184
vn 0.2814 0.9587 0.0419
vn 0.4523 0.8849 0.1108
vn 0.4912 0.8617 0.1270
vn 0.2505 0.9433 0.2179
vn 0.2654 0.9441 0.1954
vn 0.2758 0.9443 0.1793
vn 0.3625 0.1264 -0.9234
vn 0.3741 -0.1232 -0.9192
vn 0.4007 0.2859 -0.8705
vn 0.5341 0.2618 0.8038
vn 0.3386 0.2962 0.8931
vn 0.0823 0.2771 0.9573
vn -0.3660 0.9306 -0.0092
vn -0.3710 0.9286 -0.0117
vn -0.3739 0.9274 -0.0132
vn 0.0934 -0.4953 0.8637
vn 0.2032 -0.3022 0.9313
vn -0.1899 -0.8330 0.5197
vn -0.3430 0.2557 -0.9039
vn -0.3648 0.2165 -0.9056
vn -0.3192 0.2966 -0.9001
vn -0.9437 0.3297 -0.0255
vn -0.9070 0.3392 -0.2495
vn -0.9551 0.2725 0.1161
vn 1.0000 -0.0000 -0.0000
vn -0.4780 -0.8617 0.1701
vn -0.4585 -0.8750 0.1553
vn -0.4360 -0.8892 0.1385
vn -0.9462 -0.3053 -0.1072
vn -0.9556 -0.2848 -0.0755
vn -0.9404 -0.3167 -0.1241
vn -0.4017 0.9141 -0.0551
vn -0.2482 0.9687 -0.0010
vn -0.1779 0.9838 0.0229
vn -0.1840 0.9822 -0.0379
vn -0.1651 0.9791 -0.1191
vn -0.1598 0.9770 -0.1409
vn -0.1896 0.9751 0.1152
vn -0.1850 0.9763 0.1120
vn -0.1976 0.9728 0.1209
vn -0.9774 0.2072 0.0425
vn -0.9679 0.2404 0.0733
vn -0.9708 0.2283 0.0731
vn -0.9762 -0.0218 -0.2156
vn -0.9903 0.0237 -0.1370
vn -0.9699 -0.0366 -0.2408
vn -0.9620 -0.2460 0.1181
vn -0.9708 -0.2282 0.0733
vn -0.9432 -0.2782 0.1819
vn -0.2088 -0.4948 -0.8436
vn -0.2097 -0.4941 -0.8438
vn -0.1189 -0.5626 -0.8181
vn -0.3941 -0.8813 0.2606
vn -0.3957 -0.8809 0.2597
vn -0.3934 -0.8816 0.2609
vn -0.9847 0.0394 0.1699
vn -0.9985 -0.0225 0.0506
vn -0.9606 0.0262 0.2768
vn -0.2565 -0.2337 0.9379
vn -0.2971 -0.0433 0.9539
vn -0.2253 -0.3511 0.9088
vn -0.0191 0.1253 0.9919
vn -0.0204 0.0794 0.9966
vn -0.0306 0.1342 0.9905
vn -0.0973 -0.9881 0.1192
vn -0.0838 -0.9917 0.0971
vn -0.3409 -0.7807 0.5238
vn -0.3084 -0.7868 -0.5346
vn -0.0630 0.0015 -0.9980
vn 0.0913 -0.4239 -0.9011
vn 0.9718 -0.1493 -0.1827
vn 0.9604 -0.2784 0.0063
vn 0.9368 -0.0229 -0.3492
vn -0.4388 -0.8905 -0.1202
vn -0.4391 -0.8904 -0.1199
vn -0.4410 -0.8897 -0.1180
vn -0.9997 0.0214 0.0129
vn -0.9958 0.0724 -0.0557
vn -0.9921 0.0935 -0.0841
vn 0.1341 -0.8398 -0.5260
vn 0.0322 -0.7687 -0.6387
vn -0.0713 -0.6753 -0.7341
vn 0.0311 -0.0435 -0.9986
vn -0.1084 0.4448 -0.8890
vn 0.1576 -0.0012 -0.9875
vn 0.8855 -0.1217 -0.4485
vn 0.9430 -0.1267 -0.3076
vn 0.9659 -0.1282 -0.2248
vn -0.2014 0.9191 -0.3388
vn -0.1950 0.9228 -0.3322
vn -0.2133 0.9117 -0.3512
vn -0.3304 0.9162 0.2267
vn -0.3075 0.9204 0.2415
vn -0.2702 0.9256 0.2650
vn -0.1977 0.6976 -0.6886
vn -0.1691 0.7676 -0.6182
vn -0.2242 0.6206 -0.7514
vn 0.7495 0.6619 -0.0112
vn 0.7441 0.6680 -0.0084
vn 0.7514 0.6597 -0.0122
vn -0.1293 0.9914 -0.0219
vn -0.1343 0.9906 -0.0248
vn -0.1377 0.9901 -0.0268
vn -0.4523 0.8849 0.1108
vn -0.2814 0.9587 0.0419
vn -0.4912 0.8617 0.1270
vn -0.2654 0.9441 0.1954
vn -0.2505 0.9433 0.2179
vn -0.2758 0.9443 0.1793
vn -0.3676 0.3088 -0.8772
vn -0.3815 -0.1010 -0.9188
vn -0.4118 0.1532 -0.8983
vn -0.2021 0.2332 0.9512
vn -0.5589 0.5147 0.6502
vn -0.4573 0.5718 0.6811
vn 0.3710 0.9286 -0.0117
vn 0.3660 0.9306 -0.0092
vn 0.3739 0.9274 -0.0132
vn 0.3089 -0.3628 0.8792
vn 0.2674 -0.3935 0.8796
vn 0.3738 -0.3114 0.8737
vn -0.0859 0.6513 0.7539
vn -0.0250 0.6695 0.7423
vn -0.1100 0.6433 0.7577
vn 0.2404 0.5162 0.8220
vn 0.2442 0.5115 0.8238
vn 0.2290 0.5302 0.8164
vn -0.0275 -0.9991 0.0324
vn -0.0285 -0.9991 0.0317
vn -0.0265 -0.9991 0.0330
vn 0.1446 -0.5396 -0.8294
vn 0.1197 -0.5277 -0.8410
vn 0.1822 -0.5568 -0.8104
vn -0.9538 0.2229 0.2016
vn -0.9538 0.2230 0.2015
vn 0.9955 0.0947 -0.0069
vn 0.9938 0.0856 0.0710
vn 0.9893 0.1050 -0.1009
vn -0.0843 0.6812 0.7272
vn -0.0890 0.6838 0.7242
vn -0.0980 0.6888 0.7183
vn -0.0356 -0.9877 -0.1526
vn -0.0392 -0.9867 -0.1576
vn -0.0247 -0.9902 -0.1373
vn 0.2639 -0.4695 -0.8426
vn 0.2611 -0.4672 -0.8447
vn 0.2745 -0.4776 -0.8346
vn -0.9293 -0.1640 -0.3308
vn -0.9375 -0.1805 -0.2974
vn -0.9571 -0.2490 -0.1480
vn 0.9310 0.2792 0.2351
vn 0.9138 0.2589 0.3130
vn 0.9446 0.3049 0.1217
vn 0.9988 0.0477 -0.0105
vn 0.9990 0.0438 -0.0078
vn 0.9993 0.0383 -0.0040
vn 0.9990 0.0434 -0.0066
vn 0.9946 0.1029 -0.0148
vn 0.9940 0.1079 -0.0155
vn -0.3089 -0.3628 0.8792
vn -0.2674 -0.3935 0.8796
vn -0.1873 -0.4486 0.8739
vn 0.0250 0.6695 0.7423
vn 0.0859 0.6513 0.7539
vn 0.1100 0.6433 0.7577
vn -0.2404 0.5162 0.8220
vn -0.2442 0.5115 0.8238
vn -0.2571 0.4953 0.8298
vn 0.0275 -0.9991 0.0324
vn 0.0285 -0.9991 0.0317
vn 0.0301 -0.9991 0.0307
vn -0.1197 -0.5277 -0.8410
vn -0.1446 -0.5396 -0.8294
vn -0.1823 -0.5568 -0.8104
vn 0.9538 0.2229 0.2016
vn 0.9538 0.2230 0.2015
vn -0.9938 0.0856 0.0710
vn -0.9955 0.0947 -0.0069
vn -0.9893 0.1050 -0.1009
vn 0.0843 0.6812 0.7272
vn 0.0890 0.6838 0.7242
vn 0.0765 0.6768 0.7322
vn 0.0392 -0.9867 -0.1576
vn 0.0356 -0.9877 -0.1526
vn 0.0247 -0.9902 -0.1373
vn -0.2611 -0.4672 -0.8447
vn -0.2639 -0.4695 -0.8426
vn -0.2745 -0.4776 -0.8346
vn 0.9293 -0.1640 -0.3308
vn 0.9375 -0.1805 -0.2974
vn 0.8716 -0.0820 -0.4832
vn -0.9138 0.2589 0.3130
vn -0.9310 0.2792 0.2351
vn -0.9446 0.3049 0.1217
vn -0.9988 0.0477 -0.0105
vn -0.9990 0.0438 -0.0078
vn -0.9985 0.0526 -0.0139
vn -0.9946 0.1029 -0.0148
vn -0.9990 0.0434 -0.0066
vn -0.9940 0.1079 -0.0155
vn 0.4372 -0.8993 -0.0129
vn -0.1808 -0.2741 0.9446
vn 0.3192 0.2966 -0.9001
vn 0.9778 0.1927 0.0820
vn 0.7627 0.1551 -0.6279
vn 0.5023 -0.8439 0.1886
vn 0.9002 -0.3794 -0.2138
vn 0.9550 -0.2862 -0.0777
vn 0.4827 0.8717 -0.0847
vn 0.1598 0.9770 -0.1409
vn 0.1976 0.9728 0.1209
vn 0.9781 0.2007 0.0545
vn 0.9301 0.3650 0.0397
vn 0.9699 -0.0366 -0.2408
vn 0.9421 -0.2823 0.1808
vn 0.9836 -0.0984 0.1509
vn 0.3015 -0.4152 -0.8583
vn 0.3934 -0.8816 0.2609
vn 0.9441 0.1103 0.3107
vn 0.7226 -0.6865 0.0805
vn 0.9281 0.0683 -0.3661
vn 0.3201 0.1001 0.9421
vn -0.0787 0.2201 0.9723
vn -0.0218 -0.0123 0.9997
vn 0.3409 -0.7807 0.5238
vn 0.5110 -0.8505 0.1251
vn 0.1748 -0.1219 -0.9770
vn -0.9368 -0.0229 -0.3492
vn 0.4369 -0.8912 -0.1221
vn 0.9985 -0.0094 0.0541
vn -0.3244 -0.9098 -0.2588
vn 0.0617 -0.2753 -0.9594
vn 0.3791 0.1719 -0.9093
vn -0.8650 -0.1197 -0.4873
vn 0.1851 0.9285 -0.3218
vn 0.3778 0.9051 0.1950
vn 0.1330 0.8395 -0.5268
vn -0.7415 0.6709 -0.0070
vn 0.1377 0.9901 -0.0268
vn 0.1906 0.9816 0.0063
vn 0.2275 0.9406 0.2519
vn 0.2902 0.7321 -0.6163
vn 0.1808 0.1744 -0.9679
vn 0.0598 0.2575 0.9644
vn 0.9973 0.0381 -0.0623
vn -0.3622 0.9321 -0.0073
vn 0.1815 -0.3138 0.9320
vn -0.4372 -0.8993 -0.0129
vn -0.3844 0.1797 -0.9055
vn -0.9778 0.1927 0.0820
vn -0.7627 0.1551 -0.6279
vn -0.5023 -0.8439 0.1886
vn -0.9002 -0.3794 -0.2138
vn -0.9552 -0.2862 -0.0750
vn -0.4827 0.8717 -0.0847
vn -0.1950 0.9807 0.0122
vn -0.1769 0.9785 0.1064
vn -0.9781 0.2007 0.0545
vn -0.9809 0.1933 0.0210
vn -0.9942 0.0466 -0.0969
vn -0.9421 -0.2823 0.1808
vn -0.9776 -0.1428 -0.1546
vn -0.3015 -0.4152 -0.8583
vn -0.3970 -0.8805 0.2591
vn -0.9441 0.1103 0.3107
vn -0.9281 0.0683 -0.3661
vn -0.7226 -0.6865 0.0805
vn -0.3201 0.1001 0.9421
vn 0.0366 0.0917 0.9951
vn 0.0787 0.2201 0.9723
vn 0.2788 -0.8281 -0.4864
vn -0.5110 -0.8505 0.1251
vn -0.1624 0.0470 -0.9856
vn 0.8894 -0.4037 0.2143
vn -0.4369 -0.8912 -0.1221
vn -0.9985 -0.0094 0.0541
vn 0.3244 -0.9098 -0.2588
vn -0.0617 -0.2753 -0.9594
vn -0.3517 0.6072 -0.7125
vn 0.8650 -0.1197 -0.4873
vn -0.1851 0.9285 -0.3218
vn -0.3778 0.9051 0.1950
vn -0.1330 0.8395 -0.5268
vn 0.7415 0.6709 -0.0070
vn -0.1233 0.9922 -0.0184
vn -0.1906 0.9816 0.0063
vn -0.2275 0.9406 0.2519
vn -0.2902 0.7321 -0.6163
vn -0.3194 -0.1921 -0.9279
vn -0.0598 0.2575 0.9644
vn -0.2265 0.0112 0.9739
vn 0.3622 0.9321 -0.0073
vn 0.1873 -0.4486 0.8739
vn 0.0019 0.6767 0.7362
vn 0.2571 0.4953 0.8298
vn -0.0301 -0.9991 0.0307
vn 0.0904 -0.5132 -0.8535
vn 0.9855 0.0755 0.1517
vn -0.0765 0.6768 0.7322
vn -0.0535 -0.9826 -0.1777
vn 0.2527 -0.4607 -0.8508
vn -0.8716 -0.0820 -0.4832
vn 0.8847 0.2318 0.4045
vn 0.9985 0.0526 -0.0139
vn 0.9996 0.0266 -0.0043
vn -0.3738 -0.3114 0.8737
vn -0.0019 0.6767 0.7362
vn -0.2290 0.5302 0.8164
vn 0.0265 -0.9991 0.0330
vn -0.0904 -0.5132 -0.8535
vn -0.9855 0.0755 0.1517
vn 0.0980 0.6888 0.7183
vn 0.0535 -0.9826 -0.1777
vn -0.2527 -0.4607 -0.8508
vn 0.9571 -0.2490 -0.1480
vn -0.8847 0.2318 0.4045
vn -0.9993 0.0383 -0.0040
vn -0.9996 0.0266 -0.0043
s 1
f 24//1 33//2 25//3
f 64//4 35//5 8//6
f 1//7 37//8 9//9
f 2//10 58//11 48//12
f 8//13 2//14 24//15
f 49//16 37//17 1//18
f 4//19 39//20 38//21
f 6//22 49//23 1//24
f 35//25 1//26 7//27
f 3//28 14//29 15//30
f 7//31 13//32 3//33
f 64//34 5//35 56//36
f 63//37 11//38 68//39
f 4//40 10//41 11//42
f 13//43 63//44 71//45
f 13//46 23//47 14//48
f 71//49 22//50 23//51
f 3//52 16//53 22//54
f 23//55 16//56 17//57
f 24//58 48//59 83//60
f 24//61 26//62 5//63
f 56//64 33//65 83//66
f 5//67 27//68 34//69
f 34//70 28//71 33//72
f 96//73 6//74 35//75
f 98//76 10//77 36//78
f 99//79 4//80 37//81
f 41//82 46//83 39//84
f 59//85 41//86 39//87
f 4//88 40//89 36//90
f 36//91 41//92 98//93
f 39//94 43//95 42//96
f 40//97 45//98 47//99
f 47//100 43//101 46//102
f 84//103 88//104 93//105
f 64//106 95//107 96//108
f 62//109 100//110 50//111
f 83//112 64//112 71//112
f 58//113 51//114 48//115
f 84//116 60//117 61//118
f 100//119 49//120 50//121
f 53//122 102//123 59//124
f 55//125 49//126 57//127
f 60//128 55//129 95//130
f 49//112 99//112 63//112
f 52//131 73//132 72//133
f 52//134 62//135 60//136
f 54//137 64//138 56//139
f 63//140 67//141 62//142
f 98//112 69//112 63//112
f 67//143 65//144 53//145
f 63//146 72//147 71//148
f 72//149 76//150 82//151
f 71//152 81//153 58//154
f 81//155 74//156 52//157
f 82//158 75//159 81//160
f 48//161 84//162 83//163
f 86//164 84//165 54//166
f 93//167 56//168 83//169
f 94//170 86//171 54//172
f 88//173 94//174 93//175
f 55//176 96//177 95//178
f 65//179 98//180 97//181
f 53//182 99//183 100//184
f 109//185 104//186 102//187
f 59//188 104//189 98//190
f 103//191 53//192 97//193
f 104//194 97//195 98//196
f 105//197 109//198 102//199
f 110//200 107//201 103//202
f 106//203 110//204 109//205
f 11//206 69//207 68//208
f 17//209 18//210 14//211
f 69//212 10//213 66//214
f 19//215 21//216 20//217
f 15//218 20//219 16//220
f 17//221 20//222 21//222
f 14//223 19//224 15//225
f 25//226 32//227 29//228
f 30//229 32//230 31//231
f 26//232 31//233 27//234
f 28//235 31//236 32//237
f 25//238 30//239 26//240
f 42//241 45//242 44//243
f 38//244 44//245 40//246
f 67//247 69//248 70//249
f 77//250 76//251 73//252
f 69//253 65//254 70//255
f 78//256 80//257 77//258
f 79//259 74//260 75//261
f 76//262 79//263 75//262
f 78//264 73//265 74//266
f 85//267 92//268 88//269
f 92//270 90//271 91//272
f 91//273 86//274 87//275
f 88//276 91//277 87//278
f 90//279 85//280 86//281
f 105//282 108//283 106//284
f 107//285 101//286 103//287
f 24//1 83//288 33//2
f 33//2 28//289 25//3
f 64//4 96//290 35//5
f 9//9 7//291 1//7
f 37//8 4//292 9//9
f 2//10 3//293 58//11
f 24//15 5//294 8//13
f 8//13 7//295 2//14
f 49//16 99//296 37//17
f 4//19 59//297 39//20
f 6//22 57//298 49//23
f 7//27 8//299 35//25
f 35//25 6//300 1//26
f 3//28 13//301 14//29
f 3//33 2//302 7//31
f 7//31 9//303 13//32
f 64//34 8//304 5//35
f 63//37 9//305 11//38
f 11//42 9//306 4//40
f 4//40 36//307 10//41
f 10//41 12//308 11//42
f 13//43 9//309 63//44
f 13//46 71//310 23//47
f 23//47 17//311 14//48
f 71//49 58//312 22//50
f 22//54 58//313 3//52
f 3//52 15//314 16//53
f 23//55 22//315 16//56
f 24//58 2//316 48//59
f 24//61 25//317 26//62
f 56//64 34//318 33//65
f 34//69 56//319 5//67
f 5//67 26//320 27//68
f 34//70 27//321 28//71
f 96//73 57//322 6//74
f 98//76 66//323 10//77
f 99//79 59//324 4//80
f 41//82 47//325 46//83
f 59//85 98//326 41//86
f 4//88 38//327 40//89
f 36//91 40//328 41//92
f 42//96 38//329 39//94
f 39//94 46//330 43//95
f 47//99 41//331 40//97
f 40//97 44//332 45//98
f 47//100 45//333 43//101
f 84//103 85//334 88//104
f 93//105 83//335 84//103
f 64//106 61//336 95//107
f 50//111 60//337 62//109
f 62//109 53//338 100//110
f 58//112 48//112 83//112
f 83//112 56//112 64//112
f 64//112 63//112 71//112
f 71//112 58//112 83//112
f 58//113 52//339 51//114
f 61//118 54//340 84//116
f 84//116 51//341 60//117
f 100//119 99//342 49//120
f 53//122 101//343 102//123
f 55//125 50//344 49//126
f 95//130 61//345 60//128
f 60//128 50//346 55//129
f 63//112 64//112 96//112
f 96//112 57//112 49//112
f 99//112 59//112 63//112
f 63//112 96//112 49//112
f 52//131 74//347 73//132
f 60//136 51//348 52//134
f 52//134 72//349 62//135
f 54//137 61//350 64//138
f 63//140 68//351 67//141
f 63//112 59//112 98//112
f 98//112 66//112 69//112
f 69//112 68//112 63//112
f 53//145 62//352 67//143
f 67//143 70//353 65//144
f 65//144 97//354 53//145
f 63//146 62//355 72//147
f 72//149 73//356 76//150
f 82//151 71//357 72//149
f 71//152 82//358 81//153
f 52//157 58//359 81//155
f 81//155 75//360 74//156
f 82//158 76//361 75//159
f 48//161 51//362 84//162
f 86//164 85//363 84//165
f 93//167 94//364 56//168
f 54//172 56//365 94//170
f 94//170 87//366 86//171
f 88//173 87//367 94//174
f 55//176 57//368 96//177
f 65//179 66//369 98//180
f 53//182 59//370 99//183
f 109//185 110//371 104//186
f 59//188 102//372 104//189
f 103//191 101//373 53//192
f 104//194 103//374 97//195
f 102//199 101//375 105//197
f 105//197 106//376 109//198
f 103//202 104//377 110//200
f 110//200 108//378 107//201
f 106//203 108//379 110//204
f 11//206 12//380 69//207
f 17//209 21//381 18//210
f 69//212 12//382 10//213
f 19//215 18//383 21//216
f 15//218 19//384 20//219
f 17//221 16//221 20//222
f 14//223 18//385 19//224
f 25//226 28//386 32//227
f 30//229 29//387 32//230
f 26//232 30//388 31//233
f 28//235 27//389 31//236
f 25//238 29//390 30//239
f 42//241 43//391 45//242
f 38//244 42//392 44//245
f 67//247 68//393 69//248
f 77//250 80//394 76//251
f 69//253 66//395 65//254
f 78//256 79//396 80//257
f 79//259 78//397 74//260
f 76//262 80//263 79//263
f 78//264 77//398 73//265
f 85//267 89//399 92//268
f 92//270 89//400 90//271
f 91//273 90//401 86//274
f 88//276 92//402 91//277
f 90//279 89//403 85//280
f 105//282 107//404 108//283
f 107//285 105//405 101//286
