# Blender 4.5.2 LTS
# www.blender.org
o feather_01
v -0.011013 0.065225 0.000381
v -0.009283 0.056823 0.000397
v -0.005330 0.046692 0.000415
v -0.003106 0.044839 0.000418
v 0.004183 0.048793 0.000411
v 0.010731 0.054970 0.000400
v 0.014808 0.062136 0.000387
v 0.016044 0.069055 0.000374
v 0.016538 0.074985 0.000364
v 0.017156 0.078321 0.000358
v 0.014520 0.075841 0.000362
v 0.008667 0.072173 0.000369
v 0.004436 0.068956 0.000375
v -0.000390 0.064189 0.000383
v -0.004263 0.059959 0.000391
v -0.001224 0.064785 0.000382
v 0.008071 0.073245 0.000367
v 0.012577 0.079970 0.000355
v -0.012603 0.083660 0.000348
v 0.013999 0.089611 0.000337
v 0.013887 0.100726 0.000317
v 0.013444 0.112464 0.000296
v 0.013464 0.124371 0.000274
v -0.008415 0.146746 0.000233
v 0.013701 0.134583 0.000255
v 0.013464 0.142663 0.000241
v 0.014263 0.150009 0.000227
v 0.014469 0.155569 0.000217
v 0.014160 0.158452 0.000212
v 0.015176 0.160206 0.000209
v 0.015677 0.161708 0.000206
v 0.015248 0.163996 0.000202
v 0.014040 0.162208 0.000205
v 0.009814 0.157775 0.000213
v 0.006454 0.154200 0.000220
v 0.009022 0.158397 0.000212
v 0.012698 0.163122 0.000203
v 0.013717 0.165795 0.000199
v 0.012174 0.177866 0.000177
v 0.011316 0.178724 0.000175
v 0.011673 0.181298 0.000170
v 0.010672 0.182656 0.000168
v 0.011316 0.184587 0.000164
v 0.005222 0.197064 0.000142
v 0.010439 0.189591 0.000155
v 0.008885 0.194954 0.000146
v 0.007383 0.198100 0.000140
v 0.005882 0.199458 0.000137
v 0.004249 0.199665 0.000137
v 0.002428 0.198672 0.000139
v 0.001146 0.195486 0.000145
v -0.002578 0.180931 0.000171
v -0.004002 0.175414 0.000181
v -0.007374 0.155387 0.000218
v -0.010669 0.126921 0.000269
v -0.011646 0.115056 0.000291
v -0.012337 0.102988 0.000313
v -0.012626 0.092983 0.000331
v -0.012064 0.074767 0.000364
v -0.003534 0.043937 0.000420
v -0.002781 0.043906 0.000420
v -0.001242 0.044353 0.000419
v 0.000794 0.044899 0.000418
v 0.003277 0.044999 0.000418
v 0.006504 0.044701 0.000419
v 0.009682 0.045048 0.000418
v 0.012022 0.045815 0.000417
v 0.013554 0.046687 0.000415
v 0.012065 0.044601 0.000419
v 0.009518 0.043043 0.000422
v 0.001576 0.041960 0.000424
v -0.000344 0.041704 0.000424
v -0.003426 0.039736 0.000428
v 0.006343 0.042177 0.000423
v -0.002086 0.040921 0.000426
v 0.003959 0.042068 0.000423
v -0.005279 0.093122 0.000331
v -0.005280 0.102942 0.000313
v -0.004771 0.114568 0.000292
v -0.004155 0.126306 0.000270
v -0.001849 0.154894 0.000218
v 0.000166 0.174629 0.000183
v 0.001278 0.180253 0.000172
v -0.004782 0.074385 0.000365
v -0.004523 0.067195 0.000378
v -0.002414 0.061721 0.000388
v -0.005087 0.083662 0.000348
v -0.009488 0.137718 0.000250
v -0.003340 0.137119 0.000251
v -0.002585 0.146198 0.000234
v 0.012993 0.161110 0.000207
v 0.011661 0.159713 0.000210
v -0.000173 0.069618 0.000373
v 0.003724 0.091862 0.000333
v 0.004253 0.102183 0.000314
v 0.000615 0.073815 0.000366
v 0.002543 0.082264 0.000350
v 0.004651 0.125318 0.000272
v 0.005467 0.144773 0.000237
v 0.004288 0.113869 0.000293
v 0.005085 0.135862 0.000253
v -0.005221 0.168691 0.000193
v -0.006277 0.162444 0.000205
v -0.001184 0.161872 0.000206
v -0.000574 0.168007 0.000195
v -0.001267 0.186038 0.000162
v 0.002300 0.185028 0.000164
v 0.004282 0.193497 0.000148
v 0.000030 0.191117 0.000153
v 0.003326 0.189409 0.000156
v -0.011013 0.065225 -0.000381
v -0.009283 0.056823 -0.000397
v -0.005330 0.046692 -0.000415
v -0.003106 0.044839 -0.000418
v 0.004183 0.048793 -0.000411
v 0.010731 0.054970 -0.000400
v 0.014808 0.062136 -0.000387
v 0.016044 0.069055 -0.000374
v 0.016538 0.074985 -0.000364
v 0.017156 0.078321 -0.000358
v 0.014520 0.075841 -0.000362
v 0.008667 0.072173 -0.000369
v 0.004436 0.068956 -0.000375
v -0.000390 0.064189 -0.000383
v -0.004263 0.059959 -0.000391
v -0.001224 0.064785 -0.000382
v 0.008071 0.073245 -0.000367
v 0.012577 0.079970 -0.000355
v -0.012603 0.083660 -0.000348
v 0.013999 0.089611 -0.000337
v 0.013887 0.100726 -0.000317
v 0.013444 0.112464 -0.000296
v 0.013464 0.124371 -0.000274
v -0.008415 0.146746 -0.000233
v 0.013701 0.134583 -0.000255
v 0.013464 0.142663 -0.000241
v 0.014263 0.150009 -0.000227
v 0.014469 0.155569 -0.000217
v 0.014160 0.158452 -0.000212
v 0.015176 0.160206 -0.000209
v 0.015677 0.161708 -0.000206
v 0.015248 0.163996 -0.000202
v 0.014040 0.162208 -0.000205
v 0.009814 0.157775 -0.000213
v 0.006454 0.154200 -0.000220
v 0.009022 0.158397 -0.000212
v 0.012698 0.163122 -0.000203
v 0.013717 0.165795 -0.000199
v 0.012174 0.177866 -0.000177
v 0.011316 0.178724 -0.000175
v 0.011673 0.181298 -0.000170
v 0.010672 0.182656 -0.000168
v 0.011316 0.184587 -0.000164
v 0.005222 0.197064 -0.000142
v 0.010439 0.189591 -0.000155
v 0.008885 0.194954 -0.000146
v 0.007383 0.198100 -0.000140
v 0.005882 0.199458 -0.000137
v 0.004249 0.199665 -0.000137
v 0.002428 0.198672 -0.000139
v 0.001146 0.195486 -0.000145
v -0.002578 0.180931 -0.000171
v -0.004002 0.175414 -0.000181
v -0.007374 0.155387 -0.000218
v -0.010669 0.126921 -0.000269
v -0.011646 0.115056 -0.000291
v -0.012337 0.102988 -0.000313
v -0.012626 0.092983 -0.000331
v -0.012064 0.074767 -0.000364
v -0.003534 0.043937 -0.000420
v -0.002781 0.043906 -0.000420
v -0.001242 0.044353 -0.000419
v 0.000794 0.044899 -0.000418
v 0.003277 0.044999 -0.000418
v 0.006504 0.044701 -0.000419
v 0.009682 0.045048 -0.000418
v 0.012022 0.045815 -0.000417
v 0.013554 0.046687 -0.000415
v 0.012065 0.044601 -0.000419
v 0.009518 0.043043 -0.000422
v 0.001576 0.041960 -0.000424
v -0.000344 0.041704 -0.000424
v -0.003426 0.039736 -0.000428
v 0.006343 0.042177 -0.000423
v -0.002086 0.040921 -0.000426
v 0.003959 0.042068 -0.000423
v -0.005279 0.093122 -0.000331
v -0.005280 0.102942 -0.000313
v -0.004771 0.114568 -0.000292
v -0.004155 0.126306 -0.000270
v -0.001849 0.154894 -0.000218
v 0.000166 0.174629 -0.000183
v 0.001278 0.180253 -0.000172
v -0.004782 0.074385 -0.000365
v -0.004523 0.067195 -0.000378
v -0.002414 0.061721 -0.000388
v -0.005087 0.083662 -0.000348
v -0.009488 0.137718 -0.000250
v -0.003340 0.137119 -0.000251
v -0.002585 0.146198 -0.000234
v 0.012993 0.161110 -0.000207
v 0.011661 0.159713 -0.000210
v -0.000173 0.069618 -0.000373
v 0.003724 0.091862 -0.000333
v 0.004253 0.102183 -0.000314
v 0.000615 0.073815 -0.000366
v 0.002543 0.082264 -0.000350
v 0.004651 0.125318 -0.000272
v 0.005467 0.144773 -0.000237
v 0.004288 0.113869 -0.000293
v 0.005085 0.135862 -0.000253
v -0.005221 0.168691 -0.000193
v -0.006277 0.162444 -0.000205
v -0.001184 0.161872 -0.000206
v -0.000574 0.168007 -0.000195
v -0.001267 0.186038 -0.000162
v 0.002300 0.185028 -0.000164
v 0.004282 0.193497 -0.000148
v 0.000030 0.191117 -0.000153
v 0.003326 0.189409 -0.000156
v 0.000826 0.000088 0.001438
v 0.001431 0.000152 0.000830
v 0.001652 0.000176 -0.000000
v 0.001431 0.000152 -0.000830
v 0.000826 0.000088 -0.001438
v 0.000001 -0.000000 -0.001661
v -0.000826 -0.000088 -0.001439
v -0.001431 -0.000152 -0.000831
v -0.001653 -0.000176 0.000000
v -0.001431 -0.000152 0.000831
v -0.000826 -0.000088 0.001439
v 0.000001 0.000000 0.001661
v -0.002863 0.034406 0.001236
v -0.002342 0.034457 0.000713
v -0.002151 0.034476 -0.000000
v -0.002342 0.034457 -0.000713
v -0.002863 0.034406 -0.001236
v -0.003575 0.034336 -0.001427
v -0.004287 0.034266 -0.001237
v -0.004809 0.034215 -0.000714
v -0.005000 0.034196 -0.000000
v -0.004809 0.034215 0.000714
v -0.004287 0.034266 0.001237
v -0.003575 0.034336 0.001427
v -0.004022 0.049648 0.001146
v -0.003538 0.049680 0.000661
v -0.003361 0.049692 -0.000000
v -0.003538 0.049680 -0.000661
v -0.004022 0.049648 -0.001146
v -0.004683 0.049604 -0.001323
v -0.005345 0.049560 -0.001146
v -0.005830 0.049528 -0.000662
v -0.006007 0.049516 -0.000000
v -0.005830 0.049528 0.000662
v -0.005345 0.049560 0.001146
v -0.004683 0.049604 0.001323
v -0.004719 0.064908 0.001056
v -0.004273 0.064935 0.000609
v -0.004109 0.064945 -0.000000
v -0.004273 0.064935 -0.000609
v -0.004719 0.064908 -0.001056
v -0.005328 0.064872 -0.001219
v -0.005938 0.064835 -0.001056
v -0.006385 0.064809 -0.000610
v -0.006548 0.064799 -0.000000
v -0.006385 0.064809 0.000610
v -0.005938 0.064835 0.001056
v -0.005328 0.064872 0.001219
v -0.005140 0.082684 0.000951
v -0.004738 0.082696 0.000549
v -0.004591 0.082700 -0.000000
v -0.004738 0.082696 -0.000549
v -0.005139 0.082684 -0.000951
v -0.005688 0.082667 -0.001098
v -0.006237 0.082651 -0.000951
v -0.006639 0.082639 -0.000549
v -0.006786 0.082634 -0.000000
v -0.006639 0.082639 0.000549
v -0.006238 0.082651 0.000951
v -0.005689 0.082667 0.001098
v -0.005341 0.100445 0.000845
v -0.004984 0.100431 0.000488
v -0.004853 0.100426 -0.000000
v -0.004984 0.100431 -0.000488
v -0.005341 0.100445 -0.000845
v -0.005829 0.100463 -0.000976
v -0.006317 0.100482 -0.000845
v -0.006674 0.100495 -0.000488
v -0.006804 0.100500 -0.000000
v -0.006674 0.100495 0.000488
v -0.006317 0.100482 0.000845
v -0.005829 0.100463 0.000976
v -0.004496 0.120893 0.000725
v -0.004191 0.120860 0.000418
v -0.004080 0.120848 -0.000001
v -0.004192 0.120860 -0.000419
v -0.004497 0.120893 -0.000726
v -0.004914 0.120938 -0.000838
v -0.005330 0.120983 -0.000725
v -0.005634 0.121016 -0.000418
v -0.005746 0.121028 0.000001
v -0.005634 0.121016 0.000419
v -0.005329 0.120983 0.000726
v -0.004912 0.120938 0.000838
v -0.003042 0.141345 0.000607
v -0.002791 0.141296 0.000350
v -0.002699 0.141278 -0.000001
v -0.002792 0.141296 -0.000352
v -0.003044 0.141346 -0.000608
v -0.003388 0.141414 -0.000702
v -0.003732 0.141482 -0.000607
v -0.003984 0.141531 -0.000350
v -0.004076 0.141549 0.000001
v -0.003983 0.141531 0.000352
v -0.003731 0.141481 0.000608
v -0.003386 0.141413 0.000702
v -0.001512 0.159355 0.000498
v -0.001295 0.159318 0.000288
v -0.001215 0.159304 -0.000000
v -0.001295 0.159318 -0.000288
v -0.001512 0.159355 -0.000498
v -0.001808 0.159405 -0.000574
v -0.002104 0.159456 -0.000497
v -0.002320 0.159493 -0.000287
v -0.002399 0.159507 -0.000000
v -0.002320 0.159493 0.000287
v -0.002104 0.159456 0.000497
v -0.001808 0.159405 0.000574
v 0.000134 0.174216 0.000436
v 0.000313 0.174172 0.000251
v 0.000378 0.174157 -0.000002
v 0.000312 0.174173 -0.000253
v 0.000132 0.174216 -0.000437
v -0.000114 0.174275 -0.000504
v -0.000359 0.174334 -0.000436
v -0.000537 0.174377 -0.000251
v -0.000602 0.174393 0.000002
v -0.000536 0.174377 0.000253
v -0.000356 0.174334 0.000437
v -0.000110 0.174275 0.000504
v 0.002815 0.188105 0.000337
v 0.002946 0.188050 0.000193
v 0.002993 0.188030 -0.000002
v 0.002944 0.188050 -0.000197
v 0.002812 0.188107 -0.000339
v 0.002632 0.188183 -0.000390
v 0.002453 0.188259 -0.000337
v 0.002323 0.188315 -0.000193
v 0.002275 0.188335 0.000002
v 0.002324 0.188314 0.000197
v 0.002456 0.188258 0.000339
v 0.002636 0.188181 0.000390
v 0.005997 0.199239 0.000111
v 0.006051 0.199216 0.000061
v 0.006068 0.199209 -0.000000
v 0.006051 0.199216 -0.000061
v 0.005997 0.199239 -0.000111
v 0.005918 0.199273 -0.000130
v 0.005839 0.199308 -0.000109
v 0.005787 0.199332 -0.000059
v 0.005770 0.199340 -0.000000
v 0.005787 0.199332 0.000059
v 0.005839 0.199308 0.000109
v 0.005918 0.199273 0.000130
v -0.000001 0.000000 0.000000
v 0.005996 0.199133 0.000193
v 0.005879 0.199184 0.000222
v 0.006083 0.199095 0.000112
v 0.006115 0.199082 -0.000000
v 0.006083 0.199095 -0.000112
v 0.005996 0.199133 -0.000193
v 0.005879 0.199184 -0.000222
v 0.005761 0.199236 -0.000192
v 0.005676 0.199274 -0.000110
v 0.005645 0.199288 -0.000000
v 0.005676 0.199274 0.000110
v 0.005761 0.199236 0.000192
v 0.005919 0.199274 0.000060
v 0.005919 0.199274 -0.000000
v 0.005919 0.199274 -0.000060
vn -0.0000 0.0018 1.0000
vn 0.0001 0.0018 1.0000
vn 0.0002 0.0017 1.0000
vn -0.0000 0.0017 1.0000
vn 0.0004 0.0017 1.0000
vn -0.0000 0.0020 1.0000
vn -0.0000 0.0016 1.0000
vn 0.0001 0.0020 1.0000
vn -0.0000 0.0019 1.0000
vn -0.0001 0.0020 1.0000
vn 0.0001 0.0017 1.0000
vn -0.0001 0.0017 1.0000
vn -0.0001 0.0018 1.0000
vn -0.0002 0.0018 1.0000
vn -0.0001 0.0019 1.0000
vn 0.0001 0.0019 1.0000
vn -0.0001 0.0021 1.0000
vn 0.0001 0.0021 1.0000
vn -0.0000 0.0018 -1.0000
vn 0.0001 0.0018 -1.0000
vn 0.0002 0.0017 -1.0000
vn 0.0004 0.0017 -1.0000
vn -0.0000 0.0017 -1.0000
vn -0.0000 0.0020 -1.0000
vn -0.0000 0.0016 -1.0000
vn 0.0001 0.0020 -1.0000
vn -0.0000 0.0019 -1.0000
vn 0.0001 0.0017 -1.0000
vn -0.0001 0.0020 -1.0000
vn -0.0001 0.0017 -1.0000
vn -0.0001 0.0016 -1.0000
vn -0.0001 0.0018 -1.0000
vn -0.0002 0.0018 -1.0000
vn -0.0001 0.0019 -1.0000
vn -0.0001 0.0021 -1.0000
vn 0.0001 0.0019 -1.0000
vn 0.0001 0.0021 -1.0000
vn -0.9878 -0.1558 -0.0000
vn -0.9589 -0.2837 -0.0000
vn -0.8114 -0.5845 -0.0000
vn -0.6401 -0.7683 -0.0000
vn 0.4768 -0.8790 -0.0000
vn 0.5864 -0.8101 -0.0000
vn 0.5864 -0.8100 -0.0000
vn 0.7863 -0.6179 -0.0000
vn 0.9403 -0.3403 -0.0000
vn 0.9916 -0.1296 -0.0000
vn 0.9912 -0.1327 -0.0000
vn 0.9833 -0.1822 -0.0000
vn -0.6110 0.7916 -0.0000
vn -0.6852 0.7283 -0.0000
vn -0.5687 0.8225 -0.0000
vn -0.6554 0.7553 -0.0000
vn -0.7390 0.6737 -0.0000
vn -0.7329 0.6803 -0.0000
vn -0.6899 0.7239 -0.0000
vn 0.8462 -0.5329 -0.0000
vn 0.7667 -0.6420 -0.0000
vn 0.7574 -0.6529 -0.0000
vn 0.9328 -0.3603 -0.0000
vn -0.9999 0.0132 -0.0000
vn -0.9995 -0.0315 -0.0000
vn 0.9977 -0.0682 -0.0000
vn 0.9997 0.0239 -0.0000
vn 0.9998 0.0180 -0.0000
vn 0.9999 -0.0124 -0.0000
vn -0.9906 0.1366 -0.0000
vn -0.9929 0.1188 -0.0000
vn 1.0000 0.0030 -0.0000
vn 0.9992 -0.0394 -0.0000
vn 0.9974 -0.0727 -0.0000
vn 0.9994 0.0348 -0.0000
vn 0.9783 -0.2073 -0.0000
vn 0.9116 -0.4110 -0.0000
vn 0.9976 -0.0685 -0.0000
vn 0.9829 0.1843 -0.0000
vn -0.8286 0.5598 -0.0000
vn -0.7788 0.6272 -0.0000
vn -0.7261 0.6876 -0.0000
vn -0.7238 0.6900 -0.0000
vn -0.7287 0.6849 -0.0000
vn 0.8530 -0.5219 -0.0000
vn 0.8225 -0.5688 -0.0000
vn 0.8714 -0.4906 -0.0000
vn 0.9930 -0.1185 -0.0000
vn 0.8979 0.4403 -0.0000
vn 0.7071 0.7071 -0.0000
vn 0.9905 -0.1374 -0.0000
vn 0.8050 0.5933 -0.0000
vn 0.9486 -0.3164 -0.0000
vn 0.9972 -0.0744 -0.0000
vn 0.9742 0.2257 -0.0000
vn 0.9346 0.3557 -0.0000
vn 0.8020 0.5974 -0.0000
vn 0.4177 0.9086 -0.0000
vn -0.1856 0.9826 -0.0000
vn -0.7473 0.6644 -0.0000
vn -0.9504 0.3110 -0.0000
vn -0.9688 0.2480 -0.0000
vn -0.9684 0.2493 -0.0000
vn -0.9768 0.2143 -0.0000
vn -0.9871 0.1601 -0.0000
vn -0.9936 0.1134 -0.0000
vn -0.9954 0.0954 -0.0000
vn -0.9976 0.0696 -0.0000
vn -0.9991 0.0430 -0.0000
vn -0.9964 -0.0850 -0.0000
vn -0.1204 0.9927 -0.0000
vn 0.0407 0.9992 -0.0000
vn -0.2690 0.9631 -0.0000
vn -0.1506 0.9886 -0.0000
vn 0.0259 0.9997 -0.0000
vn -0.0083 1.0000 -0.0000
vn -0.2111 0.9775 -0.0000
vn -0.4051 0.9143 -0.0000
vn -0.4944 0.8692 -0.0000
vn 0.6815 -0.7319 -0.0000
vn 0.8139 -0.5810 -0.0000
vn 0.3964 -0.9181 -0.0000
vn 0.0888 -0.9960 -0.0000
vn 0.0455 -0.9990 -0.0000
vn 0.2740 -0.9617 -0.0000
vn 0.6625 -0.7491 -0.0000
vn 0.5425 -0.8401 -0.0000
vn 0.1553 -0.9879 -0.0000
vn -0.7237 0.6901 -0.0000
vn -0.9850 0.1725 -0.0000
vn -0.9689 0.2475 -0.0000
vn 0.4949 0.0505 0.8675
vn -0.0003 0.0068 1.0000
vn 0.4969 0.0586 0.8658
vn 0.8610 0.0829 0.5018
vn 0.8605 0.0963 0.5003
vn 0.9955 0.0947 -0.0000
vn 0.9939 0.1102 -0.0000
vn 0.8605 0.0963 -0.5003
vn 0.4969 0.0586 -0.8658
vn 0.8610 0.0829 -0.5018
vn -0.0003 0.0068 -1.0000
vn 0.4949 0.0505 -0.8675
vn -0.4977 -0.0450 -0.8662
vn -0.0026 0.0066 -1.0000
vn -0.8619 -0.0830 -0.5003
vn -0.4991 -0.0373 -0.8658
vn -0.9953 -0.0969 -0.0000
vn -0.8634 -0.0695 -0.4998
vn -0.8634 -0.0695 0.4998
vn -0.8619 -0.0830 0.5003
vn -0.4991 -0.0373 0.8658
vn -0.4977 -0.0450 0.8662
vn -0.0026 0.0066 1.0000
vn -0.0027 0.0067 1.0000
vn 0.4965 0.0354 0.8673
vn 0.8634 0.0564 0.5013
vn 0.8634 0.0564 -0.5013
vn 0.4965 0.0354 -0.8673
vn -0.0027 0.0067 -1.0000
vn -0.5001 -0.0219 -0.8657
vn -0.8651 -0.0428 -0.4998
vn -0.9987 -0.0505 -0.0000
vn -0.9967 -0.0813 -0.0000
vn -0.8651 -0.0428 0.4998
vn -0.5001 -0.0222 0.8657
vn -0.0020 0.0068 1.0000
vn 0.4979 0.0224 0.8669
vn 0.9979 0.0642 -0.0000
vn 0.8646 0.0338 0.5014
vn 0.8646 0.0338 -0.5014
vn 0.4979 0.0224 -0.8669
vn -0.0020 0.0068 -1.0000
vn -0.5003 -0.0084 -0.8658
vn -0.8659 -0.0202 -0.4998
vn -0.9997 -0.0244 -0.0000
vn -0.8659 -0.0202 0.4998
vn -0.5002 -0.0088 0.8658
vn -0.0012 0.0068 1.0000
vn 0.4988 0.0139 0.8666
vn 0.9993 0.0380 -0.0000
vn 0.8655 0.0190 0.5005
vn 0.8658 0.0191 -0.5000
vn 0.4994 0.0143 -0.8663
vn -0.0012 0.0068 -1.0000
vn -0.5007 -0.0002 -0.8656
vn -0.8662 -0.0057 -0.4996
vn -1.0000 -0.0072 -0.0000
vn -0.8666 -0.0053 0.4990
vn -0.5012 -0.0002 0.8653
vn 0.4969 -0.0023 0.8678
vn 0.8647 -0.0090 0.5022
vn 0.9999 -0.0114 -0.0000
vn 0.9998 0.0210 -0.0000
vn 0.8647 -0.0090 -0.5022
vn 0.4969 -0.0023 -0.8678
vn -0.0041 0.0068 -1.0000
vn -0.5030 0.0157 -0.8641
vn -0.8670 0.0228 -0.4977
vn -0.8670 0.0228 0.4977
vn -0.5030 0.0160 0.8642
vn -0.0044 0.0068 1.0000
vn 0.4993 -0.0231 0.8661
vn 0.8650 -0.0447 0.4998
vn 0.9986 -0.0529 -0.0014
vn 0.8643 -0.0446 -0.5010
vn 0.4981 -0.0230 -0.8668
vn -0.0032 0.0068 -1.0000
vn -0.5024 0.0362 -0.8639
vn -0.9997 0.0253 -0.0000
vn -0.8651 0.0584 -0.4982
vn -0.8646 0.0584 0.4991
vn -0.5005 0.0365 0.8650
vn -0.0008 0.0067 1.0000
vn 0.5028 -0.0351 0.8637
vn 0.8655 -0.0639 0.4968
vn 0.9972 -0.0750 -0.0014
vn 0.8638 -0.0641 -0.4997
vn 0.4999 -0.0336 -0.8655
vn -0.5015 0.0474 -0.8639
vn -0.9978 0.0664 0.0003
vn -0.8641 0.0771 -0.4973
vn -0.8630 0.0765 0.4994
vn -0.4991 0.0472 0.8653
vn 0.0015 0.0066 1.0000
vn 0.4815 -0.0425 0.8754
vn 0.8532 -0.0797 0.5155
vn 0.9956 -0.0940 -0.0000
vn 0.8531 -0.0802 -0.5155
vn 0.4815 -0.0425 -0.8754
vn -0.4853 0.0551 -0.8726
vn -0.9962 0.0872 0.0013
vn -0.8540 0.0921 -0.5120
vn -0.8540 0.0921 0.5120
vn -0.4853 0.0547 0.8727
vn -0.0026 0.0061 1.0000
vn 0.4935 -0.0697 0.8669
vn 0.8574 -0.1256 0.4991
vn 0.9893 -0.1456 -0.0031
vn 0.8547 -0.1248 -0.5039
vn 0.4889 -0.0695 -0.8696
vn -0.0075 0.0076 -0.9999
vn -0.5016 0.0845 -0.8610
vn -0.9943 0.1065 -0.0000
vn -0.8587 0.1411 -0.4927
vn -0.8553 0.1410 0.4986
vn -0.4961 0.0837 0.8642
vn -0.0024 0.0063 1.0000
vn 0.4920 -0.1099 0.8636
vn 0.8473 -0.1970 0.4932
vn 0.9737 -0.2276 -0.0047
vn 0.8422 -0.1955 -0.5025
vn 0.4822 -0.1087 -0.8693
vn -0.0089 0.0133 -0.9999
vn -0.4968 0.1320 -0.8577
vn -0.9869 0.1611 0.0028
vn -0.8444 0.2180 -0.4894
vn -0.8394 0.2185 0.4977
vn -0.4865 0.1296 0.8640
vn 0.0008 0.0101 0.9999
vn 0.5253 0.1885 0.8297
vn 0.8568 0.0663 0.5113
vn 0.9999 0.0169 -0.0003
vn 0.8590 0.0634 -0.5081
vn 0.5259 0.1884 -0.8294
vn -0.0160 0.0196 -0.9997
vn -0.4516 0.1470 -0.8801
vn -0.9686 0.2486 0.0028
vn -0.8093 0.2512 -0.5309
vn -0.8093 0.2513 0.5309
vn -0.4528 0.1474 0.8794
vn -0.0167 0.0199 0.9997
vn 0.1057 -0.9944 -0.0000
vn 0.1058 -0.9944 -0.0000
vn 0.1057 -0.9944 -0.0002
vn 0.1059 -0.9944 -0.0000
vn 0.1056 -0.9944 -0.0000
vn 0.1057 -0.9944 0.0002
vn 0.1056 -0.9944 0.0002
vn 0.1056 -0.9944 -0.0002
vn 0.4030 0.9152 -0.0069
vn 0.4013 0.9159 -0.0083
vn 0.4008 0.9161 -0.0098
vn 0.5716 0.5023 0.6488
vn 0.2715 0.6312 0.7265
vn 0.8299 0.3925 0.3966
vn 0.9373 0.3485 -0.0000
vn 0.8298 0.3926 -0.3966
vn 0.5716 0.5023 -0.6488
vn 0.2716 0.6312 -0.7265
vn 0.2672 0.6331 -0.7265
vn -0.0223 0.7625 -0.6466
vn -0.0236 0.7629 -0.6461
vn -0.2706 0.8761 -0.3990
vn -0.2762 0.8756 -0.3963
vn -0.3777 0.9259 -0.0000
vn -0.3819 0.9242 -0.0000
vn -0.2763 0.8755 0.3964
vn -0.2705 0.8762 0.3989
vn -0.0237 0.7629 0.6461
vn -0.0223 0.7625 0.6466
vn 0.2674 0.6334 0.7261
vn 0.4018 0.9157 0.0073
vn 0.4020 0.9156 -0.0009
vn 0.4017 0.9157 0.0066
vn 0.4024 0.9154 0.0111
vn 0.4007 0.9161 0.0125
vn 0.4027 0.9153 0.0083
vn 0.4038 0.9148 -0.0010
vn 0.4021 0.9155 0.0124
vn 0.4034 0.9150 -0.0098
vn 0.4037 0.9149 -0.0090
vn 0.4010 0.9160 -0.0079
vn -0.0001 0.0016 1.0000
vn -0.9558 0.2940 0.0011
vn 0.4004 0.9163 -0.0009
s 1
f 15//1 3//2 4//2
f 67//3 69//4 68//5
f 83//1 106//1 52//1
f 75//6 60//3 73//7
f 72//6 61//8 75//6
f 71//9 64//1 63//10
f 72//6 63//10 62//9
f 76//11 65//12 64//1
f 65//12 70//9 66//9
f 66//9 69//4 67//3
f 11//13 9//14 10//14
f 82//15 52//1 53//13
f 17//1 93//1 16//2
f 102//13 82//15 53//13
f 90//1 54//2 24//1
f 56//1 80//1 55//1
f 78//1 56//1 57//1
f 59//1 87//1 19//1
f 57//1 77//1 78//1
f 59//1 85//1 84//1
f 97//1 17//1 18//15
f 1//13 15//1 85//1
f 21//1 94//1 20//1
f 8//2 11//13 12//2
f 7//1 12//2 13//1
f 86//1 6//1 14//9
f 13//1 6//1 7//1
f 5//1 15//1 4//2
f 19//1 77//1 58//1
f 20//1 97//1 18//15
f 22//1 95//1 21//1
f 23//9 100//1 22//1
f 33//15 31//9 32//12
f 55//1 89//1 88//1
f 89//1 24//1 88//1
f 35//1 28//1 34//1
f 25//1 98//1 23//9
f 30//15 33//15 91//9
f 29//1 91//9 92//11
f 34//1 29//1 92//11
f 104//1 35//1 36//16
f 35//1 90//1 99//1
f 101//1 80//1 98//1
f 98//1 79//1 100//1
f 93//1 84//1 85//1
f 95//1 77//1 94//1
f 94//1 87//1 97//1
f 97//1 84//1 96//1
f 99//1 89//1 101//1
f 100//1 78//1 95//1
f 16//2 85//1 15//1
f 99//1 27//1 35//1
f 26//1 101//1 25//1
f 81//1 103//1 54//2
f 104//1 102//13 103//1
f 105//13 36//16 37//4
f 38//4 105//13 37//4
f 82//15 39//6 40//17
f 83//1 40//17 41//1
f 45//1 110//16 43//16
f 44//9 47//6 48//18
f 44//9 49//8 50//9
f 42//11 83//1 41//1
f 51//2 44//9 50//9
f 106//1 110//16 109//2
f 108//1 46//12 44//9
f 109//2 108//1 51//2
f 43//16 107//1 42//11
f 125//19 113//20 112//19
f 177//21 178//22 179//23
f 216//19 193//19 162//19
f 170//21 185//24 183//25
f 171//26 182//24 185//24
f 181//27 174//19 186//28
f 182//24 173//29 181//27
f 175//30 186//28 174//19
f 175//30 180//27 184//31
f 176//27 179//23 180//27
f 121//32 120//33 119//33
f 162//19 192//34 163//32
f 127//19 203//19 206//19
f 212//32 192//34 215//32
f 164//20 200//19 134//19
f 166//19 190//19 189//19
f 166//19 188//19 167//19
f 197//19 169//19 129//19
f 167//19 187//19 168//19
f 195//19 169//19 194//19
f 127//19 207//19 128//34
f 125//19 111//32 195//19
f 131//19 204//19 205//19
f 121//32 118//20 122//20
f 122//20 117//19 123//19
f 116//19 196//19 124//27
f 123//19 116//19 124//27
f 115//19 125//19 196//19
f 187//19 129//19 168//19
f 130//19 207//19 204//19
f 132//19 205//19 210//19
f 133//27 210//19 208//19
f 143//34 142//30 141//27
f 165//19 199//19 190//19
f 134//19 199//19 198//19
f 145//19 138//19 137//19
f 135//19 208//19 211//19
f 143//34 140//34 201//27
f 201//27 139//19 202//28
f 144//19 139//19 138//19
f 145//19 214//19 146//20
f 145//19 200//19 191//19
f 190//19 211//19 208//19
f 189//19 208//19 210//19
f 203//19 194//19 206//19
f 187//19 205//19 204//19
f 197//19 204//19 207//19
f 194//19 207//19 206//19
f 199//19 209//19 211//19
f 188//19 210//19 205//19
f 126//20 195//19 203//19
f 209//19 137//19 136//19
f 136//19 211//19 209//19
f 213//19 191//19 164//20
f 212//32 214//19 213//19
f 146//20 215//32 147//23
f 148//23 215//32 192//34
f 149//24 192//34 150//35
f 150//35 193//19 151//19
f 155//19 220//36 218//19
f 157//24 154//27 158//37
f 159//26 154//27 160//27
f 152//28 193//19 217//19
f 161//20 154//27 218//19
f 216//19 220//36 217//19
f 156//30 218//19 154//27
f 219//20 218//19 220//36
f 153//36 217//19 220//36
f 1//38 112//39 2//39
f 3//40 112//39 113//40
f 3//40 114//41 4//41
f 4//42 115//43 5//44
f 5//44 116//45 6//45
f 6//45 117//46 7//46
f 7//46 118//47 8//47
f 8//47 119//48 9//48
f 9//48 120//49 10//49
f 11//50 120//51 121//50
f 11//50 122//52 12//52
f 12//52 123//53 13//53
f 13//53 124//54 14//54
f 86//55 125//56 15//56
f 15//57 126//58 16//58
f 17//59 128//60 18//60
f 58//61 129//62 19//62
f 20//63 131//64 21//64
f 21//64 132//65 22//65
f 22//65 133//66 23//66
f 54//67 134//68 24//68
f 25//69 136//70 26//70
f 27//71 136//70 137//71
f 27//71 138//72 28//72
f 28//72 139//73 29//73
f 29//73 140//74 30//74
f 31//75 140//74 141//75
f 31//75 142//76 32//76
f 32//77 143//78 33//78
f 34//79 202//80 144//79
f 34//79 145//81 35//81
f 35//82 146//83 36//83
f 37//84 148//85 38//85
f 37//84 146//83 147//84
f 39//86 150//87 40//87
f 40//88 151//88 41//88
f 41//89 152//89 42//89
f 42//90 153//91 43//91
f 43//91 155//92 45//92
f 45//92 156//93 46//93
f 46//93 157//94 47//94
f 47//94 158//95 48//95
f 48//95 159//96 49//96
f 49//96 160//97 50//97
f 51//98 160//97 161//98
f 106//99 162//100 52//100
f 52//100 163//101 53//101
f 103//102 164//67 54//67
f 88//103 165//104 55//104
f 55//104 166//105 56//105
f 56//105 167//106 57//106
f 57//106 168//61 58//61
f 19//62 169//107 59//107
f 59//107 111//38 1//38
f 61//108 170//109 60//109
f 62//110 171//108 61//108
f 63//111 172//110 62//110
f 64//112 173//111 63//111
f 65//113 174//112 64//112
f 66//114 175//113 65//113
f 67//115 176//114 66//114
f 68//116 177//115 67//115
f 69//117 178//118 68//118
f 70//119 179//117 69//117
f 71//120 186//121 76//121
f 72//122 181//120 71//120
f 73//123 185//124 75//124
f 74//125 180//119 70//119
f 75//124 182//122 72//122
f 76//121 184//125 74//125
f 14//54 196//55 86//55
f 18//60 130//63 20//63
f 23//66 135//69 25//69
f 24//68 198//103 88//103
f 91//126 143//78 201//126
f 91//126 202//80 92//80
f 53//101 212//127 102//127
f 102//127 213//102 103//102
f 38//85 149//86 39//86
f 109//128 216//99 106//99
f 51//98 219//128 109//128
f 16//58 127//59 17//59
f 233//129 232//130 221//131
f 234//132 221//131 222//133
f 235//134 222//133 223//135
f 224//136 235//134 223//135
f 225//137 236//138 224//136
f 226//139 237//140 225//137
f 227//141 238//142 226//139
f 228//143 239//144 227//141
f 229//145 240//146 228//143
f 242//147 229//145 230//148
f 243//149 230//148 231//150
f 244//151 231//150 232//130
f 233//129 256//152 244//151
f 234//132 245//153 233//129
f 235//134 246//154 234//132
f 248//155 235//134 236//138
f 249//156 236//138 237//140
f 250//157 237//140 238//142
f 251//158 238//142 239//144
f 252//159 239//144 240//146
f 253//160 240//146 241//161
f 242//147 253//160 241//161
f 243//149 254//162 242//147
f 244//151 255//163 243//149
f 245//153 268//164 256//152
f 246//154 257//165 245//153
f 247//166 258//167 246//154
f 260//168 247//166 248//155
f 261//169 248//155 249//156
f 262//170 249//156 250//157
f 263//171 250//157 251//158
f 264//172 251//158 252//159
f 265//173 252//159 253//160
f 254//162 265//173 253//160
f 255//163 266//174 254//162
f 256//152 267//175 255//163
f 257//165 280//176 268//164
f 258//167 269//177 257//165
f 259//178 270//179 258//167
f 272//180 259//178 260//168
f 273//181 260//168 261//169
f 274//182 261//169 262//170
f 275//183 262//170 263//171
f 276//184 263//171 264//172
f 277//185 264//172 265//173
f 266//174 277//185 265//173
f 267//175 278//186 266//174
f 268//164 279//187 267//175
f 281//188 280//176 269//177
f 282//189 269//177 270//179
f 283//190 270//179 271//191
f 272//180 283//190 271//191
f 273//181 284//192 272//180
f 274//182 285//193 273//181
f 275//183 286//194 274//182
f 276//184 287//195 275//183
f 277//185 288//196 276//184
f 290//197 277//185 278//186
f 291//198 278//186 279//187
f 292//199 279//187 280//176
f 293//200 292//199 281//188
f 294//201 281//188 282//189
f 295//202 282//189 283//190
f 284//192 295//202 283//190
f 285//193 296//203 284//192
f 286//194 297//204 285//193
f 287//195 298//205 286//194
f 288//196 299//206 287//195
f 289//207 300//208 288//196
f 302//209 289//207 290//197
f 303//210 290//197 291//198
f 304//211 291//198 292//199
f 305//212 304//211 293//200
f 306//213 293//200 294//201
f 307//214 294//201 295//202
f 296//203 307//214 295//202
f 297//204 308//215 296//203
f 298//205 309//216 297//204
f 299//206 310//182 298//205
f 300//208 311//217 299//206
f 301//218 312//219 300//208
f 314//220 301//218 302//209
f 315//221 302//209 303//210
f 316//222 303//210 304//211
f 317//223 316//222 305//212
f 318//224 305//212 306//213
f 319//225 306//213 307//214
f 308//215 319//225 307//214
f 309//216 320//226 308//215
f 310//182 321//227 309//216
f 311//217 322//142 310//182
f 312//219 323//228 311//217
f 313//229 324//230 312//219
f 326//231 313//229 314//220
f 327//232 314//220 315//221
f 328//233 315//221 316//222
f 329//234 328//233 317//223
f 330//235 317//223 318//224
f 331//236 318//224 319//225
f 320//226 331//236 319//225
f 321//227 332//237 320//226
f 322//142 333//238 321//227
f 323//228 334//239 322//142
f 324//230 335//240 323//228
f 325//241 336//242 324//230
f 338//243 325//241 326//231
f 339//244 326//231 327//232
f 340//245 327//232 328//233
f 341//246 340//245 329//234
f 342//247 329//234 330//235
f 343//248 330//235 331//236
f 332//237 343//248 331//236
f 333//238 344//249 332//237
f 334//239 345//250 333//238
f 335//240 346//251 334//239
f 336//242 347//252 335//240
f 337//253 348//254 336//242
f 350//255 337//253 338//243
f 351//256 338//243 339//244
f 352//257 339//244 340//245
f 366//258 352//257 341//246
f 368//259 341//246 342//247
f 369//260 342//247 343//248
f 344//249 369//260 343//248
f 345//250 370//261 344//249
f 346//251 371//262 345//250
f 347//252 372//263 346//251
f 348//254 373//264 347//252
f 349//265 374//266 348//254
f 376//267 349//265 350//255
f 377//268 350//255 351//256
f 367//269 351//256 352//257
f 230//270 365//271 231//272
f 228//270 365//271 229//273
f 226//274 365//271 227//275
f 224//276 365//271 225//270
f 222//277 365//271 223//273
f 380//278 357//279 358//280
f 232//274 365//271 221//270
f 353//281 367//282 366//258
f 354//283 366//258 368//259
f 354//283 369//260 355//284
f 356//285 369//260 370//261
f 356//285 371//262 357//286
f 357//286 372//287 358//288
f 359//289 372//287 373//290
f 360//291 373//290 374//292
f 361//293 374//292 375//294
f 361//293 376//295 362//296
f 362//296 377//297 363//298
f 363//298 367//282 364//299
f 354//300 379//301 378//302
f 353//303 378//302 364//304
f 362//305 379//301 361//306
f 363//307 378//302 362//305
f 380//278 359//308 360//309
f 379//301 360//309 361//306
f 379//301 356//310 380//278
f 15//1 2//1 3//2
f 83//1 107//1 106//1
f 75//6 61//8 60//3
f 72//6 62//9 61//8
f 71//9 76//11 64//1
f 72//6 71//9 63//10
f 76//11 74//311 65//12
f 65//12 74//311 70//9
f 66//9 70//9 69//4
f 82//15 83//1 52//1
f 17//1 96//1 93//1
f 102//13 105//13 82//15
f 90//1 81//1 54//2
f 56//1 79//1 80//1
f 78//1 79//1 56//1
f 59//1 84//1 87//1
f 57//1 58//1 77//1
f 59//1 1//13 85//1
f 97//1 96//1 17//1
f 1//13 2//1 15//1
f 21//1 95//1 94//1
f 8//2 9//14 11//13
f 7//1 8//2 12//2
f 86//1 5//1 6//1
f 13//1 14//9 6//1
f 5//1 86//1 15//1
f 19//1 87//1 77//1
f 20//1 94//1 97//1
f 22//1 100//1 95//1
f 23//9 98//1 100//1
f 55//1 80//1 89//1
f 89//1 90//1 24//1
f 35//1 27//1 28//1
f 25//1 101//1 98//1
f 30//15 31//9 33//15
f 29//1 30//15 91//9
f 34//1 28//1 29//1
f 104//1 81//1 35//1
f 35//1 81//1 90//1
f 101//1 89//1 80//1
f 98//1 80//1 79//1
f 93//1 96//1 84//1
f 95//1 78//1 77//1
f 94//1 77//1 87//1
f 97//1 87//1 84//1
f 99//1 90//1 89//1
f 100//1 79//1 78//1
f 16//2 93//1 85//1
f 99//1 26//1 27//1
f 26//1 99//1 101//1
f 81//1 104//1 103//1
f 104//1 105//13 102//13
f 105//13 104//1 36//16
f 38//4 82//15 105//13
f 82//15 38//4 39//6
f 83//1 82//15 40//17
f 45//1 108//1 110//16
f 44//9 46//12 47//6
f 44//9 48//18 49//8
f 42//11 107//1 83//1
f 51//2 108//1 44//9
f 106//1 107//1 110//16
f 108//1 45//1 46//12
f 109//2 110//16 108//1
f 43//16 110//16 107//1
f 125//19 114//20 113//20
f 216//19 217//19 193//19
f 170//21 171//26 185//24
f 171//26 172//27 182//24
f 181//27 173//29 174//19
f 182//24 172//27 173//29
f 175//30 184//31 186//28
f 175//30 176//27 180//27
f 176//27 177//21 179//23
f 162//19 193//19 192//34
f 127//19 126//20 203//19
f 212//32 163//32 192//34
f 164//20 191//19 200//19
f 166//19 165//19 190//19
f 166//19 189//19 188//19
f 197//19 194//19 169//19
f 167//19 188//19 187//19
f 195//19 111//32 169//19
f 127//19 206//19 207//19
f 125//19 112//19 111//32
f 131//19 130//19 204//19
f 121//32 119//33 118//20
f 122//20 118//20 117//19
f 116//19 115//19 196//19
f 123//19 117//19 116//19
f 115//19 114//20 125//19
f 187//19 197//19 129//19
f 130//19 128//34 207//19
f 132//19 131//19 205//19
f 133//27 132//19 210//19
f 165//19 198//19 199//19
f 134//19 200//19 199//19
f 145//19 144//19 138//19
f 135//19 133//27 208//19
f 143//34 141//27 140//34
f 201//27 140//34 139//19
f 144//19 202//28 139//19
f 145//19 191//19 214//19
f 145//19 209//19 200//19
f 190//19 199//19 211//19
f 189//19 190//19 208//19
f 203//19 195//19 194//19
f 187//19 188//19 205//19
f 197//19 187//19 204//19
f 194//19 197//19 207//19
f 199//19 200//19 209//19
f 188//19 189//19 210//19
f 126//20 125//19 195//19
f 209//19 145//19 137//19
f 136//19 135//19 211//19
f 213//19 214//19 191//19
f 212//32 215//32 214//19
f 146//20 214//19 215//32
f 148//23 147//23 215//32
f 149//24 148//23 192//34
f 150//35 192//34 193//19
f 155//19 153//36 220//36
f 157//24 156//30 154//27
f 159//26 158//37 154//27
f 152//28 151//19 193//19
f 161//20 160//27 154//27
f 216//19 219//20 220//36
f 156//30 155//19 218//19
f 219//20 161//20 218//19
f 153//36 152//28 217//19
f 1//38 111//38 112//39
f 3//40 2//39 112//39
f 3//40 113//40 114//41
f 4//42 114//42 115//43
f 5//44 115//43 116//45
f 6//45 116//45 117//46
f 7//46 117//46 118//47
f 8//47 118//47 119//48
f 9//48 119//48 120//49
f 11//50 10//51 120//51
f 11//50 121//50 122//52
f 12//52 122//52 123//53
f 13//53 123//53 124//54
f 86//55 196//55 125//56
f 15//57 125//57 126//58
f 17//59 127//59 128//60
f 58//61 168//61 129//62
f 20//63 130//63 131//64
f 21//64 131//64 132//65
f 22//65 132//65 133//66
f 54//67 164//67 134//68
f 25//69 135//69 136//70
f 27//71 26//70 136//70
f 27//71 137//71 138//72
f 28//72 138//72 139//73
f 29//73 139//73 140//74
f 31//75 30//74 140//74
f 31//75 141//75 142//76
f 32//77 142//77 143//78
f 34//79 92//80 202//80
f 34//79 144//79 145//81
f 35//82 145//82 146//83
f 37//84 147//84 148//85
f 37//84 36//83 146//83
f 39//86 149//86 150//87
f 40//88 150//88 151//88
f 41//89 151//89 152//89
f 42//90 152//90 153//91
f 43//91 153//91 155//92
f 45//92 155//92 156//93
f 46//93 156//93 157//94
f 47//94 157//94 158//95
f 48//95 158//95 159//96
f 49//96 159//96 160//97
f 51//98 50//97 160//97
f 106//99 216//99 162//100
f 52//100 162//100 163//101
f 103//102 213//102 164//67
f 88//103 198//103 165//104
f 55//104 165//104 166//105
f 56//105 166//105 167//106
f 57//106 167//106 168//61
f 19//62 129//62 169//107
f 59//107 169//107 111//38
f 61//108 171//108 170//109
f 62//110 172//110 171//108
f 63//111 173//111 172//110
f 64//112 174//112 173//111
f 65//113 175//113 174//112
f 66//114 176//114 175//113
f 67//115 177//115 176//114
f 68//116 178//116 177//115
f 69//117 179//117 178//118
f 70//119 180//119 179//117
f 71//120 181//120 186//121
f 72//122 182//122 181//120
f 73//123 183//123 185//124
f 74//125 184//125 180//119
f 75//124 185//124 182//122
f 76//121 186//121 184//125
f 14//54 124//54 196//55
f 18//60 128//60 130//63
f 23//66 133//66 135//69
f 24//68 134//68 198//103
f 91//126 33//78 143//78
f 91//126 201//126 202//80
f 53//101 163//101 212//127
f 102//127 212//127 213//102
f 38//85 148//85 149//86
f 109//128 219//128 216//99
f 51//98 161//98 219//128
f 16//58 126//58 127//59
f 233//129 244//151 232//130
f 234//132 233//129 221//131
f 235//134 234//132 222//133
f 224//136 236//138 235//134
f 225//137 237//140 236//138
f 226//139 238//142 237//140
f 227//141 239//144 238//142
f 228//143 240//146 239//144
f 229//145 241//161 240//146
f 242//147 241//161 229//145
f 243//149 242//147 230//148
f 244//151 243//149 231//150
f 233//129 245//153 256//152
f 234//132 246//154 245//153
f 235//134 247//166 246//154
f 248//155 247//166 235//134
f 249//156 248//155 236//138
f 250//157 249//156 237//140
f 251//158 250//157 238//142
f 252//159 251//158 239//144
f 253//160 252//159 240//146
f 242//147 254//162 253//160
f 243//149 255//163 254//162
f 244//151 256//152 255//163
f 245//153 257//165 268//164
f 246//154 258//167 257//165
f 247//166 259//178 258//167
f 260//168 259//178 247//166
f 261//169 260//168 248//155
f 262//170 261//169 249//156
f 263//171 262//170 250//157
f 264//172 263//171 251//158
f 265//173 264//172 252//159
f 254//162 266//174 265//173
f 255//163 267//175 266//174
f 256//152 268//164 267//175
f 257//165 269//177 280//176
f 258//167 270//179 269//177
f 259//178 271//191 270//179
f 272//180 271//191 259//178
f 273//181 272//180 260//168
f 274//182 273//181 261//169
f 275//183 274//182 262//170
f 276//184 275//183 263//171
f 277//185 276//184 264//172
f 266//174 278//186 277//185
f 267//175 279//187 278//186
f 268//164 280//176 279//187
f 281//188 292//199 280//176
f 282//189 281//188 269//177
f 283//190 282//189 270//179
f 272//180 284//192 283//190
f 273//181 285//193 284//192
f 274//182 286//194 285//193
f 275//183 287//195 286//194
f 276//184 288//196 287//195
f 277//185 289//207 288//196
f 290//197 289//207 277//185
f 291//198 290//197 278//186
f 292//199 291//198 279//187
f 293//200 304//211 292//199
f 294//201 293//200 281//188
f 295//202 294//201 282//189
f 284//192 296//203 295//202
f 285//193 297//204 296//203
f 286//194 298//205 297//204
f 287//195 299//206 298//205
f 288//196 300//208 299//206
f 289//207 301//218 300//208
f 302//209 301//218 289//207
f 303//210 302//209 290//197
f 304//211 303//210 291//198
f 305//212 316//222 304//211
f 306//213 305//212 293//200
f 307//214 306//213 294//201
f 296//203 308//215 307//214
f 297//204 309//216 308//215
f 298//205 310//182 309//216
f 299//206 311//217 310//182
f 300//208 312//219 311//217
f 301//218 313//229 312//219
f 314//220 313//229 301//218
f 315//221 314//220 302//209
f 316//222 315//221 303//210
f 317//223 328//233 316//222
f 318//224 317//223 305//212
f 319//225 318//224 306//213
f 308//215 320//226 319//225
f 309//216 321//227 320//226
f 310//182 322//142 321//227
f 311//217 323//228 322//142
f 312//219 324//230 323//228
f 313//229 325//241 324//230
f 326//231 325//241 313//229
f 327//232 326//231 314//220
f 328//233 327//232 315//221
f 329//234 340//245 328//233
f 330//235 329//234 317//223
f 331//236 330//235 318//224
f 320//226 332//237 331//236
f 321//227 333//238 332//237
f 322//142 334//239 333//238
f 323//228 335//240 334//239
f 324//230 336//242 335//240
f 325//241 337//253 336//242
f 338//243 337//253 325//241
f 339//244 338//243 326//231
f 340//245 339//244 327//232
f 341//246 352//257 340//245
f 342//247 341//246 329//234
f 343//248 342//247 330//235
f 332//237 344//249 343//248
f 333//238 345//250 344//249
f 334//239 346//251 345//250
f 335//240 347//252 346//251
f 336//242 348//254 347//252
f 337//253 349//265 348//254
f 350//255 349//265 337//253
f 351//256 350//255 338//243
f 352//257 351//256 339//244
f 366//258 367//269 352//257
f 368//259 366//258 341//246
f 369//260 368//259 342//247
f 344//249 370//261 369//260
f 345//250 371//262 370//261
f 346//251 372//263 371//262
f 347//252 373//264 372//263
f 348//254 374//266 373//264
f 349//265 375//312 374//266
f 376//267 375//312 349//265
f 377//268 376//267 350//255
f 367//269 377//268 351//256
f 230//270 229//273 365//271
f 228//270 227//275 365//271
f 226//274 225//270 365//271
f 224//276 223//273 365//271
f 222//277 221//270 365//271
f 380//278 356//310 357//279
f 232//274 231//272 365//271
f 353//281 364//299 367//282
f 354//283 353//281 366//258
f 354//283 368//259 369//260
f 356//285 355//284 369//260
f 356//285 370//261 371//262
f 357//286 371//262 372//287
f 359//289 358//288 372//287
f 360//291 359//289 373//290
f 361//293 360//291 374//292
f 361//293 375//294 376//295
f 362//296 376//295 377//297
f 363//298 377//297 367//282
f 354//300 355//313 379//301
f 353//303 354//300 378//302
f 362//305 378//302 379//301
f 363//307 364//304 378//302
f 380//278 358//280 359//308
f 379//301 380//278 360//309
f 379//301 355//313 356//310
