# Blender 4.5.2 LTS
# www.blender.org
o fire_arrowhead
v 0.002033 0.045872 0.000624
v 0.000506 0.045489 0.000729
v -0.000444 0.045000 0.001889
v -0.000262 0.044693 0.003426
v 0.000947 0.044746 0.004439
v 0.002474 0.045129 0.004334
v 0.003424 0.045617 0.003174
v 0.003242 0.045925 0.001637
v 0.000791 0.049702 0.001391
v -0.000657 0.049078 0.001445
v -0.001572 0.048478 0.002583
v -0.001416 0.048253 0.004137
v -0.000282 0.048535 0.005197
v 0.001166 0.049159 0.005142
v 0.002080 0.049759 0.004005
v 0.001925 0.049984 0.002451
v -0.001097 0.053263 0.002017
v -0.002426 0.052414 0.002046
v -0.003334 0.051802 0.003182
v -0.003289 0.051785 0.004759
v -0.002317 0.052375 0.005853
v -0.000988 0.053224 0.005824
v -0.000080 0.053836 0.004688
v -0.000125 0.053852 0.003111
v -0.003576 0.056499 0.001606
v -0.004839 0.055554 0.001651
v -0.005896 0.055156 0.002753
v -0.006128 0.055538 0.004266
v -0.005399 0.056476 0.005304
v -0.004135 0.057420 0.005260
v -0.003078 0.057818 0.004158
v -0.002846 0.057436 0.002645
v -0.005967 0.059551 -0.000349
v -0.007331 0.058758 -0.000396
v -0.008657 0.058767 0.000460
v -0.009167 0.059570 0.001718
v -0.008564 0.060699 0.002641
v -0.007200 0.061491 0.002689
v -0.005875 0.061483 0.001833
v -0.005364 0.060679 0.000575
v -0.006998 0.062726 -0.003924
v -0.008458 0.062261 -0.004301
v -0.009913 0.062713 -0.003893
v -0.010512 0.063817 -0.002938
v -0.009903 0.064927 -0.001997
v -0.008444 0.065392 -0.001619
v -0.006988 0.064941 -0.002027
v -0.006389 0.063836 -0.002982
v -0.005986 0.066079 -0.008091
v -0.007307 0.066054 -0.008954
v -0.008637 0.066901 -0.008983
v -0.009198 0.068126 -0.008161
v -0.008661 0.069009 -0.006970
v -0.007340 0.069035 -0.006107
v -0.006010 0.068187 -0.006078
v -0.005449 0.066963 -0.006900
v -0.002161 0.069787 -0.011234
v -0.003011 0.070270 -0.012472
v -0.004063 0.071419 -0.012724
v -0.004701 0.072561 -0.011841
v -0.004550 0.073027 -0.010341
v -0.003700 0.072544 -0.009103
v -0.002648 0.071395 -0.008851
v -0.002010 0.070253 -0.009734
v 0.003356 0.073846 -0.011278
v 0.003018 0.074758 -0.012521
v 0.002071 0.075994 -0.012773
v 0.001068 0.076830 -0.011887
v 0.000598 0.076776 -0.010382
v 0.000935 0.075864 -0.009139
v 0.001883 0.074628 -0.008887
v 0.002886 0.073792 -0.009773
v 0.007569 0.077999 -0.007931
v 0.007438 0.079141 -0.009012
v 0.006330 0.080199 -0.009389
v 0.004893 0.080553 -0.008842
v 0.003970 0.079996 -0.007691
v 0.004100 0.078854 -0.006610
v 0.005208 0.077796 -0.006233
v 0.006645 0.077442 -0.006780
v 0.008545 0.082028 -0.003474
v 0.008402 0.083116 -0.004608
v 0.007192 0.083756 -0.005393
v 0.005625 0.083574 -0.005369
v 0.004619 0.082676 -0.004550
v 0.004762 0.081589 -0.003416
v 0.005972 0.080948 -0.002631
v 0.007539 0.081130 -0.002655
v 0.007050 0.085850 -0.000348
v 0.007006 0.086616 -0.001727
v 0.005952 0.086757 -0.002892
v 0.004505 0.086188 -0.003163
v 0.003513 0.085245 -0.002379
v 0.003556 0.084478 -0.001000
v 0.004610 0.084338 0.000165
v 0.006057 0.084906 0.000435
v 0.004979 0.089455 0.000898
v 0.005127 0.089818 -0.000630
v 0.004219 0.089652 -0.001909
v 0.002785 0.089055 -0.002190
v 0.001667 0.088376 -0.001308
v 0.001519 0.088013 0.000220
v 0.002427 0.088179 0.001500
v 0.003860 0.088777 0.001780
v -0.001007 0.044735 -0.004328
v -0.002536 0.045113 -0.004224
v -0.003488 0.045606 -0.003066
v -0.003305 0.045924 -0.001532
v -0.002096 0.045882 -0.000520
v -0.000567 0.045504 -0.000623
v 0.000385 0.045012 -0.001781
v 0.000202 0.044693 -0.003316
v 0.000210 0.048520 -0.005116
v -0.001238 0.049143 -0.005065
v -0.002152 0.049752 -0.003932
v -0.001996 0.049989 -0.002380
v -0.000861 0.049717 -0.001319
v 0.000587 0.049094 -0.001369
v 0.001501 0.048486 -0.002502
v 0.001345 0.048248 -0.004054
v 0.002250 0.052357 -0.005807
v 0.000923 0.053210 -0.005784
v 0.000017 0.053834 -0.004653
v 0.000062 0.053863 -0.003076
v 0.001033 0.053280 -0.001978
v 0.002360 0.052427 -0.002000
v 0.003266 0.051804 -0.003132
v 0.003221 0.051775 -0.004709
v 0.005356 0.056458 -0.005289
v 0.004098 0.057410 -0.005251
v 0.003043 0.057822 -0.004153
v 0.002809 0.057451 -0.002637
v 0.003532 0.056516 -0.001592
v 0.004790 0.055564 -0.001630
v 0.005845 0.055153 -0.002729
v 0.006079 0.055523 -0.004245
v 0.008559 0.060682 -0.002641
v 0.007202 0.061486 -0.002693
v 0.005877 0.061492 -0.001837
v 0.005358 0.060697 -0.000577
v 0.005951 0.059567 0.000350
v 0.007308 0.058763 0.000402
v 0.008634 0.058757 -0.000454
v 0.009152 0.059552 -0.001714
v 0.009939 0.064914 0.002003
v 0.008484 0.065394 0.001625
v 0.007024 0.064956 0.002031
v 0.006413 0.063856 0.002984
v 0.007010 0.062739 0.003925
v 0.008465 0.062259 0.004303
v 0.009925 0.062698 0.003897
v 0.010536 0.063797 0.002945
v 0.008725 0.069002 0.007002
v 0.007406 0.069043 0.006138
v 0.006069 0.068206 0.006102
v 0.005497 0.066982 0.006916
v 0.006025 0.066087 0.008103
v 0.007344 0.066045 0.008967
v 0.008681 0.066882 0.009003
v 0.009253 0.068107 0.008189
v 0.004624 0.073027 0.010409
v 0.003774 0.072559 0.009164
v 0.002719 0.071416 0.008901
v 0.002077 0.070268 0.009772
v 0.002223 0.069787 0.011267
v 0.003073 0.070255 0.012511
v 0.004129 0.071398 0.012775
v 0.004771 0.072546 0.011904
v -0.000531 0.076784 0.010482
v -0.000864 0.075884 0.009230
v -0.001808 0.074648 0.008965
v -0.002810 0.073800 0.009841
v -0.003282 0.073838 0.011346
v -0.002949 0.074739 0.012598
v -0.002005 0.075975 0.012863
v -0.001003 0.076822 0.011987
v -0.003919 0.080010 0.007814
v -0.004040 0.078873 0.006725
v -0.005140 0.077810 0.006340
v -0.006575 0.077442 0.006883
v -0.007504 0.077986 0.008036
v -0.007384 0.079122 0.009124
v -0.006284 0.080185 0.009510
v -0.004849 0.080553 0.008967
v -0.004585 0.082691 0.004687
v -0.004718 0.081604 0.003551
v -0.005921 0.080955 0.002763
v -0.007489 0.081125 0.002783
v -0.008504 0.082014 0.003601
v -0.008372 0.083101 0.004737
v -0.007169 0.083749 0.005526
v -0.005600 0.083579 0.005505
v -0.003496 0.085256 0.002525
v -0.003531 0.084487 0.001147
v -0.004581 0.084339 -0.000021
v -0.006031 0.084899 -0.000296
v -0.007030 0.085838 0.000483
v -0.006995 0.086607 0.001861
v -0.005945 0.086755 0.003029
v -0.004495 0.086196 0.003304
v -0.001665 0.088384 0.001454
v -0.001510 0.088017 -0.000073
v -0.002415 0.088177 -0.001355
v -0.003849 0.088770 -0.001642
v -0.004972 0.089448 -0.000766
v -0.005126 0.089814 0.000761
v -0.004221 0.089654 0.002044
v -0.002788 0.089062 0.002331
v -0.001789 0.045015 -0.000462
v -0.003331 0.044705 -0.000335
v -0.004385 0.044749 0.000838
v -0.004334 0.045121 0.002370
v -0.003207 0.045603 0.003365
v -0.001665 0.045912 0.003238
v -0.000611 0.045868 0.002065
v -0.000662 0.045497 0.000532
v -0.002453 0.048498 -0.001585
v -0.004010 0.048263 -0.001482
v -0.005108 0.048529 -0.000381
v -0.005105 0.049140 0.001073
v -0.004002 0.049739 0.002029
v -0.002445 0.049974 0.001927
v -0.001347 0.049709 0.000826
v -0.001350 0.049097 -0.000629
v -0.003027 0.051821 -0.003327
v -0.004604 0.051785 -0.003328
v -0.005734 0.052354 -0.002385
v -0.005755 0.053195 -0.001051
v -0.004654 0.053816 -0.000106
v -0.003076 0.053853 -0.000105
v -0.001947 0.053284 -0.001048
v -0.001926 0.052442 -0.002382
v -0.002586 0.055164 -0.005849
v -0.004099 0.055521 -0.006120
v -0.005171 0.056443 -0.005421
v -0.005174 0.057392 -0.004160
v -0.004106 0.057810 -0.003076
v -0.002593 0.057454 -0.002804
v -0.001521 0.056531 -0.003504
v -0.001518 0.055583 -0.004765
v -0.000307 0.058758 -0.008562
v -0.001563 0.059540 -0.009111
v -0.002513 0.060664 -0.008543
v -0.002601 0.061473 -0.007191
v -0.001775 0.061491 -0.005846
v -0.000519 0.060709 -0.005298
v 0.000431 0.059585 -0.005866
v 0.000519 0.058777 -0.007218
v 0.004011 0.062691 -0.009783
v 0.003065 0.063781 -0.010420
v 0.002108 0.064899 -0.009850
v 0.001700 0.065388 -0.008407
v 0.002080 0.064963 -0.006935
v 0.003026 0.063872 -0.006298
v 0.003983 0.062755 -0.006869
v 0.004391 0.062265 -0.008312
v 0.009059 0.066871 -0.008492
v 0.008256 0.068092 -0.009087
v 0.007061 0.068992 -0.008586
v 0.006174 0.069045 -0.007283
v 0.006113 0.068218 -0.005940
v 0.006916 0.066997 -0.005345
v 0.008111 0.066096 -0.005846
v 0.008998 0.066044 -0.007149
v 0.012757 0.071386 -0.003919
v 0.011903 0.072536 -0.004580
v 0.010407 0.073025 -0.004460
v 0.009147 0.072566 -0.003630
v 0.008860 0.071428 -0.002575
v 0.009714 0.070278 -0.001914
v 0.011210 0.069790 -0.002033
v 0.012470 0.070249 -0.002864
v 0.012769 0.075965 0.002202
v 0.011914 0.076818 0.001187
v 0.010417 0.076788 0.000689
v 0.009155 0.075893 0.001000
v 0.008868 0.074657 0.001938
v 0.009723 0.073805 0.002954
v 0.011220 0.073835 0.003452
v 0.012482 0.074730 0.003140
v 0.009356 0.080180 0.006441
v 0.008838 0.080555 0.004998
v 0.007701 0.080017 0.004046
v 0.006609 0.078882 0.004143
v 0.006203 0.077815 0.005232
v 0.006720 0.077440 0.006674
v 0.007858 0.077978 0.007626
v 0.008949 0.079113 0.007530
v 0.005338 0.083751 0.007277
v 0.005347 0.083589 0.005708
v 0.004551 0.082702 0.004673
v 0.003416 0.081610 0.004780
v 0.002608 0.080953 0.005966
v 0.002600 0.081116 0.007535
v 0.003396 0.082003 0.008569
v 0.004530 0.083094 0.008462
v 0.002830 0.086764 0.006012
v 0.003137 0.086210 0.004567
v 0.002383 0.085268 0.003551
v 0.001011 0.084489 0.003558
v -0.000176 0.084330 0.004586
v -0.000483 0.084884 0.006031
v 0.000271 0.085827 0.007047
v 0.001643 0.086606 0.007039
v 0.001852 0.089664 0.004267
v 0.002172 0.089073 0.002839
v 0.001323 0.088390 0.001698
v -0.000198 0.088015 0.001513
v -0.001500 0.088168 0.002391
v -0.001820 0.088758 0.003819
v -0.000971 0.089441 0.004959
v 0.000551 0.089816 0.005145
v 0.003273 0.045611 -0.003326
v 0.001732 0.045926 -0.003201
v 0.000676 0.045879 -0.002029
v 0.000723 0.045498 -0.000499
v 0.001846 0.045006 0.000494
v 0.003387 0.044692 0.000368
v 0.004443 0.044739 -0.000803
v 0.004396 0.045120 -0.002333
v 0.004079 0.049750 -0.001957
v 0.002522 0.049987 -0.001857
v 0.001420 0.049715 -0.000761
v 0.001419 0.049094 0.000690
v 0.002519 0.048487 0.001645
v 0.004075 0.048250 0.001545
v 0.005177 0.048522 0.000449
v 0.005178 0.049144 -0.001002
v 0.004724 0.053827 0.000216
v 0.003147 0.053861 0.000208
v 0.002014 0.053285 0.001143
v 0.001989 0.052436 0.002473
v 0.003087 0.051811 0.003418
v 0.004665 0.051776 0.003425
v 0.005797 0.052352 0.002490
v 0.005822 0.053202 0.001161
v 0.004153 0.057818 0.003214
v 0.002642 0.057459 0.002933
v 0.001569 0.056531 0.003624
v 0.001562 0.055578 0.004881
v 0.002625 0.055157 0.005968
v 0.004136 0.055515 0.006248
v 0.005209 0.056443 0.005558
v 0.005216 0.057397 0.004301
v 0.001789 0.061498 0.005998
v 0.000538 0.060715 0.005439
v -0.000412 0.059586 0.005998
v -0.000505 0.058773 0.007347
v 0.000314 0.058751 0.008695
v 0.001565 0.059534 0.009254
v 0.002515 0.060663 0.008695
v 0.002608 0.061477 0.007346
v -0.002100 0.064971 0.007084
v -0.003038 0.063880 0.006438
v -0.003994 0.062757 0.006998
v -0.004409 0.062261 0.008437
v -0.004039 0.062682 0.009912
v -0.003101 0.063774 0.010559
v -0.002144 0.064896 0.009998
v -0.001730 0.065392 0.008559
v -0.006161 0.068230 0.006072
v -0.006953 0.067006 0.005469
v -0.008146 0.066097 0.005960
v -0.009041 0.066036 0.007258
v -0.009114 0.066859 0.008602
v -0.008322 0.068083 0.009206
v -0.007129 0.068991 0.008715
v -0.006234 0.069052 0.007417
v -0.008924 0.071443 0.002679
v -0.009765 0.070286 0.002013
v -0.011257 0.069786 0.002124
v -0.012526 0.070235 0.002947
v -0.012829 0.071371 0.003999
v -0.011988 0.072528 0.004665
v -0.010496 0.073028 0.004554
v -0.009227 0.072579 0.003732
v -0.008934 0.074673 -0.001863
v -0.009776 0.073808 -0.002879
v -0.011270 0.073823 -0.003387
v -0.012541 0.074710 -0.003089
v -0.012844 0.075949 -0.002160
v -0.012002 0.076814 -0.001145
v -0.010508 0.076799 -0.000637
v -0.009237 0.075912 -0.000935
v -0.006261 0.077827 -0.005178
v -0.006767 0.077434 -0.006620
v -0.007899 0.077958 -0.007586
v -0.008995 0.079090 -0.007510
v -0.009413 0.080168 -0.006436
v -0.008907 0.080561 -0.004994
v -0.007774 0.080038 -0.004029
v -0.006678 0.078905 -0.004105
v -0.002657 0.080956 -0.005927
v -0.002635 0.081099 -0.007498
v -0.003419 0.081977 -0.008550
v -0.004550 0.083074 -0.008465
v -0.005365 0.083749 -0.007294
v -0.005386 0.083605 -0.005723
v -0.004602 0.082728 -0.004672
v -0.003472 0.081630 -0.004757
v 0.000140 0.084322 -0.004559
v 0.000466 0.084863 -0.006005
v -0.000269 0.085804 -0.007036
v -0.001634 0.086595 -0.007048
v -0.002830 0.086773 -0.006034
v -0.003156 0.086232 -0.004588
v -0.002421 0.085290 -0.003557
v -0.001056 0.084499 -0.003545
v 0.001478 0.088156 -0.002365
v 0.001820 0.088741 -0.003790
v 0.000991 0.089429 -0.004942
v -0.000525 0.089816 -0.005148
v -0.001839 0.089676 -0.004286
v -0.002182 0.089090 -0.002861
v -0.001352 0.088403 -0.001709
v 0.000164 0.088016 -0.001503
v 0.000000 0.042067 0.003305
v 0.000000 0.042529 0.001118
v -0.001118 0.042529 -0.000000
v -0.003404 0.037367 -0.000000
v -0.003818 0.042067 0.001118
v -0.003237 0.037367 0.001052
v -0.003818 0.042067 0.002699
v -0.002754 0.037367 0.002001
v -0.002699 0.042067 0.003818
v -0.002001 0.037367 0.002754
v -0.001118 0.042067 0.003818
v -0.001052 0.037367 0.003237
v 0.003305 0.042067 -0.000000
v 0.003404 0.037367 -0.000000
v 0.000000 0.037367 0.003404
v 0.001118 0.042067 0.003818
v 0.001052 0.037367 0.003237
v 0.002699 0.042067 0.003818
v 0.002001 0.037367 0.002754
v 0.003818 0.042067 0.002699
v 0.002754 0.037367 0.002001
v 0.003818 0.042067 0.001118
v 0.003237 0.037367 0.001052
v 0.000000 0.042067 -0.003305
v 0.001118 0.042529 -0.000000
v 0.003818 0.042067 -0.001118
v 0.003237 0.037367 -0.001052
v 0.003818 0.042067 -0.002699
v 0.002754 0.037367 -0.002001
v 0.002699 0.042067 -0.003818
v 0.002001 0.037367 -0.002754
v 0.001118 0.042067 -0.003818
v 0.001052 0.037367 -0.003237
v -0.003305 0.042067 -0.000000
v 0.000000 0.042529 -0.001118
v 0.000000 0.037367 -0.003404
v -0.001118 0.042067 -0.003818
v -0.001052 0.037367 -0.003237
v -0.002699 0.042067 -0.003818
v -0.002001 0.037367 -0.002754
v -0.003818 0.042067 -0.002699
v -0.002754 0.037367 -0.002001
v -0.003818 0.042067 -0.001118
v -0.003237 0.037367 -0.001052
v -0.000791 0.092249 0.000791
v -0.000791 0.092249 -0.000791
v -0.003490 0.093005 -0.001909
v -0.000187 0.106683 -0.000050
v -0.000187 0.106683 0.000050
v -0.004628 0.094032 0.000366
v -0.003490 0.093005 0.001909
v 0.000791 0.092249 0.000791
v -0.002718 0.093387 0.002718
v -0.001909 0.093005 0.003490
v -0.000050 0.106683 0.000187
v -0.000366 0.094032 0.004628
v 0.000050 0.106683 0.000187
v 0.000366 0.094032 0.004628
v 0.001909 0.093005 0.003490
v 0.000791 0.092249 -0.000791
v 0.003490 0.093005 0.001909
v 0.000187 0.106683 0.000050
v 0.000187 0.106683 -0.000050
v 0.003490 0.093005 -0.001909
v -0.002719 0.093517 -0.002719
v 0.001909 0.093005 -0.003490
v 0.000050 0.106683 -0.000187
v -0.000050 0.106683 -0.000187
v -0.001909 0.093005 -0.003490
v -0.004095 0.000000 0.000000
v -0.003895 0.000000 0.001266
v -0.003313 0.000000 0.002407
v -0.002407 0.000000 0.003313
v -0.001266 0.000000 0.003895
v 0.004095 0.000000 0.000000
v 0.000000 0.000000 0.004095
v 0.001266 0.000000 0.003895
v 0.002407 0.000000 0.003313
v 0.003313 0.000000 0.002407
v 0.003895 0.000000 0.001266
v 0.003895 -0.000000 -0.001266
v 0.003313 -0.000000 -0.002407
v 0.002407 -0.000000 -0.003313
v 0.001266 -0.000000 -0.003895
v 0.000000 -0.000000 -0.004095
v -0.001266 -0.000000 -0.003895
v -0.002407 -0.000000 -0.003313
v -0.003313 -0.000000 -0.002407
v -0.003895 -0.000000 -0.001266
v -0.004519 0.014473 -0.000000
v -0.004298 0.014473 -0.001396
v 0.001396 0.014473 0.004298
v 0.000000 0.014473 0.004519
v 0.003656 0.014473 -0.002656
v 0.004298 0.014473 -0.001396
v -0.003656 0.014473 -0.002656
v -0.002656 0.014473 -0.003656
v -0.002656 0.014473 0.003656
v -0.003656 0.014473 0.002656
v 0.004298 0.014473 0.001396
v 0.003656 0.014473 0.002656
v -0.004298 0.014473 0.001396
v -0.001396 0.014473 -0.004298
v 0.000000 0.014473 -0.004519
v -0.001396 0.014473 0.004298
v 0.004519 0.014473 -0.000000
v 0.002656 0.014473 0.003656
v 0.002656 0.014473 -0.003656
v 0.001396 0.014473 -0.004298
v -0.000137 0.106683 -0.000137
v 0.000137 0.106683 -0.000137
v 0.000137 0.106683 0.000137
v -0.000137 0.106683 0.000137
v 0.004628 0.094032 -0.000366
v 0.002718 0.093428 0.002718
v -0.000366 0.094032 -0.004628
v 0.000366 0.094032 -0.004628
v 0.002573 0.094792 -0.002573
v 0.002573 0.094792 0.002573
v -0.002573 0.094792 0.002573
v 0.002718 0.093434 -0.002718
v -0.004628 0.094032 -0.000366
v -0.002573 0.094792 -0.002573
v 0.004628 0.094032 0.000366
v 0.000000 0.106743 -0.000000
v -0.002534 0.091683 -0.002763
v -0.000952 0.091683 -0.001054
v -0.000884 0.091683 0.004798
v -0.001041 0.091683 0.000981
v 0.001886 0.091683 0.003798
v 0.004808 0.091683 0.000848
v -0.002632 0.091683 -0.002341
v 0.002376 0.091683 -0.002618
v 0.000943 0.091683 0.001051
v 0.002531 0.091683 0.002756
v -0.002738 0.091683 0.002585
v 0.003606 0.091683 0.001869
v 0.001881 0.091683 -0.003583
v -0.000634 0.091683 0.000982
v 0.001041 0.091683 -0.000938
v 0.002737 0.091683 -0.002538
v 0.004906 0.091683 -0.000703
v -0.000644 0.091683 -0.004918
v -0.004906 0.091683 0.000776
v 0.000984 0.091683 0.000640
v 0.002635 0.091683 0.002381
v 0.000624 0.091683 -0.000979
v 0.000658 0.091683 0.004916
v -0.002382 0.091683 0.002625
v -0.001881 0.091683 0.003592
v -0.004804 0.091683 -0.000780
v -0.000981 0.091683 -0.000600
v 0.003777 0.091683 -0.001909
v 0.000894 0.091683 -0.004788
v -0.001881 0.091683 -0.003806
v -0.003779 0.091683 0.001962
v -0.003602 0.091683 -0.001826
v -0.003417 0.032952 -0.000000
v 0.001056 0.032952 0.003249
v 0.002764 0.032952 -0.002008
v -0.002764 0.032952 -0.002008
v -0.002008 0.032952 0.002764
v 0.003249 0.032952 0.001056
v -0.003249 0.032952 0.001056
v -0.001056 0.032952 -0.003249
v 0.002008 0.032952 0.002764
v 0.002008 0.032952 -0.002764
v -0.003249 0.032952 -0.001056
v 0.000000 0.032952 0.003417
v 0.003249 0.032952 -0.001056
v -0.002008 0.032952 -0.002764
v -0.002764 0.032952 0.002008
v 0.002764 0.032952 0.002008
v 0.000000 0.032952 -0.003417
v -0.001056 0.032952 0.003249
v 0.003417 0.032952 -0.000000
v 0.001056 0.032952 -0.003249
v -0.003925 0.023183 -0.001275
v 0.000000 0.023183 0.004127
v 0.003925 0.023183 -0.001275
v -0.002426 0.023183 -0.003339
v -0.003339 0.023183 0.002426
v 0.003339 0.023183 0.002426
v 0.000000 0.023183 -0.004127
v -0.001275 0.023183 0.003925
v 0.004127 0.023183 -0.000000
v 0.001275 0.023183 -0.003925
v -0.004127 0.023183 -0.000000
v 0.001275 0.023183 0.003925
v 0.003339 0.023183 -0.002426
v -0.003339 0.023183 -0.002426
v -0.002426 0.023183 0.003339
v 0.003925 0.023183 0.001275
v -0.003925 0.023183 0.001275
v -0.001275 0.023183 -0.003925
v 0.002426 0.023183 0.003339
v 0.002426 0.023183 -0.003339
v -0.000308 0.106535 -0.000083
v -0.000308 0.106535 0.000083
v -0.000083 0.106535 0.000308
v 0.000083 0.106535 0.000308
v 0.000308 0.106535 0.000083
v 0.000308 0.106535 -0.000083
v 0.000083 0.106535 -0.000308
v -0.000083 0.106535 -0.000308
v -0.000225 0.106535 0.000225
v -0.000225 0.106535 -0.000225
v 0.000225 0.106535 0.000225
v 0.000225 0.106535 -0.000225
v -0.004436 0.000000 0.001441
v -0.004664 0.000000 0.000000
v -0.003773 0.000000 0.002741
v -0.002741 0.000000 0.003773
v -0.001441 0.000000 0.004436
v 0.001441 0.000000 0.004436
v 0.000000 0.000000 0.004664
v 0.002741 0.000000 0.003773
v 0.003773 0.000000 0.002741
v 0.004436 0.000000 0.001441
v 0.004664 0.000000 0.000000
v 0.003773 -0.000000 -0.002741
v 0.004436 -0.000000 -0.001441
v 0.002741 -0.000000 -0.003773
v 0.001441 -0.000000 -0.004436
v -0.001441 -0.000000 -0.004436
v 0.000000 -0.000000 -0.004664
v -0.002741 -0.000000 -0.003773
v -0.003773 -0.000000 -0.002741
v -0.004436 -0.000000 -0.001441
v -0.003713 0.013642 0.001206
v -0.003904 0.013642 -0.000000
v -0.003159 0.013642 0.002295
v -0.002295 0.013642 0.003159
v -0.001206 0.013642 0.003713
v 0.001206 0.013642 0.003713
v 0.000000 0.013642 0.003904
v 0.002295 0.013642 0.003159
v 0.003159 0.013642 0.002295
v 0.003713 0.013642 0.001206
v 0.003904 0.013642 -0.000000
v 0.003159 0.013642 -0.002295
v 0.003713 0.013642 -0.001206
v 0.002295 0.013642 -0.003159
v 0.001206 0.013642 -0.003713
v -0.001206 0.013642 -0.003713
v 0.000000 0.013642 -0.003904
v -0.002295 0.013642 -0.003159
v -0.003159 0.013642 -0.002295
v -0.003713 0.013642 -0.001206
v 0.000000 0.013642 -0.000000
vn 0.2651 0.2773 -0.9235
vn 0.8146 0.4209 -0.3992
vn 0.8635 0.2981 -0.4068
vn -0.4344 -0.0040 -0.9007
vn -0.4327 0.0891 -0.8971
vn -0.8878 -0.3049 -0.3446
vn -0.9383 -0.1693 -0.3017
vn -0.8033 -0.4211 0.4211
vn -0.8623 -0.2872 0.4171
vn -0.2405 -0.2818 0.9288
vn -0.2573 -0.2471 0.9342
vn 0.4884 -0.0620 0.8704
vn 0.9396 0.1500 0.3078
vn 0.4564 0.0194 0.8896
vn 0.8873 0.3070 0.3441
vn 0.3078 0.2436 -0.9197
vn 0.2817 0.2839 -0.9165
vn -0.3509 -0.1888 -0.9172
vn -0.7911 -0.5084 -0.3400
vn -0.7452 -0.5082 0.4318
vn 0.3438 0.1951 0.9185
vn 0.7761 0.4986 0.3861
vn 0.7762 0.5004 -0.3836
vn 0.7990 0.4698 -0.3752
vn 0.4420 0.0245 -0.8967
vn -0.1869 -0.4723 -0.8614
vn -0.6906 -0.6603 -0.2949
vn -0.4407 -0.0072 0.8976
vn -0.2799 -0.1827 0.9425
vn 0.1482 0.4503 0.8805
vn 0.6539 0.6602 0.3696
vn 0.9239 0.2767 -0.2644
vn 0.6166 -0.3004 -0.7277
vn -0.0679 -0.6949 -0.7159
vn -0.9186 -0.2696 0.2888
vn -0.8024 -0.4214 0.4227
vn -0.6451 0.2733 0.7135
vn -0.0178 0.6677 0.7442
vn 0.6295 0.6928 0.3517
vn 1.0000 0.0048 -0.0067
vn 0.6792 -0.5653 -0.4681
vn -0.7244 -0.5375 -0.4317
vn -0.7163 -0.6222 -0.3158
vn -0.9999 -0.0068 0.0094
vn -0.7241 0.5283 0.4435
vn -0.0456 0.7755 0.6297
vn 0.6786 0.5787 0.4523
vn 0.9059 -0.2941 0.3048
vn -0.0424 -0.7437 -0.6672
vn 0.5980 -0.7475 -0.2891
vn -0.6456 -0.3127 -0.6967
vn -0.9036 0.2737 -0.3295
vn -0.6680 0.7130 0.2130
vn -0.0478 0.7616 0.6463
vn 0.6290 0.3463 0.6960
vn 0.6487 -0.5768 0.4965
vn 0.1353 -0.5509 -0.8235
vn -0.0245 -0.6820 -0.7310
vn -0.3411 0.0033 -0.9400
vn -0.6260 0.5543 -0.5486
vn -0.5705 0.8093 0.1400
vn -0.1783 0.6038 0.7769
vn 0.3460 -0.0060 0.9382
vn 0.5884 -0.7615 -0.2719
vn 0.4559 -0.7426 0.4907
vn 0.4867 -0.2613 -0.8336
vn 0.0637 0.3326 -0.9409
vn -0.3858 0.7419 -0.5484
vn -0.6370 0.7544 0.1584
vn -0.5099 0.3048 0.8044
vn -0.0476 -0.3601 0.9317
vn 0.8727 -0.4781 -0.0993
vn 0.6989 -0.6696 -0.2512
vn 0.8050 0.0805 -0.5878
vn 0.3119 0.5829 -0.7503
vn -0.3510 0.7789 -0.5197
vn -0.8446 0.5349 0.0218
vn -0.8177 -0.0702 0.5713
vn -0.2464 -0.6233 0.7421
vn 0.9585 -0.1483 0.2436
vn 0.4696 -0.7687 0.4343
vn 0.8896 0.3704 -0.2673
vn 0.3499 0.6887 -0.6350
vn -0.4062 0.6304 -0.6615
vn -0.9463 0.1662 -0.2774
vn -0.8642 -0.4086 0.2938
vn 0.4761 -0.5890 0.6530
vn 0.8515 0.1450 0.5040
vn 0.8443 0.5194 -0.1317
vn 0.3586 0.6081 -0.7082
vn -0.3686 0.3145 -0.8748
vn -0.8602 -0.1818 -0.4765
vn -0.2971 -0.5957 0.7463
vn -0.2485 -0.6655 0.7038
vn 0.3810 -0.3182 0.8681
vn 0.7885 0.1746 0.5897
vn 0.9419 0.3099 -0.1294
vn 0.5370 0.2686 -0.7997
vn -0.3161 0.0182 -0.9485
vn -0.9034 -0.3526 0.2440
vn -0.8281 -0.5147 0.2220
vn -0.4558 -0.3516 0.8177
vn 0.2883 -0.1496 0.9458
vn 0.7250 0.0902 -0.6828
vn 0.4884 0.1038 -0.8664
vn 0.4719 0.2681 -0.8399
vn -0.3247 0.1391 -0.9355
vn -0.4899 0.2627 -0.8312
vn -0.6743 0.0708 -0.7351
vn 0.3806 -0.1637 -0.9101
vn -0.5470 0.0046 -0.8371
vn -0.7074 -0.0237 -0.7064
vn -0.5076 -0.1476 0.8488
vn -0.6097 -0.1842 0.7709
vn 0.3877 -0.2243 0.8941
vn 0.5417 -0.3019 0.7845
vn 0.9095 -0.1245 0.3967
vn 0.7058 -0.0184 -0.7082
vn -0.7229 0.1227 0.6800
vn 0.3155 -0.0231 0.9487
vn -0.7061 -0.0124 0.7081
vn 0.2398 -0.2893 -0.9267
vn 0.8656 -0.2736 -0.4194
vn 0.2610 -0.2356 -0.9361
vn -0.4781 -0.0498 -0.8769
vn -0.9373 0.1588 -0.3102
vn -0.4573 0.0118 -0.8893
vn -0.8635 0.2931 0.4105
vn -0.8880 0.3033 -0.3457
vn -0.2682 0.2661 0.9259
vn -0.8154 0.4240 0.3941
vn 0.4348 0.0041 0.9005
vn 0.4299 0.0827 0.8991
vn 0.8884 -0.3008 0.3468
vn 0.9394 -0.1610 0.3026
vn 0.8046 -0.4240 -0.4159
vn 0.7589 -0.5026 -0.4141
vn -0.3439 0.1885 -0.9199
vn -0.7748 0.4975 -0.3901
vn -0.7669 0.5284 0.3642
vn -0.3071 0.2522 0.9177
vn -0.2815 0.2910 0.9144
vn 0.3506 -0.1818 0.9187
vn 0.7900 -0.5077 0.3438
vn 0.4404 -0.0158 -0.8976
vn 0.2788 -0.1906 -0.9412
vn -0.1456 0.4452 -0.8835
vn -0.6497 0.6617 -0.3742
vn -0.7854 0.5019 0.3623
vn -0.4420 0.0338 0.8964
vn 0.1838 -0.4674 0.8647
vn 0.6866 -0.6627 0.2991
vn 0.6476 0.2652 -0.7143
vn 0.7754 -0.4648 -0.4275
vn 0.0238 0.6648 -0.7466
vn -0.6233 0.6969 -0.3547
vn -0.9119 0.3105 0.2684
vn -0.6197 -0.2920 0.7285
vn 0.0612 -0.6930 0.7183
vn 0.9265 -0.2568 -0.2752
vn 0.7295 0.5218 -0.4423
vn 0.0533 0.7755 -0.6291
vn -0.6721 0.5860 -0.4526
vn -0.9997 0.0199 0.0130
vn -0.6854 -0.5589 0.4668
vn 0.7189 -0.5449 0.4316
vn 0.7110 -0.6271 0.3183
vn 1.0000 -0.0059 -0.0048
vn 0.6726 0.7101 -0.2082
vn 0.0548 0.7670 -0.6394
vn -0.6247 0.3562 -0.6949
vn -0.9061 -0.3004 -0.2979
vn 0.0345 -0.7449 0.6663
vn -0.6048 -0.7441 0.2837
vn 0.6427 -0.3216 0.6954
vn 0.9090 0.2724 0.3155
vn 0.5737 0.8083 -0.1323
vn 0.1796 0.6069 -0.7742
vn -0.3446 0.0046 -0.9388
vn -0.6362 -0.5987 -0.4866
vn -0.1377 -0.5581 0.8182
vn 0.0179 -0.6865 0.7269
vn 0.3405 -0.0065 0.9402
vn 0.6581 0.5390 0.5258
vn 0.6351 0.7577 -0.1501
vn 0.5105 0.3149 -0.8002
vn 0.0505 -0.3499 -0.9354
vn -0.5912 -0.7623 0.2635
vn -0.4376 -0.7690 -0.4660
vn -0.4867 -0.2706 0.8306
vn -0.0650 0.3235 0.9440
vn 0.4383 0.7150 0.5446
vn 0.3916 0.7587 0.5206
vn 0.8404 0.5417 -0.0167
vn 0.8193 -0.0603 -0.5702
vn 0.2523 -0.6166 -0.7457
vn -0.8694 -0.4849 0.0953
vn -0.6975 -0.6738 0.2439
vn -0.8063 0.0713 0.5872
vn -0.3165 0.5762 0.7535
vn 0.4370 0.6199 0.6517
vn 0.9441 0.1738 0.2800
vn 0.8680 -0.4014 -0.2923
vn -0.4904 -0.5983 -0.6337
vn -0.4746 -0.7245 -0.4999
vn -0.9568 -0.1553 -0.2457
vn -0.8928 0.3634 0.2663
vn -0.3564 0.6850 0.6354
vn 0.3690 0.3163 0.8740
vn 0.8599 -0.1760 0.4791
vn 0.3024 -0.5951 -0.7446
vn 0.2552 -0.6625 -0.7042
vn -0.3863 -0.3134 -0.8675
vn -0.8511 0.1394 -0.5061
vn -0.8476 0.5148 0.1287
vn -0.3639 0.6073 0.7062
vn 0.3322 0.0548 0.9416
vn 0.9052 -0.3510 -0.2395
vn 0.8316 -0.5104 -0.2187
vn 0.4576 -0.3602 -0.8129
vn -0.2727 -0.1383 -0.9521
vn -0.7914 0.1592 -0.5902
vn -0.9423 0.3078 0.1317
vn -0.5299 0.2798 0.8006
vn 0.7891 -0.1562 0.5940
vn 0.8855 -0.2402 -0.3978
vn 0.7736 -0.3209 -0.5464
vn -0.8549 0.4045 0.3247
vn -0.8803 0.0895 -0.4660
vn -0.9283 0.1541 0.3383
vn -0.6697 0.2529 -0.6982
vn -0.9061 0.3610 -0.2205
vn -0.6835 0.2564 0.6835
vn -0.6253 0.1543 0.7650
vn 0.6766 0.0846 0.7315
vn -0.3845 -0.1391 0.9126
vn 0.5382 0.0331 0.8422
vn 0.8509 -0.1825 0.4927
vn 0.3760 -0.2945 -0.8786
vn 0.9119 0.0855 -0.4013
vn 0.3368 -0.1664 -0.9268
vn -0.3914 -0.4162 -0.8207
vn -0.3767 -0.2616 -0.8886
vn -0.9186 -0.2850 -0.2737
vn -0.9343 -0.2251 -0.2765
vn -0.8886 -0.0602 0.4547
vn -0.3404 0.1523 0.9278
vn -0.9042 0.0104 0.4271
vn 0.3773 0.2960 0.8775
vn -0.3740 0.2972 0.8785
vn 0.9146 0.2749 0.2964
vn 0.3682 0.4164 0.8313
vn 0.9144 -0.0080 -0.4048
vn 0.9297 -0.1813 -0.3206
vn 0.3705 -0.4984 -0.7838
vn -0.4032 -0.5089 -0.7606
vn -0.9304 0.1813 0.3187
vn -0.4144 0.4885 0.7679
vn 0.3397 0.5225 0.7820
vn 0.9069 0.2534 0.3366
vn 0.9052 0.2869 0.3134
vn 0.8798 -0.4512 -0.1495
vn 0.3236 -0.6584 -0.6795
vn -0.8862 -0.0227 -0.4628
vn -0.9314 -0.1931 -0.3084
vn -0.8910 0.4363 0.1256
vn -0.3951 0.6563 0.6428
vn 0.3368 0.5048 0.7948
vn 0.8842 0.0416 0.4652
vn 0.7455 -0.6661 -0.0238
vn -0.3911 -0.4337 -0.8118
vn 0.3113 -0.6691 -0.6748
vn -0.7027 0.2567 -0.6636
vn -0.7518 0.6581 -0.0418
vn -0.3741 0.6948 0.6143
vn 0.2455 0.3114 0.9180
vn 0.7176 -0.2821 0.6368
vn 0.4473 -0.5483 -0.7066
vn 0.0102 -0.0239 -0.9997
vn -0.2687 -0.2446 -0.9317
vn -0.4309 0.5145 -0.7414
vn -0.6313 0.7723 -0.0710
vn -0.4679 0.5892 0.6587
vn -0.0063 0.0279 0.9996
vn 0.4560 -0.5509 0.6990
vn 0.7059 -0.3272 -0.6283
vn 0.6326 -0.7737 -0.0336
vn 0.3474 0.2576 -0.9016
vn -0.1960 0.7052 -0.6814
vn -0.6370 0.7674 -0.0721
vn -0.7051 0.3625 0.6094
vn -0.3140 -0.2925 0.9032
vn 0.2700 -0.7409 0.6149
vn 0.9457 -0.0124 -0.3248
vn 0.6818 -0.7306 -0.0372
vn 0.5669 0.5422 -0.6202
vn -0.1193 0.8066 -0.5789
vn -0.7678 0.6103 -0.1949
vn -0.9444 0.0116 0.3287
vn -0.5000 -0.5938 0.6304
vn 0.2375 -0.8061 0.5419
vn 0.9444 0.3188 0.0810
vn 0.8209 -0.5542 0.1375
vn 0.5655 0.7354 -0.3734
vn -0.1356 0.7592 -0.6366
vn -0.7899 0.3197 -0.5234
vn -0.9362 -0.3450 -0.0663
vn -0.4772 -0.7670 0.4289
vn 0.8098 -0.2801 0.5156
vn 0.7489 0.5738 0.3316
vn 0.5319 0.7789 -0.3324
vn -0.0014 0.5456 -0.8381
vn -0.5560 -0.0553 -0.8294
vn -0.7421 -0.6143 -0.2682
vn 0.0794 -0.4890 0.8687
vn 0.2295 -0.6751 0.7011
vn 0.5797 0.0326 0.8142
vn 0.6264 0.6856 0.3709
vn 0.6679 0.6377 -0.3837
vn 0.2965 0.1803 -0.9379
vn -0.2749 -0.3980 -0.8752
vn -0.6400 -0.6031 0.4762
vn -0.5092 -0.7256 0.4628
vn -0.2618 -0.1607 0.9516
vn 0.2767 0.3245 0.9045
vn 0.1345 0.4996 0.8557
vn 0.6944 0.6117 0.3790
vn 0.8795 0.3264 -0.3463
vn 0.4969 -0.1701 -0.8510
vn -0.7344 -0.5998 -0.3178
vn -0.6972 -0.6638 -0.2707
vn -0.8723 -0.3206 0.3692
vn -0.5225 0.1338 0.8421
vn 0.1704 0.3876 0.9059
vn 0.7836 0.2729 0.5581
vn 0.9562 0.0249 -0.2917
vn -0.2208 -0.3522 -0.9095
vn -0.1993 -0.5098 -0.8369
vn -0.8054 -0.3541 -0.4754
vn -0.9600 -0.1253 0.2504
vn -0.6091 0.1715 0.7744
vn 0.7076 -0.0229 0.7062
vn 0.5007 -0.1500 -0.8525
vn 0.6047 -0.1974 -0.7716
vn -0.3906 -0.2249 -0.8927
vn -0.5404 -0.3019 -0.7854
vn -0.9110 -0.1244 -0.3931
vn 0.6749 0.1031 0.7307
vn 0.9825 0.1549 -0.1035
vn -0.7234 0.0913 0.6844
vn -0.4830 0.1051 0.8693
vn -0.4725 0.2677 0.8397
vn 0.3309 0.1391 0.9334
vn 0.4891 0.2628 0.8317
vn 0.7565 0.1200 0.6429
vn 0.8418 0.0015 -0.5398
vn 0.3429 0.1574 -0.9261
vn 0.9095 0.0189 -0.4154
vn 0.8879 -0.0628 -0.4558
vn -0.3960 0.2827 -0.8736
vn 0.3772 0.3028 -0.8752
vn -0.9102 0.2665 -0.3170
vn -0.3651 0.4228 -0.8294
vn -0.9155 0.0031 0.4022
vn -0.9114 0.0919 0.4011
vn -0.3785 -0.3003 0.8755
vn -0.3389 -0.1715 0.9250
vn 0.3886 -0.4221 0.8190
vn 0.3733 -0.2734 0.8865
vn 0.9175 -0.2880 0.2742
vn 0.9317 -0.2370 0.2753
vn 0.4169 0.4938 -0.7631
vn -0.3368 0.5271 -0.7802
vn -0.9060 0.2544 -0.3384
vn -0.9041 0.2900 -0.3140
vn -0.9308 -0.1771 0.3196
vn -0.3726 -0.5035 0.7795
vn 0.4010 -0.5128 0.7591
vn 0.9283 0.1978 -0.3149
vn 0.3969 0.6602 -0.6376
vn -0.3344 0.5075 -0.7941
vn -0.8822 0.0414 -0.4690
vn -0.8740 -0.4599 0.1565
vn -0.3257 -0.6621 0.6749
vn 0.8840 -0.0229 0.4669
vn 0.9305 -0.1935 0.3109
vn 0.8870 0.4420 -0.1333
vn 0.3756 0.6982 -0.6094
vn -0.2414 0.3146 -0.9180
vn -0.7135 -0.2816 -0.6415
vn -0.7245 -0.6883 0.0363
vn 0.3881 -0.4365 0.8117
vn -0.3131 -0.6724 0.6706
vn 0.6988 0.2559 0.6680
vn 0.7623 0.6471 0.0120
vn 0.6499 0.7583 0.0514
vn 0.4695 0.5935 -0.6538
vn 0.0119 0.0325 -0.9994
vn -0.4501 -0.5495 -0.7039
vn -0.4494 -0.5526 0.7019
vn -0.0156 -0.0274 0.9995
vn 0.2643 -0.2474 0.9322
vn 0.4252 0.5131 0.7456
vn 0.6708 0.7392 0.0604
vn 0.7068 0.3687 -0.6038
vn 0.3213 -0.2876 -0.9022
vn -0.6671 -0.7450 0.0088
vn -0.2619 -0.7407 -0.6187
vn -0.7075 -0.3328 0.6234
vn -0.3542 0.2530 0.9003
vn 0.1882 0.7042 0.6846
vn 0.7874 0.5821 0.2030
vn 0.9463 0.0200 -0.3227
vn 0.5089 -0.5899 -0.6269
vn -0.7188 -0.6951 -0.0107
vn -0.2277 -0.8084 -0.5429
vn -0.9473 -0.0197 0.3196
vn -0.5746 0.5380 0.6168
vn 0.1094 0.8078 0.5792
vn 0.7996 0.3094 0.5147
vn 0.9388 -0.3363 0.0746
vn 0.4861 -0.7659 -0.4209
vn -0.8159 -0.2847 -0.5032
vn -0.8332 -0.5208 -0.1859
vn -0.9463 0.3110 -0.0881
vn -0.5733 0.7331 0.3659
vn 0.1253 0.7642 0.6327
vn 0.5772 -0.0369 0.8158
vn 0.7425 -0.6082 0.2808
vn -0.0722 -0.4989 -0.8636
vn -0.2198 -0.6810 -0.6985
vn -0.5687 0.0559 -0.8206
vn -0.7486 0.5677 -0.3424
vn -0.5366 0.7807 0.3203
vn -0.0067 0.5555 0.8315
vn 0.2809 -0.3615 0.8890
vn 0.6414 -0.6113 -0.4636
vn 0.5144 -0.7292 -0.4514
vn 0.2682 -0.1731 -0.9477
vn -0.2418 0.3507 -0.9047
vn -0.6209 0.6837 -0.3833
vn -0.6683 0.6449 0.3708
vn -0.3041 0.1939 0.9327
vn 0.7258 -0.6042 0.3290
vn 0.6919 -0.6635 0.2846
vn 0.8727 -0.3312 -0.3586
vn 0.5317 0.1231 -0.8380
vn -0.0961 0.5084 -0.8557
vn -0.6844 0.6153 -0.3910
vn -0.8800 0.3378 0.3339
vn -0.5073 -0.1589 0.8470
vn 0.7976 -0.3580 0.4855
vn 0.1756 -0.5438 0.8207
vn 0.9621 -0.1321 -0.2386
vn 0.6194 0.1657 -0.7674
vn -0.0863 0.3070 -0.9478
vn -0.7735 0.2780 -0.5696
vn -0.9597 0.0329 0.2792
vn 0.2184 -0.3807 0.8985
vn 0.8645 0.1599 0.4766
vn 0.9295 0.1390 -0.3416
vn 0.8325 0.2633 -0.4875
vn 0.7272 0.0969 -0.6795
vn 0.6341 0.1442 -0.7597
vn -0.7796 -0.1854 -0.5983
vn -0.3141 -0.0536 -0.9479
vn -0.8604 -0.1505 -0.4869
vn -0.8881 -0.2278 0.3991
vn -0.7823 -0.3007 0.5455
vn 0.8878 0.0811 0.4531
vn -0.9927 0.0110 0.1203
vn -0.9586 -0.0366 0.2825
vn -0.9701 -0.1919 -0.1488
vn -0.8206 -0.1168 0.5594
vn -0.8939 -0.1894 0.4062
vn -0.3758 -0.1005 0.9212
vn -0.5629 -0.1183 0.8180
vn 0.1813 0.0011 0.9834
vn -0.2840 -0.0376 0.9581
vn 0.1494 0.0364 0.9881
vn 0.2825 -0.0366 0.9586
vn -0.1720 -0.1719 0.9700
vn 0.5593 -0.1171 0.8206
vn 0.4100 -0.1943 0.8911
vn 0.8206 -0.1168 0.5594
vn 0.9217 -0.1028 0.3741
vn 0.9834 -0.0007 -0.1814
vn 0.9581 -0.0376 0.2840
vn 0.9927 0.0227 -0.1184
vn 0.9586 -0.0366 -0.2825
vn 0.9681 -0.2017 0.1483
vn 0.8206 -0.1168 -0.5594
vn 0.8926 -0.1950 -0.4064
vn 0.3756 -0.0990 -0.9215
vn 0.5629 -0.1183 -0.8180
vn -0.2035 0.0424 -0.9782
vn 0.2840 -0.0376 -0.9581
vn -0.1253 0.1077 -0.9863
vn -0.0000 1.0000 -0.0000
vn -0.2825 -0.0366 -0.9586
vn 0.1723 -0.1535 -0.9730
vn -0.5593 -0.1171 -0.8206
vn -0.4017 -0.1959 -0.8946
vn -0.8206 -0.1168 -0.5594
vn -0.9201 -0.1223 -0.3720
vn -0.9822 -0.0176 0.1870
vn -0.9581 -0.0376 -0.2840
vn 0.9434 0.1221 -0.3082
vn 0.3545 -0.0748 -0.9320
vn -0.9378 -0.0598 -0.3419
vn -0.3130 0.1300 -0.9408
vn -0.9421 0.1362 0.3064
vn -0.3564 -0.0783 0.9311
vn 0.3143 0.1061 0.9434
vn 0.9389 -0.0514 0.3404
vn -0.4470 0.2921 -0.8455
vn 0.6830 0.2571 0.6837
vn 0.4470 0.2921 0.8455
vn -0.8443 0.2936 0.4483
vn -0.8452 0.2902 -0.4489
vn -0.4489 0.2902 0.8452
vn -0.0000 -1.0000 -0.0000
vn 0.8443 0.2936 -0.4483
vn 0.8452 0.2902 0.4489
vn 0.4489 0.2902 -0.8452
vn -0.9510 0.0228 -0.3085
vn -0.9999 0.0100 -0.0000
vn -0.9997 0.0226 -0.0000
vn 0.3134 0.0270 0.9492
vn -0.0000 0.0100 0.9999
vn 0.3091 0.0100 0.9510
vn 0.9507 0.0228 -0.3094
vn 0.8089 0.0100 -0.5879
vn 0.8088 0.0227 -0.5876
vn -0.5880 0.0227 -0.8085
vn -0.8089 0.0100 -0.5879
vn -0.8088 0.0228 -0.5876
vn -0.8085 0.0227 0.5880
vn -0.5879 0.0100 0.8089
vn -0.5876 0.0228 0.8088
vn 0.9522 0.0270 0.3043
vn 0.8089 0.0100 0.5879
vn 0.9510 0.0100 0.3091
vn -0.9492 0.0270 0.3134
vn -0.9510 0.0100 0.3091
vn -0.3134 0.0270 -0.9492
vn -0.0000 0.0100 -0.9999
vn -0.3091 0.0100 -0.9510
vn -0.3084 0.0227 0.9510
vn -0.0049 0.0275 0.9996
vn 0.9999 0.0100 -0.0000
vn 0.9510 0.0100 -0.3091
vn 0.5879 0.0100 0.8089
vn 0.5876 0.0227 0.8088
vn 0.5879 0.0100 -0.8089
vn 0.5876 0.0227 -0.8088
vn -0.9510 0.0100 -0.3091
vn -0.3091 0.0100 0.9510
vn 0.3084 0.0227 -0.9510
vn 0.0048 0.0275 -0.9996
vn 0.9996 0.0275 0.0049
vn -0.5879 0.0100 -0.8089
vn -0.8089 0.0100 0.5879
vn 0.8059 0.0274 0.5914
vn 0.3091 0.0100 -0.9510
vn 0.3084 0.0587 -0.9495
vn 0.5866 0.0587 0.8077
vn 0.8077 0.0587 0.5866
vn -0.9495 0.0587 0.3084
vn -0.8077 0.0587 0.5866
vn -0.3084 0.0587 -0.9495
vn -0.5866 0.0587 -0.8077
vn 0.9983 0.0587 -0.0000
vn -0.0000 0.0587 -0.9983
vn -0.3084 0.0587 0.9495
vn -0.9495 0.0587 -0.3084
vn 0.8077 0.0587 -0.5866
vn 0.5866 0.0587 -0.8077
vn 0.3084 0.0587 0.9495
vn 0.9495 0.0587 -0.3084
vn -0.0000 0.0587 0.9983
vn -0.9983 0.0587 -0.0000
vn 0.9495 0.0587 0.3084
vn -0.5866 0.0587 0.8077
vn -0.8077 0.0587 -0.5866
vn -0.7466 0.4674 -0.4735
vn -0.8391 0.0059 0.5439
vn 0.6986 0.2514 -0.6699
vn 0.6801 0.2738 -0.6801
vn -0.4735 0.4673 0.7466
vn 0.7466 0.4673 0.4735
vn -0.6725 0.1025 -0.7330
vn -0.9825 0.1560 0.1019
vn -0.7527 0.1214 -0.6470
vn 0.8513 -0.1719 0.4957
vn -0.8515 -0.1785 -0.4930
vn -0.5269 -0.1683 0.8331
vn 0.5151 -0.1741 -0.8393
vn -0.5532 0.7981 0.2388
vn -0.5600 0.8149 -0.1496
vn -0.0702 0.7987 0.5977
vn -0.4091 0.8123 0.4158
vn 0.4822 0.7977 0.3621
vn 0.1541 0.8134 0.5609
vn 0.5532 0.7981 -0.2388
vn 0.5636 0.8129 0.1471
vn 0.0702 0.7987 -0.5977
vn 0.4091 0.8123 -0.4158
vn -0.9986 0.0521 -0.0000
vn -0.9999 0.0132 -0.0000
vn -0.0000 0.0521 0.9986
vn 0.3089 0.0523 0.9497
vn 0.8079 0.0522 -0.5869
vn -0.5871 0.0522 -0.8079
vn -0.8079 0.0522 -0.5869
vn -0.5869 0.0522 0.8079
vn 0.8079 0.0522 0.5871
vn 0.9497 0.0523 0.3089
vn -0.9497 0.0523 0.3089
vn -0.0000 0.0521 -0.9986
vn -0.3089 0.0523 -0.9497
vn 0.0012 0.0120 0.9999
vn 0.9986 0.0521 -0.0000
vn 0.9546 0.0379 -0.2954
vn 0.5869 0.0522 0.8079
vn 0.5869 0.0522 -0.8079
vn -0.9457 0.0380 -0.3228
vn -0.3228 0.0380 0.9457
vn -0.0012 0.0120 -0.9999
vn 0.9999 0.0120 -0.0012
vn -0.8168 0.0381 0.5756
vn 0.3228 0.0380 -0.9457
vn -0.1491 0.8109 -0.5658
vn -0.3407 0.8195 -0.4608
vn -0.8088 -0.0140 0.5879
vn -0.5875 -0.0140 0.8091
vn -0.5879 -0.0140 0.8088
vn 0.3090 -0.0140 -0.9510
vn 0.5875 -0.0140 -0.8091
vn -0.0000 -0.0140 0.9999
vn -0.3090 -0.0140 0.9510
vn -0.0000 -0.0140 -0.9999
vn -0.3090 -0.0140 -0.9510
vn 0.9999 -0.0140 -0.0000
vn 0.9511 -0.0140 0.3087
vn 0.3090 -0.0140 0.9510
vn -0.5875 -0.0140 -0.8091
vn -0.5879 -0.0140 -0.8088
vn 0.5875 -0.0140 0.8091
vn 0.5879 -0.0140 0.8088
vn -0.8091 -0.0140 -0.5875
vn -0.8088 -0.0140 -0.5879
vn 0.8091 -0.0140 0.5875
vn 0.8088 -0.0140 0.5879
vn -0.9510 -0.0140 -0.3090
vn -0.9511 -0.0140 -0.3087
vn 0.9511 -0.0140 -0.3087
vn 0.9510 -0.0140 -0.3090
vn 0.9510 -0.0140 0.3090
vn -0.9999 -0.0140 -0.0000
vn 0.8091 -0.0140 -0.5875
vn 0.8088 -0.0140 -0.5879
vn -0.9510 -0.0140 0.3090
vn -0.8091 -0.0140 0.5875
vn 0.5879 -0.0140 -0.8088
vn -0.9511 -0.0140 0.3087
s 1
f 1//1 16//2 8//3
f 10//4 1//1 2//5
f 11//6 2//5 3//7
f 12//8 3//7 4//9
f 13//10 4//9 5//11
f 6//12 13//10 5//11
f 7//13 14//14 6//12
f 8//3 15//15 7//13
f 17//16 16//2 9//17
f 10//4 17//16 9//17
f 11//6 18//18 10//4
f 12//8 19//19 11//6
f 13//10 20//20 12//8
f 22//21 13//10 14//14
f 23//22 14//14 15//15
f 24//23 15//15 16//2
f 17//16 32//24 24//23
f 18//18 25//25 17//16
f 19//19 26//26 18//18
f 20//20 27//27 19//19
f 29//28 20//20 21//29
f 30//30 21//29 22//21
f 31//31 22//21 23//22
f 32//24 23//22 24//23
f 25//25 40//32 32//24
f 26//26 33//33 25//25
f 27//27 34//34 26//26
f 36//35 27//27 28//36
f 37//37 28//36 29//28
f 38//38 29//28 30//30
f 39//39 30//30 31//31
f 32//24 39//39 31//31
f 33//33 48//40 40//32
f 34//34 41//41 33//33
f 43//42 34//34 35//43
f 44//44 35//43 36//35
f 45//45 36//35 37//37
f 46//46 37//37 38//38
f 39//39 46//46 38//38
f 40//32 47//47 39//39
f 41//41 56//48 48//40
f 42//49 49//50 41//41
f 51//51 42//49 43//42
f 52//52 43//42 44//44
f 53//53 44//44 45//45
f 54//54 45//45 46//46
f 47//47 54//54 46//46
f 48//40 55//55 47//47
f 49//50 64//56 56//48
f 58//57 49//50 50//58
f 59//59 50//58 51//51
f 60//60 51//51 52//52
f 61//61 52//52 53//53
f 54//54 61//61 53//53
f 55//55 62//62 54//54
f 56//48 63//63 55//55
f 57//64 72//65 64//56
f 66//66 57//64 58//57
f 67//67 58//57 59//59
f 68//68 59//59 60//60
f 69//69 60//60 61//61
f 62//62 69//69 61//61
f 63//63 70//70 62//62
f 64//56 71//71 63//63
f 73//72 72//65 65//73
f 74//74 65//73 66//66
f 75//75 66//66 67//67
f 76//76 67//67 68//68
f 69//69 76//76 68//68
f 70//70 77//77 69//69
f 71//71 78//78 70//70
f 72//65 79//79 71//71
f 81//80 80//81 73//72
f 82//82 73//72 74//74
f 83//83 74//74 75//75
f 76//76 83//83 75//75
f 77//77 84//84 76//76
f 78//78 85//85 77//77
f 79//79 86//86 78//78
f 88//87 79//79 80//81
f 89//88 88//87 81//80
f 90//89 81//80 82//82
f 83//83 90//89 82//82
f 84//84 91//90 83//83
f 85//85 92//91 84//84
f 86//86 93//92 85//85
f 95//93 86//86 87//94
f 96//95 87//94 88//87
f 97//96 96//95 89//88
f 90//89 97//96 89//88
f 91//90 98//97 90//89
f 92//91 99//98 91//90
f 93//92 100//99 92//91
f 102//100 93//92 94//101
f 103//102 94//101 95//93
f 104//103 95//93 96//95
f 482//104 570//105 533//106
f 533//106 559//107 532//108
f 463//109 548//110 573//111
f 481//112 543//113 462//114
f 462//114 563//115 476//116
f 476//116 549//117 537//118
f 467//119 552//120 469//121
f 113//122 112//123 105//124
f 106//125 113//122 105//124
f 107//126 114//127 106//125
f 108//128 115//129 107//126
f 109//130 116//131 108//128
f 118//132 109//130 110//133
f 119//134 110//133 111//135
f 120//136 111//135 112//123
f 113//122 128//137 120//136
f 122//138 113//122 114//127
f 123//139 114//127 115//129
f 124//140 115//129 116//131
f 125//141 116//131 117//142
f 118//132 125//141 117//142
f 119//134 126//143 118//132
f 120//136 127//144 119//134
f 129//145 128//137 121//146
f 130//147 121//146 122//138
f 131//148 122//138 123//139
f 132//149 123//139 124//140
f 125//141 132//149 124//140
f 126//143 133//150 125//141
f 127//144 134//151 126//143
f 128//137 135//152 127//144
f 137//153 136//154 129//145
f 138//155 129//145 130//147
f 139//156 130//147 131//148
f 132//149 139//156 131//148
f 133//150 140//157 132//149
f 134//151 141//158 133//150
f 135//152 142//159 134//151
f 144//160 135//152 136//154
f 145//161 144//160 137//153
f 146//162 137//153 138//155
f 139//156 146//162 138//155
f 140//157 147//163 139//156
f 141//158 148//164 140//157
f 142//159 149//165 141//158
f 151//166 142//159 143//167
f 152//168 143//167 144//160
f 153//169 152//168 145//161
f 154//170 145//161 146//162
f 147//163 154//170 146//162
f 148//164 155//171 147//163
f 149//165 156//172 148//164
f 150//173 157//174 149//165
f 159//175 150//173 151//166
f 160//176 151//166 152//168
f 161//177 160//176 153//169
f 162//178 153//169 154//170
f 155//171 162//178 154//170
f 156//172 163//179 155//171
f 157//174 164//180 156//172
f 166//181 157//174 158//182
f 167//183 158//182 159//175
f 168//184 159//175 160//176
f 169//185 168//184 161//177
f 162//178 169//185 161//177
f 163//179 170//186 162//178
f 164//180 171//187 163//179
f 165//188 172//189 164//180
f 174//190 165//188 166//181
f 175//191 166//181 167//183
f 176//192 167//183 168//184
f 169//185 184//193 176//192
f 170//186 177//194 169//185
f 171//187 178//195 170//186
f 172//189 179//196 171//187
f 181//197 172//189 173//198
f 182//199 173//198 174//190
f 183//200 174//190 175//191
f 184//193 175//191 176//192
f 177//194 192//201 184//193
f 178//195 185//202 177//194
f 179//196 186//203 178//195
f 188//204 179//196 180//205
f 189//206 180//205 181//197
f 190//207 181//197 182//199
f 191//208 182//199 183//200
f 184//193 191//208 183//200
f 185//202 200//209 192//201
f 186//203 193//210 185//202
f 195//211 186//203 187//212
f 196//213 187//212 188//204
f 197//214 188//204 189//206
f 198//215 189//206 190//207
f 191//208 198//215 190//207
f 192//201 199//216 191//208
f 193//210 208//217 200//209
f 202//218 193//210 194//219
f 203//220 194//219 195//211
f 204//221 195//211 196//213
f 205//222 196//213 197//214
f 198//215 205//222 197//214
f 199//216 206//223 198//215
f 200//209 207//224 199//216
f 461//225 568//226 462//227
f 462//227 548//110 481//112
f 466//228 567//229 560//230
f 539//231 463//109 538//232
f 467//119 536//233 466//228
f 467//119 560//230 572//234
f 477//235 562//236 553//237
f 469//121 545//238 461//225
f 217//239 216//240 209//241
f 218//242 209//241 210//243
f 219//244 210//243 211//245
f 212//246 219//244 211//245
f 213//247 220//248 212//246
f 214//249 221//250 213//247
f 215//251 222//252 214//249
f 224//253 215//251 216//240
f 217//239 232//254 224//253
f 218//242 225//255 217//239
f 219//244 226//256 218//242
f 228//257 219//244 220//248
f 229//258 220//248 221//250
f 230//259 221//250 222//252
f 231//260 222//252 223//261
f 224//253 231//260 223//261
f 225//255 240//262 232//254
f 226//256 233//263 225//255
f 235//264 226//256 227//265
f 236//266 227//265 228//257
f 237//267 228//257 229//258
f 238//268 229//258 230//259
f 231//260 238//268 230//259
f 232//254 239//269 231//260
f 233//263 248//270 240//262
f 234//271 241//272 233//263
f 243//273 234//271 235//264
f 244//274 235//264 236//266
f 245//275 236//266 237//267
f 246//276 237//267 238//268
f 239//269 246//276 238//268
f 240//262 247//277 239//269
f 249//278 248//270 241//272
f 250//279 241//272 242//280
f 251//281 242//280 243//273
f 252//282 243//273 244//274
f 245//275 252//282 244//274
f 246//276 253//283 245//275
f 247//277 254//284 246//276
f 248//270 255//285 247//277
f 257//286 256//287 249//278
f 258//288 249//278 250//279
f 259//289 250//279 251//281
f 260//290 251//281 252//282
f 253//283 260//290 252//282
f 254//284 261//291 253//283
f 255//285 262//292 254//284
f 256//287 263//293 255//285
f 265//294 264//295 257//286
f 266//296 257//286 258//288
f 267//297 258//288 259//289
f 268//298 259//289 260//290
f 261//291 268//298 260//290
f 262//292 269//299 261//291
f 263//293 270//300 262//292
f 264//295 271//301 263//293
f 273//302 272//303 265//294
f 274//304 265//294 266//296
f 275//305 266//296 267//297
f 268//298 275//305 267//297
f 269//299 276//306 268//298
f 270//300 277//307 269//299
f 271//301 278//308 270//300
f 280//309 271//301 272//303
f 281//310 280//309 273//302
f 282//311 273//302 274//304
f 275//305 282//311 274//304
f 276//306 283//312 275//305
f 277//307 284//313 276//306
f 278//308 285//314 277//307
f 287//315 278//308 279//316
f 288//317 279//316 280//309
f 289//318 288//317 281//310
f 282//311 289//318 281//310
f 283//312 290//319 282//311
f 284//313 291//320 283//312
f 285//314 292//321 284//313
f 294//322 285//314 286//323
f 295//324 286//323 287//315
f 296//325 287//315 288//317
f 289//318 304//326 296//325
f 290//319 297//327 289//318
f 291//320 298//328 290//319
f 292//321 299//329 291//320
f 301//330 292//321 293//331
f 302//332 293//331 294//322
f 303//333 294//322 295//324
f 304//326 295//324 296//325
f 297//327 312//334 304//326
f 298//328 305//335 297//327
f 299//329 306//336 298//328
f 308//337 299//329 300//338
f 309//339 300//338 301//330
f 310//340 301//330 302//332
f 311//341 302//332 303//333
f 304//326 311//341 303//333
f 531//342 550//343 468//344
f 468//344 555//345 461//346
f 461//346 565//347 469//121
f 475//348 551//349 531//342
f 470//350 544//351 472//352
f 472//352 564//353 474//354
f 475//348 564//353 546//355
f 482//104 549//117 554//356
f 313//357 328//358 320//359
f 314//360 321//361 313//357
f 315//362 322//363 314//360
f 324//364 315//362 316//365
f 325//366 316//365 317//367
f 326//368 317//367 318//369
f 327//370 318//369 319//371
f 320//359 327//370 319//371
f 329//372 328//358 321//361
f 330//373 321//361 322//363
f 331//374 322//363 323//375
f 324//364 331//374 323//375
f 325//366 332//376 324//364
f 326//368 333//377 325//366
f 327//370 334//378 326//368
f 336//379 327//370 328//358
f 337//380 336//379 329//372
f 338//381 329//372 330//373
f 331//374 338//381 330//373
f 332//376 339//382 331//374
f 333//377 340//383 332//376
f 334//378 341//384 333//377
f 343//385 334//378 335//386
f 344//387 335//386 336//379
f 345//388 344//387 337//380
f 346//389 337//380 338//381
f 339//382 346//389 338//381
f 340//383 347//390 339//382
f 341//384 348//391 340//383
f 342//392 349//393 341//384
f 351//394 342//392 343//385
f 352//395 343//385 344//387
f 345//388 360//396 352//395
f 346//389 353//397 345//388
f 347//390 354//398 346//389
f 348//391 355//399 347//390
f 357//400 348//391 349//393
f 358//401 349//393 350//402
f 359//403 350//402 351//394
f 360//396 351//394 352//395
f 353//397 368//404 360//396
f 354//398 361//405 353//397
f 355//399 362//406 354//398
f 356//407 363//408 355//399
f 365//409 356//407 357//400
f 366//410 357//400 358//401
f 367//411 358//401 359//403
f 368//404 359//403 360//396
f 361//405 376//412 368//404
f 362//406 369//413 361//405
f 363//408 370//414 362//406
f 364//415 371//416 363//408
f 373//417 364//415 365//409
f 374//418 365//409 366//410
f 375//419 366//410 367//411
f 376//412 367//411 368//404
f 369//413 384//420 376//412
f 370//414 377//421 369//413
f 371//416 378//422 370//414
f 380//423 371//416 372//424
f 381//425 372//424 373//417
f 382//426 373//417 374//418
f 383//427 374//418 375//419
f 376//412 383//427 375//419
f 377//421 392//428 384//420
f 378//422 385//429 377//421
f 387//430 378//422 379//431
f 388//432 379//431 380//423
f 389//433 380//423 381//425
f 390//434 381//425 382//426
f 383//427 390//434 382//426
f 384//420 391//435 383//427
f 385//429 400//436 392//428
f 394//437 385//429 386//438
f 395//439 386//438 387//430
f 396//440 387//430 388//432
f 397//441 388//432 389//433
f 390//434 397//441 389//433
f 391//435 398//442 390//434
f 392//428 399//443 391//435
f 401//444 400//436 393//445
f 402//446 393//445 394//437
f 403//447 394//437 395//439
f 404//448 395//439 396//440
f 397//441 404//448 396//440
f 398//442 405//449 397//441
f 399//443 406//450 398//442
f 400//436 407//451 399//443
f 409//452 408//453 401//444
f 410//454 401//444 402//446
f 411//455 402//446 403//447
f 404//448 411//455 403//447
f 405//449 412//456 404//448
f 406//450 413//457 405//449
f 407//451 414//458 406//450
f 416//459 407//451 408//453
f 540//460 558//461 530//462
f 480//463 558//461 569//464
f 476//465 557//466 556//467
f 476//465 561//468 468//469
f 468//469 562//236 531//342
f 480//463 557//466 537//118
f 477//235 547//470 540//460
f 450//471 422//472 421//473
f 421//473 424//474 423//475
f 424//474 425//476 423//475
f 426//477 427//478 425//476
f 428//479 417//480 427//478
f 417//480 433//481 432//482
f 432//482 435//483 434//484
f 434//484 437//485 436//486
f 437//485 438//487 436//486
f 439//488 429//489 438//487
f 429//489 443//490 442//491
f 442//491 445//492 444//493
f 445//492 446//494 444//493
f 447//495 448//496 446//494
f 449//497 440//498 448//496
f 441//499 419//499 418//499
f 440//498 454//500 453//501
f 453//501 456//502 455//503
f 455//503 458//504 457//505
f 458//504 459//506 457//505
f 460//507 450//471 459//506
f 450//471 211//245 210//243
f 423//475 211//245 421//473
f 423//475 213//247 212//246
f 425//476 214//249 213//247
f 417//480 214//249 427//478
f 418//508 215//251 417//480
f 419//509 216//240 418//508
f 419//509 210//243 209//241
f 418//510 2//5 441//511
f 418//510 4//9 3//7
f 432//482 4//9 417//480
f 434//484 5//11 432//482
f 434//484 7//13 6//12
f 436//486 8//3 7//13
f 429//489 8//3 438//487
f 441//511 1//1 429//489
f 451//512 315//362 440//498
f 441//513 316//365 451//512
f 441//513 318//369 317//367
f 429//489 319//371 318//369
f 444//493 319//371 442//491
f 444//493 313//357 320//359
f 446//494 314//360 313//357
f 448//496 315//362 314//360
f 457//505 106//125 455//503
f 459//506 107//126 457//505
f 450//471 108//128 459//506
f 419//514 109//130 450//471
f 451//515 110//133 419//514
f 451//515 112//123 111//135
f 453//501 112//123 440//498
f 455//503 105//124 453//501
f 539//231 621//516 532//108
f 535//517 617//518 474//354
f 538//232 615//519 614//520
f 472//352 617//518 616//521
f 476//522 461//522 462//522
f 540//460 619//523 618//524
f 533//106 621//516 620//525
f 536//233 615//519 466//228
f 507//526 627//527 506//528
f 508//529 632//530 631//531
f 511//532 637//533 510//534
f 513//535 644//536 512//537
f 515//538 629//539 514//540
f 516//541 634//542 635//543
f 518//544 627//527 626//545
f 519//546 642//547 641//548
f 521//549 632//530 509//550
f 511//532 636//551 638//552
f 508//529 633//553 523//554
f 510//534 639//555 524//556
f 507//526 644//536 645//557
f 514//540 630//558 521//549
f 525//559 642//547 520//560
f 516//541 636//551 522//561
f 519//546 643//562 513//535
f 518//544 628//563 515//538
f 523//554 634//542 517//564
f 524//556 640//565 525//559
f 603//566 524//556 525//559
f 612//567 517//564 599//568
f 610//569 515//538 598//570
f 611//571 513//535 597//572
f 602//573 516//541 522//561
f 600//574 525//559 520//560
f 601//575 514//540 521//549
f 594//576 512//537 507//526
f 606//577 524//556 613//578
f 605//579 523//554 612//567
f 602//573 511//532 596//580
f 595//581 521//549 509//550
f 600//574 519//546 611//571
f 604//582 518//544 610//569
f 609//583 517//564 516//541
f 598//570 514//540 608//584
f 597//572 512//537 607//585
f 596//580 510//534 606//577
f 595//581 508//529 605//579
f 604//582 507//526 506//528
f 539//231 614//520 623//586
f 470//350 565//347 566//587
f 536//233 470//350 472//352
f 534//588 482//104 533//106
f 205//222 573//111 204//221
f 534//588 620//525 625//589
f 536//233 616//521 622//590
f 480//463 534//588 530//462
f 475//348 535//517 474//354
f 535//517 477//235 540//460
f 535//517 618//524 624//591
f 485//592 542//593 481//112
f 485//592 539//231 532//108
f 534//588 619//523 530//462
f 485//592 559//107 571//594
f 555//345 309//339 565//347
f 543//113 416//459 563//115
f 551//349 305//335 306//336
f 566//587 311//341 544//351
f 544//351 312//334 564//353
f 545//238 202//218 568//226
f 564//353 305//335 546//355
f 542//593 413//457 414//458
f 568//226 203//220 548//110
f 549//117 410//454 554//356
f 567//229 206//223 560//230
f 547//470 98//97 558//461
f 548//110 204//221 573//111
f 559//107 413//457 571//594
f 560//230 207//224 572//234
f 552//120 207//224 208//217
f 562//236 104//103 553//237
f 565//347 310//340 566//587
f 554//356 411//455 570//105
f 545//238 208//217 201//595
f 570//105 412//456 559//107
f 558//461 99//98 569//464
f 556//467 100//99 101//596
f 567//229 463//109 573//111
f 543//113 414//458 415//597
f 556//467 102//100 561//468
f 561//468 103//102 562//236
f 563//115 409//452 549//117
f 557//466 99//98 100//99
f 550//343 306//336 307//598
f 553//237 97//96 547//470
f 550//343 308//337 555//345
f 465//599 541//499 464//600
f 471//601 541//499 529//602
f 528//603 541//499 473//604
f 479//605 541//499 478//606
f 483//607 541//499 527//608
f 460//507 574//609 420//610
f 433//481 585//611 575//612
f 443//490 576//613 445//492
f 458//504 587//614 577//615
f 424//474 578//616 426//477
f 439//488 589//617 579//618
f 422//472 574//609 580//619
f 454//500 590//620 581//621
f 428//479 585//611 431//622
f 443//490 592//623 586//624
f 433//481 582//625 435//483
f 445//492 583//626 447//495
f 460//507 577//615 584//627
f 428//479 578//616 591//628
f 449//497 590//620 452//629
f 439//488 592//623 430//630
f 454//500 587//614 456//502
f 422//472 588//631 424//474
f 437//485 582//625 589//617
f 449//497 583//626 593//632
f 574//609 594//576 604//582
f 585//611 605//579 575//612
f 586//624 606//577 576//613
f 577//615 597//572 607//585
f 588//631 608//584 578//616
f 579//618 599//568 609//583
f 574//609 610//569 580//619
f 590//620 611//571 581//621
f 585//611 601//575 595//581
f 592//623 596//580 586//624
f 575//612 612//567 582//625
f 576//613 613//578 583//626
f 584//627 607//585 594//576
f 591//628 608//584 601//575
f 590//620 603//566 600//574
f 592//623 609//583 602//573
f 581//621 597//572 587//614
f 580//619 598//570 588//631
f 589//617 612//567 599//568
f 593//632 613//578 603//566
f 465//599 614//520 615//519
f 473//604 616//521 617//518
f 479//605 618//524 619//523
f 484//633 620//525 621//516
f 465//599 622//590 529//602
f 464//600 623//586 614//520
f 473//604 624//591 528//603
f 471//601 622//590 616//521
f 478//606 624//591 618//524
f 479//605 625//589 527//608
f 484//633 623//586 526//634
f 483//607 625//589 620//525
f 526//634 541//499 484//633
f 498//635 659//636 499//637
f 486//522 626//522 627//522
f 487//522 628//522 626//522
f 489//522 628//522 488//522
f 490//522 629//522 489//522
f 492//522 631//522 632//522
f 493//522 633//522 631//522
f 495//522 633//522 494//522
f 496//522 634//522 495//522
f 491//522 635//522 496//522
f 497//522 637//522 638//522
f 499//522 637//522 498//522
f 500//522 639//522 499//522
f 501//522 641//522 642//522
f 502//522 643//522 641//522
f 504//522 643//522 503//522
f 505//522 644//522 504//522
f 492//522 630//522 490//522
f 491//522 638//522 636//522
f 501//522 640//522 500//522
f 486//522 645//522 505//522
f 646//522 666//522 648//522
f 490//638 649//639 650//638
f 501//640 660//641 662//640
f 500//641 659//636 660//641
f 492//642 651//643 493//643
f 486//644 665//645 647//644
f 501//640 661//646 502//646
f 493//643 653//647 494//648
f 502//646 663//649 503//650
f 494//648 654//651 495//652
f 503//650 664//653 504//654
f 496//655 654//651 655//656
f 486//644 646//657 487//658
f 505//659 664//653 665//645
f 491//660 655//656 656//660
f 487//658 648//661 488//662
f 492//642 650//638 652//642
f 497//663 657//664 498//635
f 488//662 649//639 489//665
f 491//660 658//666 497//663
f 665//522 666//522 647//522
f 663//522 666//522 664//522
f 662//522 666//522 661//522
f 659//522 666//522 660//522
f 658//522 666//522 657//522
f 655//522 666//522 656//522
f 653//522 666//522 654//522
f 652//522 666//522 651//522
f 649//522 666//522 650//522
f 1//1 9//17 16//2
f 10//4 9//17 1//1
f 11//6 10//4 2//5
f 12//8 11//6 3//7
f 13//10 12//8 4//9
f 6//12 14//14 13//10
f 7//13 15//15 14//14
f 8//3 16//2 15//15
f 17//16 24//23 16//2
f 10//4 18//18 17//16
f 11//6 19//19 18//18
f 12//8 20//20 19//19
f 13//10 21//29 20//20
f 22//21 21//29 13//10
f 23//22 22//21 14//14
f 24//23 23//22 15//15
f 17//16 25//25 32//24
f 18//18 26//26 25//25
f 19//19 27//27 26//26
f 20//20 28//36 27//27
f 29//28 28//36 20//20
f 30//30 29//28 21//29
f 31//31 30//30 22//21
f 32//24 31//31 23//22
f 25//25 33//33 40//32
f 26//26 34//34 33//33
f 27//27 35//43 34//34
f 36//35 35//43 27//27
f 37//37 36//35 28//36
f 38//38 37//37 29//28
f 39//39 38//38 30//30
f 32//24 40//32 39//39
f 33//33 41//41 48//40
f 34//34 42//49 41//41
f 43//42 42//49 34//34
f 44//44 43//42 35//43
f 45//45 44//44 36//35
f 46//46 45//45 37//37
f 39//39 47//47 46//46
f 40//32 48//40 47//47
f 41//41 49//50 56//48
f 42//49 50//58 49//50
f 51//51 50//58 42//49
f 52//52 51//51 43//42
f 53//53 52//52 44//44
f 54//54 53//53 45//45
f 47//47 55//55 54//54
f 48//40 56//48 55//55
f 49//50 57//64 64//56
f 58//57 57//64 49//50
f 59//59 58//57 50//58
f 60//60 59//59 51//51
f 61//61 60//60 52//52
f 54//54 62//62 61//61
f 55//55 63//63 62//62
f 56//48 64//56 63//63
f 57//64 65//73 72//65
f 66//66 65//73 57//64
f 67//67 66//66 58//57
f 68//68 67//67 59//59
f 69//69 68//68 60//60
f 62//62 70//70 69//69
f 63//63 71//71 70//70
f 64//56 72//65 71//71
f 73//72 80//81 72//65
f 74//74 73//72 65//73
f 75//75 74//74 66//66
f 76//76 75//75 67//67
f 69//69 77//77 76//76
f 70//70 78//78 77//77
f 71//71 79//79 78//78
f 72//65 80//81 79//79
f 81//80 88//87 80//81
f 82//82 81//80 73//72
f 83//83 82//82 74//74
f 76//76 84//84 83//83
f 77//77 85//85 84//84
f 78//78 86//86 85//85
f 79//79 87//94 86//86
f 88//87 87//94 79//79
f 89//88 96//95 88//87
f 90//89 89//88 81//80
f 83//83 91//90 90//89
f 84//84 92//91 91//90
f 85//85 93//92 92//91
f 86//86 94//101 93//92
f 95//93 94//101 86//86
f 96//95 95//93 87//94
f 97//96 104//103 96//95
f 90//89 98//97 97//96
f 91//90 99//98 98//97
f 92//91 100//99 99//98
f 93//92 101//596 100//99
f 102//100 101//596 93//92
f 103//102 102//100 94//101
f 104//103 103//102 95//93
f 482//104 554//356 570//105
f 533//106 570//105 559//107
f 463//109 481//112 548//110
f 481//112 542//593 543//113
f 462//114 543//113 563//115
f 476//116 563//115 549//117
f 467//119 572//234 552//120
f 113//122 120//136 112//123
f 106//125 114//127 113//122
f 107//126 115//129 114//127
f 108//128 116//131 115//129
f 109//130 117//142 116//131
f 118//132 117//142 109//130
f 119//134 118//132 110//133
f 120//136 119//134 111//135
f 113//122 121//146 128//137
f 122//138 121//146 113//122
f 123//139 122//138 114//127
f 124//140 123//139 115//129
f 125//141 124//140 116//131
f 118//132 126//143 125//141
f 119//134 127//144 126//143
f 120//136 128//137 127//144
f 129//145 136//154 128//137
f 130//147 129//145 121//146
f 131//148 130//147 122//138
f 132//149 131//148 123//139
f 125//141 133//150 132//149
f 126//143 134//151 133//150
f 127//144 135//152 134//151
f 128//137 136//154 135//152
f 137//153 144//160 136//154
f 138//155 137//153 129//145
f 139//156 138//155 130//147
f 132//149 140//157 139//156
f 133//150 141//158 140//157
f 134//151 142//159 141//158
f 135//152 143//167 142//159
f 144//160 143//167 135//152
f 145//161 152//168 144//160
f 146//162 145//161 137//153
f 139//156 147//163 146//162
f 140//157 148//164 147//163
f 141//158 149//165 148//164
f 142//159 150//173 149//165
f 151//166 150//173 142//159
f 152//168 151//166 143//167
f 153//169 160//176 152//168
f 154//170 153//169 145//161
f 147//163 155//171 154//170
f 148//164 156//172 155//171
f 149//165 157//174 156//172
f 150//173 158//182 157//174
f 159//175 158//182 150//173
f 160//176 159//175 151//166
f 161//177 168//184 160//176
f 162//178 161//177 153//169
f 155//171 163//179 162//178
f 156//172 164//180 163//179
f 157//174 165//188 164//180
f 166//181 165//188 157//174
f 167//183 166//181 158//182
f 168//184 167//183 159//175
f 169//185 176//192 168//184
f 162//178 170//186 169//185
f 163//179 171//187 170//186
f 164//180 172//189 171//187
f 165//188 173//198 172//189
f 174//190 173//198 165//188
f 175//191 174//190 166//181
f 176//192 175//191 167//183
f 169//185 177//194 184//193
f 170//186 178//195 177//194
f 171//187 179//196 178//195
f 172//189 180//205 179//196
f 181//197 180//205 172//189
f 182//199 181//197 173//198
f 183//200 182//199 174//190
f 184//193 183//200 175//191
f 177//194 185//202 192//201
f 178//195 186//203 185//202
f 179//196 187//212 186//203
f 188//204 187//212 179//196
f 189//206 188//204 180//205
f 190//207 189//206 181//197
f 191//208 190//207 182//199
f 184//193 192//201 191//208
f 185//202 193//210 200//209
f 186//203 194//219 193//210
f 195//211 194//219 186//203
f 196//213 195//211 187//212
f 197//214 196//213 188//204
f 198//215 197//214 189//206
f 191//208 199//216 198//215
f 192//201 200//209 199//216
f 193//210 201//595 208//217
f 202//218 201//595 193//210
f 203//220 202//218 194//219
f 204//221 203//220 195//211
f 205//222 204//221 196//213
f 198//215 206//223 205//222
f 199//216 207//224 206//223
f 200//209 208//217 207//224
f 461//225 545//238 568//226
f 462//227 568//226 548//110
f 466//228 538//232 567//229
f 539//231 481//112 463//109
f 467//119 469//121 536//233
f 467//119 466//228 560//230
f 477//235 531//342 562//236
f 469//121 552//120 545//238
f 217//239 224//253 216//240
f 218//242 217//239 209//241
f 219//244 218//242 210//243
f 212//246 220//248 219//244
f 213//247 221//250 220//248
f 214//249 222//252 221//250
f 215//251 223//261 222//252
f 224//253 223//261 215//251
f 217//239 225//255 232//254
f 218//242 226//256 225//255
f 219//244 227//265 226//256
f 228//257 227//265 219//244
f 229//258 228//257 220//248
f 230//259 229//258 221//250
f 231//260 230//259 222//252
f 224//253 232//254 231//260
f 225//255 233//263 240//262
f 226//256 234//271 233//263
f 235//264 234//271 226//256
f 236//266 235//264 227//265
f 237//267 236//266 228//257
f 238//268 237//267 229//258
f 231//260 239//269 238//268
f 232//254 240//262 239//269
f 233//263 241//272 248//270
f 234//271 242//280 241//272
f 243//273 242//280 234//271
f 244//274 243//273 235//264
f 245//275 244//274 236//266
f 246//276 245//275 237//267
f 239//269 247//277 246//276
f 240//262 248//270 247//277
f 249//278 256//287 248//270
f 250//279 249//278 241//272
f 251//281 250//279 242//280
f 252//282 251//281 243//273
f 245//275 253//283 252//282
f 246//276 254//284 253//283
f 247//277 255//285 254//284
f 248//270 256//287 255//285
f 257//286 264//295 256//287
f 258//288 257//286 249//278
f 259//289 258//288 250//279
f 260//290 259//289 251//281
f 253//283 261//291 260//290
f 254//284 262//292 261//291
f 255//285 263//293 262//292
f 256//287 264//295 263//293
f 265//294 272//303 264//295
f 266//296 265//294 257//286
f 267//297 266//296 258//288
f 268//298 267//297 259//289
f 261//291 269//299 268//298
f 262//292 270//300 269//299
f 263//293 271//301 270//300
f 264//295 272//303 271//301
f 273//302 280//309 272//303
f 274//304 273//302 265//294
f 275//305 274//304 266//296
f 268//298 276//306 275//305
f 269//299 277//307 276//306
f 270//300 278//308 277//307
f 271//301 279//316 278//308
f 280//309 279//316 271//301
f 281//310 288//317 280//309
f 282//311 281//310 273//302
f 275//305 283//312 282//311
f 276//306 284//313 283//312
f 277//307 285//314 284//313
f 278//308 286//323 285//314
f 287//315 286//323 278//308
f 288//317 287//315 279//316
f 289//318 296//325 288//317
f 282//311 290//319 289//318
f 283//312 291//320 290//319
f 284//313 292//321 291//320
f 285//314 293//331 292//321
f 294//322 293//331 285//314
f 295//324 294//322 286//323
f 296//325 295//324 287//315
f 289//318 297//327 304//326
f 290//319 298//328 297//327
f 291//320 299//329 298//328
f 292//321 300//338 299//329
f 301//330 300//338 292//321
f 302//332 301//330 293//331
f 303//333 302//332 294//322
f 304//326 303//333 295//324
f 297//327 305//335 312//334
f 298//328 306//336 305//335
f 299//329 307//598 306//336
f 308//337 307//598 299//329
f 309//339 308//337 300//338
f 310//340 309//339 301//330
f 311//341 310//340 302//332
f 304//326 312//334 311//341
f 531//342 551//349 550//343
f 468//344 550//343 555//345
f 461//346 555//345 565//347
f 475//348 546//355 551//349
f 470//350 566//587 544//351
f 472//352 544//351 564//353
f 475//348 474//354 564//353
f 482//104 537//118 549//117
f 313//357 321//361 328//358
f 314//360 322//363 321//361
f 315//362 323//375 322//363
f 324//364 323//375 315//362
f 325//366 324//364 316//365
f 326//368 325//366 317//367
f 327//370 326//368 318//369
f 320//359 328//358 327//370
f 329//372 336//379 328//358
f 330//373 329//372 321//361
f 331//374 330//373 322//363
f 324//364 332//376 331//374
f 325//366 333//377 332//376
f 326//368 334//378 333//377
f 327//370 335//386 334//378
f 336//379 335//386 327//370
f 337//380 344//387 336//379
f 338//381 337//380 329//372
f 331//374 339//382 338//381
f 332//376 340//383 339//382
f 333//377 341//384 340//383
f 334//378 342//392 341//384
f 343//385 342//392 334//378
f 344//387 343//385 335//386
f 345//388 352//395 344//387
f 346//389 345//388 337//380
f 339//382 347//390 346//389
f 340//383 348//391 347//390
f 341//384 349//393 348//391
f 342//392 350//402 349//393
f 351//394 350//402 342//392
f 352//395 351//394 343//385
f 345//388 353//397 360//396
f 346//389 354//398 353//397
f 347//390 355//399 354//398
f 348//391 356//407 355//399
f 357//400 356//407 348//391
f 358//401 357//400 349//393
f 359//403 358//401 350//402
f 360//396 359//403 351//394
f 353//397 361//405 368//404
f 354//398 362//406 361//405
f 355//399 363//408 362//406
f 356//407 364//415 363//408
f 365//409 364//415 356//407
f 366//410 365//409 357//400
f 367//411 366//410 358//401
f 368//404 367//411 359//403
f 361//405 369//413 376//412
f 362//406 370//414 369//413
f 363//408 371//416 370//414
f 364//415 372//424 371//416
f 373//417 372//424 364//415
f 374//418 373//417 365//409
f 375//419 374//418 366//410
f 376//412 375//419 367//411
f 369//413 377//421 384//420
f 370//414 378//422 377//421
f 371//416 379//431 378//422
f 380//423 379//431 371//416
f 381//425 380//423 372//424
f 382//426 381//425 373//417
f 383//427 382//426 374//418
f 376//412 384//420 383//427
f 377//421 385//429 392//428
f 378//422 386//438 385//429
f 387//430 386//438 378//422
f 388//432 387//430 379//431
f 389//433 388//432 380//423
f 390//434 389//433 381//425
f 383//427 391//435 390//434
f 384//420 392//428 391//435
f 385//429 393//445 400//436
f 394//437 393//445 385//429
f 395//439 394//437 386//438
f 396//440 395//439 387//430
f 397//441 396//440 388//432
f 390//434 398//442 397//441
f 391//435 399//443 398//442
f 392//428 400//436 399//443
f 401//444 408//453 400//436
f 402//446 401//444 393//445
f 403//447 402//446 394//437
f 404//448 403//447 395//439
f 397//441 405//449 404//448
f 398//442 406//450 405//449
f 399//443 407//451 406//450
f 400//436 408//453 407//451
f 409//452 416//459 408//453
f 410//454 409//452 401//444
f 411//455 410//454 402//446
f 404//448 412//456 411//455
f 405//449 413//457 412//456
f 406//450 414//458 413//457
f 407//451 415//597 414//458
f 416//459 415//597 407//451
f 540//460 547//470 558//461
f 480//463 530//462 558//461
f 476//465 537//118 557//466
f 476//465 556//467 561//468
f 468//469 561//468 562//236
f 480//463 569//464 557//466
f 477//235 553//237 547//470
f 450//471 420//610 422//472
f 421//473 422//472 424//474
f 424//474 426//477 425//476
f 426//477 428//479 427//478
f 428//479 431//622 417//480
f 417//480 431//622 433//481
f 432//482 433//481 435//483
f 434//484 435//483 437//485
f 437//485 439//488 438//487
f 439//488 430//630 429//489
f 429//489 430//630 443//490
f 442//491 443//490 445//492
f 445//492 447//495 446//494
f 447//495 449//497 448//496
f 449//497 452//629 440//498
f 441//499 451//499 419//499
f 440//498 452//629 454//500
f 453//501 454//500 456//502
f 455//503 456//502 458//504
f 458//504 460//507 459//506
f 460//507 420//610 450//471
f 450//471 421//473 211//245
f 423//475 212//246 211//245
f 423//475 425//476 213//247
f 425//476 427//478 214//249
f 417//480 215//251 214//249
f 418//508 216//240 215//251
f 419//509 209//241 216//240
f 419//509 450//471 210//243
f 418//510 3//7 2//5
f 418//510 417//480 4//9
f 432//482 5//11 4//9
f 434//484 6//12 5//11
f 434//484 436//486 7//13
f 436//486 438//487 8//3
f 429//489 1//1 8//3
f 441//511 2//5 1//1
f 451//512 316//365 315//362
f 441//513 317//367 316//365
f 441//513 429//489 318//369
f 429//489 442//491 319//371
f 444//493 320//359 319//371
f 444//493 446//494 313//357
f 446//494 448//496 314//360
f 448//496 440//498 315//362
f 457//505 107//126 106//125
f 459//506 108//128 107//126
f 450//471 109//130 108//128
f 419//514 110//133 109//130
f 451//515 111//135 110//133
f 451//515 440//498 112//123
f 453//501 105//124 112//123
f 455//503 106//125 105//124
f 539//231 623//586 621//516
f 535//517 624//591 617//518
f 538//232 466//228 615//519
f 472//352 474//354 617//518
f 476//522 468//522 461//522
f 540//460 530//462 619//523
f 533//106 532//108 621//516
f 536//233 622//590 615//519
f 507//526 645//557 627//527
f 508//529 509//550 632//530
f 511//532 638//552 637//533
f 513//535 643//562 644//536
f 515//538 628//563 629//539
f 516//541 517//564 634//542
f 518//544 506//528 627//527
f 519//546 520//560 642//547
f 521//549 630//558 632//530
f 511//532 522//561 636//551
f 508//529 631//531 633//553
f 510//534 637//533 639//555
f 507//526 512//537 644//536
f 514//540 629//539 630//558
f 525//559 640//565 642//547
f 516//541 635//543 636//551
f 519//546 641//548 643//562
f 518//544 626//545 628//563
f 523//554 633//553 634//542
f 524//556 639//555 640//565
f 603//566 613//578 524//556
f 612//567 523//554 517//564
f 610//569 518//544 515//538
f 611//571 519//546 513//535
f 602//573 609//583 516//541
f 600//574 603//566 525//559
f 601//575 608//584 514//540
f 594//576 607//585 512//537
f 606//577 510//534 524//556
f 605//579 508//529 523//554
f 602//573 522//561 511//532
f 595//581 601//575 521//549
f 600//574 520//560 519//546
f 604//582 506//528 518//544
f 609//583 599//568 517//564
f 598//570 515//538 514//540
f 597//572 513//535 512//537
f 596//580 511//532 510//534
f 595//581 509//550 508//529
f 604//582 594//576 507//526
f 539//231 538//232 614//520
f 470//350 469//121 565//347
f 536//233 469//121 470//350
f 534//588 537//118 482//104
f 205//222 567//229 573//111
f 534//588 533//106 620//525
f 536//233 472//352 616//521
f 480//463 537//118 534//588
f 475//348 531//342 535//517
f 535//517 531//342 477//235
f 535//517 540//460 618//524
f 485//592 571//594 542//593
f 485//592 481//112 539//231
f 534//588 625//589 619//523
f 485//592 532//108 559//107
f 555//345 308//337 309//339
f 543//113 415//597 416//459
f 551//349 546//355 305//335
f 566//587 310//340 311//341
f 544//351 311//341 312//334
f 545//238 201//595 202//218
f 564//353 312//334 305//335
f 542//593 571//594 413//457
f 568//226 202//218 203//220
f 549//117 409//452 410//454
f 567//229 205//222 206//223
f 547//470 97//96 98//97
f 548//110 203//220 204//221
f 559//107 412//456 413//457
f 560//230 206//223 207//224
f 552//120 572//234 207//224
f 562//236 103//102 104//103
f 565//347 309//339 310//340
f 554//356 410//454 411//455
f 545//238 552//120 208//217
f 570//105 411//455 412//456
f 558//461 98//97 99//98
f 556//467 557//466 100//99
f 567//229 538//232 463//109
f 543//113 542//593 414//458
f 556//467 101//596 102//100
f 561//468 102//100 103//102
f 563//115 416//459 409//452
f 557//466 569//464 99//98
f 550//343 551//349 306//336
f 553//237 104//103 97//96
f 550//343 307//598 308//337
f 465//599 529//602 541//499
f 471//601 473//604 541//499
f 528//603 478//606 541//499
f 479//605 527//608 541//499
f 483//607 484//633 541//499
f 460//507 584//627 574//609
f 433//481 431//622 585//611
f 443//490 586//624 576//613
f 458//504 456//502 587//614
f 424//474 588//631 578//616
f 439//488 437//485 589//617
f 422//472 420//610 574//609
f 454//500 452//629 590//620
f 428//479 591//628 585//611
f 443//490 430//630 592//623
f 433//481 575//612 582//625
f 445//492 576//613 583//626
f 460//507 458//504 577//615
f 428//479 426//477 578//616
f 449//497 593//632 590//620
f 439//488 579//618 592//623
f 454//500 581//621 587//614
f 422//472 580//619 588//631
f 437//485 435//483 582//625
f 449//497 447//495 583//626
f 574//609 584//627 594//576
f 585//611 595//581 605//579
f 586//624 596//580 606//577
f 577//615 587//614 597//572
f 588//631 598//570 608//584
f 579//618 589//617 599//568
f 574//609 604//582 610//569
f 590//620 600//574 611//571
f 585//611 591//628 601//575
f 592//623 602//573 596//580
f 575//612 605//579 612//567
f 576//613 606//577 613//578
f 584//627 577//615 607//585
f 591//628 578//616 608//584
f 590//620 593//632 603//566
f 592//623 579//618 609//583
f 581//621 611//571 597//572
f 580//619 610//569 598//570
f 589//617 582//625 612//567
f 593//632 583//626 613//578
f 465//599 464//600 614//520
f 473//604 471//601 616//521
f 479//605 478//606 618//524
f 484//633 483//607 620//525
f 465//599 615//519 622//590
f 464//600 526//634 623//586
f 473//604 617//518 624//591
f 471//601 529//602 622//590
f 478//606 528//603 624//591
f 479//605 619//523 625//589
f 484//633 621//516 623//586
f 483//607 527//608 625//589
f 526//634 464//600 541//499
f 498//635 657//664 659//636
f 486//522 487//522 626//522
f 487//522 488//522 628//522
f 489//522 629//522 628//522
f 490//522 630//522 629//522
f 492//522 493//522 631//522
f 493//522 494//522 633//522
f 495//522 634//522 633//522
f 496//522 635//522 634//522
f 491//522 636//522 635//522
f 497//522 498//522 637//522
f 499//522 639//522 637//522
f 500//522 640//522 639//522
f 501//522 502//522 641//522
f 502//522 503//522 643//522
f 504//522 644//522 643//522
f 505//522 645//522 644//522
f 492//522 632//522 630//522
f 491//522 497//522 638//522
f 501//522 642//522 640//522
f 486//522 627//522 645//522
f 646//522 647//522 666//522
f 490//638 489//665 649//639
f 501//640 500//641 660//641
f 500//641 499//637 659//636
f 492//642 652//642 651//643
f 486//644 505//659 665//645
f 501//640 662//640 661//646
f 493//643 651//643 653//647
f 502//646 661//646 663//649
f 494//648 653//647 654//651
f 503//650 663//649 664//653
f 496//655 495//652 654//651
f 486//644 647//644 646//657
f 505//659 504//654 664//653
f 491//660 496//655 655//656
f 487//658 646//657 648//661
f 492//642 490//638 650//638
f 497//663 658//666 657//664
f 488//662 648//661 649//639
f 491//660 656//660 658//666
f 665//522 664//522 666//522
f 663//522 661//522 666//522
f 662//522 660//522 666//522
f 659//522 657//522 666//522
f 658//522 656//522 666//522
f 655//522 654//522 666//522
f 653//522 651//522 666//522
f 652//522 650//522 666//522
f 649//522 648//522 666//522
