# Blender 4.5.2 LTS
# www.blender.org
o J
v -18.123032 4.481668 0.275401
v -18.123030 6.414091 0.229906
v -18.974121 5.465630 2.379994
v -18.974121 4.984062 2.427681
v -19.150499 5.213094 2.489232
v -18.099693 4.665890 -0.056916
v -18.197519 6.720864 -0.096509
v -18.107409 5.061225 -0.572253
v -18.392305 7.046804 -0.594141
v -18.636160 5.691567 -1.134922
v -18.636158 7.312689 -1.073360
v -18.789019 6.262141 -1.426796
v -18.789017 7.595100 -1.397936
v -18.898289 6.937382 -1.872350
v -18.898287 8.010012 -1.828619
v -18.987904 7.534258 -2.320544
v -18.987904 8.500408 -2.276814
v -19.082817 8.134979 -2.743264
v -19.082819 8.963795 -2.675796
v -19.166143 8.948717 -3.262149
v -19.166143 9.504507 -3.092379
v -19.112831 9.595877 -3.686660
v -19.188162 9.980301 -3.457623
v -19.087206 10.034227 -3.954700
v -19.085663 10.258591 -3.693870
v -19.038885 9.883575 -4.214800
v -18.979445 10.446833 -3.947859
v -19.053892 9.868980 -4.502097
v -19.034222 10.508621 -4.209135
v -19.034220 10.412561 -4.536326
v -19.132111 9.686207 -4.856628
v -19.046888 10.181507 -4.804644
v -19.132111 9.598080 -5.055352
v -19.129944 9.839605 -5.153368
v -18.225224 4.528333 1.103748
v -18.225222 5.962468 1.081001
v -18.161736 6.090002 0.703635
v -18.161737 4.430036 0.748183
v -17.913519 5.447880 0.252654
v -18.376741 5.914122 1.510318
v -18.572371 5.765439 1.988772
v -18.764610 5.227302 2.376741
v -18.794935 4.737232 2.390583
v -18.794933 5.641366 2.225080
v -17.988005 5.693377 -0.076712
v -18.182793 6.054015 -0.583197
v -18.284197 6.888019 -0.330223
v -18.426647 6.462004 -1.060998
v -18.579506 6.928621 -1.412366
v -18.688776 7.473697 -1.850485
v -18.778391 8.017333 -2.298679
v -18.873304 8.549387 -2.709530
v -18.956631 9.226612 -3.177264
v -18.978649 9.788088 -3.572142
v -18.974041 10.046833 -3.824285
v -18.922598 10.165205 -4.081330
v -18.881012 10.217487 -4.322969
v -18.872065 10.114500 -4.610135
v -19.034220 10.501469 -4.361119
v -19.020741 9.915932 -4.868615
v -19.081762 9.690287 -5.104359
v -19.156036 9.561121 -5.139806
v -19.156036 9.720257 -5.249029
v -18.015711 5.245400 1.092375
v -17.952225 5.260019 0.725909
v -18.151918 5.264790 1.510827
v -18.362860 5.280247 1.988771
v -18.551121 5.252259 2.224606
v -18.074684 5.863309 -0.315959
v -18.830017 10.182487 -4.451432
v -19.114096 9.611452 -5.195390
v -18.848606 7.441540 -0.596297
v -18.804083 7.139804 -0.100744
v -18.886114 6.253560 1.510208
v -19.121244 8.676437 -2.260682
v -19.096195 5.702592 2.380826
v -18.995239 7.903481 -1.395572
v -18.935720 7.664810 -1.075583
v -19.076168 8.307829 -1.824596
v -18.733828 6.451152 0.699287
v -18.984694 6.073551 1.988771
v -19.042547 5.918018 2.225231
v -18.811239 6.313775 1.078587
v -18.775831 6.821116 0.225012
v -18.824873 7.299894 -0.333184
v -19.137247 9.011299 -2.671929
v -18.588100 4.137850 0.751423
v -18.998095 4.726040 2.379484
v -18.692122 4.211851 0.086778
v -19.140493 7.432994 -2.325128
v -19.099983 4.943784 2.428646
v -19.020849 5.967894 -1.429455
v -18.945539 5.362132 -1.132626
v -19.089041 6.660124 -1.876665
v -18.663254 4.243147 1.105552
v -18.649014 4.142724 0.279345
v -18.421394 3.630397 1.524214
v -18.563473 3.707192 2.394422
v -18.110703 3.889595 1.641842
v -18.715467 3.628556 1.503832
v -19.042427 3.738163 1.525652
v -19.024450 3.704208 1.758762
v -18.186001 3.850123 1.875267
v -18.300591 3.817805 2.144914
v -18.983259 3.694138 2.047785
v -18.424988 0.642505 2.116163
v -18.906061 3.774870 2.229012
v -18.738331 3.732332 2.397445
v -18.408026 3.810041 2.277617
v -18.380058 2.684014 1.904732
v -18.706017 2.712258 2.337149
v -18.293602 2.695025 2.014733
v -18.649115 2.675279 1.872479
v -18.759621 2.679897 1.958870
v -18.326454 2.716374 2.283010
v -18.792473 2.701246 2.227148
v -18.436960 2.720992 2.369402
v -18.351160 0.645598 2.195306
v -18.633879 0.634239 2.108991
v -18.712967 0.631281 2.182884
v -18.358345 0.645783 2.404359
v -18.720152 0.631466 2.391937
v -18.646322 0.634559 2.471080
v -18.437433 0.642825 2.478252
v -18.329460 0.045535 1.872729
v -18.221975 0.049895 1.939086
v -18.771681 0.028063 1.869650
v -18.820206 0.029204 2.055772
v -18.259378 0.045641 2.321378
v -18.737251 0.031974 2.350022
v -18.670469 0.034063 2.441958
v -18.360226 0.044128 2.437794
v -19.065668 4.155289 -0.511059
v -18.171394 4.514609 -0.694409
v -18.319384 4.149961 -0.219115
v -18.734505 4.597995 -1.145790
v -18.989517 4.518276 -0.963055
v -18.406261 4.821427 -1.043085
v -18.937775 4.028442 -0.099925
v -18.644297 3.997193 -0.043508
v -18.461193 0.023058 -0.433286
v -18.742634 2.508002 -0.284815
v -18.352163 2.498413 -0.545280
v -18.387207 2.501547 -0.321104
v -18.632166 2.500840 -0.751469
v -18.768147 2.503857 -0.689175
v -18.475872 2.498542 -0.719642
v -18.706108 2.508305 -0.203209
v -18.556154 2.505825 -0.197098
v -18.650398 0.661149 -0.312724
v -18.393618 0.646813 -0.484226
v -18.416618 0.649596 -0.336618
v -18.577843 0.654165 -0.619988
v -18.667274 0.658947 -0.578972
v -18.475029 0.649441 -0.599032
v -18.626352 0.660599 -0.258992
v -18.527716 0.655884 -0.254968
v -18.733017 0.029911 -0.354680
v -18.255743 0.015834 -0.673090
v -18.298565 0.019877 -0.399042
v -18.598021 0.020489 -0.925148
v -18.764231 0.024998 -0.848997
v -18.406971 0.016738 -0.886240
v -18.688364 0.030061 -0.254921
v -18.505068 0.026124 -0.247451
v -18.936953 10.235590 -4.103500
v -18.970497 10.401773 -4.024742
v -18.912415 10.266441 -4.246087
v -19.002819 10.438234 -4.178916
v -18.562464 10.694468 -4.007600
v -18.623365 10.354429 -4.112593
v -18.767239 10.627821 -4.005696
v -18.530424 10.585499 -4.046901
v -18.757605 2.311005 -0.650893
v -18.553183 2.312446 -0.176385
v -18.356499 2.304861 -0.512136
v -18.390284 2.307959 -0.295963
v -18.732994 2.314947 -0.260969
v -18.697773 2.315161 -0.182277
v -18.626490 2.307803 -0.710962
v -18.475784 2.305252 -0.680271
v -18.755358 2.492629 1.979347
v -18.647724 2.488704 1.894098
v -18.785864 2.512044 2.242210
v -18.298864 2.507683 2.031240
v -18.700562 2.522331 2.349391
v -18.437004 2.531023 2.379351
v -18.329370 2.527098 2.294103
v -18.384167 2.497395 1.924058
v -20.398729 4.481669 0.275400
v -20.398729 6.414091 0.229905
v -19.547640 5.465630 2.379994
v -19.547640 4.984062 2.427680
v -19.371262 5.213094 2.489232
v -20.422066 4.665891 -0.056917
v -20.324240 6.720865 -0.096510
v -20.414349 5.061225 -0.572254
v -20.129452 7.046805 -0.594142
v -19.885597 5.691567 -1.134922
v -19.885597 7.312689 -1.073360
v -19.732738 6.262141 -1.426796
v -19.732737 7.595100 -1.397937
v -19.623465 6.937382 -1.872351
v -19.623463 8.010012 -1.828619
v -19.533846 7.534258 -2.320544
v -19.533846 8.500408 -2.276814
v -19.438931 8.134979 -2.743264
v -19.438932 8.963795 -2.675796
v -19.355612 8.948717 -3.262149
v -19.355612 9.504507 -3.092379
v -19.408924 9.595877 -3.686660
v -19.333593 9.980301 -3.457623
v -19.434546 10.034227 -3.954700
v -19.436089 10.258591 -3.693870
v -19.482866 9.883575 -4.214800
v -19.542307 10.446833 -3.947859
v -19.467857 9.868980 -4.502097
v -19.487530 10.508621 -4.209135
v -19.487530 10.412561 -4.536326
v -19.389639 9.686207 -4.856628
v -19.474863 10.181507 -4.804644
v -19.389639 9.598080 -5.055352
v -19.391806 9.839605 -5.153368
v -20.296537 4.528333 1.103747
v -20.296537 5.962468 1.080999
v -20.360022 6.090002 0.703635
v -20.360022 4.430037 0.748182
v -20.608242 5.447880 0.252653
v -19.260880 4.039295 0.283931
v -19.260880 6.961587 0.221375
v -20.145018 5.914123 1.510317
v -19.949389 5.765439 1.988771
v -19.757153 5.227302 2.376740
v -19.260880 4.892295 2.381946
v -19.260880 5.741423 2.381947
v -19.726826 4.737232 2.390582
v -19.726826 5.641366 2.225079
v -19.260880 5.205510 2.499283
v -20.533752 5.693377 -0.076713
v -19.260880 7.291339 -0.103934
v -20.338964 6.054015 -0.583198
v -19.260880 7.604268 -0.598246
v -20.237560 6.888019 -0.330224
v -20.095110 6.462004 -1.060999
v -19.260878 7.816864 -1.077996
v -19.942251 6.928621 -1.412367
v -19.260878 5.932167 -1.432207
v -19.260876 8.030197 -1.392525
v -19.832977 7.473697 -1.850485
v -19.260876 6.656219 -1.880550
v -19.260874 8.396297 -1.820420
v -19.743359 8.017333 -2.298679
v -19.260874 7.353105 -2.328744
v -19.260874 8.826132 -2.268662
v -19.648443 8.549387 -2.709530
v -19.260874 7.979576 -2.755914
v -19.260876 9.119198 -2.663146
v -19.565125 9.226612 -3.177264
v -19.260878 8.844507 -3.293982
v -19.260878 9.608719 -3.060547
v -19.543106 9.788088 -3.572142
v -19.260878 9.523798 -3.729604
v -19.260878 10.052380 -3.414680
v -19.547710 10.046833 -3.824285
v -19.260876 9.755667 -4.003606
v -19.260876 10.337999 -3.644964
v -19.599154 10.165205 -4.081330
v -19.260876 9.777966 -4.264852
v -19.260876 10.552443 -3.897809
v -19.640739 10.217487 -4.322969
v -19.260876 9.714451 -4.538968
v -19.260876 10.615810 -4.170321
v -19.260876 10.509832 -4.531561
v -19.649685 10.114500 -4.610135
v -19.487530 10.501469 -4.361119
v -19.260876 9.600058 -4.852132
v -19.260876 10.184923 -4.936966
v -19.501011 9.915932 -4.868615
v -19.260876 9.542086 -5.036974
v -19.260876 9.895599 -5.171746
v -19.439987 9.690287 -5.104359
v -19.260876 9.518631 -5.223996
v -19.260876 9.649418 -5.309083
v -19.365713 9.561121 -5.139806
v -19.365713 9.720257 -5.249029
v -20.506050 5.245401 1.092373
v -19.260880 6.586412 0.695282
v -19.260880 6.416536 1.076735
v -20.569536 5.260019 0.725908
v -19.260880 4.038748 0.756535
v -19.260880 6.132552 1.988771
v -19.260880 6.342789 1.510127
v -20.369846 5.264790 1.510826
v -20.158903 5.280247 1.988770
v -19.260880 5.972368 2.225364
v -19.970642 5.252259 2.224606
v -20.447073 5.863309 -0.315960
v -19.260880 7.457452 -0.335572
v -19.691734 10.182487 -4.451432
v -19.260876 10.589849 -4.342734
v -19.260876 9.520691 -5.120241
v -19.260876 9.552500 -5.276511
v -19.407656 9.611452 -5.195390
v -19.260876 9.759323 -5.270540
v -19.673151 7.441541 -0.596298
v -19.717674 7.139804 -0.100745
v -19.635645 6.253560 1.510208
v -19.400505 8.676437 -2.260682
v -19.425566 5.702592 2.380826
v -19.526514 7.903481 -1.395572
v -19.586033 7.664810 -1.075583
v -19.445581 8.307829 -1.824596
v -19.787930 6.451152 0.699287
v -19.537067 6.073551 1.988771
v -19.479212 5.918018 2.225230
v -19.710520 6.313775 1.078587
v -19.745926 6.821117 0.225011
v -19.696886 7.299894 -0.333185
v -19.384504 9.011299 -2.671929
v -19.933659 4.137850 0.751422
v -19.523666 4.726039 2.379484
v -19.829636 4.211853 0.086777
v -19.381254 7.432994 -2.325128
v -19.421776 4.943784 2.428646
v -19.500908 5.967894 -1.429455
v -19.576218 5.362132 -1.132626
v -19.432713 6.660124 -1.876665
v -19.858507 4.243147 1.105551
v -19.872746 4.142725 0.279344
v -20.100361 3.630394 1.524212
v -19.958282 3.707189 2.394421
v -20.411053 3.889593 1.641840
v -19.806288 3.628554 1.503831
v -19.479328 3.738161 1.525652
v -19.497305 3.704206 1.758761
v -20.335754 3.850121 1.875265
v -20.221165 3.817803 2.144913
v -19.538498 3.694135 2.047784
v -20.096773 0.642505 2.116160
v -19.615694 3.774868 2.229011
v -19.783424 3.732329 2.397444
v -20.113731 3.810038 2.277616
v -20.141697 2.684011 1.904730
v -19.815741 2.712255 2.337148
v -20.228153 2.695022 2.014732
v -19.872641 2.675276 1.872478
v -19.762135 2.679894 1.958869
v -20.195303 2.716372 2.283009
v -19.729282 2.701244 2.227146
v -20.084797 2.720989 2.369400
v -20.170603 0.645598 2.195304
v -19.887884 0.634238 2.108988
v -19.808794 0.631279 2.182881
v -20.163418 0.645783 2.404357
v -19.801611 0.631464 2.391934
v -19.875439 0.634558 2.471078
v -20.084330 0.642825 2.478251
v -20.192301 0.045533 1.872726
v -20.299786 0.049893 1.939082
v -19.750082 0.028061 1.869646
v -19.701557 0.029202 2.055769
v -20.262383 0.045640 2.321374
v -19.784512 0.031971 2.350019
v -19.851294 0.034061 2.441955
v -20.161537 0.044126 2.437790
v -19.456089 4.155289 -0.511059
v -20.350361 4.514610 -0.694410
v -20.202374 4.149962 -0.219116
v -19.787251 4.597995 -1.145791
v -19.532238 4.518276 -0.963055
v -20.115496 4.821428 -1.043085
v -19.583982 4.028443 -0.099925
v -19.877464 3.997195 -0.043508
v -20.060566 0.023057 -0.433287
v -19.779127 2.508006 -0.284815
v -20.169598 2.498417 -0.545281
v -20.134552 2.501551 -0.321105
v -19.889593 2.500844 -0.751469
v -19.753613 2.503861 -0.689176
v -20.045889 2.498546 -0.719642
v -19.815653 2.508309 -0.203210
v -19.965607 2.505828 -0.197099
v -19.871359 0.661150 -0.312725
v -20.128139 0.646813 -0.484226
v -20.105141 0.649596 -0.336619
v -19.943914 0.654165 -0.619989
v -19.854485 0.658947 -0.578972
v -20.046728 0.649441 -0.599033
v -19.895405 0.660598 -0.258992
v -19.994041 0.655883 -0.254969
v -19.788742 0.029910 -0.354681
v -20.266016 0.015833 -0.673092
v -20.223194 0.019876 -0.399043
v -19.923738 0.020488 -0.925148
v -19.757528 0.024998 -0.848997
v -20.114788 0.016738 -0.886241
v -19.833397 0.030061 -0.254921
v -20.016693 0.026124 -0.247451
v -19.584797 10.235590 -4.103500
v -19.551254 10.401773 -4.024742
v -19.609337 10.266441 -4.246087
v -19.518930 10.438234 -4.178916
v -19.959288 10.694468 -4.007601
v -19.898386 10.354429 -4.112594
v -19.754513 10.627821 -4.005696
v -19.991327 10.585499 -4.046902
v -19.764153 2.311006 -0.650893
v -19.968575 2.312447 -0.176385
v -20.165260 2.304862 -0.512136
v -20.131474 2.307959 -0.295963
v -19.788765 2.314947 -0.260969
v -19.823986 2.315161 -0.182277
v -19.895267 2.307803 -0.710962
v -20.045973 2.305252 -0.680271
v -19.766401 2.492629 1.979346
v -19.874037 2.488704 1.894097
v -19.735897 2.512043 2.242209
v -20.222895 2.507683 2.031238
v -19.821199 2.522331 2.349391
v -20.084755 2.531022 2.379350
v -20.192389 2.527097 2.294101
v -20.137592 2.497395 1.924057
v -19.477076 4.053862 -0.027208
v -19.044682 4.053861 -0.027208
v -19.034327 4.147720 0.106675
v -19.260880 4.039310 0.283892
v -19.487432 4.147721 0.106675
v -19.133110 4.312001 -0.530783
v -19.388647 4.312001 -0.530783
v -19.137724 4.941135 -1.054390
v -19.384033 4.941135 -1.054390
v -19.486319 5.342285 -1.131959
v -19.260878 5.501300 -1.228835
v -19.035440 5.342285 -1.131959
v -19.110483 3.853447 1.395546
v -19.411276 3.853446 1.395545
v -19.589914 4.182508 1.106658
v -19.260880 4.042812 0.777096
v -18.931847 4.182508 1.106658
v -19.122961 3.919429 1.655749
v -19.398798 3.919428 1.655748
v -19.125803 4.067877 2.017484
v -19.395958 4.067876 2.017484
v -19.405418 4.332726 2.226849
v -19.116344 4.332726 2.226849
v -18.998131 4.726038 2.379463
v -19.260880 4.892264 2.381918
v -19.523630 4.726038 2.379463
v -18.063208 4.567498 1.367108
v -18.479574 4.531150 2.251112
v -18.168961 4.557456 1.693047
v -18.331726 4.549026 2.066843
v -18.679207 4.222212 2.392502
v -18.868216 4.229186 2.388464
v -18.689360 3.935852 1.304692
v -18.323309 4.079365 1.313981
v -20.458553 4.567497 1.367106
v -20.042187 4.531150 2.251111
v -20.352800 4.557456 1.693045
v -20.190035 4.549026 2.066841
v -19.842556 4.222211 2.392501
v -19.653547 4.229185 2.388463
v -19.832399 3.935851 1.304691
v -20.198450 4.079364 1.313980
v -19.035519 4.118303 2.227681
v -19.487267 4.115583 2.227690
v -19.260881 5.521340 2.595245
v -19.260883 5.665043 2.351414
v -19.352264 5.472959 2.549778
v -19.380983 5.585321 2.315939
v -19.317358 5.394674 2.476212
v -19.335108 5.456327 2.258541
v -19.204403 5.394674 2.476212
v -19.186655 5.456327 2.258541
v -19.169500 5.472959 2.549778
v -19.140779 5.585321 2.315939
v -19.260883 4.918561 2.729280
v -19.327141 4.913049 2.681458
v -19.301832 4.904130 2.604081
v -19.219934 4.904130 2.604081
v -19.194626 4.913049 2.681458
v -19.260883 4.241700 2.789625
v -19.319798 4.246984 2.747148
v -19.297295 4.255535 2.678420
v -19.224472 4.255535 2.678420
v -19.201969 4.246984 2.747148
v -19.260351 3.894364 2.740875
v -19.319670 3.881088 2.700775
v -19.297829 3.859008 2.634907
v -19.225008 3.858639 2.634298
v -19.201845 3.880490 2.699790
v -19.260651 3.662391 2.854769
v -19.356318 3.640980 2.790100
v -19.321093 3.605371 2.683874
v -19.203655 3.604776 2.682891
v -19.166300 3.640016 2.788511
v -19.261768 3.419971 2.837799
v -19.014467 10.557980 -4.621872
v -19.034176 10.542677 -4.621872
v -19.034176 10.542677 -4.676169
v -19.014467 10.557980 -4.676170
v -18.967949 10.265766 -4.621872
v -18.967949 10.542677 -4.621872
v -18.987656 10.557980 -4.621872
v -18.967949 10.265766 -4.676170
v -18.987656 10.250463 -4.676169
v -18.987656 10.557980 -4.676170
v -18.967949 10.542677 -4.676169
v -19.507277 10.557978 -4.621872
v -19.487570 10.542677 -4.621872
v -19.487570 10.542677 -4.676170
v -19.507277 10.557978 -4.676170
v -19.553795 10.265766 -4.621872
v -19.553795 10.542677 -4.621872
v -19.534088 10.557978 -4.621872
v -19.553795 10.265766 -4.676170
v -19.534088 10.250463 -4.676170
v -19.534088 10.557978 -4.676170
v -19.553795 10.542677 -4.676170
v -19.034176 10.304079 -4.676170
v -18.998077 10.250463 -4.676169
v -18.987656 10.250463 -4.656207
v -19.034176 10.346174 -4.621872
v -18.975887 10.259602 -4.621872
v -19.523674 10.250463 -4.676170
v -19.534088 10.250463 -4.656219
v -19.487570 10.304089 -4.676170
v -19.487570 10.346182 -4.621872
v -19.545860 10.259605 -4.621872
v -19.099636 10.870743 -4.255502
v -19.130136 10.864506 -4.225210
v -18.979879 10.793457 -4.250942
v -18.995876 10.824007 -4.273310
v -18.979879 10.788719 -4.351695
v -18.996456 10.820116 -4.326932
v -19.099140 10.862448 -4.318738
v -19.130136 10.847300 -4.339508
v -19.422115 10.870743 -4.255502
v -19.391613 10.864506 -4.225210
v -19.525875 10.824007 -4.273310
v -19.541870 10.793457 -4.250942
v -19.525295 10.820116 -4.326932
v -19.541872 10.788719 -4.351695
v -19.422611 10.862448 -4.318738
v -19.391615 10.847300 -4.339508
vn 0.9909 -0.0166 0.1333
vn 0.7712 0.5563 0.3095
vn 0.9811 0.0559 0.1855
vn 0.2449 0.0519 0.9682
vn 0.6677 0.0866 0.7393
vn 0.6295 0.0976 0.7708
vn 0.7159 0.5911 0.3716
vn 0.8338 0.2103 0.5105
vn 0.9205 0.1817 0.3458
vn 0.6338 0.5225 0.5704
vn 0.6470 0.1966 0.7367
vn 0.5530 -0.7993 0.2353
vn 0.6819 -0.5935 -0.4276
vn 0.1388 -0.9163 -0.3758
vn -0.0000 0.9569 0.2905
vn 0.3561 0.8023 0.4791
vn -0.0000 0.8532 0.5216
vn 0.3814 0.8759 0.2955
vn 0.3676 0.8820 0.2950
vn 0.8501 0.0914 0.5186
vn 0.9360 0.0118 0.3518
vn 0.9321 0.0697 0.3554
vn 0.7949 -0.5905 0.1395
vn 0.3485 -0.9131 -0.2115
vn 0.7922 -0.5929 -0.1447
vn 0.8733 0.4851 -0.0448
vn 0.5124 0.8020 0.3070
vn 0.8457 0.5302 -0.0607
vn 0.8160 0.4933 0.3013
vn 0.7853 0.5130 0.3465
vn -0.3483 -0.9132 -0.2117
vn -0.1238 -0.9885 0.0868
vn 0.0022 -0.9125 -0.4090
vn 0.9990 0.0201 -0.0402
vn 0.3012 -0.3793 0.8748
vn 0.7349 -0.2622 0.6255
vn 0.5519 -0.6369 0.5383
vn 0.3785 -0.9168 0.1271
vn 0.2121 -0.9317 -0.2948
vn 0.0116 -0.9955 0.0936
vn -0.3607 -0.0707 0.9300
vn 0.3033 0.0281 0.9525
vn -0.0000 0.7160 0.6981
vn 0.3761 0.7825 0.4963
vn -0.0000 0.8782 0.4783
vn 0.3539 -0.2677 0.8962
vn 0.3523 -0.0899 0.9316
vn 0.0688 -0.2399 0.9684
vn 0.0047 -0.4353 0.9003
vn 0.5082 0.4116 0.7565
vn 0.2285 0.2897 0.9294
vn 0.3157 0.2507 0.9152
vn 0.4341 0.1395 0.8900
vn 0.2270 0.0064 0.9739
vn 0.1486 -0.1022 0.9836
vn 0.1175 0.0535 0.9916
vn 0.0160 0.4006 0.9161
vn 0.0170 -0.0657 0.9977
vn 0.1215 -0.1818 -0.9758
vn 0.5893 0.0122 -0.8078
vn -0.0718 -0.1274 -0.9893
vn 0.9386 -0.3410 -0.0522
vn 0.9691 0.0509 -0.2412
vn 0.8242 0.5301 0.1995
vn 0.9590 0.1004 -0.2650
vn 0.8383 0.5432 0.0471
vn 0.9440 0.0144 -0.3296
vn 0.9079 0.0844 -0.4106
vn -0.0000 0.7720 0.6356
vn 0.4400 0.7865 0.4333
vn -0.0000 0.8520 0.5235
vn -0.0000 0.9029 0.4299
vn 0.6429 -0.2914 -0.7084
vn 0.8805 0.0005 -0.4740
vn 0.5822 -0.1496 -0.7992
vn -0.1215 -0.1818 -0.9758
vn -0.0000 -0.4756 -0.8796
vn -0.0036 -0.3917 -0.9201
vn 0.4938 -0.6761 -0.5468
vn 0.7008 -0.2998 -0.6474
vn 0.2230 -0.3254 -0.9189
vn 0.8657 0.4266 0.2617
vn 0.6099 0.6619 0.4357
vn 0.8780 0.4550 0.1484
vn 0.9746 0.0222 -0.2229
vn 0.9379 0.0094 -0.3468
vn 0.5938 0.7389 0.3186
vn 0.6843 -0.3364 -0.6469
vn 0.5877 -0.4202 -0.6914
vn -0.0000 -0.5162 -0.8565
vn 0.3168 -0.4831 -0.8162
vn -0.0000 -0.5394 -0.8420
vn 0.2683 -0.4295 -0.8623
vn 0.8272 0.4558 0.3286
vn 0.5982 0.6307 0.4943
vn 0.9792 0.0308 -0.2004
vn 0.6809 -0.3814 -0.6253
vn 0.9805 0.0391 -0.1926
vn 0.6083 -0.4005 -0.6853
vn -0.0000 -0.5017 -0.8650
vn -0.0000 -0.5400 -0.8417
vn 0.3769 -0.4986 -0.7806
vn 0.7145 0.4496 0.5361
vn 0.5702 0.6036 0.5572
vn 0.7237 0.5125 0.4621
vn 0.7786 0.4256 0.4612
vn 0.7322 0.3818 0.5640
vn 0.6942 0.4560 0.5569
vn 0.6910 -0.4561 -0.5608
vn 0.7461 -0.3712 -0.5527
vn -0.0000 -0.6656 -0.7463
vn 0.6796 0.4087 0.6091
vn -0.0000 0.5434 0.8395
vn 0.7192 0.4548 0.5253
vn 0.7532 -0.3928 -0.5277
vn 0.4234 -0.9044 0.0526
vn 0.7358 -0.6384 -0.2261
vn -0.0000 0.8934 0.4493
vn -0.0000 0.7030 0.7112
vn 0.9222 0.0914 0.3758
vn 0.7168 -0.6895 0.1042
vn 0.9881 -0.0997 0.1173
vn -0.3799 -0.8293 0.4098
vn 0.8838 0.4657 0.0454
vn 0.7566 0.5779 0.3059
vn 0.9796 0.0359 0.1976
vn 0.7273 -0.6784 0.1035
vn -0.0000 -0.9996 0.0275
vn 0.9672 -0.1326 -0.2166
vn 0.9336 -0.0503 -0.3547
vn 0.8875 0.4470 -0.1120
vn 0.7688 0.4882 -0.4130
vn 0.9990 -0.0063 0.0446
vn 0.5491 0.6871 -0.4758
vn 0.7993 0.2371 0.5521
vn -0.0000 0.8538 -0.5206
vn -0.0000 0.5366 -0.8439
vn 0.7570 0.4588 -0.4652
vn 0.7735 0.4409 -0.4552
vn 0.7632 0.5106 -0.3960
vn -0.6205 -0.4178 -0.6637
vn -0.1298 0.2488 -0.9598
vn -0.0000 -0.9549 0.2968
vn 0.7349 -0.6382 0.2295
vn -0.0000 -0.9591 0.2829
vn 0.5792 -0.8151 0.0068
vn 0.7079 -0.6750 0.2080
vn -0.0000 -0.9896 0.1438
vn -0.0000 -0.9454 -0.3259
vn 0.9768 -0.1546 -0.1485
vn -0.0000 -0.9347 0.3555
vn 0.6750 0.3985 -0.6209
vn -0.0000 0.7032 -0.7110
vn 0.8258 -0.3833 -0.4137
vn -0.0000 -0.6114 -0.7913
vn 0.6285 0.2071 -0.7497
vn -0.0000 0.4765 -0.8792
vn -0.0000 0.6119 -0.7909
vn -0.0000 -0.0674 -0.9977
vn 0.6626 0.5758 0.4790
vn 0.8478 -0.4966 -0.1861
vn 0.3294 0.7252 0.6047
vn -0.0000 -0.5313 0.8472
vn -0.0688 -0.2399 0.9684
vn -0.0000 0.7901 0.6129
vn -0.0000 0.8705 0.4922
vn -0.0000 0.9604 0.2786
vn -0.0000 0.7699 0.6381
vn 0.3740 0.7347 0.5659
vn -0.0000 0.7451 0.6670
vn -0.0000 0.7682 0.6402
vn 0.5725 0.5896 0.5697
vn 0.3786 0.6252 0.6825
vn 0.0729 -0.2535 -0.9646
vn -0.6956 -0.2678 -0.6667
vn -0.0000 -0.9959 0.0907
vn 0.0007 -0.9832 -0.1827
vn 0.4103 -0.8749 0.2574
vn -0.2599 -0.1755 0.9496
vn 0.3575 -0.8719 -0.3347
vn -0.3785 -0.9168 0.1271
vn -0.2944 -0.9023 -0.3151
vn -0.3812 -0.2795 0.8812
vn 0.0687 -0.5643 -0.8227
vn 0.3406 -0.4160 -0.8431
vn -0.0743 -0.4491 -0.8904
vn -0.8892 0.4524 -0.0681
vn -0.4455 0.5991 -0.6654
vn 0.2144 0.1017 0.9714
vn -0.3293 0.7327 0.5956
vn 0.7069 0.2223 -0.6715
vn 0.4454 0.5991 -0.6654
vn 0.8892 0.4524 -0.0681
vn -0.9308 -0.2327 0.2818
vn -0.8647 -0.1786 -0.4695
vn -0.9542 -0.0779 0.2888
vn -0.2666 -0.2465 -0.9317
vn -0.6818 -0.5935 -0.4276
vn -0.4915 -0.0090 0.8708
vn 0.9561 -0.2037 -0.2106
vn 0.9673 -0.0885 -0.2375
vn 0.5088 -0.2010 -0.8371
vn -0.7882 -0.1793 0.5887
vn 0.2852 0.0287 0.9580
vn 0.8614 0.0487 0.5057
vn 0.9840 -0.1424 -0.1068
vn 0.4923 -0.4376 -0.7525
vn -0.9289 0.0529 -0.3665
vn -0.9169 0.0441 0.3966
vn -0.9312 0.0032 0.3646
vn -0.3750 0.1352 -0.9171
vn 0.2416 0.3962 -0.8858
vn -0.5540 0.4117 -0.7236
vn -0.4846 0.0421 0.8737
vn -0.4026 0.0088 0.9153
vn 0.9474 0.1254 -0.2944
vn 0.9274 0.1141 0.3563
vn 0.8045 0.3528 -0.4777
vn 0.9613 -0.0528 -0.2704
vn 0.4016 0.1752 -0.8989
vn 0.4875 -0.1015 -0.8672
vn 0.3337 0.0220 0.9424
vn -0.4674 -0.0424 0.8830
vn 0.4453 -0.0131 0.8953
vn 0.8696 0.0199 0.4933
vn -0.9405 -0.3339 0.0633
vn 0.2740 0.0500 0.9604
vn 0.8966 0.0571 0.4390
vn 0.8735 0.0126 0.4866
vn -0.8729 -0.0724 -0.4825
vn 0.0362 -0.9993 -0.0011
vn 0.0300 -0.9995 0.0001
vn 0.0306 -0.9995 0.0005
vn -0.9609 -0.0093 0.2768
vn -0.2737 -0.1113 -0.9554
vn -0.9712 0.2326 -0.0512
vn -0.1163 -0.1928 -0.9743
vn -0.8325 -0.1806 -0.5238
vn -0.5277 -0.7859 0.3223
vn -0.9669 -0.0990 0.2351
vn -0.5648 -0.0492 0.8237
vn -0.9433 -0.3032 -0.1347
vn 0.2421 -0.2853 0.9273
vn 0.8619 -0.0023 0.5071
vn 0.8155 -0.2634 0.5153
vn 0.9371 -0.1273 -0.3251
vn 0.0967 -0.9685 0.2296
vn -0.4099 -0.8750 0.2577
vn -0.2421 -0.2853 0.9273
vn -0.9681 -0.0363 0.2479
vn -0.5486 -0.0024 0.8361
vn -0.5489 0.0034 0.8359
vn -0.8787 0.1239 -0.4610
vn -0.9694 0.0267 0.2438
vn 0.8463 0.0148 0.5325
vn 0.2915 -0.0096 0.9565
vn 0.8433 0.0375 0.5362
vn 0.9767 -0.0403 -0.2108
vn 0.9729 0.1229 -0.1959
vn 0.5362 -0.1605 -0.8287
vn 0.3028 0.0138 0.9530
vn 0.9687 -0.0787 -0.2355
vn 0.3035 0.0224 0.9526
vn 0.8729 0.1168 0.4738
vn 0.9216 0.2809 -0.2679
vn 0.5591 0.1951 -0.8058
vn 0.4832 0.4037 -0.7769
vn -0.5769 0.0620 0.8145
vn -0.1171 -0.1350 -0.9839
vn -0.8675 -0.1062 -0.4860
vn 0.5509 -0.1045 -0.8280
vn -0.1028 0.2051 -0.9733
vn 0.2879 0.0322 0.9571
vn -0.0219 -0.9997 0.0113
vn -0.9676 0.1115 0.2267
vn -0.7533 0.3526 -0.5551
vn -0.0863 0.4345 -0.8965
vn 0.3473 -0.9271 -0.1408
vn 0.9584 0.2804 -0.0528
vn 0.9684 0.2288 0.0992
vn 0.8267 0.4839 -0.2870
vn 0.2510 0.4642 -0.8494
vn -0.7220 0.6240 0.2989
vn 0.1885 -0.3328 0.9240
vn 0.1930 -0.3112 0.9305
vn 0.2030 -0.2620 0.9435
vn 0.1088 -0.3108 0.9442
vn 0.1088 -0.3105 0.9443
vn 0.1092 -0.3087 0.9449
vn -0.7712 0.5563 0.3095
vn -0.9909 -0.0166 0.1333
vn -0.9811 0.0559 0.1855
vn -0.6677 0.0866 0.7393
vn -0.2449 0.0519 0.9682
vn -0.6295 0.0976 0.7708
vn -0.7159 0.5911 0.3716
vn -0.8338 0.2103 0.5105
vn -0.6338 0.5225 0.5704
vn -0.6470 0.1966 0.7367
vn -0.5082 0.4116 0.7565
vn -0.0687 -0.5643 -0.8227
vn -0.3575 -0.8719 -0.3347
vn -0.3561 0.8023 0.4791
vn -0.3676 0.8820 0.2950
vn -0.9205 0.1817 0.3458
vn -0.3814 0.8759 0.2955
vn -0.9360 0.0118 0.3518
vn -0.8501 0.0914 0.5186
vn -0.9321 0.0697 0.3554
vn -0.7949 -0.5905 0.1395
vn -0.7922 -0.5929 -0.1447
vn -0.5124 0.8020 0.3070
vn -0.8733 0.4851 -0.0448
vn -0.8457 0.5302 -0.0607
vn -0.8160 0.4933 0.3013
vn -0.3294 0.7252 0.6047
vn -0.0967 -0.9685 0.2296
vn -0.7853 0.5130 0.3465
vn -0.9990 0.0201 -0.0402
vn -0.5519 -0.6369 0.5382
vn 0.9405 -0.3339 0.0633
vn 0.3607 -0.0707 0.9300
vn -0.3761 0.7825 0.4963
vn -0.7348 -0.2620 0.6256
vn -0.3520 -0.0900 0.9317
vn -0.2701 0.3586 0.8936
vn -0.3786 0.6252 0.6825
vn -0.4341 0.1395 0.8900
vn -0.2270 0.0064 0.9739
vn -0.1414 -0.0054 0.9899
vn -0.1486 -0.1022 0.9836
vn -0.5893 0.0122 -0.8078
vn -0.5822 -0.1496 -0.7992
vn -0.9386 -0.3410 -0.0522
vn -0.9691 0.0509 -0.2412
vn -0.8242 0.5301 0.1995
vn -0.9590 0.1004 -0.2650
vn -0.9440 0.0144 -0.3296
vn -0.8383 0.5432 0.0471
vn -0.9079 0.0844 -0.4106
vn -0.4400 0.7865 0.4333
vn -0.3740 0.7347 0.5659
vn -0.6429 -0.2914 -0.7084
vn -0.8805 0.0005 -0.4740
vn -0.9379 0.0094 -0.3468
vn 0.0428 -0.1441 -0.9886
vn -0.0387 -0.2594 -0.9650
vn 0.1231 -0.9887 0.0856
vn -0.8657 0.4266 0.2617
vn -0.6099 0.6619 0.4357
vn -0.5982 0.6307 0.4943
vn -0.8780 0.4550 0.1484
vn -0.9746 0.0222 -0.2229
vn -0.5938 0.7389 0.3186
vn -0.6843 -0.3364 -0.6469
vn -0.5877 -0.4202 -0.6914
vn -0.9792 0.0308 -0.2004
vn -0.3168 -0.4831 -0.8162
vn -0.2683 -0.4295 -0.8623
vn -0.8272 0.4558 0.3286
vn -0.6626 0.5758 0.4790
vn -0.6809 -0.3814 -0.6253
vn -0.9805 0.0391 -0.1926
vn -0.7461 -0.3712 -0.5527
vn -0.6083 -0.4005 -0.6853
vn -0.3769 -0.4986 -0.7806
vn -0.7145 0.4496 0.5361
vn -0.7237 0.5125 0.4621
vn -0.5702 0.6036 0.5572
vn -0.7786 0.4256 0.4612
vn -0.6942 0.4560 0.5569
vn -0.7322 0.3818 0.5640
vn -0.6910 -0.4561 -0.5608
vn -0.8441 -0.3444 -0.4110
vn -0.6796 0.4087 0.6091
vn -0.7192 0.4548 0.5253
vn -0.7532 -0.3928 -0.5277
vn -0.4234 -0.9044 0.0526
vn -0.7358 -0.6384 -0.2261
vn -0.7566 0.5779 0.3059
vn -0.9222 0.0914 0.3757
vn -0.7168 -0.6895 0.1042
vn 0.3799 -0.8293 0.4098
vn -0.9881 -0.0997 0.1173
vn -0.8838 0.4657 0.0454
vn -0.9796 0.0359 0.1976
vn -0.7273 -0.6784 0.1035
vn -0.9668 -0.1342 -0.2174
vn -0.7349 -0.6382 0.2295
vn -0.8875 0.4470 -0.1120
vn -0.7688 0.4882 -0.4130
vn -0.9990 -0.0063 0.0446
vn -0.9336 -0.0503 -0.3547
vn -0.5479 0.6923 -0.4696
vn -0.0541 0.9208 -0.3862
vn -0.6380 0.7414 0.2080
vn -0.1442 0.9750 0.1690
vn -0.7570 0.4588 -0.4652
vn -0.7735 0.4409 -0.4552
vn 0.6115 0.0321 -0.7906
vn -0.5792 -0.8151 0.0068
vn -0.7079 -0.6750 0.2080
vn -0.9768 -0.1546 -0.1485
vn -0.6750 0.3985 -0.6209
vn -0.8258 -0.3833 -0.4137
vn -0.6285 0.2071 -0.7497
vn -0.8478 -0.4966 -0.1861
vn -0.5725 0.5896 0.5697
vn -0.4938 -0.6761 -0.5468
vn 0.2555 -0.1737 0.9511
vn -0.5530 -0.7993 0.2353
vn -0.3052 -0.3641 0.8799
vn -0.3406 -0.4160 -0.8431
vn -0.4923 -0.4376 -0.7525
vn -0.7993 0.2371 0.5522
vn -0.2144 0.1017 0.9714
vn -0.7069 0.2223 -0.6715
vn 0.9308 -0.2327 0.2818
vn 0.8647 -0.1786 -0.4695
vn 0.2666 -0.2465 -0.9317
vn 0.0743 -0.4491 -0.8904
vn 0.9542 -0.0780 0.2888
vn 0.7882 -0.1793 0.5887
vn -0.9561 -0.2037 -0.2106
vn -0.9673 -0.0885 -0.2375
vn -0.2852 0.0287 0.9580
vn -0.3033 0.0281 0.9525
vn -0.8614 0.0487 0.5057
vn -0.5088 -0.2010 -0.8371
vn -0.9840 -0.1424 -0.1068
vn 0.9169 0.0441 0.3966
vn 0.9289 0.0529 -0.3665
vn 0.9312 0.0032 0.3646
vn 0.3750 0.1352 -0.9171
vn -0.2416 0.3962 -0.8858
vn -0.4016 0.1752 -0.8989
vn 0.4846 0.0421 0.8737
vn 0.9609 -0.0094 0.2768
vn -0.9474 0.1254 -0.2944
vn -0.9274 0.1141 0.3563
vn -0.8966 0.0571 0.4390
vn -0.9613 -0.0528 -0.2704
vn -0.4875 -0.1015 -0.8672
vn -0.3337 0.0220 0.9424
vn 0.4674 -0.0424 0.8830
vn 0.4026 0.0088 0.9153
vn 0.4915 -0.0090 0.8708
vn -0.8696 0.0199 0.4933
vn -0.2740 0.0500 0.9604
vn -0.8735 0.0126 0.4866
vn 0.8729 -0.0724 -0.4825
vn 0.2737 -0.1113 -0.9554
vn -0.0335 -0.9994 0.0051
vn -0.0293 -0.9996 0.0031
vn -0.0322 -0.9995 0.0014
vn -0.8045 0.3528 -0.4777
vn -0.4453 -0.0131 0.8953
vn 0.9712 0.2326 -0.0512
vn 0.1163 -0.1928 -0.9743
vn 0.5277 -0.7859 0.3223
vn 0.9669 -0.0990 0.2351
vn 0.9433 -0.3033 -0.1347
vn 0.8325 -0.1806 -0.5238
vn -0.8619 -0.0023 0.5071
vn -0.8155 -0.2634 0.5153
vn -0.9371 -0.1273 -0.3251
vn 0.5486 -0.0024 0.8361
vn 0.9681 -0.0363 0.2479
vn 0.5489 0.0034 0.8359
vn 0.8787 0.1239 -0.4610
vn 0.8675 -0.1062 -0.4860
vn -0.8463 0.0148 0.5325
vn -0.2915 -0.0096 0.9565
vn -0.2879 0.0322 0.9571
vn -0.9767 -0.0403 -0.2108
vn -0.8433 0.0375 0.5362
vn -0.5362 -0.1605 -0.8287
vn 0.5648 -0.0492 0.8237
vn -0.9687 -0.0787 -0.2354
vn -0.3035 0.0224 0.9526
vn -0.9729 0.1229 -0.1959
vn -0.8729 0.1168 0.4738
vn -0.5591 0.1951 -0.8058
vn -0.9216 0.2809 -0.2679
vn 0.5769 0.0620 0.8145
vn 0.1171 -0.1350 -0.9839
vn 0.1028 0.2051 -0.9733
vn -0.5508 -0.1045 -0.8280
vn 0.0219 -0.9997 0.0113
vn 0.9676 0.1115 0.2267
vn 0.9694 0.0267 0.2438
vn 0.7533 0.3526 -0.5551
vn -0.4832 0.4037 -0.7769
vn -0.3473 -0.9271 -0.1408
vn -0.9584 0.2804 -0.0528
vn -0.2510 0.4642 -0.8494
vn -0.8267 0.4839 -0.2870
vn 0.7220 0.6240 0.2989
vn -0.1885 -0.3328 0.9240
vn -0.1931 -0.3112 0.9305
vn -0.1750 -0.3926 0.9029
vn -0.1088 -0.3108 0.9442
vn -0.1088 -0.3105 0.9443
vn -0.1085 -0.3120 0.9439
vn -0.3028 0.0138 0.9530
vn -0.0563 -0.3542 -0.9335
vn -0.1680 -0.8649 -0.4729
vn -0.5836 0.7010 0.4099
vn -0.5839 0.4685 0.6630
vn -0.0000 0.6064 0.7952
vn -0.9407 -0.3379 -0.0285
vn -0.9536 -0.2342 -0.1893
vn -0.9499 -0.2594 -0.1747
vn -0.0000 -0.7135 -0.7007
vn -0.0000 -0.9622 -0.2725
vn -0.0000 0.4065 -0.9136
vn 0.9536 -0.2342 -0.1893
vn 0.9408 -0.3379 -0.0285
vn 0.9499 -0.2594 -0.1747
vn 0.5839 0.4685 0.6630
vn 0.5836 0.7010 0.4099
vn -0.9497 -0.0745 -0.3040
vn -0.0000 -0.1843 -0.9829
vn -0.0004 -0.0026 -1.0000
vn -0.0000 -0.0026 -1.0000
vn -0.0000 0.1449 0.9894
vn 0.5876 0.1182 0.8005
vn 0.9497 -0.0745 -0.3040
vn 0.9503 -0.0760 -0.3021
vn 0.9497 -0.0039 -0.3132
vn 0.9403 0.0270 -0.3393
vn 0.9400 0.0237 -0.3404
vn -0.5832 -0.0162 0.8122
vn -0.0003 -0.0292 0.9996
vn -0.9500 -0.0045 -0.3123
vn -0.9504 0.0013 -0.3110
vn 0.5840 -0.0155 0.8116
vn 0.5922 0.1562 0.7905
vn 0.0090 0.2028 0.9792
vn 0.9484 -0.0245 0.3160
vn -0.9459 0.0315 -0.3230
vn 0.0102 0.1432 0.9896
vn -0.0081 -0.0435 -0.9990
vn 0.5719 -0.3785 -0.7278
vn -0.0009 -0.9395 0.3424
vn -0.5880 -0.3728 -0.7178
vn -0.5771 0.1591 0.8010
vn -0.9457 0.0297 -0.3236
vn -0.9432 -0.0155 0.3318
vn -0.0000 -0.0000 1.0000
vn 0.8981 0.4397 -0.0000
vn 0.8982 -0.4397 -0.0000
vn 0.8981 -0.4397 -0.0000
vn -0.3241 0.9460 -0.0000
vn 0.3242 0.9460 -0.0000
vn -1.0000 -0.0000 -0.0000
vn -0.8981 0.4397 -0.0000
vn -0.0000 -0.0000 -1.0000
vn 0.6133 -0.7898 -0.0000
vn 0.5360 -0.8442 -0.0000
vn -0.0000 -1.0000 -0.0000
vn 0.3242 -0.9460 -0.0000
vn -0.8981 -0.4397 -0.0000
vn -0.3242 0.9460 -0.0000
vn 1.0000 -0.0000 -0.0000
vn -0.5360 -0.8442 -0.0000
vn -0.6133 -0.7899 -0.0000
vn -0.3242 -0.9460 -0.0000
vn 0.1442 0.9750 0.1690
vn 0.5664 0.7488 -0.3443
vn 0.6380 0.7414 0.2080
vn 0.3293 0.7327 0.5955
vn -0.5664 0.7488 -0.3442
vn 0.0541 0.9208 -0.3862
vn 0.8441 -0.3444 -0.4110
vn -0.0000 0.9740 0.2265
vn 0.9105 0.1537 -0.3839
vn 0.0299 -0.9996 0.0010
vn 0.0353 -0.9994 0.0059
vn 0.0394 -0.9991 0.0164
vn 0.0447 -0.9990 -0.0067
vn 0.0326 -0.9994 0.0153
vn 0.1750 -0.3926 0.9029
vn 0.1085 -0.3120 0.9439
vn -0.3698 0.2414 0.8972
vn -0.7605 0.5131 -0.3980
vn -0.9105 0.1537 -0.3839
vn -0.5300 0.2224 -0.8183
vn 0.5540 0.4117 -0.7236
vn -0.0447 -0.9990 -0.0067
vn -0.0370 -0.9993 -0.0024
vn -0.0394 -0.9991 0.0164
vn -0.0299 -0.9996 0.0010
vn -0.0326 -0.9994 0.0153
vn 0.0863 0.4345 -0.8965
vn -0.9684 0.2288 0.0992
vn -0.2030 -0.2621 0.9435
vn -0.1092 -0.3087 0.9449
vn -0.5855 0.7003 0.4084
vn -0.9443 -0.3287 -0.0161
vn 0.9443 -0.3287 -0.0161
vn 0.5855 0.7003 0.4084
vn -0.9503 -0.0760 -0.3021
vn -0.5876 0.1182 0.8005
vn 0.9504 0.0020 -0.3109
vn -0.0086 -0.0438 -0.9990
vn -0.0000 0.0001 1.0000
vn -0.0000 -0.0001 -1.0000
vn -0.0000 0.0001 -1.0000
s 1
f 65//1 36//2 64//3
f 453//4 109//5 450//6
f 40//7 67//8 66//9
f 41//10 68//11 67//8
f 441//12 334//13 436//14
f 288//15 80//16 287//17
f 36//2 66//9 64//3
f 288//15 74//18 83//19
f 452//20 103//21 451//22
f 38//23 96//24 1//25
f 1//25 65//1 38//23
f 11//26 72//27 9//28
f 2//29 80//16 37//30
f 329//31 427//32 426//33
f 39//34 37//30 65//1
f 74//18 41//10 40//7
f 444//35 466//36 443//37
f 87//38 439//39 438//40
f 453//4 108//41 98//42
f 295//43 81//44 291//45
f 448//46 462//47 466//36
f 324//48 448//46 447//49
f 44//50 76//51 3//52
f 44//50 42//53 68//11
f 43//54 42//53 4//55
f 5//56 42//53 3//52
f 3//52 235//57 238//58
f 93//59 138//60 136//61
f 6//62 39//34 1//25
f 45//63 2//29 39//34
f 7//64 69//65 47//66
f 45//63 6//62 69//65
f 69//65 8//67 46//68
f 47//66 46//68 9//28
f 240//69 85//70 298//71
f 298//71 72//27 242//72
f 12//73 48//74 10//75
f 326//76 247//77 433//78
f 10//75 46//68 8//67
f 429//79 370//80 431//81
f 48//74 9//28 46//68
f 15//82 77//83 13//84
f 50//85 13//84 49//86
f 13//84 78//87 11//26
f 49//86 11//26 48//74
f 14//88 49//86 12//73
f 16//89 50//85 14//88
f 253//90 94//91 250//92
f 250//92 92//93 247//77
f 17//94 79//95 15//82
f 51//96 15//82 50//85
f 20//97 52//98 18//99
f 259//100 18//99 256//101
f 18//99 51//96 16//89
f 256//101 90//102 253//90
f 52//98 17//94 51//96
f 21//103 86//104 19//105
f 53//106 19//105 52//98
f 23//107 260//108 21//103
f 22//109 53//110 20//97
f 262//111 20//97 259//100
f 25//112 263//113 23//107
f 54//114 21//103 53//106
f 55//115 22//109 24//116
f 265//117 22//109 262//111
f 25//112 269//118 266//119
f 55//120 23//107 54//114
f 26//121 56//122 55//120
f 26//121 55//123 24//116
f 265//117 26//121 24//116
f 29//124 269//118 27//125
f 55//120 27//125 25//112
f 57//126 26//121 28//127
f 268//128 28//127 26//121
f 28//127 60//129 58//130
f 29//124 168//131 57//126
f 57//126 59//132 29//124
f 28//127 70//133 57//126
f 30//134 70//133 58//130
f 59//132 532//135 29//124
f 59//132 273//136 300//137
f 32//138 273//136 30//134
f 30//134 524//139 523//140
f 30//134 520//141 521//142
f 271//143 31//144 28//127
f 279//145 62//146 33//147
f 62//146 301//148 282//149
f 61//150 31//144 33//147
f 276//151 33//147 31//144
f 34//152 277//153 32//138
f 60//129 34//152 32//138
f 71//154 282//149 302//155
f 61//150 63//156 34//152
f 33//147 71//154 61//150
f 34//152 304//157 280//158
f 304//157 63//156 283//159
f 19//105 75//160 17//94
f 35//161 65//1 64//3
f 7//64 84//162 2//29
f 5//56 234//163 91//164
f 71//154 283//159 63//156
f 79//95 248//165 77//83
f 83//19 40//7 36//2
f 78//87 242//72 72//27
f 77//83 245//166 78//87
f 81//44 292//167 291//45
f 81//44 44//50 41//10
f 86//104 254//168 75//160
f 73//169 230//170 84//162
f 83//19 37//30 80//16
f 75//160 251//171 79//95
f 73//169 47//66 85//70
f 84//162 287//17 80//16
f 21//103 257//172 86//104
f 82//173 235//57 76//51
f 85//70 9//28 72//27
f 247//77 93//59 434//174
f 92//93 10//75 93//59
f 434//174 136//61 137//175
f 96//24 290//176 229//177
f 90//102 14//88 94//91
f 89//178 1//25 96//24
f 88//179 4//55 91//164
f 87//38 35//161 95//180
f 320//181 438//40 437//182
f 94//91 12//73 92//93
f 91//164 447//49 446//183
f 90//102 18//99 16//89
f 455//184 97//185 100//186
f 272//187 537//188 300//187
f 272//189 532//135 531//190
f 300//137 534//191 59//132
f 545//192 272//193 300//193
f 105//194 114//195 116//196
f 100//186 113//197 101//198
f 108//41 116//196 111//199
f 99//200 103//21 112//201
f 97//185 112//201 110//202
f 107//203 105//194 116//196
f 98//42 117//204 109//5
f 104//205 112//201 103//21
f 100//186 97//185 110//202
f 451//22 99//200 449//206
f 450//6 104//205 452//20
f 456//207 99//200 97//185
f 120//208 130//209 122//210
f 119//211 125//212 127//213
f 186//214 122//210 123//215
f 118//216 129//217 126//218
f 185//219 106//220 189//221
f 124//222 131//223 132//224
f 98//42 108//41 111//199
f 109//5 115//225 104//205
f 102//226 113//197 114//195
f 186//214 124//222 187//227
f 187//227 121//228 188//229
f 182//230 119//211 120//208
f 125//231 129//232 131//233
f 184//234 120//208 122//210
f 106//220 126//218 125//212
f 122//210 131//223 123//215
f 121//228 132//224 129//217
f 106//220 183//235 189//221
f 119//211 128//236 120//208
f 137//175 145//237 146//238
f 139//239 142//240 148//241
f 133//242 146//238 142//240
f 140//243 144//244 135//245
f 6//62 134//246 8//67
f 8//67 138//60 10//75
f 89//178 135//245 6//62
f 423//247 322//248 373//249
f 178//250 156//251 179//252
f 178//250 154//253 150//254
f 177//255 157//256 152//257
f 176//258 152//257 151//259
f 136//61 147//260 145//237
f 140//243 148//241 149//261
f 134//246 147//260 138//60
f 135//245 143//262 134//246
f 152//257 165//263 160//264
f 151//259 160//264 159//265
f 155//266 159//265 163//267
f 157//256 164//268 165//263
f 180//269 154//253 174//270
f 181//271 153//272 180//269
f 175//273 156//251 157//256
f 176//258 155//266 181//271
f 160//274 141//274 159//274
f 162//274 141//274 158//274
f 165//274 158//274 141//274
f 141//274 163//274 159//274
f 154//253 158//275 150//254
f 150//254 164//268 156//251
f 153//272 162//276 154//253
f 153//272 163//267 161//277
f 188//229 118//216 185//219
f 166//278 168//278 171//278
f 56//122 167//279 27//125
f 56//122 168//131 166//280
f 29//124 167//279 169//281
f 169//281 171//282 168//131
f 169//283 167//283 172//283
f 167//284 171//285 172//286
f 172//287 173//288 170//289
f 143//262 181//271 147//260
f 149//261 179//252 175//273
f 147//260 180//269 145//237
f 146//238 180//269 174//270
f 144//244 176//258 143//262
f 149//261 177//255 144//244
f 142//240 174//270 178//250
f 148//241 178//250 179//252
f 112//201 188//229 185//219
f 189//221 113//197 110//202
f 116//196 182//230 184//234
f 114//195 183//235 182//230
f 117//204 188//229 115//225
f 111//199 187//227 117//204
f 110//202 185//219 189//221
f 116//196 186//214 111//199
f 225//290 289//291 286//292
f 342//293 461//294 458//295
f 231//296 294//297 232//298
f 232//298 296//299 237//300
f 437//182 463//301 328//302
f 288//15 313//303 316//304
f 225//290 293//305 231//296
f 288//15 307//306 292//167
f 336//307 460//308 459//309
f 227//310 329//31 320//181
f 289//291 190//311 227//310
f 305//312 200//313 198//314
f 191//315 313//303 317//316
f 424//317 133//242 139//239
f 226//318 228//319 289//291
f 232//298 307//306 231//296
f 442//320 102//226 105//194
f 443//37 335//321 441//12
f 461//294 341//322 462//47
f 314//323 295//43 291//45
f 446//183 465//324 454//325
f 237//300 309//326 315//327
f 233//328 237//300 296//299
f 236//329 233//328 296//299
f 194//330 233//328 193//331
f 194//330 235//57 309//326
f 326//76 371//332 199//333
f 195//334 228//319 239//335
f 191//315 239//335 228//319
f 196//336 297//337 239//335
f 239//335 297//337 195//334
f 297//337 197//338 195//334
f 243//339 241//340 297//337
f 240//69 318//341 306//342
f 298//71 305//312 318//341
f 201//343 244//344 246//345
f 369//346 432//347 431//81
f 199//333 241//340 244//344
f 229//177 425//348 89//178
f 198//314 244//344 241//340
f 204//349 310//350 312//351
f 202//352 249//353 246//345
f 202//352 311//354 310//350
f 200//313 246//345 244//344
f 246//345 203//355 201//343
f 205//356 249//353 252//357
f 327//358 253//90 250//92
f 325//359 250//92 247//77
f 206//360 312//351 308//361
f 204//349 252//357 249//353
f 209//362 255//363 258//364
f 207//365 259//100 256//101
f 207//365 252//357 255//363
f 323//366 256//101 253//90
f 206//360 255//363 252//357
f 210//367 208//368 319//369
f 208//368 258//370 255//363
f 260//371 212//372 210//367
f 211//373 258//364 261//374
f 209//362 262//111 259//100
f 263//113 214//375 212//372
f 210//367 261//376 258//370
f 211//373 264//377 213//378
f 211//373 265//379 262//111
f 214//375 269//118 216//380
f 212//372 264//381 261//376
f 215//382 213//378 264//383
f 215//382 264//381 267//384
f 265//379 215//382 268//128
f 269//118 218//385 216//380
f 264//381 216//380 267//384
f 215//382 270//386 217//387
f 268//128 217//387 271//143
f 217//387 278//388 220//389
f 401//390 218//385 270//386
f 275//391 270//386 218//385
f 217//387 299//392 274//393
f 219//394 299//392 275//391
f 544//395 540//396 538//397
f 273//136 275//391 300//137
f 221//398 273//136 277//153
f 219//394 529//399 274//393
f 219//394 278//388 527//400
f 271//143 220//389 276//151
f 284//401 279//145 222//402
f 284//401 282//149 301//148
f 220//389 281//403 222//402
f 276//151 222//402 279//145
f 223//404 277//153 280//158
f 278//388 223//404 281//403
f 303//405 282//149 284//401
f 285//406 281//403 223//404
f 303//405 222//402 281//403
f 304//157 223//404 280//158
f 304//157 283//159 285//406
f 308//361 208//368 206//360
f 224//407 289//291 227//310
f 317//316 196//336 191//315
f 194//330 324//48 234//163
f 283//159 303//405 285//406
f 248//165 312//351 310//350
f 316//304 231//296 307//306
f 242//72 311//354 305//312
f 245//166 310//350 311//354
f 314//323 292//167 307//306
f 314//323 237//300 315//327
f 254//168 319//369 308//361
f 230//170 306//342 317//316
f 226//318 316//304 313//303
f 251//171 308//361 312//351
f 243//339 306//342 318//341
f 287//17 317//316 313//303
f 257//408 210//367 319//369
f 235//57 315//327 309//326
f 198//314 318//341 305//312
f 199//333 325//359 326//76
f 428//409 137//175 133//242
f 329//31 290//176 320//181
f 203//355 323//366 327//358
f 190//311 322//248 329//31
f 193//331 321//410 324//48
f 224//407 320//181 328//302
f 440//411 101//198 102//226
f 201//343 327//358 325//359
f 445//412 442//320 465//324
f 323//366 205//356 207//365
f 463//301 330//413 464//414
f 541//415 275//391 218//385
f 272//416 541//415 218//416
f 543//417 300//137 275//391
f 338//418 347//419 335//321
f 346//420 333//421 334//13
f 341//322 349//422 340//423
f 332//424 345//425 336//307
f 330//413 345//425 332//424
f 340//423 349//422 338//418
f 350//426 331//427 342//293
f 345//425 337//428 336//307
f 333//421 343//429 330//413
f 332//424 459//309 457//430
f 337//428 458//295 460//308
f 464//414 332//424 457//430
f 363//431 353//432 355//433
f 352//434 358//435 339//436
f 419//437 355//433 417//438
f 351//439 362//440 354//441
f 339//436 418//442 422//443
f 357//444 364//445 356//446
f 331//427 344//447 341//322
f 348//448 342//293 337//428
f 335//321 346//420 334//13
f 419//437 357//444 356//446
f 354//441 420//449 421//450
f 415//451 352//434 416//452
f 361//453 364//454 362//455
f 417//438 353//432 415//451
f 339//436 359//456 351//439
f 364//445 355//433 356//446
f 354//441 365//457 357//444
f 416//452 339//436 422//443
f 361//458 352//434 353//432
f 370//80 378//459 369//346
f 372//460 375//461 366//462
f 366//462 379//463 370//80
f 377//464 373//249 368//465
f 367//466 195//334 197//338
f 371//332 197//338 199//333
f 368//465 322//248 195//334
f 423//247 366//462 429//79
f 389//467 411//468 412//469
f 411//468 387//470 407//471
f 410//472 390//473 408//474
f 409//475 385//476 410//472
f 369//346 380//477 371//332
f 373//249 381//478 372//460
f 380//477 367//466 371//332
f 376//479 368//465 367//466
f 385//476 398//480 390//473
f 384//481 393//482 385//476
f 388//483 392//484 384//481
f 390//473 397//485 389//467
f 387//470 413//486 407//471
f 386//487 414//488 413//486
f 408//474 389//467 412//469
f 388//483 409//475 414//488
f 393//489 374//489 398//489
f 374//489 395//489 391//489
f 391//489 398//489 374//489
f 374//489 396//489 394//489
f 391//490 387//470 383//491
f 397//485 383//491 389//467
f 395//492 386//487 387//470
f 386//487 396//493 388//483
f 351//439 421//450 418//442
f 399//494 404//494 401//494
f 400//495 267//384 216//380
f 267//384 401//390 270//386
f 218//385 400//495 216//380
f 404//496 402//497 401//390
f 402//498 405//498 400//498
f 400//499 404//500 399//501
f 405//502 406//503 404//504
f 414//488 376//479 380//477
f 382//505 412//469 381//478
f 413//486 380//477 378//459
f 379//463 413//486 378//459
f 409//475 377//464 376//479
f 410//472 382//505 377//464
f 375//461 407//471 379//463
f 381//478 411//468 375//461
f 345//425 421//450 348//448
f 346//420 422//443 343//429
f 349//422 415//451 347//419
f 347//419 416//452 346//420
f 421//450 350//426 348//448
f 344//447 420//449 419//437
f 343//429 418//442 345//425
f 419//437 349//422 344//447
f 427//32 424//317 425//348
f 430//506 432//347 433//78
f 430//506 429//79 431//81
f 424//317 429//79 428//409
f 424//317 140//243 89//178
f 436//14 438//40 439//39
f 445//412 447//49 448//46
f 435//507 441//12 436//14
f 442//320 441//12 440//411
f 445//412 443//37 442//320
f 455//184 101//198 435//507
f 35//161 449//206 456//207
f 68//11 452//20 67//8
f 66//9 449//206 64//3
f 95//180 456//207 455//184
f 43//54 454//325 453//4
f 67//8 451//22 66//9
f 43//54 450//6 68//11
f 224//407 457//430 286//292
f 460//308 296//299 294//297
f 457//430 293//305 286//292
f 328//302 464//414 224//407
f 236//329 462//47 321//410
f 459//309 294//297 293//305
f 458//295 236//329 296//299
f 455//184 439//39 95//180
f 463//301 334//13 333//421
f 442//320 107//203 465//324
f 454//325 107//203 108//41
f 443//37 340//423 338//418
f 462//47 340//423 466//36
f 468//508 469//509 467//510
f 470//511 471//512 469//513
f 471//514 474//515 473//514
f 476//516 472//516 470//516
f 473//517 476//518 475//519
f 475//520 468//521 467//510
f 471//512 478//522 469//513
f 479//523 485//524 484//525
f 475//520 477//526 481//527
f 469//509 477//526 467//510
f 471//514 480//523 479//523
f 473//517 481//528 480//529
f 485//530 491//531 490//532
f 477//526 483//533 482//534
f 481//528 485//530 480//529
f 478//522 484//535 483//536
f 477//526 486//537 481//527
f 491//538 492//539 496//540
f 484//535 488//541 483//536
f 486//537 487//542 491//538
f 485//524 489//543 484//525
f 483//533 487//542 482//534
f 495//544 496//540 497//545
f 489//543 495//544 494//546
f 488//547 492//539 487//542
f 490//532 496//540 495//544
f 489//548 493//549 488//541
f 493//549 494//546 497//545
f 496//540 492//539 497//545
f 494//546 495//544 497//545
f 492//539 493//549 497//545
f 503//550 498//550 523//550
f 508//551 502//552 505//553
f 501//554 504//555 507//555
f 523//556 500//557 520//556
f 507//558 505//558 521//142
f 498//554 500//557 499//557
f 505//553 524//559 522//560
f 504//555 508//551 507//555
f 522//560 521//561 506//562
f 529//550 510//550 515//550
f 513//563 519//557 516//563
f 515//564 512//555 518//564
f 511//551 528//565 527//565
f 519//558 512//558 527//400
f 510//551 512//555 509//555
f 516//563 526//566 529//567
f 519//557 515//564 518//564
f 517//568 525//561 526//566
f 532//135 530//569 531//190
f 530//569 537//188 531//190
f 532//135 535//570 533//571
f 537//188 535//570 534//191
f 538//397 541//415 539//572
f 545//192 538//397 539//572
f 542//573 545//192 543//417
f 542//573 541//415 540//396
f 533//571 536//574 530//569
f 65//1 37//30 36//2
f 453//4 98//42 109//5
f 40//7 41//10 67//8
f 41//10 44//50 68//11
f 441//12 335//321 334//13
f 288//15 83//19 80//16
f 36//2 40//7 66//9
f 288//15 292//167 74//18
f 452//20 104//205 103//21
f 38//23 87//38 96//24
f 1//25 39//34 65//1
f 11//26 78//87 72//27
f 2//29 84//162 80//16
f 426//33 229//177 329//31
f 329//31 322//248 427//32
f 39//34 2//29 37//30
f 74//18 81//44 41//10
f 438//40 290//176 87//38
f 87//38 95//180 439//39
f 453//4 454//325 108//41
f 295//43 82//173 81//44
f 466//36 444//35 448//46
f 448//46 321//410 462//47
f 447//49 234//163 324//48
f 324//48 321//410 448//46
f 44//50 82//173 76//51
f 44//50 3//52 42//53
f 43//54 68//11 42//53
f 5//56 4//55 42//53
f 238//58 5//56 3//52
f 3//52 76//51 235//57
f 93//59 10//75 138//60
f 6//62 45//63 39//34
f 45//63 7//64 2//29
f 7//64 45//63 69//65
f 69//65 6//62 8//67
f 47//66 69//65 46//68
f 240//69 73//169 85//70
f 298//71 85//70 72//27
f 12//73 49//86 48//74
f 433//78 432//347 326//76
f 326//76 325//359 247//77
f 10//75 48//74 46//68
f 429//79 366//462 370//80
f 48//74 11//26 9//28
f 15//82 79//95 77//83
f 50//85 15//82 13//84
f 13//84 77//83 78//87
f 49//86 13//84 11//26
f 14//88 50//85 49//86
f 16//89 51//96 50//85
f 253//90 90//102 94//91
f 250//92 94//91 92//93
f 17//94 75//160 79//95
f 51//96 17//94 15//82
f 20//97 53//110 52//98
f 259//100 20//97 18//99
f 18//99 52//98 51//96
f 256//101 18//99 90//102
f 52//98 19//105 17//94
f 53//106 21//103 19//105
f 23//107 263//113 260//108
f 22//109 54//575 53//110
f 262//111 22//109 20//97
f 25//112 266//119 263//113
f 54//114 23//107 21//103
f 55//115 54//575 22//109
f 265//117 24//116 22//109
f 25//112 27//125 269//118
f 55//120 25//112 23//107
f 265//117 268//128 26//121
f 29//124 272//576 269//118
f 55//120 56//122 27//125
f 57//126 56//122 26//121
f 268//128 271//143 28//127
f 28//127 31//144 60//129
f 29//124 169//281 168//131
f 57//126 70//133 59//132
f 28//127 58//130 70//133
f 30//134 59//132 70//133
f 59//132 534//191 532//135
f 59//132 30//134 273//136
f 32//138 277//153 273//136
f 30//134 58//130 524//139
f 524//139 58//130 60//129
f 60//129 32//138 30//134
f 30//134 523//140 520//141
f 522//577 524//139 60//129
f 521//142 522//577 60//129
f 521//142 60//129 30//134
f 271//143 276//151 31//144
f 279//145 301//148 62//146
f 61//150 60//129 31//144
f 276//151 279//145 33//147
f 34//152 280//158 277//153
f 60//129 61//150 34//152
f 71//154 62//146 282//149
f 61//150 71//154 63//156
f 33//147 62//146 71//154
f 34//152 63//156 304//157
f 19//105 86//104 75//160
f 35//161 38//23 65//1
f 7//64 73//169 84//162
f 91//164 4//55 5//56
f 5//56 238//58 234//163
f 71//154 302//155 283//159
f 79//95 251//171 248//165
f 83//19 74//18 40//7
f 78//87 245//166 242//72
f 77//83 248//165 245//166
f 81//44 74//18 292//167
f 81//44 82//173 44//50
f 86//104 257//172 254//168
f 73//169 240//69 230//170
f 83//19 36//2 37//30
f 75//160 254//168 251//171
f 73//169 7//64 47//66
f 84//162 230//170 287//17
f 21//103 260//108 257//172
f 82//173 295//43 235//57
f 85//70 47//66 9//28
f 434//174 433//78 247//77
f 247//77 92//93 93//59
f 92//93 12//73 10//75
f 137//175 430//506 434//174
f 434//174 93//59 136//61
f 96//24 87//38 290//176
f 90//102 16//89 14//88
f 89//178 6//62 1//25
f 88//179 43//54 4//55
f 87//38 38//23 35//161
f 437//182 328//302 320//181
f 320//181 290//176 438//40
f 94//91 14//88 12//73
f 446//183 88//179 91//164
f 91//164 234//163 447//49
f 455//184 456//207 97//185
f 272//187 531//190 537//188
f 272//189 29//189 532//135
f 300//137 537//188 534//191
f 545//192 539//572 272//193
f 105//194 102//226 114//195
f 100//186 110//202 113//197
f 108//41 107//203 116//196
f 97//185 99//200 112//201
f 98//42 111//199 117//204
f 104//205 115//225 112//201
f 451//22 103//21 99//200
f 450//6 109//5 104//205
f 456//207 449//206 99//200
f 120//208 128//236 130//209
f 119//211 106//220 125//212
f 186//214 184//234 122//210
f 118//216 121//228 129//217
f 185//219 118//216 106//220
f 124//222 123//215 131//223
f 109//5 117//204 115//225
f 102//226 101//198 113//197
f 186//214 123//215 124//222
f 187//227 124//222 121//228
f 182//230 183//235 119//211
f 131//233 130//578 128//579
f 128//579 127//580 125//231
f 125//231 126//581 129//232
f 129//232 132//582 131//233
f 131//233 128//579 125//231
f 184//234 182//230 120//208
f 106//220 118//216 126//218
f 122//210 130//209 131//223
f 121//228 124//222 132//224
f 106//220 119//211 183//235
f 119//211 127//213 128//236
f 137//175 136//61 145//237
f 139//239 133//242 142//240
f 133//242 137//175 146//238
f 140//243 149//261 144//244
f 6//62 135//245 134//246
f 8//67 134//246 138//60
f 89//178 140//243 135//245
f 373//249 372//460 423//247
f 423//247 427//32 322//248
f 178//250 150//254 156//251
f 178//250 174//270 154//253
f 177//255 175//273 157//256
f 176//258 177//255 152//257
f 136//61 138//60 147//260
f 140//243 139//239 148//241
f 134//246 143//262 147//260
f 135//245 144//244 143//262
f 152//257 157//256 165//263
f 151//259 152//257 160//264
f 155//266 151//259 159//265
f 157//256 156//251 164//268
f 180//269 153//272 154//253
f 181//271 155//266 153//272
f 175//273 179//252 156//251
f 176//258 151//259 155//266
f 160//274 165//274 141//274
f 162//274 161//274 141//274
f 165//274 164//274 158//274
f 141//274 161//274 163//274
f 154//253 162//276 158//275
f 150//254 158//275 164//268
f 153//272 161//277 162//276
f 153//272 155//266 163//267
f 188//229 121//228 118//216
f 56//122 166//280 167//279
f 56//122 57//126 168//131
f 29//124 27//125 167//279
f 169//281 172//282 171//282
f 167//284 166//583 171//285
f 172//287 171//584 173//288
f 143//262 176//258 181//271
f 149//261 148//241 179//252
f 147//260 181//271 180//269
f 146//238 145//237 180//269
f 144//244 177//255 176//258
f 149//261 175//273 177//255
f 142//240 146//238 174//270
f 148//241 142//240 178//250
f 112//201 115//225 188//229
f 189//221 183//235 113//197
f 116//196 114//195 182//230
f 114//195 113//197 183//235
f 117//204 187//227 188//229
f 111//199 186//214 187//227
f 110//202 112//201 185//219
f 116//196 184//234 186//214
f 225//290 226//318 289//291
f 342//293 331//427 461//294
f 231//296 293//305 294//297
f 232//298 294//297 296//299
f 437//182 436//14 463//301
f 288//15 287//17 313//303
f 225//290 286//292 293//305
f 288//15 316//304 307//306
f 336//307 337//428 460//308
f 227//310 190//311 329//31
f 289//291 228//319 190//311
f 305//312 311//354 200//313
f 191//315 226//318 313//303
f 424//317 428//409 133//242
f 226//318 191//315 228//319
f 232//298 314//323 307//306
f 442//320 440//411 102//226
f 443//37 338//418 335//321
f 461//294 331//427 341//322
f 314//323 315//327 295//43
f 454//325 88//179 446//183
f 446//183 445//412 465//324
f 237//300 192//585 309//326
f 233//328 192//585 237//300
f 236//329 193//331 233//328
f 194//330 192//585 233//328
f 309//326 192//585 194//330
f 194//330 238//58 235//57
f 326//76 369//346 371//332
f 195//334 190//311 228//319
f 191//315 196//336 239//335
f 196//336 243//339 297//337
f 297//337 241//340 197//338
f 243//339 198//314 241//340
f 240//69 298//71 318//341
f 298//71 242//72 305//312
f 201//343 199//333 244//344
f 431//81 370//80 369//346
f 369//346 326//76 432//347
f 199//333 197//338 241//340
f 89//178 96//24 229//177
f 229//177 426//33 425//348
f 198//314 200//313 244//344
f 204//349 202//352 310//350
f 202//352 204//349 249//353
f 202//352 200//313 311//354
f 200//313 202//352 246//345
f 246//345 249//353 203//355
f 205//356 203//355 249//353
f 327//358 323//366 253//90
f 325//359 327//358 250//92
f 206//360 204//349 312//351
f 204//349 206//360 252//357
f 209//362 207//365 255//363
f 207//365 209//362 259//100
f 207//365 205//356 252//357
f 323//366 207//365 256//101
f 206//360 208//368 255//363
f 208//368 210//367 258//370
f 260//371 263//113 212//372
f 211//373 209//362 258//364
f 209//362 211//373 262//111
f 263//113 266//119 214//375
f 210//367 212//372 261//376
f 211//373 261//374 264//377
f 211//373 213//378 265//379
f 214//375 266//119 269//118
f 212//372 214//375 264//381
f 265//379 213//378 215//382
f 269//118 272//576 218//385
f 264//381 214//375 216//380
f 215//382 267//384 270//386
f 268//128 215//382 217//387
f 217//387 274//393 278//388
f 401//390 402//497 218//385
f 275//391 299//392 270//386
f 217//387 270//386 299//392
f 219//394 274//393 299//392
f 544//395 542//573 540//396
f 273//136 219//394 275//391
f 221//398 219//394 273//136
f 219//394 528//586 529//399
f 527//400 528//586 219//394
f 219//394 221//398 278//388
f 278//388 274//393 529//399
f 278//388 529//399 526//587
f 278//388 526//587 525//588
f 278//388 525//588 527//400
f 271//143 217//387 220//389
f 284//401 301//148 279//145
f 220//389 278//388 281//403
f 276//151 220//389 222//402
f 223//404 221//398 277//153
f 278//388 221//398 223//404
f 303//405 302//155 282//149
f 285//406 303//405 281//403
f 303//405 284//401 222//402
f 304//157 285//406 223//404
f 308//361 319//369 208//368
f 224//407 286//292 289//291
f 317//316 306//342 196//336
f 234//163 238//58 194//330
f 194//330 193//331 324//48
f 283//159 302//155 303//405
f 248//165 251//171 312//351
f 316//304 225//290 231//296
f 242//72 245//166 311//354
f 245//166 248//165 310//350
f 314//323 291//45 292//167
f 314//323 232//298 237//300
f 254//168 257//408 319//369
f 230//170 240//69 306//342
f 226//318 225//290 316//304
f 251//171 254//168 308//361
f 243//339 196//336 306//342
f 287//17 230//170 317//316
f 257//408 260//371 210//367
f 235//57 295//43 315//327
f 198//314 243//339 318//341
f 199//333 201//343 325//359
f 428//409 430//506 137//175
f 329//31 229//177 290//176
f 203//355 205//356 323//366
f 190//311 195//334 322//248
f 193//331 236//329 321//410
f 224//407 227//310 320//181
f 440//411 435//507 101//198
f 201//343 203//355 327//358
f 463//301 333//421 330//413
f 541//415 543//417 275//391
f 272//416 539//572 541//415
f 543//417 545//192 300//137
f 338//418 349//422 347//419
f 346//420 343//429 333//421
f 341//322 344//447 349//422
f 330//413 343//429 345//425
f 350//426 344//447 331//427
f 345//425 348//448 337//428
f 332//424 336//307 459//309
f 337//428 342//293 458//295
f 464//414 330//413 332//424
f 363//431 361//458 353//432
f 352//434 360//589 358//435
f 419//437 356//446 355//433
f 351//439 359//456 362//440
f 339//436 351//439 418//442
f 357//444 365//457 364//445
f 348//448 350//426 342//293
f 335//321 347//419 346//420
f 419//437 420//449 357//444
f 354//441 357//444 420//449
f 415//451 353//432 352//434
f 362//455 359//590 358//591
f 358//591 360//592 361//453
f 361//453 363//593 364//454
f 364//454 365//594 362//455
f 362//455 358//591 361//453
f 417//438 355//433 353//432
f 339//436 358//435 359//456
f 364//445 363//431 355//433
f 354//441 362//440 365//457
f 416//452 352//434 339//436
f 361//458 360//589 352//434
f 370//80 379//463 378//459
f 372//460 381//478 375//461
f 366//462 375//461 379//463
f 377//464 382//505 373//249
f 367//466 368//465 195//334
f 371//332 367//466 197//338
f 368//465 373//249 322//248
f 423//247 372//460 366//462
f 389//467 383//491 411//468
f 411//468 383//491 387//470
f 410//472 385//476 390//473
f 409//475 384//481 385//476
f 369//346 378//459 380//477
f 373//249 382//505 381//478
f 380//477 376//479 367//466
f 376//479 377//464 368//465
f 385//476 393//482 398//480
f 384//481 392//484 393//482
f 388//483 396//493 392//484
f 390//473 398//480 397//485
f 387//470 386//487 413//486
f 386//487 388//483 414//488
f 408//474 390//473 389//467
f 388//483 384//481 409//475
f 393//489 392//489 374//489
f 374//489 394//489 395//489
f 391//489 397//489 398//489
f 374//489 392//489 396//489
f 391//490 395//492 387//470
f 397//485 391//490 383//491
f 395//492 394//595 386//487
f 386//487 394//595 396//493
f 351//439 354//441 421//450
f 400//495 399//596 267//384
f 267//384 399//596 401//390
f 218//385 402//497 400//495
f 404//496 405//496 402//497
f 400//499 405//597 404//500
f 405//502 403//598 406//503
f 414//488 409//475 376//479
f 382//505 408//474 412//469
f 413//486 414//488 380//477
f 379//463 407//471 413//486
f 409//475 410//472 377//464
f 410//472 408//474 382//505
f 375//461 411//468 407//471
f 381//478 412//469 411//468
f 345//425 418//442 421//450
f 346//420 416//452 422//443
f 349//422 417//438 415//451
f 347//419 415//451 416//452
f 421//450 420//449 350//426
f 344//447 350//426 420//449
f 343//429 422//443 418//442
f 419//437 417//438 349//422
f 425//348 426//33 427//32
f 427//32 423//247 424//317
f 433//78 434//174 430//506
f 430//506 431//81 432//347
f 430//506 428//409 429//79
f 424//317 423//247 429//79
f 89//178 425//348 424//317
f 424//317 139//239 140//243
f 439//39 435//507 436//14
f 436//14 437//182 438//40
f 448//46 444//35 445//412
f 445//412 446//183 447//49
f 435//507 440//411 441//12
f 442//320 443//37 441//12
f 445//412 444//35 443//37
f 455//184 100//186 101//198
f 35//161 64//3 449//206
f 68//11 450//6 452//20
f 66//9 451//22 449//206
f 95//180 35//161 456//207
f 43//54 88//179 454//325
f 67//8 452//20 451//22
f 43//54 453//4 450//6
f 224//407 464//414 457//430
f 460//308 458//295 296//299
f 457//430 459//309 293//305
f 328//302 463//301 464//414
f 236//329 461//294 462//47
f 459//309 460//308 294//297
f 458//295 461//294 236//329
f 455//184 435//507 439//39
f 463//301 436//14 334//13
f 442//320 105//194 107//203
f 454//325 465//324 107//203
f 443//37 466//36 340//423
f 462//47 341//322 340//423
f 468//508 470//599 469//509
f 470//511 472//600 471//512
f 471//514 472//515 474//515
f 470//516 468//516 476//516
f 476//516 474//516 472//516
f 473//517 474//601 476//518
f 475//520 476//602 468//521
f 471//512 479//603 478//522
f 479//523 480//523 485//524
f 475//520 467//510 477//526
f 469//509 478//604 477//526
f 471//514 473//514 480//523
f 473//517 475//519 481//528
f 485//530 486//605 491//531
f 477//526 478//604 483//533
f 481//528 486//605 485//530
f 478//522 479//603 484//535
f 477//526 482//534 486//537
f 491//538 487//542 492//539
f 484//535 489//548 488//541
f 486//537 482//534 487//542
f 485//524 490//606 489//543
f 483//533 488//547 487//542
f 489//543 490//606 495//544
f 488//547 493//549 492//539
f 490//532 491//531 496//540
f 489//548 494//546 493//549
f 524//550 502//550 503//550
f 503//550 504//607 498//550
f 498//550 499//550 523//550
f 523//550 524//550 503//550
f 508//551 503//551 502//552
f 501//554 498//554 504//555
f 523//556 499//557 500//557
f 521//142 520//141 500//558
f 500//558 501//608 507//558
f 507//558 508//558 505//558
f 505//558 506//609 521//142
f 521//142 500//558 507//558
f 498//554 501//554 500//557
f 522//560 506//562 505//553
f 505//553 502//552 524//559
f 504//555 503//551 508//551
f 514//550 513//550 529//550
f 529//550 528//550 510//550
f 510//550 509//550 515//550
f 515//550 514//550 529//550
f 513//563 514//557 519//557
f 515//564 509//555 512//555
f 511//551 510//551 528//565
f 527//400 525//588 517//558
f 517//558 516//558 519//558
f 519//558 518//558 512//558
f 512//558 511//558 527//400
f 527//400 517//558 519//558
f 510//551 511//551 512//555
f 529//567 513//563 516//563
f 516//563 517//568 526//566
f 519//557 514//557 515//564
f 532//135 533//571 530//569
f 530//569 536//574 537//188
f 532//135 534//191 535//570
f 537//188 536//574 535//570
f 538//397 540//396 541//415
f 545//192 544//395 538//397
f 542//573 544//395 545//192
f 542//573 543//417 541//415
f 533//571 535//570 536//574
