# Blender 4.5.2 LTS
# www.blender.org
o R
v -24.731983 5.215813 7.697239
v -24.731983 5.458099 7.261615
v -24.645977 5.099347 7.604356
v -24.645975 5.315486 7.218567
v -24.473963 5.099347 7.604356
v -24.473961 5.315486 7.218566
v -24.387957 5.215813 7.697239
v -24.387955 5.458100 7.261615
v -24.473963 5.332279 7.790123
v -24.473961 5.600713 7.304663
v -24.645977 5.332279 7.790123
v -24.645975 5.600713 7.304662
v -24.731983 4.720315 8.037961
v -24.645977 4.698777 7.890557
v -24.473963 4.698777 7.890557
v -24.387957 4.720315 8.037961
v -24.473963 4.741853 8.185365
v -24.645977 4.741853 8.185366
v -24.680935 3.209238 7.960479
v -24.620451 3.214353 7.855843
v -24.499485 3.214352 7.855844
v -24.439001 3.209238 7.960479
v -24.499485 3.204123 8.065115
v -24.620451 3.204123 8.065115
v -24.779778 2.825047 7.941700
v -24.669872 2.834340 7.751566
v -24.450064 2.834340 7.751566
v -24.340158 2.825046 7.941701
v -24.450064 2.815753 8.131834
v -24.669872 2.815753 8.131834
v -24.559969 2.423276 7.922062
v -23.608660 3.748850 -4.086307
v -23.608660 5.593347 -4.365764
v -23.532333 3.344516 -5.038613
v -23.960798 4.878955 -5.114736
v -23.532333 3.300591 -5.911191
v -23.960798 4.515872 -5.911193
v -23.789246 3.487388 -6.437875
v -24.095631 4.056575 -6.350648
v -23.324980 4.117184 -3.329772
v -23.789244 6.113037 -4.067221
v -23.180038 6.437902 -2.995401
v -23.129353 3.910679 -2.724695
v -23.065989 6.431435 -2.267911
v -22.974653 3.568779 -1.686642
v -22.924839 6.477648 -1.126592
v -22.768099 3.045369 1.725316
v -22.765978 6.471341 1.820311
v -22.867565 3.177602 3.025413
v -22.870384 6.489111 3.186794
v -23.153299 3.831707 4.982594
v -23.135416 6.160244 5.338130
v -23.333981 6.143841 6.248050
v -23.532326 5.568956 6.991631
v -23.789236 5.044775 7.351266
v -23.532331 6.268675 -3.531235
v -23.275421 4.344418 -3.637115
v -23.223293 4.602011 -4.259708
v -23.474329 4.143650 -5.076675
v -23.532333 3.508888 -4.528760
v -23.716427 5.054227 -4.756020
v -23.606577 3.927169 -5.911193
v -23.960798 4.713138 -5.522875
v -23.532333 3.279659 -5.513359
v -24.048815 3.768274 -6.491875
v -23.576342 3.384089 -6.202921
v -24.004807 4.270765 -6.202919
v -23.576342 5.992971 -4.129275
v -22.740629 5.280060 -3.158525
v -23.576340 6.150108 -3.838175
v -23.476431 4.033944 -3.796723
v -22.541302 5.173071 -2.496303
v -22.342743 4.965263 -1.406617
v -22.991610 6.393161 -1.721556
v -23.236399 3.740268 -2.264173
v -22.871658 6.459593 -0.570559
v -22.911842 3.365562 -1.246902
v -22.791246 6.410688 0.442271
v -22.094482 4.893001 1.772813
v -22.733955 6.460173 1.316509
v -22.733955 3.050946 1.188426
v -22.233894 4.966634 3.106103
v -22.921917 6.444158 3.733940
v -22.923180 3.316621 3.608966
v -22.493143 4.996676 5.322165
v -22.757008 5.066199 6.223508
v -22.878698 5.062566 6.740415
v -23.576334 5.304837 7.193865
v -23.576332 4.794906 7.296583
v -23.476431 4.149540 -3.517823
v -23.123177 5.217187 -3.606822
v -23.151249 5.138695 -3.935342
v -23.331060 4.318037 -4.640831
v -23.767975 3.838614 -6.205589
v -23.543642 4.023005 -5.518118
v -22.257553 4.976839 -0.791676
v -22.439985 5.077708 -1.992866
v -22.049198 4.864149 1.252467
v -22.132236 4.872005 0.331298
v -22.306967 4.968354 3.671453
v -23.213125 5.052998 7.105138
v -22.338577 5.815057 0.387964
v -22.854631 5.611818 6.233893
v -22.789408 5.908947 -3.092092
v -23.251127 5.843401 -3.882756
v -22.246639 5.785097 1.283107
v -22.501112 5.872295 -1.267809
v -22.367748 5.755530 3.139575
v -23.257196 5.333121 7.097920
v -22.733137 5.710004 5.329793
v -23.175537 5.843625 -3.573102
v -23.163902 5.413233 6.907798
v -22.649456 5.902003 -2.392562
v -22.437065 5.750318 3.697899
v -22.583153 5.886892 -1.858427
v -22.262606 5.751493 1.793913
v -23.440544 5.528718 -4.130136
v -22.426456 5.856308 -0.683990
v -22.229855 3.841153 1.750414
v -22.320654 4.026487 3.071842
v -22.346300 4.142062 -0.884722
v -23.026203 4.547520 -3.623799
v -22.167761 3.886964 1.224329
v -22.219526 3.995842 0.286366
v -22.379017 4.106061 3.645660
v -22.646217 4.375977 -2.607855
v -22.655767 4.332536 5.315536
v -22.529383 4.303745 -2.113250
v -22.868919 4.481457 -3.249547
v -23.185684 4.760227 7.061795
v -22.415363 4.221385 -1.519582
v -23.934231 3.444135 -4.050659
v -23.934231 5.784150 -4.404563
v -23.934233 3.002934 -5.031476
v -24.148464 5.119897 -5.121871
v -23.934233 3.002571 -5.911192
v -24.062689 3.323999 -6.451402
v -24.276920 3.998144 -6.364177
v -23.830555 3.791532 -3.366874
v -24.062687 6.319535 -4.080035
v -23.758083 6.836751 -2.965070
v -23.732740 3.482767 -2.767518
v -23.701057 6.872641 -2.225088
v -23.655390 2.992276 -1.739145
v -23.630482 7.070452 -1.074086
v -23.552111 2.479849 1.716411
v -23.551050 6.941651 1.829217
v -23.601845 2.639075 3.010284
v -23.603254 7.052533 3.201924
v -23.744711 3.488453 4.942362
v -23.735769 6.610026 5.341125
v -23.934225 6.473821 6.252653
v -23.934223 5.756494 7.083366
v -24.062679 5.069582 7.452261
v -23.934231 6.635090 -3.514504
v -24.148464 4.928223 -5.523767
v -23.934233 3.185493 -4.507354
v -24.152754 5.300933 -4.777821
v -23.934233 2.948920 -5.512469
v -24.192472 3.648531 -6.520267
v -23.956238 3.138373 -6.204256
v -23.906281 3.724899 -3.728785
v -23.906281 3.788291 -3.589334
v -23.956236 6.189461 -4.175695
v -23.663868 6.898572 -1.670686
v -23.878309 3.228566 -2.315042
v -23.634106 2.817833 -1.313002
v -23.603891 7.002025 -0.529100
v -23.563686 6.869731 0.463079
v -23.535040 2.500471 1.176419
v -23.535040 6.927515 1.328517
v -23.629652 2.815708 3.597250
v -23.629021 7.018438 3.745656
v -23.956228 4.737270 7.387823
v -23.956228 5.413977 7.330486
v -23.956236 6.469031 -3.824734
v -24.364096 5.562694 -6.745157
v -24.112902 4.720434 -6.095558
v -24.201450 4.877831 -5.936544
v -24.361012 4.279418 -6.541104
v -24.201450 4.388340 -6.431062
v -24.112902 4.545737 -6.272051
v -24.361012 4.986753 -5.826501
v -24.402893 5.556623 -6.842998
v -24.472803 5.552422 -6.910707
v -24.402893 5.575505 -6.538723
v -24.364096 5.569433 -6.636564
v -24.257538 5.145511 -6.523563
v -24.317440 5.207164 -6.385332
v -24.425381 4.972764 -6.910875
v -24.317440 5.015429 -6.815218
v -24.257538 5.077082 -6.676986
v -24.425381 5.249829 -6.289673
v -24.472803 5.579706 -6.471014
v -24.401285 5.089128 -6.123935
v -24.274023 5.022316 -6.223907
v -24.203398 4.925770 -6.368374
v -24.203398 4.818612 -6.528720
v -24.274023 4.722066 -6.673187
v -24.401285 4.655254 -6.773162
v -24.448400 5.395118 -6.400069
v -24.309263 5.324740 -6.741733
v -24.358921 5.299623 -6.863674
v -24.448400 5.282242 -6.948059
v -24.358921 5.377738 -6.484455
v -24.309263 5.352619 -6.606393
v -24.354033 5.127595 -5.432160
v -24.354031 5.402696 -5.013216
v -24.268724 5.265145 -5.222688
v -24.445108 5.304879 -5.565513
v -24.445108 5.500162 -5.365484
v -24.397528 5.402521 -5.465498
v -24.501520 5.555435 -5.658018
v -24.501520 5.624991 -5.533913
v -24.477304 5.590214 -5.595966
v -23.592178 2.574377 5.160179
v -23.068281 2.878447 5.231927
v -22.734831 3.262693 5.539877
v -23.011353 1.748281 5.718521
v -22.786219 3.414733 6.186170
v -23.319519 1.673291 5.436642
v -23.574009 1.638313 5.325621
v -23.050116 3.612578 6.772769
v -22.629883 4.046656 6.188224
v -22.515350 3.979789 5.664501
v -24.448277 2.886067 6.167215
v -24.314367 2.471457 5.379213
v -22.745689 4.043161 6.752800
v -23.096968 3.700969 6.939697
v -24.314367 3.635499 6.766935
v -23.779547 3.680633 7.112693
v -23.552654 2.159483 5.234376
v -23.215990 2.305643 5.318969
v -22.932764 2.623708 5.604947
v -23.017813 0.558744 5.584005
v -22.878378 2.556869 6.113882
v -23.255278 0.537754 5.483611
v -23.684942 0.515902 5.416351
v -24.271715 2.230410 6.019069
v -24.117128 2.095765 5.361385
v -24.187693 2.490626 6.539540
v -23.673061 2.577098 6.732983
v -23.234425 2.616931 6.628375
v -22.941525 1.699836 6.159996
v -24.112179 1.688555 5.931264
v -24.048450 1.703563 5.541031
v -23.951891 1.708402 6.303734
v -23.639185 1.702035 6.464787
v -23.340958 1.649243 6.403595
v -23.099220 0.527260 5.905072
v -24.021067 0.511726 5.779466
v -23.931011 0.490191 5.393974
v -23.802576 0.561063 6.338372
v -23.569527 0.526964 6.307070
v -23.274216 0.477015 6.246557
v -23.075064 -0.054712 5.692314
v -23.038614 -0.054836 5.859490
v -23.912045 -0.063462 5.714378
v -23.905268 -0.064858 5.516778
v -23.868385 -0.058304 6.333097
v -23.605013 -0.056093 6.368447
v -23.288382 -0.053034 6.263093
v -23.684570 0.177880 4.827125
v -23.254904 0.199731 4.894385
v -23.108517 0.220722 4.994779
v -23.710573 -0.062301 4.832516
v -23.906345 0.152167 5.035128
v -23.905268 -0.064858 4.927478
v -23.225599 -0.057971 4.911870
v -23.075064 -0.054713 5.103013
v -22.972059 2.185994 5.661734
v -23.267754 1.989467 5.377805
v -23.563332 1.898898 5.279999
v -23.287691 2.133087 6.515985
v -22.909950 2.128352 6.136938
v -24.191946 1.959482 5.975166
v -24.082790 1.899664 5.451207
v -23.656124 2.139567 6.598885
v -24.069792 2.099514 6.421638
v -23.139378 2.677625 0.712894
v -22.560005 3.609165 -0.585498
v -22.713203 1.555284 -0.375528
v -22.481453 3.593632 -0.131240
v -23.021370 1.480294 -0.657407
v -23.275860 1.445316 -0.768428
v -22.463367 3.355225 0.500308
v -24.042990 2.367592 0.399691
v -23.254503 1.863531 -0.939694
v -22.917837 2.009692 -0.855102
v -22.634613 2.327757 -0.569125
v -22.719664 0.558746 -0.510045
v -22.580227 2.260918 -0.060190
v -22.957129 0.537756 -0.610439
v -23.386795 0.515902 -0.677698
v -23.973564 1.934460 -0.155002
v -23.818977 1.799814 -0.812685
v -23.889540 2.194675 0.365468
v -23.374908 2.281147 0.558911
v -22.936272 2.320981 0.454304
v -22.643375 1.506838 0.065948
v -23.814030 1.495558 -0.162787
v -23.750301 1.510567 -0.553019
v -23.653742 1.515405 0.209684
v -23.341038 1.509038 0.370737
v -23.042809 1.456246 0.309546
v -22.801073 0.527261 -0.188978
v -23.722919 0.511727 -0.314584
v -23.632862 0.490191 -0.700076
v -23.504429 0.561064 0.244322
v -23.271378 0.526966 0.213020
v -22.976068 0.477017 0.152507
v -22.776915 -0.054713 -0.401735
v -22.740465 -0.054836 -0.234560
v -23.613895 -0.063462 -0.379672
v -23.607117 -0.064858 -0.577271
v -23.570236 -0.058303 0.239047
v -23.306864 -0.056093 0.274398
v -22.990232 -0.053034 0.169043
v -23.386421 0.177879 -1.266924
v -22.956753 0.199731 -1.199664
v -22.810366 0.220723 -1.099272
v -23.412422 -0.062300 -1.261534
v -23.608196 0.152168 -1.058921
v -23.607117 -0.064858 -1.166571
v -22.927448 -0.057971 -1.182178
v -22.776915 -0.054713 -0.991037
v -22.673908 1.914040 -0.512336
v -22.969603 1.717512 -0.796266
v -23.265181 1.626943 -0.894072
v -22.989540 1.861132 0.341913
v -22.611799 1.856397 -0.037131
v -23.893797 1.687527 -0.198905
v -23.784639 1.627709 -0.722863
v -23.357973 1.867611 0.424813
v -23.771641 1.827559 0.247565
v -24.110929 2.441098 -1.192039
v -24.241747 2.461334 -0.187756
v -25.511295 3.748850 -4.086305
v -25.511295 5.593347 -4.365763
v -25.587624 3.344515 -5.038612
v -25.159161 4.878955 -5.114734
v -25.587624 3.300591 -5.911191
v -25.159161 4.515872 -5.911191
v -25.330713 3.487387 -6.437873
v -25.024328 4.056575 -6.350647
v -25.794973 4.117184 -3.329771
v -25.330711 6.113036 -4.067219
v -25.939913 6.437902 -2.995399
v -25.990599 3.910679 -2.724693
v -26.053963 6.431435 -2.267911
v -26.145294 3.568778 -1.686641
v -26.195108 6.477648 -1.126590
v -26.351845 3.045368 1.725317
v -26.353966 6.471341 1.820312
v -26.252377 3.177602 3.025415
v -26.249557 6.489110 3.186796
v -25.966639 3.831707 4.982596
v -25.984526 6.160244 5.338132
v -25.785961 6.143841 6.248053
v -25.587614 5.568956 6.991633
v -25.330704 5.044775 7.351267
v -25.587622 6.268675 -3.531234
v -25.844532 4.344418 -3.637116
v -25.896664 4.602010 -4.259706
v -25.645628 4.143651 -5.076673
v -25.587624 3.508887 -4.528758
v -25.403528 5.054227 -4.756020
v -25.513382 3.927169 -5.911192
v -25.159161 4.713138 -5.522874
v -25.587624 3.279659 -5.513358
v -25.071144 3.768274 -6.491874
v -25.543615 3.384089 -6.202921
v -25.115152 4.270765 -6.202919
v -25.543613 5.992971 -4.129275
v -26.379322 5.280060 -3.158522
v -25.543613 6.150107 -3.838172
v -25.643524 4.033944 -3.796723
v -26.578650 5.173070 -2.496302
v -26.777205 4.965262 -1.406615
v -26.128340 6.393161 -1.721554
v -25.883551 3.740268 -2.264172
v -26.248287 6.459592 -0.570558
v -26.208103 3.365561 -1.246902
v -26.328697 6.410687 0.442273
v -27.025461 4.893000 1.772815
v -26.385988 6.460173 1.316511
v -26.385990 3.050946 1.188427
v -26.886047 4.966633 3.106106
v -26.198025 6.444158 3.733942
v -26.196760 3.316621 3.608967
v -26.626797 4.996676 5.322166
v -26.362932 5.066198 6.223510
v -26.241241 5.062566 6.740418
v -25.543606 5.304836 7.193866
v -25.543606 4.794905 7.296584
v -25.643522 4.149540 -3.517822
v -25.996777 5.217187 -3.606821
v -25.968706 5.138695 -3.935340
v -25.788895 4.318037 -4.640829
v -25.351982 3.838614 -6.205587
v -25.576317 4.023005 -5.518117
v -26.862392 4.976839 -0.791674
v -26.679964 5.077708 -1.992863
v -27.070744 4.864148 1.252469
v -26.987709 4.872005 0.331301
v -26.812975 4.968353 3.671455
v -25.906815 5.052998 7.105139
v -26.781368 5.815056 0.387967
v -26.265308 5.611818 6.233895
v -26.330544 5.908947 -3.092090
v -25.868828 5.843401 -3.882756
v -26.873304 5.785097 1.283109
v -26.618835 5.872294 -1.267808
v -26.752193 5.755530 3.139577
v -25.862743 5.333121 7.097922
v -26.386805 5.710004 5.329795
v -25.944416 5.843625 -3.573100
v -25.956038 5.413233 6.907800
v -26.470495 5.902003 -2.392561
v -26.682878 5.750318 3.697902
v -26.536795 5.886891 -1.858424
v -26.857336 5.751493 1.793915
v -25.679411 5.528719 -4.130134
v -26.693489 5.856308 -0.683988
v -26.890087 3.841152 1.750416
v -26.799288 4.026486 3.071844
v -26.773647 4.142061 -0.884720
v -26.093750 4.547520 -3.623798
v -26.952183 3.886963 1.224331
v -26.900419 3.995840 0.286368
v -26.740925 4.106062 3.645662
v -26.473734 4.375977 -2.607852
v -26.464170 4.332536 5.315538
v -26.590569 4.303745 -2.113247
v -26.251032 4.481457 -3.249546
v -25.934254 4.760227 7.061796
v -26.704584 4.221385 -1.519580
v -25.185724 3.444134 -4.050660
v -25.185724 5.784150 -4.404563
v -25.185724 3.002934 -5.031475
v -24.971493 5.119897 -5.121870
v -25.185724 3.002571 -5.911192
v -25.057270 3.323999 -6.451402
v -24.843039 3.998144 -6.364177
v -25.289398 3.791532 -3.366873
v -25.057268 6.319535 -4.080035
v -25.361868 6.836751 -2.965068
v -25.387211 3.482767 -2.767518
v -25.418892 6.872641 -2.225087
v -25.464558 2.992276 -1.739145
v -25.489464 7.070452 -1.074086
v -25.567831 2.479849 1.716412
v -25.568892 6.941651 1.829218
v -25.518097 2.639074 3.010285
v -25.516689 7.052533 3.201925
v -25.375227 3.488452 4.942363
v -25.384172 6.610026 5.341125
v -25.185717 6.473821 6.252653
v -25.185717 5.756493 7.083367
v -25.057261 5.069582 7.452261
v -25.185722 6.635090 -3.514504
v -24.971493 4.928223 -5.523767
v -25.185724 3.185492 -4.507352
v -24.967203 5.300933 -4.777818
v -25.185724 2.948920 -5.512468
v -24.927486 3.648531 -6.520267
v -25.163721 3.138372 -6.204254
v -25.213675 3.724898 -3.728783
v -25.213675 3.788290 -3.589332
v -25.163719 6.189460 -4.175694
v -25.456081 6.898572 -1.670686
v -25.241640 3.228566 -2.315041
v -25.485842 2.817832 -1.313002
v -25.516054 7.002025 -0.529099
v -25.556259 6.869730 0.463081
v -25.584904 2.500471 1.176420
v -25.584904 6.927515 1.328518
v -25.490290 2.815707 3.597251
v -25.490921 7.018438 3.745657
v -25.163712 4.737269 7.387824
v -25.163712 5.413977 7.330487
v -25.163719 6.469031 -3.824733
v -24.559978 3.374311 -4.015014
v -24.559978 5.799648 -4.535660
v -24.559978 2.974106 -5.024337
v -24.559978 2.935527 -5.950440
v -24.559978 3.334861 -6.504176
v -24.559978 4.076836 -6.377704
v -24.559977 3.639465 -3.403975
v -24.559977 6.487799 -4.092851
v -24.559977 7.106090 -2.934738
v -24.559975 3.282928 -2.810341
v -24.559975 7.178003 -2.182265
v -24.559975 2.730407 -1.791650
v -24.559973 7.492501 -1.021581
v -24.559971 2.319395 1.707505
v -24.559971 7.263939 1.838123
v -24.559971 2.477513 2.995155
v -24.559971 7.448364 3.217054
v -24.559969 3.372269 5.300213
v -24.559971 6.970311 5.344119
v -24.559969 3.840310 6.189763
v -24.559971 6.672675 6.257255
v -24.559969 6.005158 7.175104
v -24.559969 5.042429 7.553257
v -24.559977 6.907582 -3.497771
v -24.559978 5.015154 -5.524661
v -24.559978 3.142634 -4.485948
v -24.559978 5.440367 -4.782194
v -24.559978 2.940466 -5.511574
v -24.559978 3.645766 -6.587904
v -24.559978 3.099664 -6.244834
v -24.559977 3.601198 -3.660844
v -24.559977 6.139117 -4.314412
v -24.559975 7.263563 -1.619814
v -24.559975 2.989797 -2.365911
v -24.559973 2.645711 -1.095708
v -24.559973 7.385780 -0.487640
v -24.559973 2.536478 0.178713
v -24.559973 7.193442 0.483887
v -24.559973 2.351422 1.164411
v -24.559971 7.249328 1.340526
v -24.559969 2.660589 3.585535
v -24.559971 7.431144 3.757374
v -24.559969 4.686319 7.486301
v -24.559969 5.410379 7.467108
v -24.559977 6.723338 -3.811294
v -24.755863 5.562694 -6.745158
v -25.007057 4.720434 -6.095556
v -24.918509 4.877831 -5.936545
v -24.758947 4.279418 -6.541104
v -24.918509 4.388340 -6.431062
v -25.007057 4.545737 -6.272049
v -24.758947 4.986752 -5.826501
v -24.559978 5.025626 -5.787229
v -24.717066 5.556623 -6.842998
v -24.647156 5.552422 -6.910707
v -24.717066 5.575505 -6.538723
v -24.559978 4.240544 -6.580378
v -24.755863 5.569433 -6.636563
v -24.862421 5.145511 -6.523561
v -24.802519 5.207164 -6.385332
v -24.694578 4.972764 -6.910875
v -24.802519 5.015429 -6.815216
v -24.862421 5.077083 -6.676987
v -24.694578 5.249828 -6.289673
v -24.559978 5.265056 -6.255534
v -24.559980 4.957537 -6.945014
v -24.647156 5.579706 -6.471014
v -24.559978 5.581205 -6.446849
v -24.559980 5.550922 -6.934873
v -24.559980 6.524506 -6.627182
v -24.559978 5.112973 -6.088253
v -24.718674 5.089128 -6.123934
v -24.845936 5.022316 -6.223907
v -24.916561 4.925770 -6.368375
v -24.916561 4.818612 -6.528721
v -24.559980 4.631409 -6.808842
v -24.845936 4.722066 -6.673188
v -24.718674 4.655254 -6.773162
v -24.559978 5.401322 -6.369953
v -24.671558 5.395118 -6.400069
v -24.810696 5.324740 -6.741733
v -24.559980 5.276039 -6.978177
v -24.761038 5.299623 -6.863674
v -24.671558 5.282242 -6.948059
v -24.761038 5.377738 -6.484456
v -24.810696 5.352619 -6.606393
v -24.559978 5.070621 -5.518929
v -24.765926 5.127595 -5.432161
v -24.765926 5.402696 -5.013214
v -24.559978 5.459670 -4.926449
v -24.851233 5.265145 -5.222687
v -24.559978 5.264434 -5.606941
v -24.674849 5.304879 -5.565513
v -24.674849 5.500162 -5.365484
v -24.559978 5.540606 -5.324057
v -24.722429 5.402520 -5.465498
v -24.559978 5.541030 -5.683719
v -24.618439 5.555435 -5.658018
v -24.618439 5.624991 -5.533912
v -24.559978 5.639398 -5.508212
v -24.642653 5.590214 -5.595966
v -24.559978 5.810802 -5.717086
v -25.527760 2.574377 5.160180
v -26.051657 2.878447 5.231929
v -26.385105 3.262693 5.539879
v -26.108585 1.748281 5.718524
v -26.333717 3.414732 6.186172
v -25.800421 1.673290 5.436644
v -25.545929 1.638313 5.325622
v -26.069820 3.612578 6.772771
v -26.490053 4.046655 6.188226
v -26.604588 3.979788 5.664504
v -24.671659 2.886068 6.167216
v -24.805569 2.471457 5.379214
v -26.374247 4.043161 6.752803
v -26.022968 3.700969 6.939699
v -24.805569 3.635499 6.766935
v -25.340389 3.680633 7.112693
v -25.567284 2.159483 5.234378
v -25.903948 2.305643 5.318970
v -26.187172 2.623707 5.604949
v -26.102125 0.558744 5.584007
v -26.241558 2.556869 6.113883
v -25.864662 0.537754 5.483613
v -25.434998 0.515901 5.416354
v -24.848221 2.230411 6.019069
v -25.002810 2.095765 5.361385
v -24.932243 2.490627 6.539540
v -25.446875 2.577098 6.732984
v -25.885511 2.616931 6.628377
v -26.178413 1.699835 6.159998
v -25.007761 1.688554 5.931264
v -25.071487 1.703562 5.541032
v -25.168047 1.708402 6.303735
v -25.480753 1.702034 6.464787
v -25.778980 1.649242 6.403597
v -26.020718 0.527259 5.905074
v -25.098871 0.511726 5.779468
v -25.188929 0.490190 5.393976
v -25.317362 0.561063 6.338373
v -25.550411 0.526963 6.307071
v -25.845722 0.477015 6.246559
v -26.044874 -0.054713 5.692317
v -26.081324 -0.054837 5.859493
v -25.207893 -0.063463 5.714380
v -25.214672 -0.064859 5.516781
v -25.251553 -0.058304 6.333098
v -25.514925 -0.056094 6.368449
v -25.831556 -0.053035 6.263096
v -25.435369 0.177878 4.827128
v -25.865036 0.199730 4.894388
v -26.011423 0.220721 4.994781
v -25.409367 -0.062303 4.832518
v -25.213594 0.152167 5.035131
v -25.214672 -0.064859 4.927480
v -25.894341 -0.057973 4.911873
v -26.044876 -0.054715 5.103016
v -26.147879 2.185995 5.661736
v -25.852184 1.989467 5.377807
v -25.556606 1.898898 5.280001
v -25.832245 2.133087 6.515987
v -26.209986 2.128352 6.136940
v -24.927990 1.959483 5.975167
v -25.037148 1.899664 5.451208
v -25.463814 2.139566 6.598886
v -25.050146 2.099514 6.421638
v -25.980566 2.677624 0.712896
v -26.559942 3.609164 -0.585497
v -26.406744 1.555284 -0.375527
v -26.638493 3.593631 -0.131238
v -26.098579 1.480293 -0.657406
v -25.844088 1.445315 -0.768428
v -26.656576 3.355224 0.500311
v -25.076956 2.367591 0.399693
v -25.865444 1.863531 -0.939693
v -26.202110 2.009691 -0.855102
v -26.485334 2.327756 -0.569123
v -26.400284 0.558744 -0.510044
v -26.539721 2.260917 -0.060188
v -26.162821 0.537754 -0.610437
v -25.733154 0.515902 -0.677697
v -25.146383 1.934459 -0.155003
v -25.300970 1.799814 -0.812685
v -25.230406 2.194674 0.365469
v -25.745037 2.281147 0.558913
v -26.183674 2.320979 0.454306
v -26.476574 1.506838 0.065949
v -25.305920 1.495557 -0.162786
v -25.369646 1.510565 -0.553018
v -25.466208 1.515405 0.209685
v -25.778912 1.509037 0.370738
v -26.077141 1.456246 0.309547
v -26.318876 0.527260 -0.188976
v -25.397030 0.511726 -0.314583
v -25.487087 0.490191 -0.700076
v -25.615520 0.561063 0.244324
v -25.848570 0.526965 0.213021
v -26.143881 0.477016 0.152509
v -26.343035 -0.054714 -0.401735
v -26.379482 -0.054838 -0.234559
v -25.506054 -0.063463 -0.379672
v -25.512833 -0.064858 -0.577271
v -25.549713 -0.058304 0.239047
v -25.813084 -0.056094 0.274398
v -26.129715 -0.053035 0.169045
v -25.733530 0.177879 -1.266924
v -26.163197 0.199731 -1.199663
v -26.309584 0.220723 -1.099270
v -25.707527 -0.062302 -1.261536
v -25.511755 0.152167 -1.058922
v -25.512833 -0.064858 -1.166573
v -26.192501 -0.057973 -1.182179
v -26.343035 -0.054714 -0.991035
v -26.446039 1.914038 -0.512335
v -26.150345 1.717511 -0.796265
v -25.854767 1.626942 -0.894071
v -26.130407 1.861131 0.341915
v -26.508146 1.856396 -0.037131
v -25.226151 1.687527 -0.198906
v -25.335308 1.627709 -0.722863
v -25.761974 1.867611 0.424814
v -25.348307 1.827559 0.247566
v -25.009018 2.441097 -1.192040
v -24.878199 2.461333 -0.187756
v -22.910086 6.110106 -4.741214
v -23.654472 6.480139 -4.787636
v -26.209871 6.110106 -4.741212
v -25.465485 6.480138 -4.973453
v -23.125311 6.535092 -4.762209
v -25.994646 6.535092 -4.859547
v -23.763733 5.243255 -4.914598
v -23.807276 5.209444 -4.914598
v -23.807276 5.209445 -5.034570
v -23.763733 5.243256 -5.034570
v -23.660946 5.209444 -4.914598
v -23.704491 5.243255 -4.914598
v -23.660946 4.597597 -5.034571
v -23.704491 5.243256 -5.034570
v -23.660946 5.209444 -5.034571
v -25.356232 5.243256 -4.914596
v -25.312687 5.209444 -4.914596
v -25.312687 5.209445 -5.034568
v -25.356232 5.243256 -5.034568
v -25.459017 5.209445 -4.914596
v -25.415472 5.243255 -4.914596
v -25.459017 4.597597 -5.034569
v -25.415472 5.243256 -5.034569
v -25.459017 5.209445 -5.034568
v -23.807276 4.948621 -4.914598
v -23.807276 4.864642 -4.966960
v -23.807276 4.756211 -5.034571
v -23.660946 4.597597 -4.984111
v -23.660946 4.709080 -4.914598
v -23.694477 4.571560 -5.034570
v -25.312687 4.948610 -4.914597
v -25.312687 4.864634 -4.966959
v -25.312687 4.756200 -5.034568
v -25.459017 4.597598 -4.984102
v -25.459017 4.709069 -4.914596
v -25.425482 4.571558 -5.034569
vn -0.9974 0.0490 0.0530
vn -0.5237 -0.7436 -0.4157
vn -0.5322 -0.6288 -0.5668
vn 0.5322 -0.6288 -0.5668
vn 0.5237 -0.7436 -0.4157
vn 0.9974 0.0490 0.0530
vn 0.9976 0.0606 0.0330
vn 0.4688 0.6525 0.5953
vn -0.9948 0.0238 0.0985
vn -0.4966 0.0715 0.8650
vn -0.4609 0.2174 0.8604
vn -0.4648 0.7749 0.4285
vn -0.4688 0.6525 0.5953
vn -0.9976 0.0606 0.0330
vn -0.5490 -0.2584 -0.7948
vn 0.4609 0.2174 0.8604
vn 0.5490 -0.2584 -0.7948
vn 0.9948 0.0238 0.0985
vn 0.4969 -0.1536 0.8541
vn 0.4966 0.0715 0.8650
vn 0.9935 0.1139 0.0051
vn -0.4964 0.1573 -0.8537
vn 0.4964 0.1573 -0.8537
vn -0.9935 0.1139 0.0051
vn -0.4969 -0.1536 0.8541
vn -0.9937 -0.1115 -0.0055
vn -0.0000 -0.9988 -0.0488
vn 0.4969 -0.0695 -0.8650
vn -0.4969 -0.0695 -0.8650
vn 0.9937 -0.1115 -0.0055
vn 0.8458 0.4792 0.2345
vn 0.6117 0.6606 -0.4352
vn 0.7991 0.2651 -0.5396
vn 0.7971 0.3894 -0.4616
vn 0.6044 0.6567 -0.4510
vn 0.9814 -0.0529 -0.1843
vn 0.7946 -0.5844 0.1645
vn 0.7815 -0.5299 0.3295
vn 0.7248 0.5146 -0.4582
vn 0.5939 0.7543 -0.2798
vn 0.6911 0.6115 -0.3853
vn 0.8349 0.4578 -0.3055
vn 0.9126 0.1565 -0.3777
vn 0.9020 0.4092 -0.1376
vn 0.9525 0.1537 -0.2629
vn 0.8497 -0.4741 0.2307
vn 0.8869 -0.4518 0.0960
vn 0.6159 0.2058 -0.7605
vn 0.8850 0.1735 -0.4320
vn 0.3943 0.8444 -0.3628
vn 0.6474 0.4448 -0.6189
vn 0.9725 -0.0063 -0.2328
vn 0.3551 -0.8590 0.3688
vn 0.3883 -0.7634 0.5162
vn 0.4183 0.7039 -0.5741
vn 0.6644 0.0960 -0.7412
vn 0.8965 0.3060 -0.3205
vn 0.7716 0.2884 -0.5669
vn 0.8273 -0.2805 -0.4868
vn 0.7017 0.3757 -0.6054
vn 0.5494 -0.1044 -0.8290
vn 0.2581 0.3206 -0.9114
vn 0.4594 0.1906 -0.8675
vn 0.7926 0.5616 -0.2376
vn 0.9489 0.2462 -0.1973
vn 0.9021 -0.4314 -0.0069
vn 0.3485 -0.9153 0.2017
vn -0.0000 -0.9997 0.0228
vn 0.3358 -0.9419 -0.0101
vn 0.3501 -0.9045 -0.2436
vn 0.0713 0.0394 -0.9967
vn 0.1087 0.0849 -0.9905
vn 0.1936 -0.5091 -0.8386
vn -0.0000 -0.9704 -0.2416
vn 0.3129 -0.7924 -0.5237
vn -0.0000 -0.8178 -0.5755
vn 0.7649 -0.0657 -0.6407
vn 0.4241 -0.8355 -0.3493
vn -0.0000 -0.8641 -0.5033
vn -0.0000 -0.9767 -0.2148
vn -0.0000 -0.9206 0.3905
vn -0.0000 -0.8648 0.5022
vn 0.6318 0.7031 -0.3263
vn 0.8346 0.3728 -0.4055
vn 0.4282 -0.8915 0.1477
vn -0.0031 0.2831 -0.9591
vn -0.0000 0.5438 -0.8392
vn 0.1052 0.8782 -0.4667
vn 0.3194 0.6916 -0.6478
vn 0.7117 -0.5792 -0.3976
vn 0.6463 -0.7476 -0.1530
vn 0.8802 0.0243 -0.4740
vn 0.9184 0.0993 -0.3830
vn 0.4466 0.8566 -0.2586
vn 0.4669 0.7670 -0.4402
vn 0.8188 -0.3731 -0.4363
vn -0.0000 0.9939 -0.1103
vn 0.4802 0.8615 -0.1652
vn 0.4500 0.8897 -0.0767
vn -0.0000 0.9674 -0.2531
vn 0.5068 0.8572 -0.0917
vn 0.6785 0.7306 -0.0767
vn 0.8635 -0.4121 -0.2907
vn 0.9726 0.0364 -0.2297
vn 0.9226 -0.3327 -0.1953
vn 0.7464 -0.4552 -0.4854
vn 0.6639 -0.6307 -0.4017
vn 0.9046 0.4086 -0.1217
vn 0.9911 0.0584 -0.1201
vn 0.9885 0.0485 -0.1435
vn 0.9422 -0.2958 -0.1574
vn 0.9233 -0.2903 -0.2514
vn 0.9047 0.4208 -0.0664
vn 0.6957 0.7181 -0.0200
vn 0.6693 0.7414 -0.0487
vn 0.6199 -0.7149 -0.3235
vn 0.6361 -0.7232 -0.2690
vn 0.9007 0.4120 -0.1376
vn 0.9843 0.0546 -0.1680
vn 0.8984 0.4267 -0.1042
vn 0.8765 -0.3976 -0.2713
vn 0.4331 -0.8193 -0.3757
vn 0.4123 -0.8062 -0.4244
vn 0.4522 -0.7865 -0.4207
vn 0.2967 -0.6234 -0.7234
vn -0.0000 0.9991 0.0429
vn 0.4907 0.8666 0.0902
vn -0.0000 0.9835 0.1806
vn 0.9939 0.0567 -0.0950
vn 0.9092 0.4084 -0.0814
vn 0.9142 0.4051 -0.0131
vn 0.6774 0.7352 -0.0253
vn 0.9954 0.0384 0.0875
vn 0.9990 0.0451 -0.0003
vn 0.7154 -0.6975 0.0421
vn 0.9252 -0.3678 0.0933
vn 0.7095 -0.7005 0.0766
vn 0.4080 0.9121 -0.0403
vn 0.4259 0.9048 -0.0006
vn 0.9931 0.0398 0.1102
vn 0.9212 0.3839 0.0633
vn 0.9244 0.3699 0.0933
vn 0.3612 -0.9324 0.0122
vn 0.3755 -0.9256 0.0485
vn -0.0000 0.9990 -0.0454
vn 0.4220 0.9063 -0.0222
vn 0.9324 -0.3353 0.1349
vn 0.6735 -0.6768 0.2972
vn 0.7066 -0.6843 0.1800
vn 0.9909 0.0268 0.1318
vn 0.7152 0.6954 0.0700
vn 0.6813 0.7312 0.0343
vn 0.9163 0.3778 0.1331
vn 0.9843 0.0852 0.1544
vn 0.3537 -0.8636 0.3594
vn 0.3740 -0.9044 0.2051
vn -0.0000 0.9992 -0.0410
vn 0.5104 0.8452 0.1583
vn 0.4941 0.8694 0.0066
vn -0.9560 -0.2111 0.2037
vn -0.6652 -0.3072 0.6806
vn -0.7186 -0.3226 0.6161
vn 0.9006 -0.3246 -0.2892
vn 0.9855 -0.1368 -0.1006
vn 0.9197 -0.2235 -0.3228
vn 0.4882 0.8449 0.2187
vn 0.7150 0.6806 0.1596
vn 0.8503 0.4391 0.2901
vn 0.8508 0.1977 0.4869
vn 0.9628 0.1549 0.2213
vn 0.5700 0.7270 0.3827
vn 0.6687 0.7194 0.1876
vn 0.8314 -0.1273 0.5409
vn 0.9762 -0.0541 0.2100
vn 0.3942 0.6185 0.6798
vn 0.5569 0.3956 0.7303
vn 0.6492 0.5036 0.5700
vn 0.3612 0.6007 0.7132
vn 0.2813 -0.8756 -0.3928
vn 0.5774 -0.2368 -0.7814
vn 0.0167 -0.2034 -0.9790
vn 0.1775 -0.2254 0.9580
vn 0.3387 0.1072 0.9348
vn 0.2574 0.0664 0.9640
vn -0.0000 0.3653 0.9309
vn 0.3024 0.4083 0.8613
vn -0.0000 0.6823 -0.7310
vn 0.4505 0.7350 -0.5068
vn -0.0000 0.8261 -0.5635
vn 0.7049 0.7006 -0.1104
vn 0.6939 0.7126 -0.1035
vn 0.9597 -0.2539 -0.1208
vn 0.9448 -0.3269 0.0208
vn 0.7197 -0.6354 -0.2799
vn 0.9151 -0.3522 0.1962
vn 0.7311 0.4482 -0.5144
vn 0.9201 0.1022 -0.3781
vn 0.5395 -0.2684 0.7980
vn -0.0465 -0.2857 0.9572
vn 0.5458 -0.2732 0.7921
vn 0.6077 0.0714 0.7910
vn -0.0000 -0.9779 0.2090
vn -0.0000 -0.9995 0.0309
vn 0.5966 -0.0195 0.8023
vn -0.3002 -0.9346 0.1906
vn -0.0000 -0.9993 -0.0367
vn -0.0000 -0.9938 -0.1110
vn -0.7621 -0.3115 -0.5676
vn -0.0000 -0.8971 -0.4418
vn -0.0000 -0.9320 0.3624
vn 0.7435 -0.3239 -0.5850
vn 0.3066 0.4197 0.8543
vn 0.4794 0.7986 -0.3638
vn -0.0000 -0.3848 0.9230
vn -0.0000 0.0148 0.9999
vn -0.1272 -0.2989 0.9458
vn -0.0000 0.9624 0.2717
vn 0.3741 0.8254 0.4228
vn 0.8569 0.4777 0.1936
vn -0.0000 -0.9479 -0.3187
vn -0.0000 -0.9622 -0.2722
vn -0.0000 -0.8781 -0.4784
vn 0.5569 -0.6683 -0.4931
vn 0.4241 -0.7737 0.4706
vn 0.7419 0.6692 -0.0419
vn 0.3752 0.9233 0.0817
vn 0.8979 -0.4159 -0.1446
vn -0.0000 -0.4917 -0.8708
vn -0.0000 0.0905 -0.9959
vn -0.0000 0.8942 -0.4476
vn 0.5503 0.8349 0.0113
vn -0.0000 0.9873 0.1589
vn -0.0000 0.5536 -0.8328
vn -0.0000 -0.9813 0.1924
vn -0.0000 -0.9284 0.3715
vn -0.0000 -0.2172 -0.9761
vn 0.3798 -0.4444 -0.8114
vn 0.6190 0.3117 -0.7209
vn 0.8546 0.4462 -0.2656
vn -0.0000 0.7885 -0.6150
vn -0.0000 0.9890 0.1481
vn -0.0000 0.9003 -0.4353
vn -0.0000 0.6430 0.7659
vn -0.0000 0.8963 0.4434
vn -0.0000 0.9981 -0.0624
vn -0.0000 0.9791 -0.2032
vn 0.9538 -0.2605 -0.1498
vn 0.9099 -0.4111 0.0558
vn 0.4626 0.7845 0.4131
vn -0.0000 0.6946 0.7194
vn -0.0000 0.8775 0.4796
vn 0.7918 0.5632 0.2365
vn 0.4786 0.6244 0.6173
vn 0.9600 0.0480 -0.2758
vn 0.9599 0.2728 0.0643
vn 0.9531 0.3028 -0.0040
vn -0.0000 -0.4456 -0.8952
vn 0.4814 -0.2001 -0.8534
vn 0.4797 -0.3708 -0.7952
vn 0.8099 -0.1859 -0.5564
vn 0.9627 0.0909 -0.2549
vn 0.8112 -0.0741 -0.5800
vn 0.4832 0.4779 0.7336
vn -0.0000 0.2947 0.9556
vn -0.0000 0.5263 0.8503
vn 0.8082 0.3716 0.4568
vn 0.4909 0.2800 0.8250
vn 0.9580 0.2618 0.1167
vn 0.9530 0.2218 -0.2064
vn 0.9594 0.2335 0.1584
vn 0.4747 0.0446 -0.8790
vn -0.0000 0.2276 -0.9738
vn 0.4721 0.2250 -0.8523
vn 0.9563 0.1742 -0.2347
vn 0.7989 0.2205 -0.5596
vn 0.8027 0.1002 -0.5879
vn 0.8152 0.2544 0.5204
vn 0.8069 0.4605 0.3699
vn -0.0000 0.9983 0.0588
vn -0.0000 -0.6534 -0.7570
vn -0.0000 0.0231 -0.9997
vn -0.0000 0.9511 0.3089
vn 0.9192 0.2635 -0.2927
vn 0.7077 -0.0451 -0.7050
vn 0.9469 0.2748 -0.1668
vn 0.6718 -0.1569 -0.7240
vn -0.0000 -0.1943 -0.9809
vn 0.6933 0.7119 0.1116
vn -0.0000 -0.1311 -0.9914
vn 0.7095 0.6276 0.3205
vn -0.0000 0.8760 -0.4823
vn -0.0000 0.8320 0.5548
vn 0.9063 -0.2430 -0.3459
vn 0.5559 -0.2187 -0.8020
vn 0.9317 -0.2251 0.2852
vn 0.4724 -0.2110 0.8558
vn 0.9028 -0.1614 0.3986
vn 0.9480 -0.0570 0.3130
vn 0.8752 -0.2623 0.4066
vn -0.9481 -0.3024 0.0984
vn -0.7198 -0.2431 0.6502
vn -0.6638 -0.3761 0.6465
vn -0.6328 -0.3328 -0.6992
vn 0.0778 -0.1825 -0.9801
vn -0.9418 -0.3175 0.1110
vn -0.1179 -0.2052 0.9716
vn 0.3725 -0.2044 0.9052
vn -0.0000 -0.6515 0.7587
vn 0.9407 -0.0207 0.3385
vn 0.0397 -0.2202 -0.9746
vn 0.5326 -0.0970 -0.8408
vn 0.0038 -0.0767 -0.9970
vn -0.8006 -0.1900 -0.5683
vn -0.7083 -0.3927 -0.5866
vn -0.9740 -0.1937 0.1179
vn -0.5087 -0.0281 0.8605
vn 0.1661 -0.0161 0.9860
vn 0.6222 -0.0017 0.7829
vn -0.0647 -0.3039 0.9505
vn 0.9523 -0.1640 0.2573
vn 0.7932 -0.5993 0.1080
vn 0.2269 0.4933 -0.8397
vn 0.0403 0.4233 -0.9051
vn -0.7435 0.1654 -0.6480
vn -0.9953 -0.0866 0.0443
vn -0.5593 -0.5918 0.5804
vn 0.0814 -0.6465 0.7586
vn 0.4775 -0.6287 0.6137
vn 0.5529 -0.2186 -0.8041
vn 0.9008 -0.0871 -0.4255
vn 0.9069 -0.1406 -0.3972
vn 0.7058 0.4056 -0.5808
vn 0.2801 0.4531 -0.8463
vn -0.6593 -0.7508 -0.0411
vn -0.6457 -0.7635 0.0146
vn 0.6834 -0.7294 -0.0293
vn 0.9496 0.1419 -0.2794
vn 0.7165 -0.6593 -0.2281
vn -0.1210 -0.6468 -0.7530
vn -0.2098 0.4701 -0.8573
vn -0.6984 -0.5484 -0.4599
vn -0.8516 0.3719 -0.3694
vn 0.3663 -0.6628 -0.6531
vn 0.3613 -0.0430 0.9315
vn -0.6007 -0.7994 -0.0088
vn -0.5717 -0.4775 0.6672
vn 0.4969 -0.7045 0.5067
vn 0.5458 -0.3320 0.7693
vn 0.9233 -0.1232 -0.3637
vn 0.5831 -0.2297 -0.7792
vn 0.4795 -0.1499 0.8647
vn 0.8913 -0.1372 0.4322
vn 0.9589 -0.0442 0.2804
vn -0.9342 -0.3487 0.0752
vn -0.7024 -0.1986 0.6835
vn -0.6667 -0.3746 0.6444
vn -0.3998 -0.4962 -0.7707
vn 0.1408 -0.2759 -0.9508
vn -0.1234 -0.1231 0.9847
vn 0.3764 -0.1591 0.9127
vn -0.0599 -0.3141 0.9475
vn 0.9410 -0.0301 0.3371
vn 0.0770 -0.4055 -0.9108
vn 0.5503 -0.2537 -0.7955
vn 0.0415 -0.3243 -0.9450
vn -0.6574 -0.5533 -0.5115
vn -0.8197 -0.3838 -0.4253
vn -0.9605 -0.2340 0.1504
vn -0.5092 -0.0418 0.8597
vn 0.1643 -0.0283 0.9860
vn 0.6244 -0.0074 0.7811
vn -0.0778 -0.2589 0.9628
vn 0.2303 0.4897 -0.8409
vn 0.0411 0.4144 -0.9092
vn -0.7437 0.1614 -0.6487
vn -0.9945 -0.0952 0.0431
vn 0.5548 -0.3571 -0.7515
vn 0.9105 -0.1522 -0.3844
vn 0.8998 -0.1902 -0.3927
vn 0.9645 -0.1568 0.2127
vn 0.9494 0.1418 -0.2803
vn -0.6291 -0.5074 -0.5888
vn -0.9108 -0.3937 0.1246
vn -0.5141 0.7831 -0.3500
vn -0.7476 0.6363 0.1903
vn -0.7992 0.4205 -0.4295
vn -0.5909 0.6686 -0.4515
vn -0.7971 0.3894 -0.4616
vn -0.6044 0.6567 -0.4510
vn -0.7946 -0.5844 0.1645
vn -0.9812 -0.0554 -0.1848
vn -0.7815 -0.5299 0.3295
vn -0.7608 0.2587 -0.5952
vn -0.6929 0.0324 -0.7203
vn -0.9258 0.1005 -0.3643
vn -0.5939 0.7543 -0.2798
vn -0.7248 0.5146 -0.4582
vn -0.6911 0.6115 -0.3853
vn -0.8349 0.4578 -0.3055
vn -0.9126 0.1565 -0.3777
vn -0.7716 0.2884 -0.5669
vn -0.8497 -0.4741 0.2307
vn -0.9525 0.1537 -0.2629
vn -0.8869 -0.4518 0.0960
vn -0.3943 0.8444 -0.3628
vn 0.4155 0.4813 -0.7718
vn -0.8850 0.1735 -0.4320
vn -0.6159 0.2058 -0.7605
vn -0.6474 0.4448 -0.6189
vn -0.9725 -0.0063 -0.2328
vn -0.3551 -0.8590 0.3688
vn -0.3485 -0.9153 0.2017
vn -0.3883 -0.7634 0.5162
vn -0.4183 0.7039 -0.5741
vn 0.0959 0.2403 -0.9659
vn -0.8965 0.3060 -0.3205
vn -0.8273 -0.2805 -0.4868
vn -0.8979 -0.4159 -0.1446
vn -0.7017 0.3757 -0.6054
vn -0.5494 -0.1044 -0.8290
vn -0.4594 0.1906 -0.8675
vn -0.7926 0.5616 -0.2376
vn -0.9489 0.2462 -0.1973
vn -0.9021 -0.4314 -0.0068
vn -0.3501 -0.9045 -0.2436
vn -0.3358 -0.9419 -0.0101
vn -0.2581 0.3206 -0.9114
vn -0.0713 0.0394 -0.9967
vn -0.1087 0.0849 -0.9905
vn -0.1936 -0.5091 -0.8386
vn -0.3129 -0.7924 -0.5237
vn -0.7649 -0.0657 -0.6407
vn -0.4241 -0.8355 -0.3493
vn -0.4241 -0.7737 0.4706
vn -0.6318 0.7031 -0.3263
vn -0.8346 0.3728 -0.4055
vn -0.4282 -0.8915 0.1477
vn -0.3194 0.6916 -0.6478
vn -0.1149 0.8830 -0.4552
vn -0.7013 -0.5592 -0.4421
vn -0.6164 -0.7697 -0.1663
vn -0.8802 0.0243 -0.4740
vn -0.9184 0.0993 -0.3830
vn -0.4466 0.8566 -0.2586
vn -0.8238 -0.3686 -0.4306
vn -0.7439 -0.3164 -0.5887
vn -0.4802 0.8615 -0.1652
vn -0.4500 0.8897 -0.0767
vn -0.5068 0.8572 -0.0917
vn -0.8635 -0.4121 -0.2907
vn -0.7464 -0.4552 -0.4854
vn -0.9226 -0.3327 -0.1953
vn -0.6639 -0.6307 -0.4017
vn -0.9911 0.0584 -0.1201
vn -0.9046 0.4086 -0.1216
vn -0.9885 0.0485 -0.1435
vn -0.9422 -0.2958 -0.1574
vn -0.9233 -0.2903 -0.2514
vn -0.9597 -0.2539 -0.1208
vn -0.9047 0.4208 -0.0664
vn -0.6957 0.7181 -0.0200
vn -0.9092 0.4084 -0.0814
vn -0.6199 -0.7149 -0.3235
vn -0.6361 -0.7232 -0.2690
vn -0.9843 0.0546 -0.1680
vn -0.9007 0.4120 -0.1376
vn -0.9726 0.0364 -0.2297
vn -0.8984 0.4267 -0.1042
vn -0.8765 -0.3976 -0.2713
vn -0.4331 -0.8193 -0.3757
vn -0.4522 -0.7865 -0.4207
vn -0.4123 -0.8062 -0.4244
vn -0.4907 0.8666 0.0902
vn -0.0000 0.9975 -0.0703
vn -0.9939 0.0567 -0.0950
vn -0.9142 0.4051 -0.0131
vn -0.6693 0.7414 -0.0487
vn -0.9954 0.0384 0.0875
vn -0.9990 0.0451 -0.0003
vn -0.7154 -0.6975 0.0421
vn -0.9252 -0.3678 0.0933
vn -0.9448 -0.3269 0.0208
vn -0.4080 0.9121 -0.0403
vn -0.9212 0.3839 0.0633
vn -0.9931 0.0398 0.1102
vn -0.9244 0.3699 0.0933
vn -0.3612 -0.9324 0.0122
vn -0.7095 -0.7005 0.0766
vn -0.4220 0.9063 -0.0222
vn -0.6735 -0.6768 0.2972
vn -0.9324 -0.3353 0.1349
vn -0.7066 -0.6843 0.1800
vn -0.9909 0.0268 0.1318
vn -0.7152 0.6954 0.0700
vn -0.6813 0.7312 0.0343
vn -0.9843 0.0852 0.1544
vn -0.9163 0.3778 0.1331
vn -0.3537 -0.8636 0.3594
vn -0.3740 -0.9044 0.2051
vn -0.5104 0.8452 0.1583
vn -0.4941 0.8694 0.0066
vn 0.6652 -0.3072 0.6806
vn 0.9560 -0.2111 0.2037
vn 0.7186 -0.3226 0.6161
vn -0.9006 -0.3246 -0.2892
vn -0.9855 -0.1368 -0.1006
vn -0.9151 -0.3522 0.1962
vn -0.7150 0.6806 0.1596
vn -0.4882 0.8449 0.2187
vn -0.8503 0.4391 0.2901
vn -0.8508 0.1977 0.4870
vn -0.6492 0.5036 0.5700
vn -0.5700 0.7270 0.3827
vn -0.6687 0.7194 0.1876
vn -0.8569 0.4777 0.1936
vn -0.9628 0.1549 0.2213
vn -0.8314 -0.1273 0.5409
vn -0.3942 0.6185 0.6798
vn -0.5569 0.3956 0.7303
vn -0.3066 0.4197 0.8543
vn -0.3612 0.6007 0.7132
vn -0.3741 0.8254 0.4228
vn -0.2813 -0.8756 -0.3928
vn -0.5774 -0.2368 -0.7814
vn -0.7197 -0.6354 -0.2799
vn -0.2100 -0.2417 0.9473
vn -0.3387 0.1072 0.9348
vn -0.3577 -0.3849 0.8509
vn -0.2574 0.0664 0.9640
vn -0.3024 0.4083 0.8613
vn -0.4505 0.7349 -0.5068
vn -0.4669 0.7670 -0.4402
vn -0.7049 0.7006 -0.1104
vn -0.6785 0.7306 -0.0767
vn -0.5433 -0.7093 -0.4491
vn -0.5265 -0.2504 0.8125
vn 0.0465 -0.2857 0.9572
vn 0.1099 -0.2768 0.9546
vn -0.6939 0.7126 -0.1035
vn -0.6774 0.7352 -0.0253
vn -0.6077 0.0714 0.7910
vn -0.3755 -0.9256 0.0485
vn -0.5542 -0.0647 0.8299
vn 0.3002 -0.9346 0.1906
vn 0.7621 -0.3115 -0.5676
vn -0.9197 -0.2235 -0.3228
vn -0.4259 0.9048 -0.0006
vn -0.2967 -0.6234 -0.7234
vn 0.3447 0.4899 -0.8007
vn -0.7419 0.6692 -0.0419
vn -0.5503 0.8349 0.0113
vn -0.3798 -0.4444 -0.8114
vn -0.6190 0.3117 -0.7209
vn -0.3752 0.9233 0.0817
vn -0.0000 0.9883 0.1527
vn -0.9538 -0.2605 -0.1498
vn -0.9099 -0.4111 0.0558
vn -0.4626 0.7845 0.4131
vn -0.4786 0.6244 0.6173
vn -0.7918 0.5632 0.2365
vn -0.9599 0.2728 0.0643
vn -0.9600 0.0480 -0.2758
vn -0.9531 0.3028 -0.0040
vn -0.4814 -0.2001 -0.8534
vn -0.4797 -0.3708 -0.7952
vn -0.9627 0.0909 -0.2549
vn -0.8099 -0.1859 -0.5564
vn -0.8112 -0.0741 -0.5800
vn -0.4832 0.4779 0.7336
vn -0.4909 0.2800 0.8250
vn -0.8082 0.3716 0.4568
vn -0.9580 0.2618 0.1167
vn -0.9530 0.2218 -0.2064
vn -0.9563 0.1742 -0.2347
vn -0.4747 0.0446 -0.8790
vn -0.7989 0.2205 -0.5596
vn -0.8027 0.1002 -0.5879
vn -0.4721 0.2250 -0.8523
vn -0.9594 0.2335 0.1584
vn -0.8069 0.4605 0.3699
vn -0.8152 0.2544 0.5204
vn -0.9020 0.4092 -0.1376
vn -0.0000 -0.2510 -0.9680
vn -0.9192 0.2635 -0.2927
vn -0.8546 0.4462 -0.2656
vn -0.7077 -0.0451 -0.7050
vn -0.6718 -0.1569 -0.7240
vn -0.0000 -0.3499 -0.9368
vn -0.6933 0.7119 0.1116
vn -0.7095 0.6276 0.3205
vn -0.9469 0.2748 -0.1668
vn -0.9063 -0.2430 -0.3459
vn -0.9317 -0.2251 0.2852
vn -0.9028 -0.1614 0.3986
vn -0.4724 -0.2110 0.8558
vn -0.9480 -0.0570 0.3130
vn -0.8752 -0.2623 0.4066
vn 0.7198 -0.2431 0.6502
vn 0.9481 -0.3024 0.0984
vn 0.6638 -0.3761 0.6465
vn 0.6328 -0.3328 -0.6992
vn -0.0167 -0.2034 -0.9790
vn -0.5559 -0.2187 -0.8020
vn 0.9418 -0.3175 0.1110
vn 0.1179 -0.2052 0.9716
vn 0.0647 -0.3039 0.9505
vn -0.9407 -0.0207 0.3385
vn -0.3725 -0.2044 0.9052
vn -0.0397 -0.2202 -0.9746
vn -0.5326 -0.0970 -0.8408
vn -0.5529 -0.2186 -0.8041
vn 0.8006 -0.1900 -0.5683
vn 0.7083 -0.3927 -0.5866
vn 0.5087 -0.0281 0.8605
vn 0.9740 -0.1937 0.1179
vn -0.1661 -0.0161 0.9860
vn -0.9523 -0.1640 0.2573
vn -0.6222 -0.0017 0.7829
vn -0.7934 -0.5989 0.1083
vn -0.4788 -0.6272 0.6144
vn -0.0038 -0.0767 -0.9970
vn -0.2269 0.4933 -0.8397
vn 0.7435 0.1654 -0.6480
vn 0.5596 -0.5917 0.5803
vn 0.9953 -0.0866 0.0443
vn -0.0808 -0.6433 0.7614
vn -0.9008 -0.0871 -0.4255
vn -0.9069 -0.1406 -0.3972
vn -0.7058 0.4056 -0.5808
vn -0.9496 0.1419 -0.2794
vn 0.6595 -0.7505 -0.0415
vn -0.6840 -0.7288 -0.0298
vn -0.7194 -0.6559 -0.2284
vn 0.1213 -0.6467 -0.7531
vn 0.6984 -0.5484 -0.4599
vn 0.2098 0.4701 -0.8573
vn 0.8516 0.3719 -0.3694
vn -0.3671 -0.6597 -0.6558
vn -0.2801 0.4531 -0.8463
vn -0.0403 0.4233 -0.9051
vn -0.0778 -0.1825 -0.9801
vn -0.5458 -0.2732 0.7921
vn 0.5717 -0.4775 0.6672
vn 0.6007 -0.7994 -0.0088
vn -0.5458 -0.3320 0.7693
vn -0.4969 -0.7045 0.5067
vn -0.9233 -0.1232 -0.3637
vn -0.8913 -0.1372 0.4322
vn -0.4795 -0.1499 0.8647
vn -0.9589 -0.0442 0.2804
vn 0.7024 -0.1986 0.6835
vn 0.9342 -0.3488 0.0752
vn 0.6667 -0.3746 0.6444
vn 0.3998 -0.4962 -0.7707
vn -0.5831 -0.2297 -0.7792
vn 0.1234 -0.1231 0.9847
vn 0.0778 -0.2589 0.9628
vn 0.0599 -0.3141 0.9475
vn -0.9410 -0.0301 0.3371
vn -0.3764 -0.1591 0.9127
vn -0.0770 -0.4055 -0.9108
vn -0.5503 -0.2537 -0.7955
vn -0.5548 -0.3571 -0.7515
vn 0.6574 -0.5533 -0.5115
vn -0.0415 -0.3243 -0.9450
vn 0.5092 -0.0418 0.8597
vn 0.9605 -0.2340 0.1504
vn -0.1643 -0.0283 0.9860
vn 0.8197 -0.3838 -0.4253
vn -0.6244 -0.0074 0.7811
vn -0.2303 0.4897 -0.8409
vn 0.7437 0.1614 -0.6487
vn 0.9945 -0.0952 0.0431
vn -0.9105 -0.1522 -0.3844
vn -0.8998 -0.1902 -0.3927
vn -0.9494 0.1418 -0.2803
vn -0.9645 -0.1568 0.2127
vn -0.0411 0.4144 -0.9092
vn 0.6291 -0.5074 -0.5888
vn 0.9108 -0.3937 0.1246
vn -0.1408 -0.2759 -0.9508
vn -0.6129 0.6510 -0.4478
vn -0.9234 -0.1880 -0.3346
vn 0.8845 -0.1777 -0.4315
vn -0.3632 0.5789 -0.7301
vn 0.5563 0.7116 -0.4292
vn -0.7045 0.3449 0.6202
vn 0.8991 0.2731 -0.3420
vn 0.2488 0.7262 0.6409
vn 0.7045 -0.3449 -0.6202
vn 0.7045 0.3449 0.6202
vn -0.2488 0.7262 -0.6409
vn 0.2488 0.7262 -0.6409
vn 0.3509 0.2742 -0.8954
vn -0.7045 0.3449 -0.6202
vn -0.2488 0.7262 0.6409
vn 0.7045 0.3449 -0.6202
vn -0.8991 0.2731 -0.3420
vn -0.3509 0.2742 -0.8953
vn -0.7045 -0.3449 -0.6202
vn 0.4647 0.7749 0.4285
vn -0.3916 0.4958 -0.7751
vn -0.9762 -0.0541 0.2100
vn 0.6461 -0.7631 0.0150
s 1
f 1//1 4//2 3//3
f 4//2 5//4 3//3
f 6//5 7//6 5//4
f 8//7 9//8 7//6
f 13//9 24//10 18//11
f 9//8 12//12 11//13
f 11//13 2//14 1//1
f 5//4 14//15 3//3
f 11//13 17//16 9//8
f 1//1 14//15 13//9
f 7//6 15//17 5//4
f 11//13 13//9 18//11
f 9//8 16//18 7//6
f 24//10 29//19 23//20
f 16//18 23//20 22//21
f 15//17 20//22 14//15
f 17//16 24//10 23//20
f 15//17 22//21 21//23
f 14//15 19//24 13//9
f 30//25 25//26 31//27
f 22//21 27//28 21//23
f 19//24 26//29 25//26
f 19//24 30//25 24//10
f 22//21 29//19 28//30
f 21//23 26//29 20//22
f 28//30 29//19 31//27
f 26//29 27//28 31//27
f 29//19 30//25 31//27
f 27//28 28//30 31//27
f 25//26 26//29 31//27
f 68//31 70//32 117//33
f 111//34 70//32 56//35
f 58//36 71//37 32//38
f 68//31 117//33 58//36
f 35//39 156//40 135//41
f 37//42 182//43 178//44
f 59//45 60//46 34//47
f 59//45 736//48 734//49
f 731//50 35//39 61//51
f 61//51 58//36 93//52
f 93//52 32//38 60//46
f 157//53 34//47 60//46
f 132//54 60//46 32//38
f 158//55 33//56 61//51
f 135//41 61//51 35//39
f 62//57 67//58 37//42
f 62//57 66//59 94//60
f 94//60 38//61 65//62
f 94//60 39//63 67//58
f 59//45 63//64 35//39
f 34//47 95//65 59//45
f 64//66 62//57 95//65
f 95//65 37//42 63//64
f 134//67 510//68 159//69
f 510//68 136//70 159//69
f 138//71 65//62 160//72
f 160//72 38//61 137//73
f 486//74 161//75 136//70
f 512//76 137//73 161//75
f 67//58 181//77 182//43
f 139//78 492//79 489//80
f 132//54 513//81 483//82
f 111//34 42//83 104//84
f 489//80 163//85 139//78
f 133//86 514//87 164//88
f 514//87 140//89 164//88
f 57//90 90//91 71//37
f 111//34 69//92 91//93
f 141//94 56//35 155//95
f 129//96 91//93 69//92
f 493//97 165//98 143//99
f 515//100 145//101 165//98
f 42//83 143//99 44//102
f 126//103 69//92 72//104
f 131//105 77//106 45//107
f 107//108 96//109 73//110
f 121//111 281//112 77//106
f 102//113 76//114 78//115
f 126//103 75//116 43//117
f 113//118 97//119 72//104
f 115//120 73//110 97//119
f 128//121 45//107 75//116
f 142//122 75//116 166//123
f 75//116 144//124 166//123
f 144//124 77//106 167//125
f 520//126 168//127 518//128
f 145//101 518//128 168//127
f 99//129 118//130 102//113
f 106//131 78//115 80//132
f 106//131 79//133 98//134
f 81//135 119//136 47//137
f 520//126 171//138 169//139
f 102//113 98//134 99//129
f 82//140 116//141 108//142
f 170//143 47//137 146//144
f 522//145 147//146 171//138
f 120//147 84//148 49//149
f 108//142 100//150 82//140
f 147//146 50//151 48//152
f 120//147 79//133 82//140
f 114//153 85//154 100//150
f 49//149 172//155 148//156
f 499//157 173//158 149//159
f 226//160 241//161 230//162
f 127//163 225//164 218//165
f 127//163 100//150 85//154
f 151//166 83//167 173//158
f 103//168 87//169 86//170
f 151//166 53//171 52//172
f 103//168 52//172 53//171
f 86//170 228//173 224//174
f 54//175 109//176 112//177
f 53//171 153//178 54//175
f 150//179 217//180 216//181
f 174//182 55//183 154//184
f 153//178 526//185 175//186
f 526//185 154//184 175//186
f 490//187 176//188 140//89
f 527//189 155//95 176//188
f 43//117 129//96 126//103
f 118//130 46//190 76//114
f 115//120 44//102 74//191
f 119//136 49//149 47//137
f 86//170 225//164 85//154
f 124//192 98//134 123//193
f 51//194 125//195 127//163
f 121//111 99//129 124//192
f 105//196 91//93 92//197
f 129//96 90//91 57//90
f 229//198 242//199 243//200
f 114//153 50//151 83//167
f 107//108 74//191 46//190
f 116//141 80//132 48//152
f 117//33 105//196 92//197
f 112//177 101//201 87//169
f 146//144 498//202 496//203
f 113//118 42//83 44//102
f 131//105 97//119 73//110
f 87//169 130//204 228//173
f 123//193 79//133 119//136
f 287//205 521//206 519//207
f 150//179 227//208 500//209
f 121//111 73//110 96//109
f 128//121 72//104 97//119
f 523//210 150//179 500//209
f 125//195 82//140 100//150
f 122//211 92//197 91//93
f 101//201 109//176 55//183
f 55//183 109//176 88//212
f 176//188 56//35 70//32
f 41//213 176//188 70//32
f 175//186 55//183 88//212
f 54//175 175//186 88//212
f 525//214 154//184 505//215
f 174//182 230//162 231//216
f 112//177 53//171 54//175
f 501//217 152//218 151//166
f 51//194 218//165 217//180
f 110//219 83//167 52//172
f 149//159 83//167 50//151
f 148//156 523//210 498//202
f 84//148 150//179 172//155
f 108//142 48//152 50//151
f 171//138 48//152 80//132
f 521//206 146//144 496//203
f 169//139 80//132 78//115
f 148//156 47//137 49//149
f 76//114 169//139 78//115
f 46//190 168//127 76//114
f 494//220 167//125 517//221
f 166//123 494//220 516//222
f 492//79 166//123 516//222
f 104//84 72//104 69//92
f 165//98 46//190 74//191
f 44//102 165//98 74//191
f 164//88 41//213 68//31
f 139//78 90//91 40//223
f 162//224 163//85 513//81
f 32//38 162//224 132//54
f 40//223 142//122 139//78
f 156//40 179//225 183//226
f 161//75 38//61 66//59
f 36//227 161//75 66//59
f 487//228 160//72 137//73
f 511//229 138//71 160//72
f 64//66 136//70 36//227
f 134//67 64//66 34//47
f 509//230 208//231 572//232
f 484//233 158//55 509//230
f 483//82 157//53 132//54
f 485//234 157//53 508//235
f 488//236 180//237 138//71
f 135//41 207//238 209//239
f 71//37 163//85 162//224
f 57//90 92//197 122//211
f 507//240 183//226 535//241
f 37//42 179//225 63//64
f 506//242 141//94 155//95
f 86//170 110//219 103//168
f 504//243 152//218 503//244
f 173//158 501//217 151//166
f 497//245 149//159 147//146
f 491//246 143//99 141//94
f 507//240 207//238 156//40
f 39//63 180//237 181//77
f 283//247 124//192 286//248
f 195//249 547//250 553//251
f 196//252 193//253 195//249
f 198//254 188//255 197//256
f 558//257 190//258 200//259
f 199//260 192//261 198//254
f 200//259 191//262 199//260
f 201//263 550//264 561//265
f 205//266 194//267 201//263
f 206//268 177//269 187//270
f 204//271 551//272 185//273
f 202//274 184//275 177//269
f 203//276 185//273 184//275
f 205//266 187//270 186//277
f 197//256 189//278 196//252
f 186//277 187//270 552//279
f 550//264 194//267 552//279
f 194//267 186//277 552//279
f 187//270 177//269 552//279
f 185//273 551//272 552//279
f 177//269 184//275 552//279
f 184//275 185//273 552//279
f 178//44 196//252 179//225
f 180//237 199//260 181//77
f 181//77 198//254 182//43
f 539//280 200//259 180//237
f 182//43 197//256 178//44
f 179//225 195//249 183//226
f 183//226 553//251 535//241
f 188//255 205//266 189//278
f 191//262 204//271 203//276
f 192//261 203//276 202//274
f 190//258 564//281 204//271
f 192//261 206//268 188//255
f 189//278 201//263 193//253
f 193//253 561//265 547//250
f 208//231 577//282 572//232
f 207//238 212//283 209//239
f 135//41 208//231 158//55
f 212//283 213//284 215//285
f 210//286 579//287 213//284
f 209//239 211//288 208//231
f 569//289 210//286 207//238
f 214//290 215//285 584//291
f 582//292 214//290 584//291
f 211//288 582//292 577//282
f 212//283 214//290 211//288
f 213//284 579//287 584//291
f 215//285 213//284 584//291
f 217//180 234//293 233//294
f 220//295 225//164 224//174
f 274//296 244//297 275//298
f 220//295 228//173 223//299
f 276//300 247//301 279//302
f 216//181 240//303 227//208
f 216//181 233//294 232//304
f 227//208 239//305 226//160
f 229//198 228//173 130//204
f 274//296 248//306 249//307
f 230//162 242//199 231//216
f 500//209 226//160 502//308
f 249//307 250//309 244//297
f 273//310 221//311 222//312
f 273//310 246//313 277//314
f 245//315 253//316 247//301
f 249//307 254//317 255//318
f 276//300 246//313 245//315
f 279//302 248//306 278//319
f 218//165 236//320 234//293
f 255//318 257//321 250//309
f 222//312 237//322 238//323
f 222//312 252//324 246//313
f 251//325 260//326 253//316
f 255//318 261//327 262//328
f 246//313 251//325 245//315
f 248//306 253//316 254//317
f 272//329 219//330 221//311
f 275//298 219//330 271//331
f 237//322 265//332 264//333
f 236//320 223//299 229//198
f 251//325 259//334 258//335
f 253//316 261//327 254//317
f 250//309 256//336 235//337
f 235//337 270//338 265//332
f 221//311 235//337 237//322
f 219//330 250//309 235//337
f 256//336 259//334 266//339
f 260//326 257//321 262//328
f 263//340 268//341 267//342
f 265//332 269//343 264//333
f 263//340 269//343 266//339
f 259//334 267//342 268//341
f 238//323 267//342 252//324
f 238//323 264//333 263//340
f 229//198 89//344 174//182
f 502//308 230//162 525//214
f 236//320 271//331 234//293
f 233//294 271//331 272//329
f 241//161 278//319 242//199
f 240//303 276//300 239//305
f 240//303 273//310 277//314
f 232//304 272//329 273//310
f 242//199 274//296 243//200
f 239//305 279//302 241//161
f 236//320 274//296 275//298
f 337//345 297//346 287//205
f 286//248 280//347 299//348
f 77//106 290//349 289//350
f 330//351 300//352 331//353
f 332//354 303//355 335//356
f 517//221 167//125 336//357
f 167//125 289//350 288//358
f 517//221 337//345 519//207
f 330//351 304//359 305//360
f 287//205 298//361 280//347
f 305//360 306//362 300//352
f 329//363 284//364 285//365
f 333//366 285//365 302//367
f 301//368 309//369 303//355
f 305//360 310//370 311//371
f 332//354 302//367 301//368
f 334//372 303//355 304//359
f 283//247 290//349 281//112
f 311//371 313//321 306//362
f 285//365 293//373 294//374
f 285//365 308//375 302//367
f 307//376 316//326 309//369
f 311//371 317//327 318//328
f 302//367 307//376 301//368
f 304//359 309//369 310//370
f 328//377 282//378 284//364
f 331//353 282//378 327//379
f 293//373 321//332 320//333
f 283//247 286//248 292//380
f 307//376 315//334 314//335
f 309//369 317//327 310//370
f 306//362 312//336 291//381
f 291//381 326//338 321//332
f 284//364 291//381 293//373
f 282//378 306//362 291//381
f 312//336 315//334 322//339
f 316//326 313//321 318//328
f 319//340 324//341 323//342
f 321//332 325//343 320//333
f 319//340 325//343 322//339
f 315//334 323//342 324//341
f 294//374 323//342 308//375
f 294//374 320//333 319//340
f 292//380 327//379 290//349
f 289//350 327//379 328//377
f 297//346 334//372 298//361
f 296//382 332//354 295//383
f 296//382 329//363 333//366
f 288//358 328//377 329//363
f 298//361 330//351 299//348
f 295//383 335//356 297//346
f 292//380 330//351 331//353
f 101//201 89//344 130//204
f 286//248 123//193 81//135
f 170//143 287//205 280//347
f 170//143 280//347 81//135
f 292//380 286//248 299//348
f 299//348 280//347 298//361
f 124//192 283//247 281//112
f 81//135 280//347 286//248
f 337//345 287//205 519//207
f 337//345 296//382 295//383
f 336//357 288//358 296//382
f 347//384 374//385 411//386
f 376//387 417//388 362//389
f 377//390 364//391 338//392
f 423//393 339//394 398//395
f 462//396 341//397 441//398
f 343//399 533//400 373//401
f 366//402 365//403 340//404
f 737//405 341//397 738//406
f 365//403 740//407 742//408
f 364//391 367//409 399//410
f 338//392 399//410 366//402
f 463//411 340//404 440//412
f 438//413 366//402 463//411
f 464//414 339//394 439//415
f 441//398 367//409 464//414
f 373//401 368//416 343//399
f 368//416 372//417 342//418
f 400//419 344//420 372//417
f 345//421 400//419 373//401
f 369//422 365//403 341//397
f 401//423 340//404 365//403
f 368//416 370//424 401//423
f 343//399 401//423 369//422
f 440//412 510//68 485//234
f 442//425 510//68 465//426
f 371//427 444//428 466//429
f 344//420 466//429 443//430
f 467//431 486//74 442//425
f 443//430 512//76 467//431
f 373//401 532//432 345//421
f 492//79 445//433 489//80
f 438//413 513//81 468//434
f 348//435 417//388 410//436
f 469//437 489//80 445//433
f 439//415 514//87 484//233
f 446//438 514//87 470//439
f 363//440 377//390 396//441
f 375//442 417//388 397//443
f 447//444 362//389 348//435
f 435//445 397//443 428//446
f 471//447 493//97 449//448
f 451//449 515//100 471//447
f 348//435 449//448 447//444
f 432//450 375//442 435//445
f 383//451 437//452 351//453
f 402//454 413//455 379//456
f 427//457 650//458 430//459
f 408//460 382//461 424//462
f 381//463 432//450 349//464
f 403//465 419//466 378//467
f 379//456 421//468 403//465
f 351//453 434//469 381//463
f 448//470 381//463 349//464
f 450//471 381//463 472//472
f 450//471 383//451 351//453
f 474//473 520//126 518//128
f 451//449 518//128 495//474
f 424//462 405//475 408//460
f 412//476 384//477 408//460
f 385//478 412//476 404//479
f 387//480 425//481 429//482
f 520//126 477//483 522//145
f 404//479 408//460 405//475
f 422//484 388//485 414//486
f 476//487 353//488 387//480
f 453//489 522//145 477//483
f 390//490 426//491 355//492
f 406//493 414//486 388//485
f 356//494 453//489 354//495
f 426//491 385//478 425//481
f 391//496 420//497 406//493
f 478//498 355//492 454//499
f 479//500 499//157 455//501
f 610//502 595//503 599//504
f 433//505 594//506 391//496
f 433//505 406//493 431//507
f 389//508 457//509 479//500
f 409//510 393//511 418//512
f 359//513 457//509 358//514
f 409//510 358//514 416//515
f 392//516 597//517 393//511
f 360//518 415//519 394//520
f 359//513 459//521 458//522
f 456//523 586//524 357//525
f 480//526 361//527 395//528
f 459//521 526//185 504//243
f 460//529 526//185 481//530
f 482//531 490//187 446//438
f 461//532 527//189 482//531
f 435//445 349//464 432//450
f 424//462 352//533 413//455
f 421//468 350//534 419//466
f 425//481 355//492 426//491
f 594//506 392//516 391//496
f 404//479 430//459 429//482
f 357//525 431//507 390//490
f 405//475 427//457 430//459
f 411//386 397//443 417//388
f 346//535 428//446 363//440
f 598//536 611//537 600//538
f 420//497 356//494 414//486
f 413//455 380//539 421//468
f 422//484 386//540 412//476
f 423//393 398//395 411//386
f 418//512 407//541 415//519
f 498//202 452//542 496//203
f 419//466 348//435 410//436
f 437//452 403//465 434//469
f 393//511 436//543 407//541
f 385//478 429//482 425//481
f 521//206 656//544 519//207
f 596//545 456//523 500//209
f 427//457 379//456 437//452
f 434//469 378//467 432//450
f 523//210 456//523 478//498
f 431//507 388//485 426//491
f 428//446 397//443 398//395
f 407//541 361//527 415//519
f 361//527 394//520 415//519
f 362//389 482//531 376//387
f 347//384 482//531 446//438
f 361//527 481//530 394//520
f 360//518 481//530 459//521
f 525//214 460//529 480//526
f 480//526 599//504 525//214
f 418//512 359//513 409//510
f 501//217 458//522 503//244
f 357//525 587//546 433//505
f 416//515 389//508 420//497
f 389//508 455//501 356//494
f 523//210 454//499 498//202
f 390//490 456//523 357//525
f 414//486 354//495 422//484
f 354//495 477//483 386//540
f 521//206 452//542 476//487
f 386//540 475//547 384//477
f 353//488 454//499 355//492
f 382//461 475//547 474//473
f 352//533 474//473 451//449
f 494//220 473//548 450//471
f 494//220 472//472 516//222
f 492//79 472//472 448//470
f 410//436 378//467 419//466
f 352//533 471//447 380//539
f 350//534 471//447 449//448
f 347//384 470//439 374//385
f 470//439 439//415 710//549
f 396//441 445//433 346//535
f 468//434 513//81 469//437
f 338//392 468//434 377//390
f 346//535 448//470 349//464
f 462//396 530//550 369//422
f 344//420 467//431 372//417
f 342//418 467//431 442//425
f 487//228 466//429 511//229
f 511//229 444//428 488//236
f 370//424 442//425 465//426
f 370//424 440//412 340//404
f 509//230 571//551 464//414
f 464//414 484//233 509//230
f 483//82 463//411 508//235
f 463//411 485//234 508//235
f 531//552 488//236 444//428
f 441//398 570//553 462//396
f 377//390 469//437 396//441
f 363//440 398//395 377//390
f 507//240 534//554 462//396
f 530//550 343//399 369//422
f 447//444 506//242 461//532
f 416//515 392//516 409//510
f 458//522 504//243 503//244
f 479//500 501//217 524//555
f 497//245 455//501 499//157
f 491//246 449//448 493//97
f 570//553 507//240 462//396
f 345//421 531//552 444//428
f 652//556 655//557 430//459
f 547//250 554//558 553//251
f 546//559 555//560 554//558
f 541//561 557//562 556//563
f 543//564 558//257 560//565
f 545//566 559//567 557//562
f 544//568 560//565 559//567
f 550//264 562//569 561//265
f 549//570 567//571 562//569
f 568//572 528//573 563//574
f 566//575 551//272 564//281
f 563//574 536//576 565//577
f 565//577 537//578 566//575
f 567//571 540//579 568//572
f 542//580 556//563 555//560
f 538//581 552//279 540//579
f 550//264 552//279 549//570
f 549//570 552//279 538//581
f 540//579 552//279 528//573
f 537//578 552//279 551//272
f 528//573 552//279 536//576
f 536//576 552//279 537//578
f 555//560 529//582 530//550
f 559//567 531//552 532//432
f 557//562 532//432 533//400
f 560//565 539//280 531//552
f 556//563 533//400 529//582
f 554//558 530//550 534//554
f 553//251 534//554 535//241
f 567//571 541//561 542//580
f 544//568 566//575 543//564
f 545//566 565//577 544//568
f 543//564 564//281 548//583
f 568//572 545//566 541//561
f 562//569 542//580 546//559
f 561//265 546//559 547//250
f 577//282 571//551 572//232
f 578//584 570//553 573//585
f 571//551 441//398 464//414
f 578//584 580//586 575//587
f 575//587 579//287 574//588
f 576//589 573//585 571//551
f 575//587 569//289 570//553
f 581//590 584//291 583//591
f 582//292 584//291 581//590
f 582//292 576//589 577//282
f 581//590 578//584 576//589
f 580//586 584//291 579//287
f 583//591 584//291 580//586
f 586//524 603//592 587//546
f 589//593 594//506 587//546
f 613//594 643//595 644//596
f 597//517 589//593 592//597
f 616//598 645//599 648//600
f 609//601 585//602 596//545
f 585//602 602//603 586//524
f 608//604 596//545 595//503
f 598//536 597//517 592//597
f 643//595 617//605 647//606
f 611//537 599//504 600//538
f 595//503 500//209 502//308
f 619//607 618//608 613//594
f 642//609 590//610 641//611
f 615//612 642//609 646//613
f 622//614 614//615 616//598
f 618//608 623//616 617//605
f 645//599 615//612 646//613
f 617//605 648//600 647//606
f 587//546 605//617 589//593
f 624//618 626//619 631//620
f 591//621 606//622 590//610
f 621//623 591//621 615//612
f 629//624 620//625 622//614
f 624//618 630//626 623//616
f 620//625 615//612 614//615
f 617//605 622//614 616//598
f 641//611 588//627 640//628
f 588//627 644//596 640//628
f 606//622 634//629 604//630
f 592//597 605//617 598//536
f 620//625 628//631 621//623
f 630//626 622//614 623//616
f 625//632 619//607 604//630
f 604//630 639//633 625//632
f 590//610 604//630 588//627
f 588//627 619//607 613//594
f 628//631 625//632 635//634
f 626//619 629//624 630//626
f 637//635 632//636 636//637
f 638//638 634//629 633//639
f 632//636 638//638 633//639
f 628//631 636//637 621//623
f 636//637 607//640 621//623
f 607//640 633//639 606//622
f 436//543 600//538 480//526
f 599//504 502//308 525//214
f 640//628 605//617 603//592
f 602//603 640//628 603//592
f 647//606 610//502 611//537
f 645//599 609//601 608//604
f 609//601 642//609 601//641
f 601//641 641//611 602//603
f 643//595 611//537 612//642
f 648//600 608//604 610//502
f 605//617 643//595 612//642
f 666//643 706//644 656//544
f 655//557 668//645 649//646
f 383//451 659//647 650//458
f 669//648 699//649 700//650
f 672//651 701//652 704//653
f 517//221 705//654 473//548
f 473//548 658//655 383//451
f 706//644 517//221 519//207
f 699//649 673//656 703//657
f 667//658 656//544 649//646
f 675//659 674//660 669//648
f 698//661 653//662 697//663
f 702//664 654//665 698//661
f 678//666 670//667 672//651
f 674//660 679//668 673//656
f 701//652 671//669 702//664
f 703//657 672//651 704//653
f 659//647 652//556 650//458
f 680//670 682//619 687//620
f 654//665 662//671 653//662
f 677//672 654//665 671//669
f 685//624 676//673 678//666
f 680//670 686//626 679//668
f 676//673 671//669 670//667
f 673//656 678//666 672//651
f 697//663 651//674 696//675
f 651//674 700//650 696//675
f 662//671 690//629 660//676
f 652//556 661//677 655//557
f 676//673 684//631 677//672
f 686//626 678//666 679//668
f 681//632 675//659 660//676
f 660//676 695//633 681//632
f 653//662 660//676 651//674
f 651//674 675//659 669//648
f 684//631 681//632 691//634
f 682//619 685//624 686//626
f 693//635 688//636 692//637
f 694//638 690//629 689//639
f 688//636 694//638 689//639
f 684//631 692//637 677//672
f 692//637 663//678 677//672
f 663//678 689//639 662//671
f 696//675 661//677 659//647
f 658//655 696//675 659//647
f 703//657 666//643 667//658
f 701//652 665//679 664//680
f 665//679 698//661 657//681
f 657//681 697//663 658//655
f 699//649 667//658 668//645
f 704//653 664//680 666//643
f 661//677 699//649 668//645
f 395//528 407//541 436//543
f 429//482 655//557 387//480
f 476//487 649//646 656//544
f 476//487 387//480 649//646
f 661//677 668//645 655//557
f 668//645 667//658 649//646
f 430//459 650//458 652//556
f 387//480 655//557 649//646
f 706//644 519//207 656//544
f 706//644 665//679 705//654
f 705//654 657//681 473//548
f 339//394 712//682 710//549
f 712//682 709//683 374//385
f 68//31 33//56 707//684
f 339//394 374//385 709//683
f 708//685 164//88 711//686
f 133//86 164//88 708//685
f 711//686 33//56 133//86
f 714//687 735//688 718//689
f 719//690 717//691 735//688
f 716//692 718//689 720//693
f 733//694 731//50 714//687
f 715//695 720//693 719//690
f 716//692 714//687 713//696
f 719//690 734//49 736//48
f 720//693 717//691 721//697
f 741//698 723//691 727//696
f 730//695 740//407 741//698
f 727//696 725//693 729//692
f 723//691 738//406 739//699
f 730//695 725//693 739//699
f 723//691 725//693 722//689
f 740//407 728//700 742//408
f 730//695 727//696 729//692
f 470//439 710//549 712//682
f 374//385 470//439 712//682
f 711//686 68//31 707//684
f 711//686 164//88 68//31
f 1//1 2//14 4//2
f 4//2 6//5 5//4
f 6//5 8//7 7//6
f 8//7 10//701 9//8
f 13//9 19//24 24//10
f 9//8 10//701 12//12
f 11//13 12//12 2//14
f 5//4 15//17 14//15
f 11//13 18//11 17//16
f 1//1 3//3 14//15
f 7//6 16//18 15//17
f 11//13 1//1 13//9
f 9//8 17//16 16//18
f 24//10 30//25 29//19
f 16//18 17//16 23//20
f 15//17 21//23 20//22
f 17//16 18//11 24//10
f 15//17 16//18 22//21
f 14//15 20//22 19//24
f 22//21 28//30 27//28
f 19//24 20//22 26//29
f 19//24 25//26 30//25
f 22//21 23//20 29//19
f 21//23 27//28 26//29
f 68//31 41//213 70//32
f 70//32 105//196 117//33
f 111//34 105//196 70//32
f 58//36 92//197 71//37
f 58//36 33//56 68//31
f 117//33 92//197 58//36
f 35//39 63//64 156//40
f 37//42 67//58 182//43
f 59//45 93//52 60//46
f 735//688 731//50 61//51
f 61//51 93//52 59//45
f 35//39 732//702 733//694
f 35//39 733//694 736//48
f 735//688 61//51 59//45
f 734//49 735//688 59//45
f 59//45 35//39 736//48
f 731//50 732//702 35//39
f 61//51 33//56 58//36
f 93//52 58//36 32//38
f 157//53 134//67 34//47
f 132//54 157//53 60//46
f 158//55 133//86 33//56
f 135//41 158//55 61//51
f 62//57 94//60 67//58
f 62//57 36//227 66//59
f 94//60 66//59 38//61
f 94//60 65//62 39//63
f 59//45 95//65 63//64
f 34//47 64//66 95//65
f 64//66 36//227 62//57
f 95//65 62//57 37//42
f 134//67 485//234 510//68
f 510//68 486//74 136//70
f 138//71 39//63 65//62
f 160//72 65//62 38//61
f 486//74 512//76 161//75
f 512//76 487//228 137//73
f 67//58 39//63 181//77
f 139//78 142//122 492//79
f 132//54 162//224 513//81
f 111//34 56//35 42//83
f 489//80 513//81 163//85
f 133//86 484//233 514//87
f 514//87 490//187 140//89
f 111//34 104//84 69//92
f 141//94 42//83 56//35
f 129//96 122//211 91//93
f 493//97 515//100 165//98
f 515//100 495//474 145//101
f 42//83 141//94 143//99
f 126//103 129//96 69//92
f 131//105 121//111 77//106
f 107//108 118//130 96//109
f 121//111 124//192 281//112
f 102//113 118//130 76//114
f 126//103 128//121 75//116
f 113//118 115//120 97//119
f 115//120 107//108 73//110
f 128//121 131//105 45//107
f 142//122 43//117 75//116
f 75//116 45//107 144//124
f 144//124 45//107 77//106
f 520//126 169//139 168//127
f 145//101 495//474 518//128
f 99//129 96//109 118//130
f 106//131 102//113 78//115
f 106//131 116//141 79//133
f 81//135 123//193 119//136
f 520//126 522//145 171//138
f 102//113 106//131 98//134
f 82//140 79//133 116//141
f 170//143 81//135 47//137
f 522//145 497//245 147//146
f 120//147 125//195 84//148
f 108//142 114//153 100//150
f 147//146 149//159 50//151
f 120//147 119//136 79//133
f 114//153 110//219 85//154
f 49//149 84//148 172//155
f 499//157 524//555 173//158
f 226//160 239//305 241//161
f 127//163 85//154 225//164
f 127//163 125//195 100//150
f 151//166 52//172 83//167
f 103//168 112//177 87//169
f 151//166 152//218 53//171
f 103//168 110//219 52//172
f 86//170 87//169 228//173
f 54//175 88//212 109//176
f 53//171 152//218 153//178
f 150//179 51//194 217//180
f 174//182 89//344 55//183
f 153//178 504//243 526//185
f 526//185 505//215 154//184
f 490//187 527//189 176//188
f 527//189 506//242 155//95
f 43//117 40//223 129//96
f 118//130 107//108 46//190
f 115//120 113//118 44//102
f 119//136 120//147 49//149
f 86//170 224//174 225//164
f 124//192 99//129 98//134
f 51//194 84//148 125//195
f 121//111 96//109 99//129
f 105//196 111//34 91//93
f 57//90 122//211 129//96
f 129//96 40//223 90//91
f 229//198 231//216 242//199
f 114//153 108//142 50//151
f 107//108 115//120 74//191
f 116//141 106//131 80//132
f 112//177 109//176 101//201
f 146//144 148//156 498//202
f 113//118 104//84 42//83
f 131//105 128//121 97//119
f 87//169 101//201 130//204
f 123//193 98//134 79//133
f 287//205 170//143 521//206
f 150//179 216//181 227//208
f 121//111 131//105 73//110
f 128//121 126//103 72//104
f 523//210 172//155 150//179
f 125//195 120//147 82//140
f 176//188 155//95 56//35
f 41//213 140//89 176//188
f 175//186 154//184 55//183
f 54//175 153//178 175//186
f 525//214 174//182 154//184
f 174//182 525//214 230//162
f 112//177 103//168 53//171
f 501//217 503//244 152//218
f 51//194 127//163 218//165
f 110//219 114//153 83//167
f 149//159 173//158 83//167
f 148//156 172//155 523//210
f 84//148 51//194 150//179
f 108//142 116//141 48//152
f 171//138 147//146 48//152
f 521//206 170//143 146//144
f 169//139 171//138 80//132
f 148//156 146//144 47//137
f 76//114 168//127 169//139
f 46//190 145//101 168//127
f 494//220 144//124 167//125
f 166//123 144//124 494//220
f 492//79 142//122 166//123
f 104//84 113//118 72//104
f 165//98 145//101 46//190
f 44//102 143//99 165//98
f 164//88 140//89 41//213
f 139//78 163//85 90//91
f 32//38 71//37 162//224
f 40//223 43//117 142//122
f 156//40 63//64 179//225
f 161//75 137//73 38//61
f 36//227 136//70 161//75
f 487//228 511//229 160//72
f 511//229 488//236 138//71
f 64//66 159//69 136//70
f 134//67 159//69 64//66
f 509//230 158//55 208//231
f 484//233 133//86 158//55
f 483//82 508//235 157//53
f 485//234 134//67 157//53
f 488//236 539//280 180//237
f 135//41 156//40 207//238
f 71//37 90//91 163//85
f 57//90 71//37 92//197
f 507//240 156//40 183//226
f 37//42 178//44 179//225
f 506//242 491//246 141//94
f 86//170 85//154 110//219
f 504//243 153//178 152//218
f 173//158 524//555 501//217
f 497//245 499//157 149//159
f 491//246 493//97 143//99
f 507//240 569//289 207//238
f 39//63 138//71 180//237
f 195//249 193//253 547//250
f 196//252 189//278 193//253
f 198//254 192//261 188//255
f 558//257 548//583 190//258
f 199//260 191//262 192//261
f 200//259 190//258 191//262
f 201//263 194//267 550//264
f 205//266 186//277 194//267
f 206//268 202//274 177//269
f 204//271 564//281 551//272
f 202//274 203//276 184//275
f 203//276 204//271 185//273
f 205//266 206//268 187//270
f 197//256 188//255 189//278
f 178//44 197//256 196//252
f 180//237 200//259 199//260
f 181//77 199//260 198//254
f 539//280 558//257 200//259
f 182//43 198//254 197//256
f 179//225 196//252 195//249
f 183//226 195//249 553//251
f 188//255 206//268 205//266
f 191//262 190//258 204//271
f 192//261 191//262 203//276
f 190//258 548//583 564//281
f 192//261 202//274 206//268
f 189//278 205//266 201//263
f 193//253 201//263 561//265
f 208//231 211//288 577//282
f 207//238 210//286 212//283
f 135//41 209//239 208//231
f 212//283 210//286 213//284
f 210//286 574//588 579//287
f 209//239 212//283 211//288
f 569//289 574//588 210//286
f 211//288 214//290 582//292
f 212//283 215//285 214//290
f 217//180 218//165 234//293
f 220//295 218//165 225//164
f 274//296 249//307 244//297
f 220//295 224//174 228//173
f 276//300 245//315 247//301
f 216//181 232//304 240//303
f 216//181 217//180 233//294
f 227//208 240//303 239//305
f 229//198 223//299 228//173
f 274//296 278//319 248//306
f 230//162 241//161 242//199
f 500//209 227//208 226//160
f 249//307 255//318 250//309
f 273//310 272//329 221//311
f 273//310 222//312 246//313
f 245//315 251//325 253//316
f 249//307 248//306 254//317
f 276//300 277//314 246//313
f 279//302 247//301 248//306
f 218//165 220//295 236//320
f 255//318 262//328 257//321
f 222//312 221//311 237//322
f 222//312 238//323 252//324
f 251//325 258//335 260//326
f 255//318 254//317 261//327
f 246//313 252//324 251//325
f 248//306 247//301 253//316
f 272//329 271//331 219//330
f 275//298 244//297 219//330
f 237//322 235//337 265//332
f 229//198 243//200 236//320
f 236//320 220//295 223//299
f 251//325 252//324 259//334
f 253//316 260//326 261//327
f 250//309 257//321 256//336
f 235//337 256//336 270//338
f 221//311 219//330 235//337
f 219//330 244//297 250//309
f 266//339 269//343 270//338
f 256//336 257//321 258//335
f 266//339 270//338 256//336
f 259//334 268//341 266//339
f 256//336 258//335 259//334
f 262//328 261//327 260//326
f 260//326 258//335 257//321
f 263//340 266//339 268//341
f 265//332 270//338 269//343
f 263//340 264//333 269//343
f 259//334 252//324 267//342
f 238//323 263//340 267//342
f 238//323 237//322 264//333
f 174//182 231//216 229//198
f 229//198 130//204 89//344
f 502//308 226//160 230//162
f 236//320 275//298 271//331
f 233//294 234//293 271//331
f 241//161 279//302 278//319
f 240//303 277//314 276//300
f 240//303 232//304 273//310
f 232//304 233//294 272//329
f 242//199 278//319 274//296
f 239//305 276//300 279//302
f 236//320 243//200 274//296
f 337//345 295//383 297//346
f 77//106 281//112 290//349
f 330//351 305//360 300//352
f 332//354 301//368 303//355
f 167//125 77//106 289//350
f 517//221 336//357 337//345
f 330//351 334//372 304//359
f 287//205 297//346 298//361
f 305//360 311//371 306//362
f 329//363 328//377 284//364
f 333//366 329//363 285//365
f 301//368 307//376 309//369
f 305//360 304//359 310//370
f 332//354 333//366 302//367
f 334//372 335//356 303//355
f 283//247 292//380 290//349
f 311//371 318//328 313//321
f 285//365 284//364 293//373
f 285//365 294//374 308//375
f 307//376 314//335 316//326
f 311//371 310//370 317//327
f 302//367 308//375 307//376
f 304//359 303//355 309//369
f 328//377 327//379 282//378
f 331//353 300//352 282//378
f 293//373 291//381 321//332
f 307//376 308//375 315//334
f 309//369 316//326 317//327
f 306//362 313//321 312//336
f 291//381 312//336 326//338
f 284//364 282//378 291//381
f 282//378 300//352 306//362
f 322//339 325//343 326//338
f 312//336 313//321 314//335
f 322//339 326//338 312//336
f 315//334 324//341 322//339
f 312//336 314//335 315//334
f 318//328 317//327 316//326
f 316//326 314//335 313//321
f 319//340 322//339 324//341
f 321//332 326//338 325//343
f 319//340 320//333 325//343
f 315//334 308//375 323//342
f 294//374 319//340 323//342
f 294//374 293//373 320//333
f 292//380 331//353 327//379
f 289//350 290//349 327//379
f 297//346 335//356 334//372
f 296//382 333//366 332//354
f 296//382 288//358 329//363
f 288//358 289//350 328//377
f 298//361 334//372 330//351
f 295//383 332//354 335//356
f 292//380 299//348 330//351
f 101//201 55//183 89//344
f 286//248 124//192 123//193
f 337//345 336//357 296//382
f 336//357 167//125 288//358
f 411//386 376//387 347//384
f 374//385 423//393 411//386
f 376//387 411//386 417//388
f 377//390 398//395 364//391
f 423//393 374//385 339//394
f 339//394 364//391 398//395
f 462//396 369//422 341//397
f 343//399 529//582 533//400
f 366//402 399//410 365//403
f 737//405 367//409 341//397
f 739//699 738//406 341//397
f 365//403 399//410 367//409
f 367//409 737//405 741//698
f 365//403 367//409 741//698
f 739//699 341//397 365//403
f 742//408 739//699 365//403
f 365//403 741//698 740//407
f 364//391 339//394 367//409
f 338//392 364//391 399//410
f 463//411 366//402 340//404
f 438//413 338//392 366//402
f 464//414 367//409 339//394
f 441//398 341//397 367//409
f 373//401 400//419 368//416
f 368//416 400//419 372//417
f 400//419 371//427 344//420
f 345//421 371//427 400//419
f 369//422 401//423 365//403
f 401//423 370//424 340//404
f 368//416 342//418 370//424
f 343//399 368//416 401//423
f 440//412 465//426 510//68
f 442//425 486//74 510//68
f 371//427 345//421 444//428
f 344//420 371//427 466//429
f 467//431 512//76 486//74
f 443//430 487//228 512//76
f 373//401 533//400 532//432
f 492//79 448//470 445//433
f 438//413 483//82 513//81
f 348//435 362//389 417//388
f 469//437 513//81 489//80
f 439//415 470//439 514//87
f 446//438 490//187 514//87
f 375//442 410//436 417//388
f 447//444 461//532 362//389
f 435//445 375//442 397//443
f 471//447 515//100 493//97
f 451//449 495//474 515//100
f 348//435 350//534 449//448
f 432//450 378//467 375//442
f 383//451 427//457 437//452
f 402//454 424//462 413//455
f 427//457 383//451 650//458
f 408//460 384//477 382//461
f 381//463 434//469 432//450
f 403//465 421//468 419//466
f 379//456 413//455 421//468
f 351//453 437//452 434//469
f 448//470 472//472 381//463
f 450//471 351//453 381//463
f 450//471 473//548 383//451
f 474//473 475//547 520//126
f 451//449 474//473 518//128
f 424//462 402//454 405//475
f 412//476 386//540 384//477
f 385//478 422//484 412//476
f 387//480 353//488 425//481
f 520//126 475//547 477//483
f 404//479 412//476 408//460
f 422//484 385//478 388//485
f 476//487 452//542 353//488
f 453//489 497//245 522//145
f 390//490 431//507 426//491
f 406//493 420//497 414//486
f 356//494 455//501 453//489
f 426//491 388//485 385//478
f 391//496 416//515 420//497
f 478//498 390//490 355//492
f 479//500 524//555 499//157
f 610//502 608//604 595//503
f 433//505 587//546 594//506
f 433//505 391//496 406//493
f 389//508 358//514 457//509
f 409//510 392//516 393//511
f 359//513 458//522 457//509
f 409//510 359//513 358//514
f 392//516 593//703 597//517
f 360//518 418//512 415//519
f 359//513 360//518 459//521
f 456//523 585//602 586//524
f 480//526 460//529 361//527
f 459//521 481//530 526//185
f 460//529 505//215 526//185
f 482//531 527//189 490//187
f 461//532 506//242 527//189
f 435//445 346//535 349//464
f 424//462 382//461 352//533
f 421//468 380//539 350//534
f 425//481 353//488 355//492
f 594//506 593//703 392//516
f 404//479 405//475 430//459
f 357//525 433//505 431//507
f 405//475 402//454 427//457
f 411//386 398//395 397//443
f 363//440 396//441 346//535
f 346//535 435//445 428//446
f 598//536 612//642 611//537
f 420//497 389//508 356//494
f 413//455 352//533 380//539
f 422//484 354//495 386//540
f 418//512 393//511 407//541
f 498//202 454//499 452//542
f 419//466 350//534 348//435
f 437//452 379//456 403//465
f 393//511 597//517 436//543
f 385//478 404//479 429//482
f 521//206 476//487 656//544
f 596//545 585//602 456//523
f 427//457 402//454 379//456
f 434//469 403//465 378//467
f 523//210 500//209 456//523
f 431//507 406//493 388//485
f 362//389 461//532 482//531
f 347//384 376//387 482//531
f 361//527 460//529 481//530
f 360//518 394//520 481//530
f 525//214 505//215 460//529
f 480//526 600//538 599//504
f 418//512 360//518 359//513
f 501//217 457//509 458//522
f 357//525 586//524 587//546
f 416//515 358//514 389//508
f 389//508 479//500 455//501
f 523//210 478//498 454//499
f 390//490 478//498 456//523
f 414//486 356//494 354//495
f 354//495 453//489 477//483
f 521//206 496//203 452//542
f 386//540 477//483 475//547
f 353//488 452//542 454//499
f 382//461 384//477 475//547
f 352//533 382//461 474//473
f 494//220 517//221 473//548
f 494//220 450//471 472//472
f 492//79 516//222 472//472
f 410//436 375//442 378//467
f 352//533 451//449 471//447
f 350//534 380//539 471//447
f 347//384 446//438 470//439
f 396//441 469//437 445//433
f 338//392 438//413 468//434
f 346//535 445//433 448//470
f 462//396 534//554 530//550
f 344//420 443//430 467//431
f 342//418 372//417 467//431
f 487//228 443//430 466//429
f 511//229 466//429 444//428
f 370//424 342//418 442//425
f 370//424 465//426 440//412
f 509//230 572//232 571//551
f 464//414 439//415 484//233
f 483//82 438//413 463//411
f 463//411 440//412 485//234
f 531//552 539//280 488//236
f 441//398 573//585 570//553
f 377//390 468//434 469//437
f 363//440 428//446 398//395
f 507//240 535//241 534//554
f 530//550 529//582 343//399
f 447//444 491//246 506//242
f 416//515 391//496 392//516
f 458//522 459//521 504//243
f 479//500 457//509 501//217
f 497//245 453//489 455//501
f 491//246 447//444 449//448
f 570//553 569//289 507//240
f 345//421 532//432 531//552
f 547//250 546//559 554//558
f 546//559 542//580 555//560
f 541//561 545//566 557//562
f 543//564 548//583 558//257
f 545//566 544//568 559//567
f 544//568 543//564 560//565
f 550//264 549//570 562//569
f 549//570 538//581 567//571
f 568//572 540//579 528//573
f 566//575 537//578 551//272
f 563//574 528//573 536//576
f 565//577 536//576 537//578
f 567//571 538//581 540//579
f 542//580 541//561 556//563
f 555//560 556//563 529//582
f 559//567 560//565 531//552
f 557//562 559//567 532//432
f 560//565 558//257 539//280
f 556//563 557//562 533//400
f 554//558 555//560 530//550
f 553//251 554//558 534//554
f 567//571 568//572 541//561
f 544//568 565//577 566//575
f 545//566 563//574 565//577
f 543//564 566//575 564//281
f 568//572 563//574 545//566
f 562//569 567//571 542//580
f 561//265 562//569 546//559
f 577//282 576//589 571//551
f 578//584 575//587 570//553
f 571//551 573//585 441//398
f 578//584 583//591 580//586
f 575//587 580//586 579//287
f 576//589 578//584 573//585
f 575//587 574//588 569//289
f 582//292 581//590 576//589
f 581//590 583//591 578//584
f 586//524 602//603 603//592
f 589//593 593//703 594//506
f 613//594 618//608 643//595
f 597//517 593//703 589//593
f 616//598 614//615 645//599
f 609//601 601//641 585//602
f 585//602 601//641 602//603
f 608//604 609//601 596//545
f 598//536 436//543 597//517
f 643//595 618//608 617//605
f 611//537 610//502 599//504
f 595//503 596//545 500//209
f 619//607 624//618 618//608
f 642//609 591//621 590//610
f 615//612 591//621 642//609
f 622//614 620//625 614//615
f 618//608 624//618 623//616
f 645//599 614//615 615//612
f 617//605 616//598 648//600
f 587//546 603//592 605//617
f 624//618 619//607 626//619
f 591//621 607//640 606//622
f 621//623 607//640 591//621
f 629//624 627//704 620//625
f 624//618 631//620 630//626
f 620//625 621//623 615//612
f 617//605 623//616 622//614
f 641//611 590//610 588//627
f 588//627 613//594 644//596
f 606//622 633//639 634//629
f 592//597 589//593 605//617
f 605//617 612//642 598//536
f 620//625 627//704 628//631
f 630//626 629//624 622//614
f 625//632 626//619 619//607
f 604//630 634//629 639//633
f 590//610 606//622 604//630
f 588//627 604//630 619//607
f 628//631 627//704 626//619
f 625//632 639//633 638//638
f 628//631 626//619 625//632
f 635//634 637//635 628//631
f 625//632 638//638 635//634
f 630//626 631//620 626//619
f 626//619 627//704 629//624
f 637//635 635//634 632//636
f 638//638 639//633 634//629
f 632//636 635//634 638//638
f 628//631 637//635 636//637
f 636//637 632//636 607//640
f 607//640 632//636 633//639
f 480//526 395//528 436//543
f 436//543 598//536 600//538
f 599//504 595//503 502//308
f 640//628 644//596 605//617
f 602//603 641//611 640//628
f 647//606 648//600 610//502
f 645//599 646//613 609//601
f 609//601 646//613 642//609
f 601//641 642//609 641//611
f 643//595 647//606 611//537
f 648//600 645//599 608//604
f 605//617 644//596 643//595
f 666//643 664//680 706//644
f 383//451 658//655 659//647
f 669//648 674//660 699//649
f 672//651 670//667 701//652
f 473//548 657//681 658//655
f 706//644 705//654 517//221
f 699//649 674//660 673//656
f 667//658 666//643 656//544
f 675//659 680//670 674//660
f 698//661 654//665 653//662
f 702//664 671//669 654//665
f 678//666 676//673 670//667
f 674//660 680//670 679//668
f 701//652 670//667 671//669
f 703//657 673//656 672//651
f 659//647 661//677 652//556
f 680//670 675//659 682//619
f 654//665 663//678 662//671
f 677//672 663//678 654//665
f 685//624 683//704 676//673
f 680//670 687//620 686//626
f 676//673 677//672 671//669
f 673//656 679//668 678//666
f 697//663 653//662 651//674
f 651//674 669//648 700//650
f 662//671 689//639 690//629
f 676//673 683//704 684//631
f 686//626 685//624 678//666
f 681//632 682//619 675//659
f 660//676 690//629 695//633
f 653//662 662//671 660//676
f 651//674 660//676 675//659
f 684//631 683//704 682//619
f 681//632 695//633 694//638
f 684//631 682//619 681//632
f 691//634 693//635 684//631
f 681//632 694//638 691//634
f 686//626 687//620 682//619
f 682//619 683//704 685//624
f 693//635 691//634 688//636
f 694//638 695//633 690//629
f 688//636 691//634 694//638
f 684//631 693//635 692//637
f 692//637 688//636 663//678
f 663//678 688//636 689//639
f 696//675 700//650 661//677
f 658//655 697//663 696//675
f 703//657 704//653 666//643
f 701//652 702//664 665//679
f 665//679 702//664 698//661
f 657//681 698//661 697//663
f 699//649 703//657 667//658
f 704//653 701//652 664//680
f 661//677 700//650 699//649
f 395//528 361//527 407//541
f 429//482 430//459 655//557
f 706//644 664//680 665//679
f 705//654 665//679 657//681
f 710//549 439//415 339//394
f 339//394 709//683 712//682
f 133//86 708//685 711//686
f 711//686 707//684 33//56
f 718//689 713//696 714//687
f 714//687 731//50 735//688
f 735//688 717//691 718//689
f 735//688 734//49 719//690
f 719//690 721//697 717//691
f 716//692 713//696 718//689
f 714//687 715//695 733//694
f 733//694 732//702 731//50
f 736//48 733//694 715//695
f 715//695 716//692 720//693
f 720//693 721//697 719//690
f 719//690 736//48 715//695
f 716//692 715//695 714//687
f 720//693 718//689 717//691
f 727//696 726//687 741//698
f 741//698 737//405 723//691
f 723//691 722//689 727//696
f 741//698 726//687 730//695
f 730//695 728//700 740//407
f 727//696 722//689 725//693
f 739//699 724//697 723//691
f 723//691 737//405 738//406
f 742//408 728//700 730//695
f 730//695 729//692 725//693
f 725//693 724//697 739//699
f 739//699 742//408 730//695
f 723//691 724//697 725//693
f 730//695 726//687 727//696
