# Blender 4.5.2 LTS
# www.blender.org
o toilet
v -0.287704 0.107395 0.212910
v -0.359411 0.107395 0.129212
v -0.359411 0.107395 0.183338
v -0.287704 0.107395 0.099640
v -0.093765 0.377054 0.070469
v -0.075905 0.394914 0.070469
v -0.093765 0.394914 0.070469
v -0.075905 0.377054 0.070469
v -0.075905 0.377054 0.052609
v -0.093765 0.377054 0.052609
v -0.075905 0.394914 0.052609
v -0.080370 0.381519 0.052609
v -0.080370 0.394914 0.052609
v -0.093765 0.381519 0.052609
v -0.093765 0.394914 0.025819
v -0.093765 0.385984 0.025819
v -0.080370 0.394914 0.025819
v -0.080370 0.385984 0.025819
v -0.454466 0.227715 0.219212
v -0.287704 0.227715 0.287983
v -0.287704 0.227715 0.024567
v -0.454466 0.227715 0.093338
v -0.120941 0.227715 0.219212
v -0.215996 0.107395 0.129212
v -0.215996 0.107395 0.183338
v -0.120941 0.227715 0.093338
v -0.000000 0.406315 0.308085
v -0.000000 0.406315 0.078138
v -0.000000 0.406315 0.234413
v -0.000000 0.406315 0.004465
v -0.008930 0.406315 0.013395
v -0.084835 0.406315 0.004465
v -0.075905 0.406315 0.013395
v -0.008930 0.406315 0.078138
v -0.084835 0.406315 0.308085
v -0.075905 0.406315 0.299155
v -0.008930 0.406315 0.299155
v -0.008930 0.406315 0.234413
v -0.084835 0.450965 0.004465
v -0.000000 0.450965 0.004465
v -0.457055 0.147345 0.208655
v -0.427535 0.111625 0.113026
v -0.427535 0.111625 0.199524
v -0.457055 0.147345 0.103896
v -0.008930 0.227715 0.035720
v -0.075905 0.227715 0.087068
v -0.075905 0.227715 0.035720
v -0.008930 0.227715 0.087068
v -0.000000 0.450965 0.308085
v -0.084835 0.450965 0.308085
v -0.000000 0.450965 0.078138
v -0.000000 0.450965 0.234413
v -0.075905 0.227715 0.225483
v -0.075905 0.227715 0.276830
v -0.008930 0.227715 0.276830
v -0.008930 0.227715 0.225483
v -0.287704 0.147345 0.261034
v -0.287704 0.111625 0.242773
v -0.287704 0.183065 0.312550
v -0.098230 0.227715 0.234413
v -0.287704 0.227715 0.312550
v -0.098230 0.183065 0.234413
v -0.477177 0.227715 0.078137
v -0.477177 0.183065 0.234413
v -0.477177 0.227715 0.234413
v -0.477177 0.183065 0.078137
v -0.118352 0.147345 0.208655
v -0.147872 0.111625 0.199524
v -0.147872 0.111625 0.113026
v -0.118352 0.147345 0.103896
v -0.287704 0.111625 0.069777
v -0.287704 0.147345 0.051516
v -0.098230 0.183065 0.078138
v -0.287704 0.183065 -0.000000
v -0.287704 0.227715 -0.000000
v -0.098230 0.227715 0.087068
v -0.098230 0.227715 0.225483
v -0.098230 0.227715 0.078138
v -0.287704 0.000000 0.033488
v -0.467923 0.035720 0.089229
v -0.287704 0.035720 0.033488
v -0.467923 0.000000 0.089229
v -0.287704 0.035720 0.251423
v -0.147872 0.075905 0.199524
v -0.287704 0.075905 0.242773
v -0.133889 0.035720 0.203849
v -0.098230 0.191995 0.225483
v -0.008930 0.191995 0.225483
v -0.287704 0.000000 0.279062
v -0.107484 0.035720 0.223321
v -0.287704 0.035720 0.279062
v -0.107484 0.000000 0.223321
v -0.133889 0.035720 0.108701
v -0.287704 0.075905 0.069777
v -0.147872 0.075905 0.113026
v -0.287704 0.035720 0.061127
v -0.427535 0.075905 0.113026
v -0.441518 0.035720 0.108701
v -0.427535 0.075905 0.199524
v -0.467923 0.000000 0.223321
v -0.467923 0.035720 0.223321
v -0.107484 0.000000 0.089229
v -0.441518 0.035720 0.203849
v -0.107484 0.035720 0.089229
v -0.008930 0.191995 0.087068
v -0.098230 0.191995 0.087068
v -0.287704 0.227715 0.287983
v -0.132615 0.247715 0.214806
v -0.287704 0.247715 0.278764
v -0.120941 0.227715 0.219212
v -0.132615 0.247715 0.097744
v -0.454466 0.227715 0.219212
v -0.442792 0.247715 0.214806
v -0.442792 0.247715 0.097744
v -0.454466 0.227715 0.093338
v -0.287704 0.227715 0.024567
v -0.287704 0.247715 0.033786
vn -0.0000 1.0000 -0.0000
vn -0.0000 -0.0000 1.0000
vn -0.0000 -1.0000 -0.0000
vn -0.0000 -0.0000 -1.0000
vn -1.0000 -0.0000 -0.0000
vn -0.0000 -0.9864 -0.1644
vn 1.0000 -0.0000 -0.0000
vn 0.3302 0.4997 -0.8008
vn 0.3302 0.4997 0.8008
vn -0.7847 0.6199 -0.0000
vn -0.3302 0.4997 -0.8008
vn -0.3302 0.4997 0.8008
vn 0.7847 0.6199 -0.0000
vn 0.9939 0.1098 -0.0000
vn 1.0000 -0.0027 -0.0000
vn -0.7708 -0.6370 -0.0000
vn -1.0000 0.0027 -0.0000
vn -0.2655 -0.4388 0.8584
vn 0.3812 -0.0000 0.9245
vn -0.0000 -0.1240 0.9923
vn -0.0000 -0.1240 -0.9923
vn 0.2655 -0.4388 0.8584
vn 0.7708 -0.6370 -0.0000
vn -0.2655 -0.4388 -0.8584
vn -0.8713 -0.4908 -0.0000
vn 0.8713 -0.4908 -0.0000
vn 0.2655 -0.4388 -0.8584
vn -0.3812 -0.0000 -0.9245
vn -0.3812 -0.0000 0.9245
vn 0.3812 -0.0000 -0.9245
vn -0.2955 -0.0000 -0.9553
vn -0.1736 -0.8093 0.5612
vn 0.2894 0.2014 0.9358
vn 0.2288 -0.8000 0.5547
vn 0.2955 -0.0000 0.9553
vn 0.2894 0.2014 -0.9358
vn 0.9445 0.3286 -0.0000
vn -0.2894 0.2014 -0.9358
vn 0.2245 -0.6500 0.7260
vn 0.2955 -0.0000 -0.9553
vn -0.2955 -0.0000 0.9553
vn -0.2894 0.2014 0.9358
vn -0.9445 0.3286 -0.0000
vn 0.2860 -0.6612 -0.6935
vn -0.2288 -0.8000 -0.5547
vn -0.2860 -0.6612 0.6935
vn 0.1736 -0.8093 -0.5612
vn -0.2245 -0.6500 -0.7260
vn 0.3507 0.3920 0.8505
vn 0.8637 0.5041 -0.0000
vn -0.3507 0.3920 0.8505
vn -0.8637 0.5041 -0.0000
vn -0.3507 0.3920 -0.8505
vn 0.3507 0.3920 -0.8505
s 0
f 1//1 2//1 3//1
f 2//1 1//1 4//1
f 5//2 6//2 7//2
f 6//2 5//2 8//2
f 9//3 5//3 10//3
f 5//3 9//3 8//3
f 11//4 12//4 13//4
f 9//4 12//4 11//4
f 9//4 14//4 12//4
f 14//4 9//4 10//4
f 14//5 15//5 16//5
f 15//5 14//5 7//5
f 7//5 14//5 5//5
f 5//5 14//5 10//5
f 7//1 17//1 15//1
f 7//1 13//1 17//1
f 7//1 11//1 13//1
f 11//1 7//1 6//1
f 18//6 14//6 16//6
f 14//6 18//6 12//6
f 18//4 15//4 17//4
f 15//4 18//4 16//4
f 18//7 13//7 12//7
f 13//7 18//7 17//7
f 1//8 19//8 20//8
f 19//8 1//8 3//8
f 2//9 21//9 22//9
f 21//9 2//9 4//9
f 23//10 24//10 25//10
f 24//10 23//10 26//10
f 25//11 20//11 23//11
f 20//11 25//11 1//11
f 4//12 26//12 21//12
f 26//12 4//12 24//12
f 2//13 19//13 3//13
f 19//13 2//13 22//13
f 27//14 28//14 29//14
f 28//15 27//15 30//15
f 30//3 31//3 32//3
f 30//3 27//3 31//3
f 32//3 31//3 33//3
f 31//3 27//3 34//3
f 33//3 35//3 32//3
f 36//3 35//3 33//3
f 37//3 35//3 36//3
f 37//3 27//3 35//3
f 38//3 27//3 37//3
f 27//3 38//3 34//3
f 30//4 39//4 40//4
f 39//4 30//4 32//4
f 41//16 42//16 43//16
f 42//16 41//16 44//16
f 45//3 46//3 47//3
f 46//3 45//3 48//3
f 49//1 39//1 50//1
f 49//1 40//1 39//1
f 49//17 51//17 40//17
f 51//3 49//3 52//3
f 36//5 53//5 54//5
f 36//5 46//5 53//5
f 36//5 6//5 46//5
f 36//5 11//5 6//5
f 33//5 11//5 36//5
f 11//5 33//5 47//5
f 11//5 47//5 9//5
f 8//5 46//5 6//5
f 9//5 46//5 8//5
f 46//5 9//5 47//5
f 53//3 55//3 54//3
f 55//3 53//3 56//3
f 43//18 57//18 41//18
f 57//18 43//18 58//18
f 59//19 60//19 61//19
f 60//19 59//19 62//19
f 54//20 37//20 36//20
f 37//20 54//20 55//20
f 63//5 64//5 65//5
f 64//5 63//5 66//5
f 45//21 33//21 31//21
f 33//21 45//21 47//21
f 39//5 35//5 50//5
f 35//5 39//5 32//5
f 29//7 49//7 27//7
f 29//7 52//7 49//7
f 28//7 52//7 29//7
f 28//7 51//7 52//7
f 30//7 51//7 28//7
f 51//7 30//7 40//7
f 35//2 49//2 50//2
f 49//2 35//2 27//2
f 58//22 67//22 57//22
f 67//22 58//22 68//22
f 69//23 67//23 68//23
f 67//23 69//23 70//23
f 71//24 44//24 72//24
f 44//24 71//24 42//24
f 64//25 44//25 41//25
f 44//25 64//25 66//25
f 70//26 62//26 67//26
f 62//26 70//26 73//26
f 69//27 72//27 70//27
f 72//27 69//27 71//27
f 1//1 24//1 4//1
f 24//1 1//1 25//1
f 74//28 63//28 75//28
f 63//28 74//28 66//28
f 64//29 61//29 65//29
f 61//29 64//29 59//29
f 76//1 53//1 46//1
f 53//1 76//1 77//1
f 61//1 20//1 19//1
f 61//1 23//1 20//1
f 61//1 19//1 65//1
f 19//1 63//1 65//1
f 22//1 63//1 19//1
f 21//1 63//1 22//1
f 21//1 75//1 63//1
f 26//1 75//1 21//1
f 75//1 26//1 78//1
f 23//1 78//1 26//1
f 77//1 61//1 60//1
f 61//1 77//1 23//1
f 23//1 77//1 78//1
f 78//1 77//1 76//1
f 73//30 75//30 78//30
f 75//30 73//30 74//30
f 79//31 80//31 81//31
f 80//31 79//31 82//31
f 41//32 57//32 59//32
f 83//33 84//33 85//33
f 84//33 83//33 86//33
f 59//34 57//34 62//34
f 85//35 68//35 58//35
f 68//35 85//35 84//35
f 77//1 56//1 53//1
f 87//2 56//2 77//2
f 56//2 87//2 88//2
f 89//35 90//35 91//35
f 90//35 89//35 92//35
f 93//36 94//36 95//36
f 94//36 93//36 96//36
f 86//37 95//37 84//37
f 95//37 86//37 93//37
f 96//38 97//38 94//38
f 97//38 96//38 98//38
f 95//7 68//7 84//7
f 68//7 95//7 69//7
f 62//39 57//39 67//39
f 95//40 71//40 69//40
f 71//40 95//40 94//40
f 94//31 42//31 71//31
f 42//31 94//31 97//31
f 42//5 99//5 43//5
f 99//5 42//5 97//5
f 80//5 100//5 101//5
f 100//5 80//5 82//5
f 100//41 91//41 101//41
f 91//41 100//41 89//41
f 82//3 89//3 100//3
f 79//3 89//3 82//3
f 102//3 89//3 79//3
f 89//3 102//3 92//3
f 103//42 85//42 99//42
f 85//42 103//42 83//42
f 102//7 90//7 92//7
f 90//7 102//7 104//7
f 102//40 81//40 104//40
f 81//40 102//40 79//40
f 48//1 76//1 46//1
f 105//4 76//4 48//4
f 76//4 105//4 106//4
f 76//7 73//7 78//7
f 77//7 106//7 76//7
f 73//7 76//7 106//7
f 73//7 106//7 62//7
f 106//7 77//7 87//7
f 62//7 106//7 87//7
f 62//7 87//7 60//7
f 60//7 87//7 77//7
f 105//7 56//7 88//7
f 56//7 105//7 48//7
f 55//7 38//7 37//7
f 56//7 38//7 55//7
f 48//7 38//7 56//7
f 48//7 34//7 38//7
f 45//7 34//7 48//7
f 34//7 45//7 31//7
f 97//43 103//43 99//43
f 103//43 97//43 98//43
f 106//3 88//3 87//3
f 88//3 106//3 105//3
f 73//44 70//44 74//44
f 66//45 74//45 72//45
f 64//46 41//46 59//46
f 72//47 74//47 70//47
f 99//41 58//41 43//41
f 58//41 99//41 85//41
f 66//48 72//48 44//48
f 91//1 83//1 103//1
f 91//1 86//1 83//1
f 91//1 103//1 101//1
f 90//1 86//1 91//1
f 86//1 90//1 104//1
f 86//1 104//1 93//1
f 103//1 80//1 101//1
f 98//1 80//1 103//1
f 98//1 81//1 80//1
f 96//1 81//1 98//1
f 93//1 81//1 96//1
f 81//1 93//1 104//1
f 107//49 108//49 109//49
f 108//49 107//49 110//49
f 110//50 111//50 108//50
f 111//50 110//50 26//50
f 109//51 112//51 107//51
f 112//51 109//51 113//51
f 114//52 112//52 113//52
f 112//52 114//52 115//52
f 114//53 116//53 115//53
f 116//53 114//53 117//53
f 26//54 117//54 111//54
f 117//54 26//54 116//54
f 109//1 114//1 113//1
f 109//1 117//1 114//1
f 108//1 117//1 109//1
f 117//1 108//1 111//1
f 116//3 112//3 115//3
f 116//3 107//3 112//3
f 26//3 107//3 116//3
f 107//3 26//3 110//3
