# Blender 4.5.2 LTS
# www.blender.org
o M
v -8.147552 0.589640 -9.843558
v -8.046507 1.240910 -10.041819
v -7.430151 2.243195 -15.592129
v -7.430151 3.182926 -14.181649
v -7.408508 0.595502 -12.552266
v -7.408508 2.427942 -12.235441
v -7.738284 0.493676 -10.957079
v -7.738284 1.728488 -10.879822
v -7.315745 0.697260 -14.484285
v -7.114409 2.811536 -13.337519
v -7.753527 3.338284 -15.618234
v -7.753527 3.840688 -14.565128
v -7.784823 3.846180 -15.667522
v -7.994045 4.306695 -15.415301
v -8.083037 0.915945 -9.779656
v -7.912711 4.071867 -15.709847
v -7.885458 0.456236 -10.369843
v -7.496560 1.125913 -10.918451
v -7.885458 1.416615 -10.336399
v -7.281544 0.651468 -13.457495
v -6.639346 1.780018 -14.099920
v -7.281545 2.632895 -12.836363
v -7.043025 1.513370 -12.393853
v -7.544405 0.545806 -11.707205
v -7.544405 2.135133 -11.547756
v -7.238317 0.982668 -15.200691
v -7.074044 2.713061 -14.886889
v -7.238317 2.939735 -13.816996
v -7.672550 2.963403 -15.552888
v -7.518023 3.589487 -15.091681
v -7.672550 3.552858 -14.349168
v -7.872010 3.587323 -15.706763
v -7.872010 4.172730 -14.997243
v -7.700540 0.945381 -10.347233
v -6.868596 1.642761 -13.146929
v -7.229970 1.349115 -11.627481
v -6.810026 2.214370 -14.508843
v -7.406872 3.258131 -14.951027
v -7.680898 3.883039 -15.358231
v -8.046511 3.987504 -16.068262
v -7.959913 3.772304 -16.171852
v -8.017744 3.635161 -16.066362
v -7.033616 0.819393 -14.341381
v -7.061814 0.654207 -13.623384
v -6.775023 1.107355 -14.164211
v -6.773466 0.997681 -13.499953
v -5.236347 0.309610 -14.345976
v -5.309607 0.312780 -13.727178
v -5.448822 0.371875 -14.280804
v -5.487430 0.382730 -13.698194
v -7.710698 0.430199 -9.488085
v -7.678388 0.958643 -9.313616
v -7.243643 0.193885 -10.065149
v -6.949485 1.021792 -9.868591
v -7.125275 0.337272 -8.936620
v -7.109224 0.683080 -8.849943
v -6.790790 0.219872 -9.160545
v -6.644653 0.714453 -9.062895
v -6.655168 0.265332 -8.619806
v -8.631097 0.589640 -9.843558
v -8.732142 1.240910 -10.041819
v -9.348498 2.243195 -15.592129
v -9.348498 3.182926 -14.181649
v -9.370142 0.595502 -12.552266
v -9.370142 2.427942 -12.235441
v -9.040365 0.493676 -10.957079
v -9.040365 1.728488 -10.879822
v -9.462903 0.697260 -14.484285
v -9.664241 2.811536 -13.337519
v -9.025120 3.338284 -15.618234
v -9.025120 3.840688 -14.565128
v -8.993822 3.846180 -15.667522
v -8.784600 4.306695 -15.415301
v -8.389324 0.527764 -9.998805
v -8.695612 0.915945 -9.779656
v -8.389324 1.304295 -9.984751
v -8.389322 4.407086 -15.443257
v -8.865934 4.071867 -15.709847
v -8.389324 0.285224 -10.971565
v -8.893191 0.456236 -10.369843
v -9.282089 1.125913 -10.918451
v -8.893191 1.416615 -10.336399
v -8.389324 1.982209 -10.865336
v -8.389324 0.371529 -14.475839
v -9.497105 0.651468 -13.457495
v -8.389325 0.251297 -12.611670
v -10.139303 1.780019 -14.099920
v -9.497105 2.632895 -12.836363
v -9.735625 1.513370 -12.393853
v -8.389325 3.198222 -13.132327
v -8.389325 2.774074 -12.176037
v -9.234245 0.545806 -11.707205
v -9.234245 2.135133 -11.547756
v -8.389325 2.066996 -15.856593
v -9.540332 0.982668 -15.200691
v -9.704605 2.713061 -14.886889
v -9.540332 2.939735 -13.816996
v -8.389324 3.359126 -13.917184
v -8.389323 3.244083 -15.815692
v -9.106099 2.963404 -15.552888
v -9.260624 3.589487 -15.091681
v -9.106099 3.552858 -14.349168
v -8.389323 3.934890 -14.367670
v -8.906636 3.587323 -15.706763
v -8.906636 4.172730 -14.997243
v -8.389324 0.916336 -9.872218
v -8.389322 4.135998 -15.842413
v -8.389324 0.290062 -10.369918
v -9.078109 0.945381 -10.347233
v -8.389324 1.607991 -10.324550
v -8.389325 0.279266 -13.573957
v -9.910052 1.642762 -13.146929
v -8.389325 3.003712 -12.719900
v -8.389325 0.265024 -11.737102
v -9.548680 1.349115 -11.627481
v -8.389325 2.454710 -11.517860
v -8.389325 0.710656 -15.460135
v -9.968623 2.214370 -14.508843
v -8.389325 3.285758 -13.557552
v -8.389324 2.852881 -15.778584
v -9.371777 3.258131 -14.951027
v -8.389324 3.663380 -14.123470
v -8.389323 3.477716 -15.843027
v -9.097748 3.883040 -15.358231
v -8.389322 4.288363 -14.873435
v -8.732134 3.987504 -16.068262
v -8.818732 3.772304 -16.171852
v -8.389322 3.743744 -16.232437
v -8.760901 3.635161 -16.066362
v -8.389322 4.034137 -16.149900
v -8.389322 3.555459 -16.150278
v -9.745033 0.819393 -14.341381
v -9.716834 0.654208 -13.623384
v -10.003625 1.107356 -14.164211
v -10.005182 0.997681 -13.499953
v -11.542301 0.309611 -14.345977
v -11.469042 0.312781 -13.727178
v -11.329827 0.371876 -14.280804
v -11.291218 0.382731 -13.698194
v -9.067951 0.430199 -9.488084
v -9.100260 0.958642 -9.313614
v -9.535007 0.193885 -10.065149
v -9.829163 1.021792 -9.868591
v -9.653373 0.337272 -8.936619
v -9.669424 0.683080 -8.849943
v -9.987858 0.219872 -9.160543
v -10.133995 0.714453 -9.062895
v -10.123480 0.265332 -8.619805
v -8.074132 4.101783 -15.657922
v -8.035536 4.077390 -15.657922
v -8.035536 4.567611 -15.657923
v -8.074132 4.543218 -15.657921
v -8.035536 4.077390 -15.744479
v -8.074132 4.101784 -15.744479
v -8.074132 4.543218 -15.744479
v -8.035536 4.567612 -15.744479
v -7.983027 4.077390 -15.657922
v -7.944431 4.101783 -15.657922
v -7.944431 4.543218 -15.657921
v -7.983027 4.567611 -15.657923
v -7.944431 4.101784 -15.744479
v -7.983027 4.077390 -15.744479
v -7.983027 4.567612 -15.744479
v -7.944431 4.543218 -15.744479
v -8.704514 4.101783 -15.657922
v -8.743109 4.077390 -15.657922
v -8.743109 4.567612 -15.657923
v -8.704514 4.543218 -15.657922
v -8.743109 4.077390 -15.744479
v -8.704514 4.101784 -15.744479
v -8.704514 4.543218 -15.744479
v -8.743109 4.567611 -15.744479
v -8.795618 4.077390 -15.657922
v -8.834213 4.101784 -15.657922
v -8.834213 4.543218 -15.657922
v -8.795618 4.567612 -15.657923
v -8.834213 4.101784 -15.744479
v -8.795618 4.077390 -15.744479
v -8.795618 4.567612 -15.744479
v -8.834213 4.543219 -15.744479
v -6.680987 0.423981 -14.344946
v -6.388485 0.309610 -14.345976
v -6.553066 0.343109 -14.345675
v -6.461299 0.312780 -13.727178
v -6.773973 0.414252 -13.696330
v -6.631974 0.342501 -13.718143
v -6.424560 0.545417 -14.259829
v -6.172835 0.412365 -14.280804
v -6.318986 0.455386 -14.274660
v -6.468190 0.552450 -13.656259
v -6.211860 0.423244 -13.698194
v -6.359188 0.465128 -13.685911
v -10.390163 0.309610 -14.345977
v -10.097662 0.423982 -14.344946
v -10.225582 0.343109 -14.345675
v -10.004676 0.414253 -13.696330
v -10.317349 0.312781 -13.727178
v -10.146675 0.342501 -13.718143
v -10.605813 0.412366 -14.280804
v -10.354089 0.545417 -14.259828
v -10.459663 0.455386 -14.274660
v -10.566788 0.423245 -13.698195
v -10.310459 0.552450 -13.656259
v -10.419460 0.465129 -13.685911
v -8.103529 3.495983 -16.155357
v -8.103529 3.693546 -16.109009
v -8.003458 3.487186 -16.108561
v -8.003458 3.682617 -16.062632
v -7.978743 3.467418 -16.003414
v -7.978743 3.658060 -15.958426
v -8.047994 3.451566 -15.919091
v -8.047994 3.638366 -15.874858
v -8.159064 3.451566 -15.919091
v -8.159064 3.638366 -15.874858
v -8.228315 3.467418 -16.003414
v -8.228315 3.658060 -15.958426
v -8.203600 3.487186 -16.108561
v -8.203600 3.682617 -16.062632
v -8.103529 2.984216 -16.186659
v -8.015532 2.978337 -16.145287
v -7.993799 2.965127 -16.052322
v -8.054694 2.954534 -15.977770
v -8.152364 2.954534 -15.977770
v -8.213260 2.965127 -16.052322
v -8.191526 2.978337 -16.145287
v -8.103529 2.074979 -16.110001
v -8.103529 2.096144 -16.142950
v -8.048372 2.097213 -16.117317
v -8.075715 2.075522 -16.097069
v -8.034611 2.099604 -16.059555
v -8.068846 2.076742 -16.068010
v -8.072805 2.101496 -16.013054
v -8.088094 2.077720 -16.044708
v -8.134254 2.101496 -16.013054
v -8.118965 2.077720 -16.044708
v -8.172448 2.099604 -16.059555
v -8.138213 2.076742 -16.068010
v -8.158686 2.097213 -16.117317
v -8.131344 2.075522 -16.097069
v -8.675117 3.495983 -16.155357
v -8.675117 3.693546 -16.109009
v -8.775187 3.487186 -16.108561
v -8.775187 3.682617 -16.062632
v -8.799904 3.467418 -16.003414
v -8.799904 3.658060 -15.958426
v -8.730652 3.451566 -15.919091
v -8.730652 3.638366 -15.874858
v -8.619581 3.451566 -15.919091
v -8.619581 3.638366 -15.874858
v -8.550330 3.467418 -16.003414
v -8.550330 3.658060 -15.958426
v -8.575046 3.487186 -16.108561
v -8.575046 3.682617 -16.062632
v -8.675117 2.984216 -16.186659
v -8.763114 2.978337 -16.145287
v -8.784847 2.965127 -16.052322
v -8.723951 2.954534 -15.977770
v -8.626282 2.954534 -15.977770
v -8.565386 2.965127 -16.052322
v -8.587120 2.978337 -16.145287
v -8.675117 2.074979 -16.110001
v -8.675117 2.096144 -16.142950
v -8.730273 2.097213 -16.117317
v -8.702931 2.075522 -16.097069
v -8.744036 2.099605 -16.059555
v -8.709801 2.076742 -16.068010
v -8.705841 2.101496 -16.013054
v -8.690553 2.077720 -16.044708
v -8.644393 2.101496 -16.013054
v -8.659681 2.077720 -16.044708
v -8.606198 2.099605 -16.059555
v -8.640433 2.076742 -16.068010
v -8.619960 2.097213 -16.117317
v -8.647303 2.075522 -16.097069
vn -0.4337 -0.6284 0.6458
vn -0.0000 0.1671 0.9859
vn -0.0000 -0.7795 0.6264
vn 0.4558 0.5267 0.7176
vn -0.0000 0.5420 0.8404
vn 0.4912 0.8547 -0.1682
vn -0.0000 0.9037 -0.4282
vn -0.0000 0.9801 -0.1987
vn 0.9325 0.0738 -0.3535
vn 0.4919 -0.7349 -0.4668
vn 0.6259 -0.0716 -0.7766
vn 0.4420 0.6822 -0.5825
vn -0.0000 0.6792 -0.7339
vn -0.0000 -0.9998 0.0196
vn 0.3848 -0.9184 -0.0925
vn -0.0000 -0.9626 0.2708
vn 0.6744 -0.7276 0.1258
vn 0.9418 0.3361 -0.0003
vn 0.9414 -0.0250 0.3363
vn 0.6114 0.5617 0.5574
vn -0.2833 0.5188 0.8066
vn 0.3167 -0.7919 -0.5220
vn 0.6260 0.5818 0.5192
vn -0.0000 0.7976 0.6032
vn 0.4989 -0.8262 -0.2617
vn -0.0000 -0.9986 -0.0529
vn -0.0000 -0.9776 -0.2103
vn 0.6804 -0.7302 0.0625
vn -0.0000 -0.9999 -0.0117
vn 0.0040 -0.9112 0.4120
vn 0.4749 -0.8618 0.1783
vn 0.7126 0.6590 0.2408
vn 0.9527 0.0002 0.3039
vn 0.9936 0.0625 -0.0942
vn 0.6666 0.6307 0.3973
vn 0.9725 -0.0365 0.2301
vn -0.0000 0.9479 0.3186
vn -0.0000 0.9129 0.4082
vn 0.6663 0.6421 0.3791
vn 0.6866 -0.7199 0.1022
vn -0.0000 -0.9998 0.0183
vn 0.9578 -0.0230 0.2865
vn 0.6482 0.6087 0.4576
vn -0.0000 0.8607 0.5091
vn -0.0000 0.8152 0.5792
vn -0.0000 -0.1019 -0.9948
vn 0.6361 -0.5131 -0.5763
vn -0.0000 -0.6908 -0.7231
vn 0.5958 0.0249 -0.8027
vn 0.9462 0.2316 -0.2260
vn 0.8812 0.3677 -0.2971
vn 0.6641 0.7390 0.1135
vn 0.6463 0.7164 0.2627
vn -0.0000 0.9736 0.2282
vn -0.0000 -0.1165 -0.9932
vn 0.6017 0.1498 -0.7846
vn -0.0000 0.0235 -0.9997
vn 0.6595 0.0064 -0.7517
vn 0.9013 0.3995 -0.1677
vn 0.9419 0.3108 -0.1271
vn 0.6141 0.5886 0.5259
vn 0.6277 0.6321 0.4544
vn -0.0000 0.6126 0.7904
vn -0.0000 0.8520 0.5235
vn 0.7243 -0.2555 -0.6404
vn -0.0000 -0.6651 -0.7467
vn 0.9035 0.3624 -0.2288
vn 0.6360 0.6571 -0.4047
vn 0.5931 0.7675 0.2435
vn -0.0000 0.9114 0.4116
vn -0.0000 -0.0795 -0.9968
vn -0.0000 -0.7573 -0.6530
vn -0.0244 -0.5655 -0.8244
vn 0.1179 0.9339 -0.3376
vn 0.8166 -0.1047 -0.5676
vn 0.7454 -0.1532 0.6488
vn 0.8297 0.1405 -0.5403
vn 0.2959 -0.3887 -0.8725
vn -0.8368 -0.1645 0.5223
vn 0.0244 -0.5655 -0.8244
vn 0.0616 -0.8114 0.5813
vn 0.5694 0.2225 0.7914
vn 0.5630 0.5767 -0.5920
vn -0.0616 -0.8114 0.5813
vn 0.1821 0.5731 0.7990
vn 0.1297 0.5814 0.8032
vn 0.1153 0.8352 -0.5377
vn 0.8368 -0.1645 0.5223
vn -0.4168 -0.7449 0.5210
vn -0.3713 -0.4631 -0.8048
vn -0.5941 -0.6613 0.4580
vn -0.2871 0.4977 0.8184
vn -0.4766 0.6376 0.6053
vn 0.6453 0.6675 -0.3715
vn 0.5133 -0.8431 -0.1605
vn 0.8333 0.5340 0.1431
vn 0.4748 -0.4128 0.7773
vn -0.5353 -0.6524 0.5364
vn 0.4337 -0.6284 0.6458
vn -0.4558 0.5267 0.7176
vn 0.2833 0.5188 0.8066
vn -0.4912 0.8547 -0.1682
vn -0.9325 0.0738 -0.3535
vn -0.4919 -0.7349 -0.4668
vn -0.7243 -0.2555 -0.6404
vn -0.4420 0.6822 -0.5825
vn -0.6360 0.6571 -0.4047
vn -0.3848 -0.9184 -0.0925
vn -0.6744 -0.7276 0.1258
vn -0.9418 0.3361 -0.0003
vn -0.9414 -0.0250 0.3363
vn -0.6114 0.5617 0.5574
vn -0.6260 0.5818 0.5192
vn -0.3167 -0.7919 -0.5220
vn -0.4989 -0.8262 -0.2617
vn -0.6804 -0.7302 0.0625
vn -0.4749 -0.8618 0.1783
vn -0.0040 -0.9112 0.4120
vn -0.9527 0.0002 0.3039
vn -0.7126 0.6590 0.2408
vn -0.9936 0.0625 -0.0942
vn -0.9725 -0.0365 0.2301
vn -0.6666 0.6307 0.3973
vn -0.6663 0.6421 0.3791
vn -0.6866 -0.7199 0.1022
vn -0.9578 -0.0230 0.2865
vn -0.6482 0.6087 0.4576
vn -0.6361 -0.5131 -0.5763
vn -0.5958 0.0249 -0.8027
vn -0.9462 0.2316 -0.2260
vn -0.8812 0.3677 -0.2971
vn -0.6641 0.7390 0.1135
vn -0.6463 0.7164 0.2627
vn -0.6017 0.1498 -0.7846
vn -0.6595 0.0064 -0.7517
vn -0.9013 0.3995 -0.1677
vn -0.9419 0.3108 -0.1271
vn -0.6141 0.5886 0.5259
vn -0.6277 0.6321 0.4544
vn -0.0000 0.7431 0.6692
vn -0.9035 0.3624 -0.2288
vn -0.5930 0.7675 0.2435
vn -0.6259 -0.0716 -0.7766
vn -0.1179 0.9339 -0.3376
vn -0.1153 0.8352 -0.5377
vn -0.7454 -0.1532 0.6488
vn -0.2959 -0.3887 -0.8725
vn -0.8297 0.1405 -0.5403
vn -0.5694 0.2225 0.7914
vn 0.4168 -0.7449 0.5210
vn -0.1821 0.5731 0.7990
vn -0.1297 0.5814 0.8032
vn -0.8166 -0.1047 -0.5676
vn -0.5630 0.5767 -0.5920
vn 0.2871 0.4977 0.8184
vn 0.5941 -0.6613 0.4580
vn 0.4766 0.6376 0.6053
vn -0.5133 -0.8431 -0.1605
vn -0.4748 -0.4128 0.7773
vn -0.8333 0.5340 0.1431
vn -0.6453 0.6675 -0.3715
vn 0.5353 -0.6524 0.5364
vn 0.2114 0.7303 0.6495
vn -0.6921 0.3813 0.6129
vn -0.2115 -0.7303 0.6495
vn 0.6921 -0.3813 -0.6129
vn 0.6920 0.3813 0.6129
vn 0.6921 -0.3813 0.6129
vn -0.2115 0.7303 -0.6495
vn 0.2115 0.7303 -0.6495
vn -0.6921 -0.3813 -0.6129
vn -0.6921 -0.3813 0.6129
vn 0.6921 0.3813 -0.6129
vn 0.2115 -0.7303 -0.6495
vn -0.2114 -0.7303 -0.6495
vn -0.2114 0.7304 0.6495
vn -0.6921 0.3813 -0.6129
vn 0.2115 -0.7303 0.6495
vn 0.6921 0.3813 0.6129
vn -0.2114 0.7303 0.6495
vn -0.6920 0.3813 0.6129
vn 0.2114 0.7303 -0.6495
vn -0.2114 0.7303 -0.6495
vn 0.2114 -0.7303 -0.6495
vn -0.2032 -0.5748 -0.7927
vn -0.2297 -0.8068 0.5443
vn 0.3202 0.7382 -0.5937
vn 0.3756 0.4275 0.8223
vn 0.3713 -0.4631 -0.8048
vn 0.2297 -0.8068 0.5443
vn 0.2032 -0.5748 -0.7927
vn -0.3202 0.7382 -0.5937
vn -0.3756 0.4275 0.8223
vn -0.0000 0.7847 -0.6198
vn 0.7700 0.0874 -0.6320
vn -0.0000 0.1461 -0.9893
vn 0.6110 0.7170 -0.3354
vn 0.9786 -0.0484 0.1999
vn 0.7642 0.5637 0.3135
vn 0.4391 -0.1592 0.8842
vn 0.3379 0.4426 0.8306
vn -0.4391 -0.1592 0.8842
vn -0.7642 0.5637 0.3135
vn -0.9786 -0.0484 0.1999
vn -0.6110 0.7170 -0.3354
vn -0.7700 0.0874 -0.6320
vn -0.7700 -0.0105 -0.6380
vn -0.9770 -0.0498 0.2075
vn 0.9770 -0.0498 0.2075
vn 0.6971 -0.4563 -0.5531
vn 0.7700 -0.0105 -0.6380
vn 0.4355 -0.0785 0.8967
vn -0.0000 0.0078 -1.0000
vn -0.4355 -0.0785 0.8967
vn -0.0000 -0.4574 -0.8892
vn -0.6971 -0.4563 -0.5531
vn -0.8676 -0.4490 0.2138
vn 0.3791 -0.4402 0.8140
vn 0.2776 -0.9400 -0.1983
vn 0.1471 -0.9255 0.3490
vn -0.3427 -0.9326 0.1134
vn -0.3791 -0.4402 0.8140
vn 0.8676 -0.4490 0.2138
vn -0.0000 -0.9425 -0.3342
vn 0.3427 -0.9326 0.1134
vn -0.1471 -0.9255 0.3490
vn -0.2776 -0.9400 -0.1983
vn -0.0000 0.7848 -0.6198
vn -0.3379 0.4426 0.8306
vn 0.9786 -0.0484 0.2000
s 1
f 1//1 106//2 74//3
f 106//2 2//4 76//5
f 14//6 107//7 77//8
f 13//9 42//10 41//11
f 107//7 40//12 130//13
f 79//14 17//15 108//16
f 17//15 74//3 108//16
f 7//17 34//18 17//15
f 18//19 19//20 34//18
f 34//18 2//4 15//21
f 34//18 53//22 17//15
f 8//23 110//24 19//20
f 110//24 2//4 19//20
f 9//25 111//26 84//27
f 111//26 5//28 86//29
f 9//25 44//30 20//31
f 10//32 35//33 21//34
f 22//35 23//36 35//33
f 35//33 5//28 20//31
f 90//37 22//35 10//32
f 113//38 6//39 22//35
f 86//29 24//40 114//41
f 114//41 7//17 79//14
f 5//28 36//42 24//40
f 23//36 25//43 36//42
f 36//42 8//23 18//19
f 24//40 18//19 7//17
f 6//39 116//44 25//43
f 25//43 83//45 8//23
f 94//46 26//47 117//48
f 117//48 9//25 84//27
f 3//49 37//50 26//47
f 27//51 28//52 37//50
f 28//52 21//34 37//50
f 26//47 21//34 9//25
f 4//53 119//54 28//52
f 28//52 90//37 10//32
f 99//55 29//56 120//57
f 120//57 3//49 94//46
f 11//58 38//59 29//56
f 30//60 31//61 38//59
f 38//59 4//53 27//51
f 29//56 27//51 3//49
f 12//62 122//63 31//61
f 31//61 98//64 4//53
f 32//65 99//55 123//66
f 13//9 39//67 32//65
f 14//6 39//67 16//68
f 33//69 30//60 39//67
f 39//67 11//58 32//65
f 14//6 125//70 33//69
f 125//70 12//62 33//69
f 40//12 128//71 130//13
f 128//71 42//10 131//72
f 123//66 42//10 32//65
f 13//9 40//12 16//68
f 182//73 49//74 47//75
f 21//34 46//76 45//77
f 21//34 43//78 9//25
f 20//31 46//76 35//33
f 137//79 193//80 197//81
f 45//77 190//82 187//83
f 184//84 50//85 191//86
f 188//87 50//85 49//74
f 49//74 48//88 47//75
f 43//78 185//89 44//30
f 46//76 185//89 190//82
f 43//78 187//83 181//90
f 51//91 56//92 52//93
f 34//18 52//93 54//94
f 15//21 51//91 52//93
f 17//15 51//91 1//1
f 57//95 58//96 59//97
f 54//94 57//95 53//22
f 51//91 57//95 55//98
f 54//94 56//92 58//96
f 55//98 57//95 59//97
f 58//96 56//92 59//97
f 56//92 55//98 59//97
f 106//2 60//99 74//3
f 106//2 61//100 75//101
f 107//7 73//102 77//8
f 72//103 129//104 104//105
f 107//7 126//106 78//107
f 79//14 80//108 66//109
f 74//3 80//108 108//16
f 66//109 109//110 81//111
f 81//111 82//112 67//113
f 109//110 61//100 82//112
f 142//114 109//110 80//108
f 67//113 110//24 83//45
f 61//100 110//24 82//112
f 111//26 68//115 84//27
f 111//26 64//116 85//117
f 133//118 68//115 85//117
f 112//119 69//120 87//121
f 89//122 88//123 112//119
f 64//116 112//119 85//117
f 88//123 90//37 69//120
f 65//124 113//38 88//123
f 86//29 92//125 64//116
f 114//41 66//109 92//125
f 64//116 115//126 89//122
f 89//122 93//127 65//124
f 115//126 67//113 93//127
f 92//125 81//111 115//126
f 65//124 116//44 91//70
f 93//127 83//45 116//44
f 94//46 95//128 62//129
f 117//48 68//115 95//128
f 62//129 118//130 96//131
f 96//131 97//132 63//133
f 87//121 97//132 118//130
f 95//128 87//121 118//130
f 63//133 119//54 98//64
f 97//132 90//37 119//54
f 99//55 100//134 70//135
f 120//57 62//129 100//134
f 70//135 121//136 101//137
f 101//137 102//138 71//139
f 121//136 63//133 102//138
f 100//134 96//131 121//136
f 71//139 122//63 103//140
f 102//138 98//64 122//63
f 99//55 104//105 123//66
f 72//103 124//141 78//107
f 124//141 73//102 78//107
f 101//137 105//142 124//141
f 70//135 124//141 104//105
f 73//102 125//70 77//8
f 71//139 125//70 105//142
f 128//71 126//106 130//13
f 128//71 129//104 127//143
f 129//104 123//66 104//105
f 126//106 72//103 78//107
f 193//80 138//144 199//145
f 87//121 135//146 112//119
f 132//147 87//121 68//115
f 135//146 85//117 112//119
f 134//148 203//149 135//146
f 196//150 132//147 133//118
f 199//145 139//151 202//152
f 137//79 138//144 136//153
f 132//147 200//154 134//148
f 135//146 196//150 133//118
f 139//151 197//81 202//152
f 145//155 140//156 141//157
f 109//110 141//157 75//101
f 75//101 140//156 60//99
f 140//156 80//108 60//99
f 146//158 148//159 147//160
f 146//158 143//161 142//114
f 140//156 146//158 142//114
f 143//161 145//155 141//157
f 144//162 148//159 146//158
f 147//160 148//159 145//155
f 145//155 148//159 144//162
f 160//163 152//164 150//165
f 161//166 159//167 158//168
f 156//169 160//163 163//170
f 152//164 154//171 149//172
f 156//169 164//173 162//174
f 153//175 149//172 154//171
f 151//176 155//177 152//164
f 162//174 158//168 157//178
f 160//163 164//173 163//170
f 162//174 150//165 153//175
f 168//179 176//180 174//172
f 177//171 175//181 180//177
f 176//180 172//182 179//183
f 170//166 168//179 165//168
f 180//177 172//182 170//166
f 169//184 165//168 166//178
f 167//163 171//173 172//182
f 174//172 178//175 173//165
f 180//177 176//180 179//183
f 166//178 178//175 169//184
f 184//84 183//185 182//73
f 186//186 181//90 183//185
f 187//83 183//185 181//90
f 189//187 182//73 183//185
f 187//83 192//188 189//187
f 189//187 191//86 188//87
f 184//84 192//188 186//186
f 186//186 190//82 185//89
f 194//189 198//190 195//191
f 195//191 197//81 193//80
f 193//80 201//192 195//191
f 195//191 200//154 194//189
f 202//152 201//192 199//145
f 204//193 200//154 201//192
f 203//149 198//190 196//150
f 204//193 197//81 198//190
f 182//73 48//88 184//84
f 206//194 207//195 205//196
f 208//197 209//198 207//195
f 210//199 211//200 209//198
f 212//201 213//202 211//200
f 213//202 216//203 215//204
f 206//194 216//203 212//201
f 215//204 218//205 217//206
f 217//206 206//194 205//196
f 215//204 225//207 224//208
f 221//209 228//210 220//211
f 213//202 222//212 211//200
f 217//206 219//213 225//207
f 209//198 220//211 207//195
f 213//202 224//208 223//214
f 207//195 219//213 205//196
f 211//200 221//209 209//198
f 225//207 227//215 238//216
f 224//208 238//216 236//217
f 223//214 232//218 222//212
f 229//219 233//220 237//221
f 223//214 236//217 234//222
f 222//212 230//223 221//209
f 227//215 229//219 226//224
f 228//210 231//225 229//219
f 230//223 233//220 231//225
f 234//222 233//220 232//218
f 236//217 235//226 234//222
f 238//216 237//221 236//217
f 227//215 239//227 238//216
f 220//211 227//215 219//213
f 242//206 241//228 240//196
f 244//204 243//205 242//206
f 246//202 245//203 244//204
f 248//200 247//229 246//202
f 248//200 251//199 249//201
f 245//203 249//201 253//197
f 250//230 253//197 251//199
f 252//195 241//228 253//197
f 250//230 260//211 252//195
f 263//216 256//208 255//207
f 257//214 248//200 246//202
f 252//195 254//213 240//196
f 255//207 244//204 242//206
f 248//200 259//209 250//230
f 254//213 242//206 240//196
f 256//208 246//202 244//204
f 260//211 262//215 254//213
f 259//209 273//210 260//211
f 267//222 258//212 257//214
f 274//219 270//220 266//221
f 258//212 271//223 259//209
f 265//217 257//214 256//208
f 262//215 264//227 263//216
f 263//216 266//221 265//217
f 265//217 268//226 267//222
f 268//226 269//218 267//222
f 270//220 271//223 269//218
f 272//225 273//210 271//223
f 274//219 262//215 273//210
f 262//215 255//207 254//213
f 1//1 15//21 106//2
f 106//2 15//21 2//4
f 14//6 16//68 107//7
f 13//9 32//65 42//10
f 107//7 16//68 40//12
f 79//14 7//17 17//15
f 17//15 1//1 74//3
f 7//17 18//19 34//18
f 18//19 8//23 19//20
f 34//18 19//20 2//4
f 34//18 54//94 53//22
f 8//23 83//45 110//24
f 110//24 76//5 2//4
f 9//25 20//31 111//26
f 111//26 20//31 5//28
f 9//25 43//78 44//30
f 10//32 22//35 35//33
f 22//35 6//39 23//36
f 35//33 23//36 5//28
f 90//37 113//38 22//35
f 113//38 91//70 6//39
f 86//29 5//28 24//40
f 114//41 24//40 7//17
f 5//28 23//36 36//42
f 23//36 6//39 25//43
f 36//42 25//43 8//23
f 24//40 36//42 18//19
f 6//39 91//70 116//44
f 25//43 116//44 83//45
f 94//46 3//49 26//47
f 117//48 26//47 9//25
f 3//49 27//51 37//50
f 27//51 4//53 28//52
f 28//52 10//32 21//34
f 26//47 37//50 21//34
f 4//53 98//64 119//54
f 28//52 119//54 90//37
f 99//55 11//58 29//56
f 120//57 29//56 3//49
f 11//58 30//60 38//59
f 30//60 12//62 31//61
f 38//59 31//61 4//53
f 29//56 38//59 27//51
f 12//62 103//140 122//63
f 31//61 122//63 98//64
f 32//65 11//58 99//55
f 13//9 16//68 39//67
f 14//6 33//69 39//67
f 33//69 12//62 30//60
f 39//67 30//60 11//58
f 14//6 77//8 125//70
f 125//70 103//140 12//62
f 40//12 41//11 128//71
f 128//71 41//11 42//10
f 123//66 131//72 42//10
f 13//9 41//11 40//12
f 182//73 188//87 49//74
f 21//34 35//33 46//76
f 21//34 45//77 43//78
f 20//31 44//30 46//76
f 137//79 136//153 193//80
f 45//77 46//76 190//82
f 184//84 48//88 50//85
f 188//87 191//86 50//85
f 49//74 50//85 48//88
f 43//78 181//90 185//89
f 46//76 44//30 185//89
f 43//78 45//77 187//83
f 51//91 55//98 56//92
f 34//18 15//21 52//93
f 15//21 1//1 51//91
f 17//15 53//22 51//91
f 54//94 58//96 57//95
f 51//91 53//22 57//95
f 54//94 52//93 56//92
f 106//2 75//101 60//99
f 106//2 76//5 61//100
f 107//7 78//107 73//102
f 72//103 127//143 129//104
f 107//7 130//13 126//106
f 79//14 108//16 80//108
f 74//3 60//99 80//108
f 66//109 80//108 109//110
f 81//111 109//110 82//112
f 109//110 75//101 61//100
f 142//114 143//161 109//110
f 67//113 82//112 110//24
f 61//100 76//5 110//24
f 111//26 85//117 68//115
f 111//26 86//29 64//116
f 133//118 132//147 68//115
f 112//119 88//123 69//120
f 89//122 65//124 88//123
f 64//116 89//122 112//119
f 88//123 113//38 90//37
f 65//124 91//70 113//38
f 86//29 114//41 92//125
f 114//41 79//14 66//109
f 64//116 92//125 115//126
f 89//122 115//126 93//127
f 115//126 81//111 67//113
f 92//125 66//109 81//111
f 65//124 93//127 116//44
f 93//127 67//113 83//45
f 94//46 117//48 95//128
f 117//48 84//27 68//115
f 62//129 95//128 118//130
f 96//131 118//130 97//132
f 87//121 69//120 97//132
f 95//128 68//115 87//121
f 63//133 97//132 119//54
f 97//132 69//120 90//37
f 99//55 120//57 100//134
f 120//57 94//46 62//129
f 70//135 100//134 121//136
f 101//137 121//136 102//138
f 121//136 96//131 63//133
f 100//134 62//129 96//131
f 71//139 102//138 122//63
f 102//138 63//133 98//64
f 99//55 70//135 104//105
f 72//103 104//105 124//141
f 124//141 105//142 73//102
f 101//137 71//139 105//142
f 70//135 101//137 124//141
f 73//102 105//142 125//70
f 71//139 103//140 125//70
f 128//71 127//143 126//106
f 128//71 131//72 129//104
f 129//104 131//72 123//66
f 126//106 127//143 72//103
f 193//80 136//153 138//144
f 87//121 134//148 135//146
f 132//147 134//148 87//121
f 135//146 133//118 85//117
f 134//148 200//154 203//149
f 196//150 194//189 132//147
f 199//145 138//144 139//151
f 137//79 139//151 138//144
f 132//147 194//189 200//154
f 135//146 203//149 196//150
f 139//151 137//79 197//81
f 145//155 144//162 140//156
f 109//110 143//161 141//157
f 75//101 141//157 140//156
f 140//156 142//114 80//108
f 146//158 147//160 143//161
f 140//156 144//162 146//158
f 143//161 147//160 145//155
f 150//165 157//178 158//168
f 158//168 159//167 160//163
f 160//163 151//176 152//164
f 152//164 149//172 150//165
f 150//165 158//168 160//163
f 161//166 164//173 159//167
f 156//169 151//176 160//163
f 152//164 155//177 154//171
f 162//174 153//175 154//171
f 154//171 155//177 156//169
f 156//169 163//170 164//173
f 164//173 161//166 162//174
f 162//174 154//171 156//169
f 153//175 150//165 149//172
f 151//176 156//169 155//177
f 162//174 161//166 158//168
f 160//163 159//167 164//173
f 162//174 157//178 150//165
f 174//172 173//165 166//178
f 166//178 165//168 168//179
f 168//179 167//163 176//180
f 176//180 175//181 174//172
f 174//172 166//178 168//179
f 177//171 174//172 175//181
f 176//180 167//163 172//182
f 170//166 171//173 168//179
f 170//166 169//184 178//175
f 178//175 177//171 180//177
f 180//177 179//183 172//182
f 172//182 171//173 170//166
f 170//166 178//175 180//177
f 169//184 170//166 165//168
f 167//163 168//179 171//173
f 174//172 177//171 178//175
f 180//177 175//181 176//180
f 166//178 173//165 178//175
f 184//84 186//186 183//185
f 186//186 185//89 181//90
f 187//83 189//187 183//185
f 189//187 188//87 182//73
f 187//83 190//82 192//188
f 189//187 192//188 191//86
f 184//84 191//86 192//188
f 186//186 192//188 190//82
f 194//189 196//150 198//190
f 195//191 198//190 197//81
f 193//80 199//145 201//192
f 195//191 201//192 200//154
f 202//152 204//193 201//192
f 204//193 203//149 200//154
f 203//149 204//193 198//190
f 204//193 202//152 197//81
f 182//73 47//75 48//88
f 206//194 208//197 207//195
f 208//197 210//199 209//198
f 210//199 212//201 211//200
f 212//201 214//229 213//202
f 213//202 214//229 216//203
f 210//199 208//197 206//194
f 206//194 218//205 216//203
f 216//203 214//229 212//201
f 212//201 210//199 206//194
f 215//204 216//203 218//205
f 217//206 218//205 206//194
f 215//204 217//206 225//207
f 221//209 230//223 228//210
f 213//202 223//214 222//212
f 217//206 205//196 219//213
f 209//198 221//209 220//211
f 213//202 215//204 224//208
f 207//195 220//211 219//213
f 211//200 222//212 221//209
f 225//207 219//213 227//215
f 224//208 225//207 238//216
f 223//214 234//222 232//218
f 239//227 226//224 229//219
f 229//219 231//225 233//220
f 233//220 235//226 237//221
f 237//221 239//227 229//219
f 223//214 224//208 236//217
f 222//212 232//218 230//223
f 227//215 228//210 229//219
f 228//210 230//223 231//225
f 230//223 232//218 233//220
f 234//222 235//226 233//220
f 236//217 237//221 235//226
f 238//216 239//227 237//221
f 227//215 226//224 239//227
f 220//211 228//210 227//215
f 242//206 243//205 241//228
f 244//204 245//203 243//205
f 246//202 247//229 245//203
f 248//200 249//201 247//229
f 248//200 250//230 251//199
f 241//228 243//205 245//203
f 245//203 247//229 249//201
f 249//201 251//199 253//197
f 253//197 241//228 245//203
f 250//230 252//195 253//197
f 252//195 240//196 241//228
f 250//230 259//209 260//211
f 263//216 265//217 256//208
f 257//214 258//212 248//200
f 252//195 260//211 254//213
f 255//207 256//208 244//204
f 248//200 258//212 259//209
f 254//213 255//207 242//206
f 256//208 257//214 246//202
f 260//211 273//210 262//215
f 259//209 271//223 273//210
f 267//222 269//218 258//212
f 264//227 261//224 274//219
f 274//219 272//225 270//220
f 270//220 268//226 266//221
f 266//221 264//227 274//219
f 258//212 269//218 271//223
f 265//217 267//222 257//214
f 262//215 261//224 264//227
f 263//216 264//227 266//221
f 265//217 266//221 268//226
f 268//226 270//220 269//218
f 270//220 272//225 271//223
f 272//225 274//219 273//210
f 274//219 261//224 262//215
f 262//215 263//216 255//207
